<?xml version="1.0" encoding="UTF-8"?>
<svg id="Layer_1" data-name="Layer 1" xmlns="http://www.w3.org/2000/svg" version="1.1" viewBox="0 0 304.4 293.2">
  <defs>
    <style>
      .cls-1 {
        stroke: #2c2a29;
        stroke-miterlimit: 33.9;
        stroke-width: 9.1px;
      }

      .cls-1, .cls-2, .cls-3 {
        fill-rule: evenodd;
      }

      .cls-1, .cls-3 {
        fill: #2c2a29;
      }

      .cls-2 {
        fill: #fff;
      }

      .cls-2, .cls-3 {
        stroke-width: 0px;
      }
    </style>
  </defs>
  <path class="cls-1" d="M60.2,260.9c0,13.2-4.5,24-10,24s-10-10.8-10-24V35.8c0-13.2,4.5-24,10-24s10,10.8,10,24v225.1Z"/>
  <path class="cls-3" d="M12.9,17.9c-9.2,9.4-9,24.5.4,33.7,9.4,9.1,26.4,16.5,37.9,16.5s28.1-7.4,37.1-16.5c9-9.1,9-24.4,0-33.9C79.4,7.9,62.6.1,51.1.1S22.6,7.8,13.4,17.3l-.5.6h0ZM12.3,167.5c-9.2,9.4-9,24.4.4,33.6,0,0,0,0,0,0,9.4,9.1,26.4,16.5,37.9,16.5s28.1-7.4,37.1-16.5c9-9.1,9-24.4,0-33.9-8.9-9.5-25.7-17.4-37.2-17.4s-28.5,7.7-37.7,17.2l-.5.6h0ZM12.8,243c-9.2,9.4-9,24.5.4,33.7,0,0,0,0,0,0,9.4,9.1,26.4,16.5,37.9,16.5s28.1-7.5,37.1-16.5c9-9.1,9-24.4,0-33.9-8.9-9.5-25.7-17.4-37.2-17.4s-28.5,7.7-37.7,17.2l-.5.5h0Z"/>
  <path class="cls-1" d="M162.2,258.8c0,13.2-4.5,24-10,24s-10-10.8-10-24V36.2c0-13.2,4.5-23.9,10-23.9s10,10.8,10,23.9v222.6h0Z"/>
  <path class="cls-3" d="M115.2,17.7c-9.2,9.4-9,24.5.4,33.6,9.4,9.1,26.4,16.5,37.9,16.5s28.1-7.5,37.1-16.5c9-9.1,9-24.4,0-33.9C181.7,7.8,164.9,0,153.4,0s-28.5,7.7-37.6,17.2l-.6.6ZM114.4,168c-9.2,9.4-9,24.5.4,33.6h0c9.4,9.1,26.4,16.5,37.9,16.5s28.1-7.5,37.1-16.5c9-9.1,9-24.4,0-33.9-9-9.6-25.7-17.4-37.2-17.4s-28.5,7.7-37.6,17.2l-.6.5ZM114.5,243.1c-9.2,9.4-9,24.5.4,33.6,9.4,9.1,26.4,16.5,37.9,16.5s28.1-7.5,37.1-16.6c9-9.1,9-24.4,0-33.9-8.9-9.5-25.7-17.4-37.2-17.4s-28.5,7.7-37.6,17.2l-.6.5h0Z"/>
  <path class="cls-1" d="M264.6,263c0,14.1-4.5,25.6-10,25.6s-10-11.5-10-25.6V56.8c0-14.1,4.5-25.6,10-25.6s10,11.5,10,25.6v206.2Z"/>
  <path class="cls-3" d="M217.3,17.7c-9.2,9.4-9,24.5.4,33.6,9.4,9.1,26.4,16.5,37.9,16.5s28.1-7.5,37.1-16.5c9-9.1,9-24.4,0-33.9S267,0,255.5,0s-28.5,7.7-37.6,17.2l-.5.6ZM216.7,93.1c-9.2,9.4-9,24.5.4,33.6,9.4,9.1,26.4,16.5,37.9,16.5s28.1-7.5,37.1-16.6,9-24.4,0-33.9c-9-9.5-25.7-17.4-37.2-17.4s-28.5,7.7-37.6,17.2l-.6.6ZM217.1,167.8c-9.2,9.4-9,24.5.4,33.7,9.4,9.1,26.4,16.5,37.9,16.5s28.1-7.5,37.1-16.5,9-24.4,0-33.9-25.7-17.4-37.2-17.4-28.5,7.7-37.6,17.2l-.5.5h0Z"/>
  <path class="cls-2" d="M303.8,41.2H3.5v-11.3h300.4v11.3ZM300.9,189H0v-11.3h300.9v11.3ZM200.4,265.5H2v-11.3h198.5v11.3ZM304.4,115h-102.6v-11.3h102.6v11.3Z"/>
</svg>