<?xml version="1.0" encoding="UTF-8"?>
<svg id="Layer_1" data-name="Layer 1" xmlns="http://www.w3.org/2000/svg" version="1.1" viewBox="0 0 139.7 33.3">
  <defs>
    <style>
      .cls-1 {
        fill: #2c2a29;
        stroke-width: 0px;
      }
    </style>
  </defs>
  <path class="cls-1" d="M32.9,31.1h-7.8l-2.4-5.7h-12.9l-2.2,5.7H0L11.6,2.2h8.3l12.9,28.9h0ZM16,9.1l-4.3,11.2h8.9s-4.6-11.2-4.6-11.2Z"/>
  <path class="cls-1" d="M61,2.2h6.3v28.9h-7.2V13.1l-7.8,9.1h-1.1l-7.8-9.1v18h-7.2V2.2h6.3l9.3,10.7,9.3-10.7h-.1Z"/>
  <path class="cls-1" d="M85.5,2.2c10.5,0,16,6.6,16,14.5s-5.2,14.4-16.8,14.4h-12V2.2h12.8ZM79.9,25.8h4.7c7.2,0,9.4-4.9,9.4-9.1s-2.7-9.1-9.5-9.1h-4.6v18.3h0Z"/>
  <polygon class="cls-1" points="130.6 9.1 115.8 9.1 106.7 0 139.7 0 139.7 33 130.6 24 130.6 9.1"/>
  <polygon class="cls-1" points="115.7 24 115.7 10.9 106.4 20.2 106.4 33.3 119.5 33.3 128.8 24 115.7 24"/>
</svg>