<?xml version="1.0" encoding="UTF-8"?>
<svg id="Layer_1" data-name="Layer 1" xmlns="http://www.w3.org/2000/svg" version="1.1" viewBox="0 0 236.5 72.1">
  <defs>
    <style>
      .cls-1 {
        fill: #2c2a29;
        stroke-width: 0px;
      }
    </style>
  </defs>
  <path class="cls-1" d="M53.4,1.9h15.9v68.1h-15.9v-7.1c-7,8.1-15.5,9.2-20.4,9.2C12,72.1,0,54.6,0,35.9S15.2.1,33.2.1s13.8,1.3,20.2,9.7V1.9h0ZM16.2,36.2c0,11.8,7.4,21.7,18.9,21.7s19.3-7.3,19.3-21.5-9.2-22-19.3-22c-11.5,0-18.9,9.7-18.9,21.8ZM88.1,1.9h15.9v6.1c1.8-2.1,4.4-4.4,6.6-5.7,3.1-1.8,6.1-2.3,9.7-2.3s8.1.6,12.5,3.2l-6.5,14.4c-3.6-2.3-6.5-2.4-8.1-2.4-3.4,0-6.8.5-9.9,3.7-4.4,4.7-4.4,11.2-4.4,15.7v35.3h-15.9V1.9h0ZM143,1.9h15.9v6.3C164.2,1.7,170.5,0,175.7,0s13.8,3.4,17.6,10C199,2,207.5,0,213.5,0s15.5,3.9,19.4,10.7c1.3,2.3,3.6,7.3,3.6,17.2v42.1h-15.9v-37.5c0-7.6-.8-10.7-1.5-12.1-1-2.6-3.4-6-9.1-6s-7.3,2.1-9.4,5c-2.8,3.9-3.1,9.7-3.1,15.5v35.1h-15.9v-37.5c0-7.6-.8-10.7-1.5-12.1-1-2.6-3.4-6-9.1-6s-7.3,2.1-9.4,5c-2.8,3.9-3.1,9.7-3.1,15.5v35.1h-15.5V1.9Z"/>
</svg>