<?xml version="1.0" encoding="UTF-8"?>
<svg id="Layer_1" xmlns="http://www.w3.org/2000/svg" xmlns:xlink="http://www.w3.org/1999/xlink" version="1.1" viewBox="0 0 509.4 322.6">
  <!-- Generator: Adobe Illustrator 29.8.2, SVG Export Plug-In . SVG Version: 2.1.1 Build 3)  -->
  <defs>
    <style>
      .st0 {
        mask: url(#mask);
      }

      .st1 {
        fill: #fff;
      }

      .st1, .st2 {
        fill-rule: evenodd;
      }

      .st2 {
        fill: #2a2a2a;
      }
    </style>
    <mask id="mask" x="0" y="0" width="509.4" height="322.6" maskUnits="userSpaceOnUse">
      <g id="prefix__b">
        <path id="prefix__a" class="st1" d="M0,0h509.4v322.6H0V0Z"/>
      </g>
    </mask>
  </defs>
  <g class="st0">
    <path class="st2" d="M421.3,158.2c-2.6,0,0,0,0,0C421.3,73.7,346.1,0,261.6,0s-117.8,37.6-141.7,91h-.8C53.4,91,0,149.9,0,215.6s19.5,83.1,58.7,102.5c6.3-6.5,21.8-6.6,29.8-11-14.1-4.7-25.5-14.2-37.7-23.3-42-31.3-35.7-107.6-8.2-133.4,44.1-41.3,93.2-30.8,93.2-30.8l6.1-13.6c10.2-22.7,30.6-88.5,124-87.4,98.8,1.2,125.7,105.7,125.8,140.5v25c-.1,0,24.4-2.1,24.4-2.1,1.9-.2,3.9-.3,5.7-.3,35.9,0,72.5,27.9,72.5,63.8s-36.6,54.6-72.5,54.6h-202.9c2.3,1.2,25.7,22.5,64.2,22.5h138.7c48.4,0,87.6-27.4,87.6-75.8s-39.7-88.6-88.1-88.6"/>
  </g>
  <path class="st2" d="M356.4,109.8c-9.2-3.5-33-1.1-49.7,5.4-8.2,3.2-14.7,7.4-16.9,12.4-6.1,13.8,31.4,37.7,46.5,33.3,7.2-2.1,17.5-17.4,22.2-30.8,3.2-9.6,3.6-18.2-2.1-20.3M272.5,121.1c-4.3-.5-13.1-1.7-16-4.9-6.3-7.2-16.4-9.1-23.8-7.5-7.8,1.7-12,10.8-6.6,22.1,2.4,5.1,1.8,11.2-.7,15.8,7.7-7.1,14.8-13,20.2-15.8,10.6-5.5,19.9-8.4,26.9-9.7M349.1,225.8s-7.7,26-13,37.9c-4.7,10.5-6.2,9.6-9.6,10.8,1.3-3.2,2.2-7.5,3.9-14.7,2-8.6,0-10.9,0-10.9-2.7,12.9-6.8,22.1-10.3,28.2-4.5,1.5-10.1,2.5-14.2.9-5.7-2.3-6.7-29.3-6.7-30.8,24.9,1.8,38.2-8.4,49.9-21.4M226.3,197.4c.5,2.5,1.1,4.9,1.7,7.1l-.6-.7s.5,1.1,1.2,3.1c1,3.6,2.2,6.9,3.4,9.9,4.1,13.2,8.5,33.4,2,46.1-4.9,9.5-66.9,40.5,39.1,59.2l95.2-22c-41.9-5.7-25.1-27.6-15.1-45.6,12-21.6,16.1-35.4,18.7-55.3,1.6-11.9.4-20.9.1-23,0-.3-.1-.5-.1-.5,0,0,0,.7-.2,1.8l.2-3s-7.6,30.4-22.5,41.3c-3.5,2.5-5.7,4.2-7.1,5.4,1.5-5.7,7.1-29.6-.9-42.7,0,0-3.3,55-32.7,57.9-29.2,3.1-70.5-26.9-82.4-39"/>
  <path class="st2" d="M142,195.6c-1.2,6.6-1.7,12.5-1.5,17.7-5.7,9-46.8,106.8-97.9,62.9,8.7,7.7,16.1,41.8,16.1,41.8,48.1,28.1,81.3-82.1,85.1-89.3,3.1,6.6,8.3,20.1,37.4,20.7,0,0-34.1-16.7-18.9-61s37.7-82,68.6-99.4c30.9-17.4,62.1-16.2,90.8-4,0,0-43.3-39.8-93.1-9.7-28.6,17.3-47.6,36.5-60.7,56.1-11,2-24.3.2-29.8.2s-17.4,4.6-12.6,21.5c4.6,16.5,17.5,33.1,16.5,42.5"/>
</svg>