<svg fill="none" xmlns="http://www.w3.org/2000/svg" viewBox="0 0 36 20"><path d="M36 2.92c0-.775-.3-1.517-.835-2.065A2.818 2.818 0 0 0 33.148 0H22.17c-.756 0-1.481.308-2.016.855a2.955 2.955 0 0 0-.835 2.065v14.16c0 .775.3 1.517.835 2.065.535.547 1.26.855 2.016.855h10.978c.757 0 1.482-.308 2.017-.855.535-.548.835-1.29.835-2.065V2.92ZM13.83 0H2.85C2.095 0 1.37.308.835.855A2.956 2.956 0 0 0 0 2.92c.005.665.23 1.309.642 1.825v.036l10.978 14.16h.035c.267.327.6.59.975.773.375.182.784.28 1.2.286.756 0 1.481-.308 2.016-.855.535-.548.835-1.29.835-2.065V2.92c0-.775-.3-1.517-.835-2.065A2.818 2.818 0 0 0 13.83 0Z" fill="#302D44"/></svg>