<?xml version="1.0" encoding="UTF-8"?>
<svg id="svg1" xmlns="http://www.w3.org/2000/svg" xmlns:svg="http://www.w3.org/2000/svg" xmlns:sodipodi="http://sodipodi.sourceforge.net/DTD/sodipodi-0.dtd" xmlns:inkscape="http://www.inkscape.org/namespaces/inkscape" version="1.1" viewBox="0 0 72.6 72.6">
  <!-- Generator: Adobe Illustrator 29.8.2, SVG Export Plug-In . SVG Version: 2.1.1 Build 3)  -->
  <defs>
    <style>
      .st0 {
        stroke: #000;
        stroke-linecap: round;
        stroke-miterlimit: 11.3;
        stroke-width: .8px;
      }

      .st0, .st1 {
        fill: #fff;
      }

      .st2 {
        fill: #a3a2a2;
      }

      .st3 {
        fill: #d3d1cf;
      }
    </style>
  </defs>
  <sodipodi:namedview id="namedview1" bordercolor="#cccccc" borderopacity="1" inkscape:current-layer="layer1" inkscape:cx="46.83473" inkscape:cy="39.700963" inkscape:deskcolor="#d1d1d1" inkscape:document-units="mm" inkscape:pagecheckerboard="0" inkscape:pageopacity="1" inkscape:showpageshadow="0" inkscape:window-height="1131" inkscape:window-maximized="1" inkscape:window-width="1920" inkscape:window-x="0" inkscape:window-y="32" inkscape:zoom="11.284361" pagecolor="#888888"/>
  <g id="layer1" inkscape:groupmode="layer" inkscape:label="Layer 1">
    <g id="g424">
      <path id="path429-0-1-7" class="st2" d="M70,4.8c-.2,0-.5.2-.8.6-6.8,10.2-16.8,14.8-24,16.7,5.5.4,9.8,5.1,9.8,10.8,0,6-4.8,10.9-10.6,10.9h0c-4.7,0-8.9-3.2-10.2-7.9-1.1,3.6-4.2,6-7.6,6.1-4.5,0-8.1-4.1-8.1-9.1h0c0-5,3.6-9.1,8.1-9.1,3.5,0,6.5,2.5,7.6,6.2.8-3,2.9-5.5,5.7-6.9-5.7.7-8.7,0-13.1-2-3.1-1.7-5.2-3.5-7.5-7.1-.1-.2-.3-.3-.5,0-.5.7-2.9,17.3-3,18.8,0,4.9-2.1,10.9-8.3,11.1,5.6,11.5,17.9,16.5,32,16.3,4.2,0,10.1-1,15.6-3.8-1.8-1.1-3.9-2.5-4.7-3,0,0,0,0,0,0-4.1,2.4-8.9,3.3-14.1,3.1-6.7-.3-5.6-2.2-4.1-2,10.8,1.5,17.6-1.9,22.1-7.7-.5-.3-1.1-.8-1.7-1.1-.5-.3,0-.9,1.2-.9,0,0,0,0,.1,0,.6,0,1.4.2,2.2.6,2.3,1.3,2.4,2.9,1.6,3.3-.2.1-.8-.1-1.3-.5-.8,1-1.6,1.9-2.5,2.7h0c2,.9,4.7,2.1,6.1,2.7,3.6-2.6,6.8-6.2,9.1-10.8,6.6-13.5,2-36.8,1.9-37.2s-.5-.6-.7-.7h-.2Z"/>
      <path id="path435-5-7-4" class="st3" d="M61.7,55c0,0-.2,0-.3,0-.8.2-1.9,2.2-1.7,3.1.2.8,1.1.5,1.6.7.5.3.6,1,1.2,1,0,1.3.4,2.7,1.2,3.7,1.4,1.7,3.6,1.7,4.9,2.1,1.4.3,2.4,1.2,2.9,2.1h0c.4.8,1.2-2.9.9-5.5-.6-5.1-5.5-6.9-8-5.6-.3-.7-1.1-.3-1.5-.6-.4-.2-.6-1-1.2-1h0Z"/>
    </g>
    <path id="ellipse430-9-4-6" class="st0" d="M44.3,22c-4.7,0-8.9,3.2-10.2,7.9-1.1-3.6-4.2-6.1-7.6-6.1-4.5,0-8.1,4.1-8.1,9.1,0,5,3.6,9.1,8.1,9.1,3.4,0,6.5-2.4,7.6-6,1.3,4.6,5.5,7.8,10.2,7.8,5.9,0,10.6-4.9,10.6-10.9,0-6-4.8-10.9-10.6-10.9Z" sodipodi:nodetypes="cccssccsc"/>
    <circle id="circle431-6-0-4" class="st1" cx="28.2" cy="29.9" r="2.2"/>
    <circle id="circle432-2-1-9" class="st1" cx="6.1" cy="29.1" r="3.8"/>
    <path id="ellipse432-9-2-4-0" d="M6.1,24.8c-.3,0-.6,0-.9.1-3.7.8-5.9,5.3-5,10.1,0,0,0,0,0,0,1,4.8,4.8,8.1,8.5,7.3,0,0,0,0,0,0,3.7-.8,5.9-5.3,5-10.1-.9-4.4-4.2-7.5-7.6-7.4h0ZM6.1,25.4c2.1,0,3.8,1.7,3.8,3.8h0c0,2.1-1.7,3.8-3.8,3.8h0c-2.1,0-3.8-1.7-3.8-3.8,0,0,0,0,0,0,0-2.1,1.7-3.8,3.8-3.8h0Z"/>
    <path id="ellipse431-4-3-1-8" d="M28.2,27.3c-2.7,0-4.9,2.7-4.9,5.9h0c0,3.3,2.2,5.9,4.9,5.9h0c2.7,0,4.9-2.7,4.9-5.9h0c0-3.3-2.2-5.9-4.9-5.9,0,0,0,0,0,0ZM28.2,27.7c1.2,0,2.2,1,2.2,2.2,0,1.2-1,2.2-2.2,2.2-1.2,0-2.2-1-2.2-2.2,0-1.2,1-2.2,2.2-2.2Z"/>
    <path id="ellipse436-1-15-1-9" d="M46.9,26c-3.6,0-6.6,3.2-6.6,7.2,0,4,2.9,7.2,6.6,7.2h0c3.6,0,6.6-3.2,6.6-7.2h0c0-4-2.9-7.2-6.6-7.2ZM46.9,26.5c1.6,0,2.8,1.3,2.8,2.8,0,1.6-1.3,2.8-2.8,2.8-1.6,0-2.8-1.3-2.8-2.8,0-1.6,1.3-2.8,2.8-2.8Z"/>
    <circle id="circle436-2-6-9" class="st1" cx="46.9" cy="29.3" r="2.8"/>
  </g>
</svg>