<?xml version="1.0" encoding="UTF-8"?>
<svg id="Layer_1" data-name="Layer 1" xmlns="http://www.w3.org/2000/svg" xmlns:figma="http://www.figma.com/figma/ns" version="1.1" viewBox="0 0 44 51">
  <defs>
    <style>
      .cls-1 {
        fill: #2c2a29;
        stroke-width: 0px;
      }
    </style>
  </defs>
  <g id="Canvas" figma:type="canvas">
    <g id="Group" figma:type="group">
      <g id="Group-2" figma:type="group">
        <g id="Group-3" figma:type="group">
          <g id="g" figma:type="group">
            <g id="path" figma:type="group">
              <g id="path9_fill" data-name="path9 fill" figma:type="vector">
                <path id="path0_fill" data-name="path0 fill" class="cls-1" d="M2.3,26.8c0,1.6,0,2.1-.4,2.4-.4.3-.8.5-1.3.5v.9c.9,0,1.6-.3,2.2-.7.3-.4.5-.8.7-1.3,0-.5.2-.9,0-1.4v-5.9h-1.2v5.4h-.1Z"/>
              </g>
            </g>
            <g id="path-2" figma:type="group">
              <g id="path10_fill" data-name="path10 fill" figma:type="vector">
                <path id="path1_fill" data-name="path1 fill" class="cls-1" d="M11.2,26.1v1.8h-1.1v-1.1c-.3.4-.6.7-1,.9-.4.2-.8.3-1.2.3-1,0-2.3-.6-2.3-2.8v-3.8h1.2v3.6c0,1.2.4,2.1,1.5,2.1s.4,0,.6-.1c.2,0,.4-.2.5-.4.2-.2.3-.3.4-.5,0-.2.1-.4.1-.6v-4h1.2v4.7h.1Z"/>
              </g>
            </g>
            <g id="path-3" figma:type="group">
              <g id="path11_fill" data-name="path11 fill" figma:type="vector">
                <path id="path2_fill" data-name="path2 fill" class="cls-1" d="M13.4,23.5v-2.1h1.1v1.1c.3-.4.6-.7,1-1,.4-.2.9-.3,1.3-.3,1.6,0,2.8,1.3,2.8,3.3s-1.4,3.5-3,3.5-.8,0-1.1-.2c-.4-.2-.7-.4-.9-.8h0v3.6h-1.2v-7h0ZM14.6,25.3v.5c.1.4.3.7.7,1,.3.2.7.4,1.1.4,1.3,0,2-1,2-2.5s-.7-2.4-1.9-2.4-1,.3-1.3.6-.5.8-.6,1.3c0,0,0,1.1,0,1.1Z"/>
              </g>
            </g>
            <g id="path-4" figma:type="group">
              <g id="path12_fill" data-name="path12 fill" figma:type="vector">
                <path id="path3_fill" data-name="path3 fill" class="cls-1" d="M21.7,21.4l1.4,3.8c.2.4.3.9.4,1.3.1-.4.3-.9.4-1.4l1.3-3.8h1.3l-1.8,4.6c-.9,2.2-1.4,3.4-2.3,4.1-.4.4-.9.6-1.5.8l-.3-1c.4-.1.7-.3,1-.6.4-.4.8-.8,1-1.3v-.6l-2.4-6h1.5Z"/>
              </g>
            </g>
            <g id="path-5" figma:type="group">
              <g id="path13_fill" data-name="path13 fill" figma:type="vector">
                <path id="path4_fill" data-name="path4 fill" class="cls-1" d="M29.7,19.5v1.9h1.7v.9h-1.7v3.5c0,.8.2,1.3.9,1.3h.7v.9c-.3.1-.6.2-1,.2s-.5,0-.7-.1c-.2,0-.4-.2-.6-.4-.4-.5-.5-1.1-.5-1.7v-3.6h-1v-.9h1v-1.6l1.2-.3h0Z"/>
              </g>
            </g>
            <g id="path-6" figma:type="group">
              <g id="path14_fill" data-name="path14 fill" figma:type="vector">
                <path id="path5_fill" data-name="path5 fill" class="cls-1" d="M33.6,24.9c0,.3,0,.6,0,.9s.3.5.5.8c.2.2.5.4.8.5s.6.1.9.1c.6,0,1.2-.1,1.8-.3l.2.9c-.7.3-1.4.4-2.2.4s-.9,0-1.3-.2c-.4-.2-.8-.4-1.1-.7-.3-.3-.5-.7-.7-1.1,0-.4-.2-.8-.2-1.3,0-2,1.2-3.5,3.1-3.5s2.7,1.9,2.7,3.1v.6h-4.6v-.2ZM37.1,24v-.7c0-.2-.2-.4-.3-.6-.2-.2-.4-.3-.6-.4-.2-.1-.5-.2-.7-.2-.5,0-.9.3-1.3.6-.3.4-.5.8-.5,1.3h3.5-.1Z"/>
              </g>
            </g>
            <g id="path-7" figma:type="group">
              <g id="path15_fill" data-name="path15 fill" figma:type="vector">
                <path id="path6_fill" data-name="path6 fill" class="cls-1" d="M40,23.4v-2h1.1v1.3h0c0-.4.3-.7.7-1,.3-.3.7-.4,1.1-.4h.3v1.1h-.4c-.4,0-.8.2-1.1.5s-.5.7-.5,1.1v4.1h-1.2v-4.5h0v-.2Z"/>
              </g>
            </g>
          </g>
        </g>
        <g id="g-2" figma:type="group">
          <g id="path-8" figma:type="group">
            <g id="path16_fill" data-name="path16 fill" figma:type="vector">
              <path id="path7_fill" data-name="path7 fill" class="cls-1" d="M39.5,3.5c0,.6,0,1.2-.4,1.7-.3.5-.8.9-1.3,1.2-.5.3-1.1.4-1.7.3-.6,0-1.1-.3-1.6-.7-.4-.4-.8-.9-.9-1.5,0-.6,0-1.2,0-1.8.2-.6.6-1.1,1.1-1.4.5-.4,1.1-.6,1.7-.6s.8,0,1.2.2c.4,0,.7.3,1,.6s.5.6.7.9.3.7.3,1.1h0Z"/>
            </g>
          </g>
          <g id="path-9" figma:type="group">
            <g id="path17_fill" data-name="path17 fill" figma:type="vector">
              <path id="path8_fill" data-name="path8 fill" class="cls-1" d="M21.9,38.4c-8,0-15.1-2.9-18.7-7.1,1.4,3.8,4,7.1,7.3,9.4s7.3,3.6,11.4,3.6,8-1.2,11.4-3.6c3.3-2.3,5.9-5.6,7.3-9.4-3.6,4.2-10.6,7.1-18.7,7.1Z"/>
            </g>
          </g>
          <g id="path-10" figma:type="group">
            <g id="path18_fill" data-name="path18 fill" figma:type="vector">
              <path id="path9_fill-2" data-name="path9 fill-2" class="cls-1" d="M21.9,10.8c8,0,15.1,2.9,18.7,7.1-1.4-3.8-4-7.1-7.3-9.4-3.3-2.3-7.3-3.6-11.4-3.6s-8,1.2-11.4,3.6c-3.3,2.3-5.9,5.6-7.3,9.4,3.6-4.3,10.6-7.1,18.7-7.1Z"/>
            </g>
          </g>
          <g id="path-11" figma:type="group">
            <g id="path19_fill" data-name="path19 fill" figma:type="vector">
              <path id="path10_fill-2" data-name="path10 fill-2" class="cls-1" d="M10.9,46.7c0,.8-.1,1.5-.5,2.2s-.9,1.2-1.6,1.5c-.7.3-1.4.4-2.2.3-.7,0-1.4-.4-2-.9s-1-1.2-1.1-1.9c-.2-.7,0-1.5,0-2.2.3-.7.7-1.3,1.3-1.8.6-.4,1.3-.7,2.1-.7s1,0,1.5.2c.5.2.9.4,1.3.8.4.3.7.7.9,1.2.2.4.3.9.4,1.4h-.2Z"/>
            </g>
          </g>
          <g id="path-12" figma:type="group">
            <g id="path20_fill" data-name="path20 fill" figma:type="vector">
              <path id="path11_fill-2" data-name="path11 fill-2" class="cls-1" d="M4.1,9.8c-.4,0-.9-.1-1.2-.3-.4-.2-.7-.6-.8-1-.2-.4-.2-.8-.2-1.3s.3-.8.6-1.1c.3-.3.7-.5,1.1-.6h1.3c.4.2.8.4,1,.8.3.3.4.8.4,1.2,0,.6-.2,1.2-.6,1.6-.4.4-.9.7-1.5.7h0Z"/>
            </g>
          </g>
        </g>
      </g>
    </g>
  </g>
</svg>