<?xml version="1.0" encoding="UTF-8"?>
<svg id="Layer_1" xmlns="http://www.w3.org/2000/svg" xmlns:sodipodi="http://sodipodi.sourceforge.net/DTD/sodipodi-0.dtd" xmlns:rdf="http://www.w3.org/1999/02/22-rdf-syntax-ns#" xmlns:inkscape="http://www.inkscape.org/namespaces/inkscape" xmlns:dc="http://purl.org/dc/elements/1.1/" xmlns:cc="http://creativecommons.org/ns#" version="1.1" viewBox="0 0 256 256">
  <!-- Generator: Adobe Illustrator 29.8.2, SVG Export Plug-In . SVG Version: 2.1.1 Build 3)  -->
  <defs>
    <style>
      .st0 {
        fill: #0d0d0d;
      }
    </style>
  </defs>
  <sodipodi:namedview bordercolor="#666666" borderopacity="1" gridtolerance="10" guidetolerance="10" inkscape:current-layer="g6108" inkscape:cx="-76.887261" inkscape:cy="77.464272" inkscape:document-rotation="0" inkscape:pageopacity="0" inkscape:pageshadow="2" inkscape:window-height="1014" inkscape:window-maximized="1" inkscape:window-width="1920" inkscape:window-x="0" inkscape:window-y="36" inkscape:zoom="1.3037281" objecttolerance="10" pagecolor="#ffffff" showgrid="false"/>
  <path id="Shape" class="st0" d="M178.4,23.8c-1.7-1.7-3.4-2.4-4.8-2.4s-3.6,1.3-4.6,2.9c3.9,11.9,3.8,15.9.6,19.1-.8.8-2,1.3-3.5,1.3s-4.8-.9-8.4-3.3c-8.5-6.7-19-10.6-30.6-10.6-27.5,0-49.7,22.4-49.7,50s5.7,26.6,14.9,35.7c.4.4.7.9,1.1,1.3,24.2,24.3,26.6,26.8,7.3,46.7-8.2,7.3-13.4,18-13.4,29.9,0,22.1,17.9,40,39.8,40s39.8-17.9,39.8-40-5.2-22.6-13.4-30c-19.3-19.8-16.8-22.3,7.3-46.6.4-.4.7-.9,1.1-1.3,9.2-9,14.9-21.7,14.9-35.7s-.8-10.1-2.2-14.6c1.4-.8,2.6-1.8,4-3.1,10.4-10.5,10.9-28.2,0-39.4ZM127,70.7c5.7,0,10.2,4.6,10.2,10.3s-4.6,10.3-10.2,10.3-10.2-4.6-10.2-10.3,4.6-10.3,10.2-10.3ZM127,202.2c-4.3,0-7.6-3.4-7.6-7.8s3.5-7.7,7.6-7.7,7.6,3.5,7.6,7.7-3.5,7.8-7.6,7.8Z"/>
</svg>