<?xml version="1.0" encoding="UTF-8"?>
<svg id="Layer_1" xmlns="http://www.w3.org/2000/svg" xmlns:sodipodi="http://sodipodi.sourceforge.net/DTD/sodipodi-0.dtd" xmlns:rdf="http://www.w3.org/1999/02/22-rdf-syntax-ns#" xmlns:inkscape="http://www.inkscape.org/namespaces/inkscape" xmlns:dc="http://purl.org/dc/elements/1.1/" xmlns:cc="http://creativecommons.org/ns#" version="1.1" viewBox="0 0 256 256">
  <!-- Generator: Adobe Illustrator 29.8.2, SVG Export Plug-In . SVG Version: 2.1.1 Build 3)  -->
  <defs>
    <style>
      .st0 {
        fill: #0d0d0d;
      }
    </style>
  </defs>
  <sodipodi:namedview bordercolor="#666666" borderopacity="1" gridtolerance="10" guidetolerance="10" inkscape:current-layer="g6108" inkscape:cx="-76.887261" inkscape:cy="77.464272" inkscape:document-rotation="0" inkscape:pageopacity="0" inkscape:pageshadow="2" inkscape:window-height="1014" inkscape:window-maximized="1" inkscape:window-width="1920" inkscape:window-x="0" inkscape:window-y="36" inkscape:zoom="1.3037281" objecttolerance="10" pagecolor="#ffffff" showgrid="false"/>
  <path id="path1533" class="st0" d="M56.8,64.9c1.4-1.6,2.9-3.8,1.9-5.8,5.6-3.3,10.5-7.6,14.5-12.7-2.2,1.7-4.6,3.1-7.1,4.2,19.1-18.8,47.8-27.4,74.1-22.1-21.2-.8-42.8,4.8-60.4,16.8-17.6,11.9-30.9,30.2-36.1,50.8,7.8-22.6,24.2-42,45.1-53.5-1.6,1.7-3.3,3.4-5,5.1,8-3.3,15.2-8.2,23.1-11.7,23.3-10.2,51.2-6.3,72.9,6.9,21.7,13.2,37.3,35,46.3,58.7,4,10.4,6.8,21.9,3.2,32.4-.8-13.7-5.3-26.9-11.1-39.3-9.7-20.7-23.5-40-43-51.9-19.5-11.8-45.2-14.9-65.1-3.8,10.2-1.1,20.5-1.7,30.6-.2,19,2.7,36.6,12.6,50,26.4,13.3,13.8,22.5,31.3,27.9,49.7,5.3,18,7,37.8.2,55.3,19.8-32,16.5-76.5-7.7-105.2-10.1-12-23.2-21.2-37.4-27.9-16.3-7.7-34.3-12.1-52.3-11.6-18,.5-36.1,6.1-50.4,17,12-10.6,27.5-16.5,43.4-18.2,15.9-1.6,32,1,47.1,6.1,31.4,10.7,60,34.2,69.2,66,2.3,8.2,3.4,16.6,4.3,25.1.8,7.3,1.4,14.6,1.3,22-.7,36.4-24,72-57.9,85.3-9.6,3.7-19.8,5.8-30,7.2-16.3,2.3-33.3,3-49-1.9-8.1-2.5-15.7-6.5-22.7-11.3-29.1-19.9-47.5-54.6-47.5-89.9s.5-12.5,1.4-18.7c.7-5.7,1.7-11.3,3.4-16.8,2.5-8.1,6.4-15.7,11.5-22.4.9-.5,1.8-1.1,2.6-1.7-11.8,25-18.8,54.4-8,79.9-3.9-16.6-4.1-34-.7-50.6,1.1-.4,2.2-.8,3.2-1.3,0-1.1,0-2.1.1-3.2-.8.9-1.5,1.8-2.3,2.6,1.8-13.2,7.5-25.7,16-35.8M64.8,64.2c3.1-2.1,6.2-4.2,9.3-6.3-1.9,3.9-5.5,7-9.7,8.4-19.4,20.1-25.4,50-23.1,77.8.9,10.5,3,21.4,9.8,29.5-4.7-19.4-5-39.9-.6-59.5.8,0,1.1,1,1.1,1.9.3,13.1-1.9,26.2-.9,39.3.9,13.1,5.8,26.8,16.8,34,8.6,5.6,17.1,11.2,25.6,16.7-19.9-6.4-37.3-20.2-48.1-38.1,2.9,7.8,6.9,15.2,11.9,21.9-.6-1.8-1.2-3.6-1.9-5.5,5,4.7,10.1,9.4,15.1,14,3.7,3.4,9.5,6.9,13.2,3.6.6,1.2-.5,2.8-1.8,3.1-1.3.4-2.8,0-4.1-.4,6,4.3,12.3,8.3,18.8,12-.9.1-1.2,1.5-.6,2.3.6.8,1.6,1,2.5,1.2,23.8,5.1,49.1,3.2,71.8-5.5-19.5,4.6-40.3,5.6-59.3-1-16-5.6-30-16.6-39.1-30.8-2.9-4.6-5.4-9.4-7.6-14.3-7.2-16.2-11.8-34-10.5-51.7,1.3-17.7,9.1-35.4,23-46.4,1.4-1.1,3.2-2.2,5-1.8-13.7,10-21.9,26.4-24.1,43.3-2.1,16.9,1.3,34,7.5,49.9,4.4,11.2,10.2,22.1,18.2,31,3.4,3.8,7.3,7.3,11.8,10,8.1,4.9,17.7,6.7,27.1,7.9,12.8,1.6,25.7,2.3,38.6,2-16.3,3.8-33.3,1.1-49.8-1.6,28,10.5,60.8,4.1,84.9-13.6,4.8-3.5,9.3-7.5,12.9-12.2,5.6-7.3,8.9-16.1,10.6-25.2,4.4-23.5-1.9-48.1-13.3-69.1-7.9-14.6-18.4-28.2-32.3-37.4-12.9-8.6-28.3-13.1-43.8-13.9-23.8-1.4-49,6.5-64.8,24.4M111.6,226c10.7,2.7,21.5,4.6,32.5,5.9-13.4,3.1-27.3-1.6-40.3-6.3-7.7-2.7-15.4-5.5-22.6-9.5-17.2-9.6-30.2-25.9-37.7-44.2-1.3-3.2-2.5-6.5-3.5-9.8-.1-.4-.4.5,0,.3.4-.1.3-.7.1-1.1-4.5-10.8-7.2-22.4-8.1-34.1-.8,17.6,3.5,35.4,11.5,51.1,8.7,17.2,21.7,32.3,38,42.5,16.3,10.2,35.9,15.4,55,13.5,26.9-2.6,50.5-18.3,72.2-34.4-9.6,12.6-24.1,20.5-38.1,27.8,24.4-6.8,43.9-26.1,55.6-48.5-5.8,10-14.9,17.8-24.9,23.7-10,5.9-20.9,10-31.8,13.9-4.8,1.7-9.6,3.4-14.5,4.8-14.1,4-28.9,5.4-43.5,4.1M211.2,192.3c2.5-2.3,4.9-4.7,6.9-7.4,3.1-4.3,5.2-9.4,7.2-14.3,2.7-6.8,5.4-13.6,6.1-20.9-1.3,1.1-1.7,2.8-2.2,4.5-6.6,23-23,43-44.3,53.9,10-2.2,18.6-8.8,26.2-15.8M89.4,216.7c1,.2,2.3.7,2.4,1.7.4-.7,1.6-.7,2,0,.2,0,0-.4-.2-.5-1.5-.8-3-1.6-4.4-2.4-6-3.2-11.6-7.3-16.5-12-.6,1.3-.1,2.9,1,3.7,2.2,1.6,4.4,3.2,6.6,4.8,2.6,2.2,5.8,3.8,9.1,4.6M233.3,141.4c-.2,3.7-.4,7.4-.6,11.1,0,.5,0,1,0,1.5,0,.9-.1,1.8-.2,2.6,0,1.1,0,2.1,0,3.2,2.1-8.5,2.8-17.3,2.2-26-.2-.1-.5-.2-.7-.4-.1,2.6-.3,5.3-.5,8M39.7,86.8c-.3.6-.6,1.3-.9,1.9.3.4,1-.1,1.1-.6.1-.5.3-1.2.8-1.2-.2-.3-.5-.5-.7-.7-.1.2-.2.5-.1.7M75.9,45.5c.5-.4,1-.8,1.5-1.2-.8-.3-1.9,0-2.3,1,.2.1.5.2.8.2M77.4,43.2c1.1.2,2.3,0,3.2-.8-1.1,0-2.3.2-3.2.8M37.8,93.7c0-.2-.1-.5-.1-.7-.9.3-1.4,1.6-.8,2.5.2-.6.5-1.2.9-1.8M32.2,119.1c-.2.3,0,.9.4,1,.2-.8.2-1.6,0-2.5-.5.2-.6.9-.3,1.4"/>
</svg>