<?xml version="1.0" encoding="UTF-8"?>
<svg id="Layer_1" data-name="Layer 1" xmlns="http://www.w3.org/2000/svg" version="1.1" viewBox="0 0 94 99">
  <defs>
    <style>
      .cls-1 {
        fill: #2c2a29;
      }

      .cls-1, .cls-2 {
        stroke-width: 0px;
      }

      .cls-2 {
        fill: #fff;
      }
    </style>
  </defs>
  <path class="cls-1" d="M94,65l-13.5-15.5,13.5-15.5-20-4,2-20.5-18.5,8L47,0l-10.5,17.5-18.5-8,2,20.5L0,34l13.5,15.5L0,65l20,4-2,20.5,18.5-8,10.5,17.5,10.5-17.5,18.5,8-2-20.5"/>
  <path class="cls-2" d="M58.5,34s-4.5,3-11.5,3-11-3-11-3c0,0,1,5-.5,11.5-1.5,4-3.5,7-6.5,9.5,0,0,6,1,10.5,4,4.5,3.5,7.5,9.5,7.5,9.5,0,0,2.5-6,7-9,4.5-3.5,11-4,11-4,0,0-4.5-5.5-6.5-10-2-5,0-11.5,0-11.5ZM52,56c-3,2-5,5.5-5,5.5l-5-5.5-6.5-2.5s2.5-3.5,3.5-7c1-2,1-4.5,1-7,0,0,3.5,1.5,7,1.5s7-1.5,7-1.5c0,0-1,4,.5,7.5,1,3,4,6.5,4,6.5l-6.5,2.5ZM66,42.5c-1-3.5,2.5-22.5,2.5-22.5,0,0-13,9-22,9s-21-9-21-9c0,0,4,13.5,1.5,22.5-2,8.5-14.5,18.5-14.5,18.5,0,0,16,.5,22,5,6.5,4,12.5,20,12.5,20,0,0,8-17.5,11.5-20s23-5.5,23-5.5c0,0-14-14-15.5-18ZM56.5,63c-6.5,4-9.5,14-9.5,14,0,0-5-11-10-14.5s-16-4.5-16-4.5c0,0,8.5-7,10.5-14,2-6.5-.5-16.5-.5-16.5,0,0,9,5.5,15.5,5.5s16.5-5.5,16.5-5.5c0,0-3,10.5-.5,16.5,2,6.5,10.5,14,10.5,14,0,0-10,.5-16.5,5"/>
</svg>