<?xml version="1.0" encoding="UTF-8"?>
<svg xmlns="http://www.w3.org/2000/svg" xmlns:xlink="http://www.w3.org/1999/xlink" version="1.1" viewBox="0 0 526.6 500.9">
  <defs>
    <style>
      .cls-1 {
        fill: url(#linear-gradient);
      }

      .cls-1, .cls-2, .cls-3, .cls-4, .cls-5, .cls-6, .cls-7, .cls-8 {
        stroke-width: 0px;
      }

      .cls-2 {
        fill: #2c2a29;
      }

      .cls-3 {
        fill: url(#linear-gradient-4);
      }

      .cls-4 {
        fill: url(#linear-gradient-2);
      }

      .cls-5 {
        fill: url(#linear-gradient-3);
      }

      .cls-6 {
        fill: url(#linear-gradient-7);
      }

      .cls-7 {
        fill: url(#linear-gradient-5);
      }

      .cls-8 {
        fill: url(#linear-gradient-6);
      }

      .cls-9 {
        display: none;
      }
    </style>
    <linearGradient id="linear-gradient" x1="257" y1="323.2" x2="556.5" y2="265" gradientTransform="translate(0 -96.9)" gradientUnits="userSpaceOnUse">
      <stop offset="0" stop-color="#0f6067"/>
      <stop offset=".5" stop-color="#05abac"/>
      <stop offset="1" stop-color="#58bec4"/>
    </linearGradient>
    <linearGradient id="linear-gradient-2" x1="466.7" y1="599.3" x2="509.5" y2="110" gradientTransform="translate(0 -96.9)" gradientUnits="userSpaceOnUse">
      <stop offset="0" stop-color="#117c83"/>
      <stop offset=".5" stop-color="#21b5b5"/>
      <stop offset="1" stop-color="#7ed4d4"/>
    </linearGradient>
    <linearGradient id="linear-gradient-3" x1="218.9" y1="118.2" x2="106" y2="465.7" gradientTransform="translate(0 -96.9)" gradientUnits="userSpaceOnUse">
      <stop offset="0" stop-color="#9accd3"/>
      <stop offset=".5" stop-color="#72aeb3"/>
      <stop offset="1" stop-color="#317d7f"/>
    </linearGradient>
    <linearGradient id="linear-gradient-4" x1="-26.9" y1="514.9" x2="162.6" y2="453.3" gradientTransform="translate(0 -96.9)" gradientUnits="userSpaceOnUse">
      <stop offset="0" stop-color="#21626e"/>
      <stop offset=".5" stop-color="#157c84"/>
      <stop offset="1" stop-color="#03a3a5"/>
    </linearGradient>
    <linearGradient id="linear-gradient-5" x1="121.3" y1="241.6" x2="-121.3" y2="467.8" gradientTransform="translate(0 -96.9)" gradientUnits="userSpaceOnUse">
      <stop offset="0" stop-color="#0b7c81"/>
      <stop offset=".5" stop-color="#068d90"/>
      <stop offset="1" stop-color="#16b1b1"/>
    </linearGradient>
    <linearGradient id="linear-gradient-6" x1="345.6" y1="517.6" x2="469.6" y2="417.2" gradientTransform="translate(0 -96.9)" gradientUnits="userSpaceOnUse">
      <stop offset="0" stop-color="#0a8a8f"/>
      <stop offset=".5" stop-color="#0f7c82"/>
      <stop offset="1" stop-color="#1a5964"/>
    </linearGradient>
    <linearGradient id="linear-gradient-7" x1="533.2" y1="394.2" x2="401.4" y2="311.8" gradientTransform="translate(0 -96.9)" gradientUnits="userSpaceOnUse">
      <stop offset="0" stop-color="#256a77"/>
      <stop offset=".5" stop-color="#0d9499"/>
      <stop offset="1" stop-color="#06a0a2"/>
    </linearGradient>
  </defs>
  <g id="Ebene_1" data-name="Ebene 1" class="cls-9">
    <g>
      <path class="cls-1" d="M368.6,14.6h158.1l-211.3,390.3s-35.6-103.4-50.9-140.3"/>
      <path class="cls-4" d="M407.6,497.2h119.1V14.6c-.1,252.2-106.1,482.6-119.1,482.6Z"/>
      <path class="cls-5" d="M315.4,404.9h-98.3L0,14.6C38.5,9.7,115.4,3.1,153.5,0l161.9,404.9Z"/>
      <path class="cls-3" d="M125.9,250.8C93.3,379.6-.1,501,0,500.9c108.2,0,131.5-15.7,131.5-24v-216.3c-1.9-3.2-3.7-6.5-5.6-9.8Z"/>
      <path class="cls-7" d="M0,14.6v486.3c59.2-97.8,93.7-161.8,124.2-253C49,114.9,0,14.6,0,14.6Z"/>
      <polyline class="cls-8" points="399.4 478.1 407.6 497.2 407.6 243.8 399.4 257.5"/>
      <path class="cls-6" d="M407.2,244.3v252.1l.3.8c8.5,0,119.1-272.8,119.1-482.6s-67.5,140.8-119.4,229.7Z"/>
    </g>
  </g>
  <g id="Ebene_1_copy" data-name="Ebene 1 copy">
    <g>
      <path class="cls-2" d="M368.6,14.6h158.1l-211.3,390.3s-35.6-103.4-50.9-140.3"/>
      <path class="cls-2" d="M407.6,497.2h119.1V14.6c-.1,252.2-106.1,482.6-119.1,482.6Z"/>
      <path class="cls-2" d="M315.4,404.9h-98.3L0,14.6C38.5,9.7,115.4,3.1,153.5,0l161.9,404.9Z"/>
      <path class="cls-2" d="M125.9,250.8C93.3,379.6-.1,501,0,500.9c108.2,0,131.5-15.7,131.5-24v-216.3c-1.9-3.2-3.7-6.5-5.6-9.8Z"/>
      <path class="cls-2" d="M0,14.6v486.3c59.2-97.8,93.7-161.8,124.2-253C49,114.9,0,14.6,0,14.6Z"/>
      <polyline class="cls-2" points="399.4 478.1 407.6 497.2 407.6 243.8 399.4 257.5"/>
      <path class="cls-2" d="M407.2,244.3v252.1l.3.8c8.5,0,119.1-272.8,119.1-482.6s-67.5,140.8-119.4,229.7Z"/>
    </g>
  </g>
</svg>