<?xml version="1.0" encoding="UTF-8"?>
<svg id="Layer_1" data-name="Layer 1" xmlns="http://www.w3.org/2000/svg" version="1.1" viewBox="0 0 800 800">
  <defs>
    <style>
      .cls-1 {
        fill: #2c2a29;
        stroke-width: 0px;
      }
    </style>
  </defs>
  <path class="cls-1" d="M349.7.3c-80.5-3-155.2,23.8-209.4,82.8-43.4,47.1-67.4,108.5-74.2,175.8h-13.9C23.4,258.9,0,282.3,0,310.9v158.1C0,497.8,23.4,521.3,52.1,521.3h69.7c22.9,44.5,51.8,85.8,85.7,122.8,148.6,161.5,356.2,201.1,485,100.5h69.9c19.3,0,35-15.9,35-35v-95.4c0-8.3-3.1-16.1-8.6-22.3,28.6-114.5-1.4-254.7-83.9-373.8,0-.5.3-1,.3-1.6v-67.1c0-15-12.1-27.2-27.1-27.3h-56.8C537.6,45.7,440.2,3.7,349.7.3h0ZM407.9,72.9c59.4-.4,123.1,20.7,180.7,61.6-3,4.3-4.8,9.5-4.9,14.8v67.1c0,15,12.2,27.3,27.2,27.3h67.2c4.5,0,9.1-1.5,13-3.9,74.9,110,91.2,243.9,41.3,339.1h-65.4c-19.3,0-35,15.9-35,35v59.8c-99.7,43.4-233.3,7.4-331.9-99.6-19.7-21.5-37-44.9-51.7-69.9,8.6-9.2,13.8-21.6,13.8-35.2v-158.1c0-28.6-23.3-52.1-52.1-52.1h-13.7c7.9-45.5,26-87,56.2-119.8,40.8-44.3,96-65.9,155.2-66.1h0ZM610.9,139.8h67.2c5.3,0,9.4,4,9.4,9.5v67.1c0,5.5-4,9.5-9.4,9.5h-67.2c-5.3.1-9.6-4.2-9.5-9.5v-67.1c-.1-5.3,4.2-9.6,9.5-9.5ZM52.1,276.6h158.1c19.3,0,34.4,15.2,34.4,34.4v158.1c0,19.2-15.1,34.4-34.4,34.4H52.2c-19.1,0-34.6-15.4-34.5-34.4v-158.1c0-19.1,15.2-34.2,34.4-34.2v-.2ZM667.1,596.7h95.3c9.8,0,17.5,7.6,17.5,17.2v95.4c0,9.6-7.8,17.5-17.5,17.3h-95.3c-9.6.1-17.5-7.7-17.3-17.3v-95.3c-.1-9.6,7.7-17.5,17.3-17.3h0Z"/>
</svg>