<?xml version="1.0" encoding="UTF-8"?>
<svg id="Layer_1" data-name="Layer 1" xmlns="http://www.w3.org/2000/svg" version="1.1" viewBox="0 0 85 85">
  <defs>
    <style>
      .cls-1 {
        fill: #2c2a29;
      }

      .cls-1, .cls-2 {
        stroke-width: 0px;
      }

      .cls-2 {
        fill: #fff;
      }
    </style>
  </defs>
  <rect class="cls-1" width="85" height="85"/>
  <path class="cls-2" d="M8,10.6h8.7c5.1,0,8.1,3,8.1,7.4h0c0,5-3.8,7.6-8.6,7.6h-3.6v6.4h-4.6V10.6ZM16.4,21.3c2.3,0,3.7-1.4,3.7-3.2h0c0-2.2-1.5-3.3-3.8-3.3h-3.6v6.5s3.7,0,3.7,0Z"/>
  <path class="cls-2" d="M26.6,21.3c0-6.1,4.6-11.1,11.1-11.1s6.4,1.3,8.4,3.3l-3,3.4c-1.6-1.5-3.3-2.4-5.4-2.4-3.6,0-6.2,3-6.2,6.6h0c0,3.7,2.5,6.8,6.2,6.8s3.9-1,5.6-2.5l3,3c-2.2,2.3-4.6,3.8-8.7,3.8-6.3,0-11-4.8-11-10.9"/>
  <rect class="cls-2" x="8" y="69.1" width="31.9" height="5.3"/>
</svg>