<?xml version="1.0" encoding="UTF-8"?>
<svg id="Layer_1" data-name="Layer 1" xmlns="http://www.w3.org/2000/svg" xmlns:svg="http://www.w3.org/2000/svg" xmlns:sodipodi="http://sodipodi.sourceforge.net/DTD/sodipodi-0.dtd" xmlns:rdf="http://www.w3.org/1999/02/22-rdf-syntax-ns#" xmlns:inkscape="http://www.inkscape.org/namespaces/inkscape" xmlns:dc="http://purl.org/dc/elements/1.1/" xmlns:cc="http://creativecommons.org/ns#" version="1.1" viewBox="0 0 534.1 159.2">
  <defs>
    <style>
      .cls-1 {
        fill-opacity: .2;
      }

      .cls-1, .cls-2 {
        fill: #2c2a29;
      }

      .cls-1, .cls-2, .cls-3 {
        stroke-width: 0px;
      }

      .cls-3 {
        fill: #000;
      }
    </style>
  </defs>
  <sodipodi:namedview id="namedview42" bordercolor="#666666" borderopacity="1" fit-margin-bottom="0" fit-margin-left="0" fit-margin-right="0" fit-margin-top="0" gridtolerance="10" guidetolerance="10" inkscape:current-layer="Layer_1" inkscape:cx="150.26037" inkscape:cy="34.160243" inkscape:pageopacity="0" inkscape:pageshadow="2" inkscape:window-height="1024" inkscape:window-maximized="1" inkscape:window-width="1920" inkscape:window-x="0" inkscape:window-y="0" inkscape:zoom="1.2565238" objecttolerance="10" pagecolor="#ffffff" showgrid="false"/>
  <polygon id="polygon3" class="cls-3" points="112.6 86.7 93.2 67.5 69.4 67.5 69.4 90.3 89.7 110.5 89.7 86.7 112.6 86.7"/>
  <path id="path10" class="cls-2" d="M323.5,77.2v58c-15.9,11.6-40.3,19.6-61.2,19.6-45.7,0-80.4-33.2-80.4-76.9S217.3,1.3,264.3,1.3s45.3,8.6,60.6,22l-19.2,24.4c-11.2-10.3-26.7-16.8-41.4-16.8-26.7,0-47.4,20.5-47.4,47s20.9,47.2,47.6,47.2,19.8-3.2,29.5-8.2v-39.7h29.5Z" inkscape:connector-curvature="0"/>
  <path id="path17" class="cls-2" d="M353.3,153.3V2.4h34.1v150.9h-34.1Z" inkscape:connector-curvature="0"/>
  <path id="path24" class="cls-2" d="M533.2,17.3l-13.1,28.2c-15.9-9.5-34.9-15.5-47-15.5s-19.2,4.1-19.2,12.3c0,27.8,80.4,12.3,80.2,66.6,0,29.5-25.6,45.5-59.1,45.5s-49.6-9.5-66.6-23.9l13.6-27.8c15.5,13.8,37.5,22.6,53.4,22.6s22.4-5.2,22.4-14.4c0-28.4-80.4-11.9-80.4-65.3S441,.9,475.9.9s42.2,6.5,57.3,16.4Z" inkscape:connector-curvature="0"/>
  <polygon id="polygon31" class="cls-3" points="122.3 96.3 99.3 96.3 99.3 120.1 138.5 159.2 163.3 159.2 163.3 136.7 122.3 96.3"/>
  <polygon id="polygon33" class="cls-3" points="122.3 96.3 112.6 86.7 89.7 86.7 89.7 110.5 99.3 120.1 99.3 96.3 122.3 96.3"/>
  <path id="path40" class="cls-2" d="M92.9,126c-3.5.8-7.1,1.2-10.8,1.2-26.7,0-49.4-21.9-49.4-50.4s22.4-49.9,49.4-49.9,48.4,21.4,48.4,49.9-.6,9.1-1.6,13.3l24.7,24.7c6.4-11.2,9.9-24.1,9.9-38.2C163.5,32.8,128.5,0,81.7,0S0,32.6,0,76.6s35,77.5,81.6,77.5,23.3-2.2,33.4-6.2c0,0-22.1-21.9-22.1-21.9Z" inkscape:connector-curvature="0"/>
  <path id="polygon4174" class="cls-1" d="M69.4,67.5l93.9,91.7v-22.5l-40.9-40.5-9.7-9.6-19.4-19.2h-23.9Z" inkscape:connector-curvature="0" sodipodi:nodetypes="ccccccc"/>
</svg>