<?xml version="1.0" encoding="UTF-8"?>
<svg id="Layer_1" data-name="Layer 1" xmlns="http://www.w3.org/2000/svg" version="1.1" viewBox="0 0 800 800">
  <defs>
    <style>
      .cls-1 {
        fill: #2c2a29;
        stroke-width: 0px;
      }
    </style>
  </defs>
  <path class="cls-1" d="M405.9,0c-108.1-1.6-212.3,40.7-288.7,117.2-156.2,156.2-156.2,409.4,0,565.7,156.2,156.2,409.4,156.2,565.7,0,156.2-156.2,156.2-409.4,0-565.7C609.3,43.7,510,1.6,406,0h0ZM259,199.8c18.7,4.3,35,7.2,55.4,7.2,30.7,0,62.1-7.2,92.9-7.2,59.7,0,115,27.1,115,93.3s-30.7,83.9-78.3,97.7l92.9,136.9h43.4v33.7h-66.2l-109.8-164.5h-58.6v130.8h57.3v33.7h-144v-33.7h49.4V237.8l-49.4-6.1v-31.9h0ZM407.9,233.6c-19.9,0-40.4,1.8-62.1,4.2v126.6l31.4.7c76.6,1.1,106.1-28.3,106.1-67.5s-33.2-64-75.3-64h0Z"/>
</svg>