<?xml version="1.0" encoding="UTF-8"?>
<svg id="Layer_1" xmlns="http://www.w3.org/2000/svg" xmlns:sodipodi="http://sodipodi.sourceforge.net/DTD/sodipodi-0.dtd" xmlns:rdf="http://www.w3.org/1999/02/22-rdf-syntax-ns#" xmlns:inkscape="http://www.inkscape.org/namespaces/inkscape" xmlns:dc="http://purl.org/dc/elements/1.1/" xmlns:cc="http://creativecommons.org/ns#" version="1.1" viewBox="0 0 256 256">
  <!-- Generator: Adobe Illustrator 29.8.2, SVG Export Plug-In . SVG Version: 2.1.1 Build 3)  -->
  <defs>
    <style>
      .st0 {
        stroke-width: 9.9px;
      }

      .st0, .st1, .st2, .st3 {
        fill: none;
        stroke: #2a2a2a;
        stroke-miterlimit: 3.1;
      }

      .st1 {
        stroke-width: 7.4px;
      }

      .st2 {
        stroke-width: 4.9px;
      }

      .st3 {
        stroke-width: 2.5px;
      }

      .st4 {
        fill: #2a2a2a;
        isolation: isolate;
        opacity: 1;
      }
    </style>
  </defs>
  <sodipodi:namedview bordercolor="#666666" borderopacity="1" gridtolerance="10" guidetolerance="10" inkscape:current-layer="g6108" inkscape:cx="-76.887261" inkscape:cy="77.464272" inkscape:document-rotation="0" inkscape:pageopacity="0" inkscape:pageshadow="2" inkscape:window-height="1014" inkscape:window-maximized="1" inkscape:window-width="1920" inkscape:window-x="0" inkscape:window-y="36" inkscape:zoom="1.3037281" objecttolerance="10" pagecolor="#ffffff" showgrid="false"/>
  <g id="layer1" inkscape:groupmode="layer" inkscape:label="Layer 1">
    <g id="g3993">
      <g id="g3432">
        <path id="path3434" class="st4" d="M78,72.2c0,4.8-3.9,8.7-8.7,8.7s-8.7-3.9-8.7-8.7h0c0-4.8,3.9-8.7,8.7-8.7s8.7,3.9,8.7,8.7Z" sodipodi:cx="1324.929" sodipodi:cy="1792.4095" sodipodi:rx="7.3256478" sodipodi:ry="7.3256478" sodipodi:type="arc"/>
        <path id="path3436" class="st4" d="M168.2,61.5c0,4.8-3.9,8.7-8.7,8.7s-8.7-3.9-8.7-8.7h0c0-4.8,3.9-8.7,8.7-8.7s8.7,3.9,8.7,8.7Z" sodipodi:cx="1324.929" sodipodi:cy="1792.4095" sodipodi:rx="7.3256478" sodipodi:ry="7.3256478" sodipodi:type="arc"/>
        <path id="path3438" class="st4" d="M147.5,147.4c0,6-4.9,10.9-10.9,10.9s-10.9-4.9-10.9-10.9h0c0-6,4.9-10.9,10.9-10.9s10.9,4.9,10.9,10.9Z" sodipodi:cx="1324.929" sodipodi:cy="1792.4095" sodipodi:rx="7.3256478" sodipodi:ry="7.3256478" sodipodi:type="arc"/>
        <path id="path3440" class="st4" d="M59.1,157.8c0,4-3.2,7.2-7.2,7.2s-7.2-3.2-7.2-7.2h0c0-4,3.2-7.2,7.2-7.2s7.2,3.2,7.2,7.2Z" sodipodi:cx="1324.929" sodipodi:cy="1792.4095" sodipodi:rx="7.3256478" sodipodi:ry="7.3256478" sodipodi:type="arc"/>
        <path id="path3442" class="st4" d="M120.7,216.8c0,4-3.2,7.2-7.2,7.2s-7.2-3.2-7.2-7.2h0c0-4,3.2-7.2,7.2-7.2s7.2,3.2,7.2,7.2Z" sodipodi:cx="1324.929" sodipodi:cy="1792.4095" sodipodi:rx="7.3256478" sodipodi:ry="7.3256478" sodipodi:type="arc"/>
        <path id="path3444" class="st4" d="M191.1,196.3c0,4-3.2,7.2-7.2,7.2s-7.2-3.2-7.2-7.2h0c0-4,3.2-7.2,7.2-7.2s7.2,3.2,7.2,7.2Z" sodipodi:cx="1324.929" sodipodi:cy="1792.4095" sodipodi:rx="7.3256478" sodipodi:ry="7.3256478" sodipodi:type="arc"/>
        <path id="path3446" class="st4" d="M221.6,130c0,4-3.2,7.2-7.2,7.2s-7.2-3.2-7.2-7.2h0c0-4,3.2-7.2,7.2-7.2s7.2,3.2,7.2,7.2Z" sodipodi:cx="1324.929" sodipodi:cy="1792.4095" sodipodi:rx="7.3256478" sodipodi:ry="7.3256478" sodipodi:type="arc"/>
        <path id="path3448" class="st4" d="M210.1,92.5c0,3.1-2.5,5.6-5.6,5.6s-5.6-2.5-5.6-5.6h0c0-3.1,2.5-5.6,5.6-5.6s5.6,2.5,5.6,5.6Z" sodipodi:cx="1324.929" sodipodi:cy="1792.4095" sodipodi:rx="7.3256478" sodipodi:ry="7.3256478" sodipodi:type="arc"/>
        <path id="path3450" class="st4" d="M167.7,42.3c0,3.1-2.5,5.6-5.6,5.6s-5.6-2.5-5.6-5.6h0c0-3.1,2.5-5.6,5.6-5.6s5.6,2.5,5.6,5.6Z" sodipodi:cx="1324.929" sodipodi:cy="1792.4095" sodipodi:rx="7.3256478" sodipodi:ry="7.3256478" sodipodi:type="arc"/>
        <path id="path3454" class="st4" d="M42.3,153.6c0,3.1-2.5,5.6-5.6,5.6s-5.6-2.5-5.6-5.6h0c0-3.1,2.5-5.6,5.6-5.6s5.6,2.5,5.6,5.6Z" sodipodi:cx="1324.929" sodipodi:cy="1792.4095" sodipodi:rx="7.3256478" sodipodi:ry="7.3256478" sodipodi:type="arc"/>
        <path id="path3456" class="st4" d="M87.8,199.8c0,3.1-2.5,5.6-5.6,5.6s-5.6-2.5-5.6-5.6h0c0-3.1,2.5-5.6,5.6-5.6s5.6,2.5,5.6,5.6Z" sodipodi:cx="1324.929" sodipodi:cy="1792.4095" sodipodi:rx="7.3256478" sodipodi:ry="7.3256478" sodipodi:type="arc"/>
        <path id="path3458" class="st4" d="M48.1,89.1c0,4-3.2,7.2-7.2,7.2s-7.2-3.2-7.2-7.2h0c0-4,3.2-7.2,7.2-7.2s7.2,3.2,7.2,7.2Z" sodipodi:cx="1324.929" sodipodi:cy="1792.4095" sodipodi:rx="7.3256478" sodipodi:ry="7.3256478" sodipodi:type="arc"/>
        <path id="path3460" class="st4" d="M102.5,39.2c0,4-3.2,7.2-7.2,7.2s-7.2-3.2-7.2-7.2h0c0-4,3.2-7.2,7.2-7.2s7.2,3.2,7.2,7.2Z" sodipodi:cx="1324.929" sodipodi:cy="1792.4095" sodipodi:rx="7.3256478" sodipodi:ry="7.3256478" sodipodi:type="arc"/>
        <path id="path3462" class="st4" d="M84.6,112.2c0,3.1-2.5,5.6-5.6,5.6s-5.6-2.5-5.6-5.6h0c0-3.1,2.5-5.6,5.6-5.6s5.6,2.5,5.6,5.6Z" sodipodi:cx="1324.929" sodipodi:cy="1792.4095" sodipodi:rx="7.3256478" sodipodi:ry="7.3256478" sodipodi:type="arc"/>
        <path id="path3464" class="st4" d="M146.3,186c0,3.1-2.5,5.6-5.6,5.6s-5.6-2.5-5.6-5.6h0c0-3.1,2.5-5.6,5.6-5.6s5.6,2.5,5.6,5.6Z" sodipodi:cx="1324.929" sodipodi:cy="1792.4095" sodipodi:rx="7.3256478" sodipodi:ry="7.3256478" sodipodi:type="arc"/>
        <path id="path3468" class="st0" d="M159.1,59.7l-23,89.7" inkscape:connector-curvature="0"/>
        <path id="path3470" class="st0" d="M158,62l-89.6,10.4" inkscape:connector-curvature="0"/>
        <path id="path3472" class="st0" d="M136,148.3l-67.5-76.4" inkscape:connector-curvature="0"/>
        <path id="path3474" class="st1" d="M136,148.9l-22.3,69.1" inkscape:connector-curvature="0"/>
        <path id="path3476" class="st2" d="M68.2,71.7l25.9-30" inkscape:connector-curvature="0"/>
        <path id="path3478" class="st2" d="M40.5,89.1l26.9-17.7" inkscape:connector-curvature="0"/>
        <path id="path3480" class="st2" d="M51.7,157.2l16.5-86.4" inkscape:connector-curvature="0"/>
        <path id="path3482" class="st1" d="M112.4,216.4l-61.1-57.5" inkscape:connector-curvature="0"/>
        <path id="path3484" class="st1" d="M183.9,195.1l-71.7,20.9" inkscape:connector-curvature="0"/>
        <path id="path3486" class="st1" d="M213.7,129.8l-29.8,65.6" inkscape:connector-curvature="0"/>
        <path id="path3488" class="st1" d="M135.1,148.3l77.6-18.1" inkscape:connector-curvature="0"/>
        <path id="path3491" class="st1" d="M159.3,61.5l53.2,68.1" inkscape:connector-curvature="0"/>
        <path id="path3493" class="st1" d="M50.2,157.2l82.7-8.9" inkscape:connector-curvature="0"/>
        <path id="path3495" class="st2" d="M111.4,215.8l-30.1-16.2" inkscape:connector-curvature="0"/>
        <path id="path3497" class="st2" d="M34.9,153.1l44.9,46" inkscape:connector-curvature="0"/>
        <path id="path3499" class="st2" d="M39.6,89.7l-3.4,63.4" inkscape:connector-curvature="0"/>
        <path id="path3501" class="st2" d="M94.1,39l66.7,2.3" inkscape:connector-curvature="0"/>
        <path id="path3503" class="st2" d="M205,92.9l-42.3-51.8" inkscape:connector-curvature="0"/>
        <path id="path3505" class="st2" d="M215.2,129.5l-11.1-37.2" inkscape:connector-curvature="0"/>
        <path id="path3507" class="st2" d="M158.5,60.5l4-18.9" inkscape:connector-curvature="0"/>
        <path id="path3509" class="st2" d="M52.5,158l-17.5-3.3" inkscape:connector-curvature="0"/>
        <path id="path3511" class="st3" d="M81.3,200.2l57.7-14.1" inkscape:connector-curvature="0"/>
        <path id="path3513" class="st3" d="M140.5,185.9l41.5,9" inkscape:connector-curvature="0"/>
        <path id="path3515" class="st3" d="M38.7,89.7l75.5-8.5" inkscape:connector-curvature="0"/>
        <path id="path3517" class="st3" d="M114.3,79.6l45-16.7" inkscape:connector-curvature="0"/>
        <path id="path3519" class="st4" d="M119,80.5c0,3.1-2.5,5.6-5.6,5.6s-5.6-2.5-5.6-5.6h0c0-3.1,2.5-5.6,5.6-5.6s5.6,2.5,5.6,5.6Z" sodipodi:cx="1324.929" sodipodi:cy="1792.4095" sodipodi:rx="7.3256478" sodipodi:ry="7.3256478" sodipodi:type="arc"/>
        <path id="path3521" class="st4" d="M189.3,148.9c0,2.9-2.4,5.3-5.3,5.3s-5.3-2.4-5.3-5.3h0c0-2.9,2.4-5.3,5.3-5.3s5.3,2.4,5.3,5.3Z" sodipodi:cx="1324.929" sodipodi:cy="1792.4095" sodipodi:rx="7.3256478" sodipodi:ry="7.3256478" sodipodi:type="arc"/>
        <path id="path3523" class="st3" d="M183.3,148.7l20.2-56.9" inkscape:connector-curvature="0"/>
        <path id="path3525" class="st3" d="M183.1,195.3l.7-47.9" inkscape:connector-curvature="0"/>
        <path id="path3527" class="st3" d="M50.7,156.5l28.9-44.4" inkscape:connector-curvature="0"/>
        <path id="path3529" class="st3" d="M94.7,39.6l-15.9,72.5" inkscape:connector-curvature="0"/>
      </g>
    </g>
  </g>
</svg>