<?xml version="1.0" encoding="utf-8"?>
<!-- Generator: Adobe Illustrator 29.8.2, SVG Export Plug-In . SVG Version: 9.03 Build 0)  -->
<svg version="1.0"
	 id="svg2" xmlns:cc="http://creativecommons.org/ns#" xmlns:svg="http://www.w3.org/2000/svg" xmlns:dc="http://purl.org/dc/elements/1.1/" xmlns:sodipodi="http://sodipodi.sourceforge.net/DTD/sodipodi-0.dtd" xmlns:inkscape="http://www.inkscape.org/namespaces/inkscape" xmlns:rdf="http://www.w3.org/1999/02/22-rdf-syntax-ns#"
	 xmlns="http://www.w3.org/2000/svg" xmlns:xlink="http://www.w3.org/1999/xlink" x="0px" y="0px" viewBox="0 0 185.5 185.5"
	 style="enable-background:new 0 0 185.5 185.5;" xml:space="preserve">
<style type="text/css">
	.st0{fill:#414141;stroke:#C1C1C1;stroke-width:8.4287;stroke-linecap:round;stroke-linejoin:round;}
	.st1{fill:#414141;stroke:#C1C1C1;stroke-width:17.3717;stroke-linecap:round;stroke-linejoin:round;}
	.st2{fill:none;stroke:#C1C1C1;stroke-width:7;}
	.st3{fill:none;stroke:#000000;stroke-width:12;}
	.st4{fill:#FF0000;stroke:#000000;stroke-width:14;stroke-linecap:round;stroke-linejoin:round;}
</style>
<sodipodi:namedview  bordercolor="#666666" borderopacity="1.0" id="base" inkscape:current-layer="svg2" inkscape:cx="-150.53471" inkscape:cy="56.434504" inkscape:pageopacity="0.0" inkscape:pageshadow="2" inkscape:window-height="744" inkscape:window-maximized="0" inkscape:window-width="1280" inkscape:window-x="0" inkscape:window-y="22" inkscape:zoom="2.0279948" pagecolor="#ffffff" showgrid="false">
	</sodipodi:namedview>
<defs>
	
		<inkscape:perspective  id="perspective47" inkscape:persp3d-origin="243.02499 : 47.924998 : 1" inkscape:vp_x="0 : 71.887497 : 1" inkscape:vp_y="0 : 1000 : 0" inkscape:vp_z="486.04999 : 71.887497 : 1" sodipodi:type="inkscape:persp3d">
		</inkscape:perspective>
</defs>
<g id="g2432" transform="translate(6.3659426,0)">
	
		<path id="path2747" inkscape:flatsided="true" inkscape:randomized="0" inkscape:rounded="0" sodipodi:arg1="-1.0471976" sodipodi:arg2="-0.59839865" sodipodi:cx="21.617718" sodipodi:cy="45.732677" sodipodi:r1="62.576824" sodipodi:r2="54.193119" sodipodi:sides="7" sodipodi:type="star" class="st0" d="
		M112.8,26.1l31.8,40.6l-11.6,50.4l-46.3,22.2l-46.1-22.7L29.3,66.1l32.2-40.3L112.8,26.1z"/>
	
		<path id="path3527" inkscape:flatsided="true" inkscape:randomized="0" inkscape:rounded="0" sodipodi:arg1="-1.0471976" sodipodi:arg2="-0.41887907" sodipodi:cx="21.617718" sodipodi:cy="45.732677" sodipodi:r1="62.576824" sodipodi:r2="54.193119" sodipodi:sides="5" sodipodi:type="star" class="st1" d="
		M96.3,55.5l13.9,26.3l-20.5,21.4L63.1,90.1l4.1-29.5L96.3,55.5z"/>
	<path id="path3529" sodipodi:nodetypes="cc" class="st2" d="M62.4,3.5c5.3,36,4.8,58.2,4.8,58.2"/>
	<path id="path3531" sodipodi:nodetypes="cc" class="st2" d="M95.5,56.2c17.1-29.9,31.4-52.5,31.4-52.5"/>
	<path id="path3533" sodipodi:nodetypes="ccc" class="st2" d="M169.3,57.6c0,0-25.1,8.9-58.8,23.1c22.1,36.2,42.3,48.5,42.3,48.5"/>
	<path id="path3535" sodipodi:nodetypes="cc" class="st2" d="M89.6,101.7c-2.7,36.9-1.2,63-1.2,63"/>
	<path id="path3537" sodipodi:nodetypes="cc" class="st2" d="M64,89.9c-23.3,27.1-48.4,42.4-48.4,42.4"/>
	<path id="path3539" sodipodi:nodetypes="cc" class="st2" d="M67.2,61.7c-38.1,5.1-63.7,2.6-63.7,2.6"/>
	<g id="g3541" transform="translate(25.084896,20.46369)">
		<path id="path2473" sodipodi:nodetypes="cccc" class="st3" d="M11.4,70l19.3-19.3c5.5-5.5,15.4-5.7,21.2,0l9.9,9.9"/>
		<path id="path3290" sodipodi:nodetypes="cccc" class="st3" d="M111.3,50.5L92,69.8c-5.5,5.5-15.4,5.7-21.2,0L61,59.9"/>
		
			<path id="path3340" sodipodi:cx="96.582382" sodipodi:cy="45.035332" sodipodi:rx="5.9274387" sodipodi:ry="10.808859" sodipodi:type="arc" class="st4" d="
			M109.7,59.1c-3.8,3.8-8.4,5.2-10.4,3.2c-2-2-0.5-6.6,3.2-10.4c3.8-3.8,8.4-5.2,10.4-3.2C114.9,50.7,113.4,55.3,109.7,59.1z"/>
	</g>
</g>
</svg>
