<?xml version="1.0" encoding="UTF-8"?>
<svg id="svg2" xmlns="http://www.w3.org/2000/svg" xmlns:svg="http://www.w3.org/2000/svg" xmlns:rdf="http://www.w3.org/1999/02/22-rdf-syntax-ns#" xmlns:dc="http://purl.org/dc/elements/1.1/" xmlns:cc="http://creativecommons.org/ns#" version="1.1" viewBox="0 0 800 260">
  <defs>
    <style>
      .cls-1 {
        fill: #2c2a29;
      }

      .cls-1, .cls-2, .cls-3 {
        stroke-width: 0px;
      }

      .cls-4 {
        fill: none;
        stroke: #fff;
        stroke-miterlimit: 3;
        stroke-width: 2.3px;
      }

      .cls-2 {
        fill: red;
      }

      .cls-3 {
        fill: #fff;
      }
    </style>
  </defs>
  <g id="layer1">
    <rect id="rect3837" class="cls-1" x="7.8" y="8.3" width="789" height="246.4"/>
    <g id="text2996">
      <path id="path3842" class="cls-3" d="M760.8,30.9h11.4c2.2,0,3.9.4,5.1,1.4,1.2.9,1.9,2,1.9,3.5s-.2,1.6-.7,2.3-1.1,1.2-2.1,1.7c-.9.4-2.3.7-4.3.9,1.5.3,2.4.7,2.9.9.6.4,1,.8,1.3,1.3s.7,1.6,1.1,3.2c.3,1.2.7,2,1,2.4.2.3.5.4.8.4s.6,0,.9-.6c.2-.4.4-1.1.4-2.1h1.1c-.2,3-1.5,4.5-3.8,4.5s-1.3,0-1.9-.5c-.5-.3-.9-.8-1.1-1.5-.2-.4-.5-1.7-.7-3.7-.2-1.2-.4-2-.7-2.6-.3-.4-.8-.9-1.5-1.2s-1.5-.4-2.5-.4h-1.8v7.7c0,.3,0,.5.2.7.2,0,.7.2,1.1.2h2.1v1h-10.2v-1h2.1c.5,0,.8,0,1.1-.2.2,0,.3-.4.3-.7v-15.7c0-.4,0-.6-.3-.8-.2-.1-.6-.2-1.1-.2h-2.1v-1h0ZM767.5,39.9h2.6c1.7,0,3.1-.3,4.1-.9,1-.6,1.5-1.7,1.5-3.1s-.2-1.9-.6-2.5c-.3-.6-.8-1-1.5-1.2-.6-.2-1.8-.3-3.5-.3s-2,0-2.2.2c-.2,0-.4.4-.4.7v7.1h0Z"/>
    </g>
    <path id="path3000" class="cls-4" d="M787.4,40.8c0,9.3-7.5,16.8-16.8,16.8s-16.8-7.5-16.8-16.8,7.5-16.8,16.8-16.8,16.8,7.5,16.8,16.8Z"/>
    <path id="path3782" class="cls-3" d="M207.9,51.1l-14.6,38.5h-96.9c-20.5,0-20.8,27,0,27h56.7c72.2,0,72.2,102.4,0,102.4H42.3l15.2-37.6h97.1c20.9,0,21.4-27.3,0-27.3h-56c-73.2,0-73.4-103,0-103h109.3,0Z"/>
    <path id="path3792" class="cls-3" d="M212,51.1l-14.6,38.5h46.1v129.4h37.9V89.6h36.4l14.6-38.5h-120.4Z"/>
    <path id="path3794" class="cls-3" d="M335.4,51.1l-14.6,38.5h108.5c7.3,0,13.5,4.4,13.5,12.6v14.4h-85.9c-66.3,0-66.6,102.4,0,102.4h123.7v-117.4c0-24.3-20.4-50.5-53.3-50.5h-91.9ZM358.9,154.1h83.9v27.3h-83.9c-19.6,0-19-27.3,0-27.3Z"/>
    <path id="path3794-5" class="cls-3" d="M619.7,51.1l-14.6,38.5h108.5c7.4,0,13.6,4.4,13.6,12.6v14.4h-85.9c-66.3,0-66.6,102.4,0,102.4h123.6v-117.4c0-24.3-20.4-50.5-53.2-50.5h-92,0ZM643.2,154.1h84v27.3h-84c-19.5,0-19-27.3,0-27.3Z"/>
    <path id="path3792-3" class="cls-3" d="M495.6,51.1l-14.6,38.5h46.1v129.4h37.8V89.6h36.4l14.7-38.5h-120.4Z"/>
    <rect id="rect3839" class="cls-2" x="796.9" y="255" width="2.7" height="3.4"/>
  </g>
</svg>