<?xml version="1.0" encoding="UTF-8"?>
<svg id="Layer_1" xmlns="http://www.w3.org/2000/svg" xmlns:xlink="http://www.w3.org/1999/xlink" version="1.1" viewBox="0 0 800 800">
  <!-- Generator: Adobe Illustrator 29.8.2, SVG Export Plug-In . SVG Version: 2.1.1 Build 3)  -->
  <defs>
    <style>
      .st0, .st1 {
        fill: none;
      }

      .st2 {
        fill: #fbbd04;
      }

      .st3 {
        fill: #ff7c5b;
      }

      .st4 {
        fill: #4fc1f3;
      }

      .st1 {
        stroke: #48c;
        stroke-linecap: round;
        stroke-width: 5.1px;
      }

      .st5 {
        fill: #7ebaf7;
      }

      .st6 {
        fill: #4388cc;
      }

      .st7 {
        clip-path: url(#clippath);
      }
    </style>
    <clipPath id="clippath">
      <rect class="st0" x="55.3" y="51.9" width="685.6" height="696.2"/>
    </clipPath>
  </defs>
  <g id="Group_3">
    <g class="st7">
      <g id="Group_2">
        <path id="Path_5" class="st3" d="M361.1,449.2c-1.5.1-3.1-.2-4.5-.9-1.2-.7-1.9-2-1.9-3.3,0-.2,0-.3,0-.5,0-.5.2-1,.5-1.3,2.5-3.1,2.5-6.5,1-10.6-.9-2.2-1.9-4.4-3.2-6.4l-3.6-5.9-1.7-.9c-3.7-2.4-5.2-7.4-5.8-10.7-1.1-6.9-3-13.8.1-22.5.9-2.6,2-5.1,3.3-7.5l1.4-2.2h0c0-.1,1-1.3,1-1.3.6-.5,1.2-1,1.9-1.3l.5-.3h0c0-.4,0-.7,0-.9,0-5,4.5-6.6,4.8-8.3.8-2.7,2.6-4.9,5.1-6.2l1.6-1h0s.6-1,.6-1c.3-.5.6-1,1.1-1.4,1.6-1.3,3.6-2.1,5.7-2.2l1-.2.3-.4c.9-1.8,2.3-3.2,4.1-3.9h.1s.2-.1.2-.1h.1c1.6-.3,3.3-.4,5-.3h1c0,0,1.1-.9,1.1-.9,3.5-2.3,8.9-2.7,12.3-2.7s1.9,0,2.9,0c1.3,0,2.5.3,3.7.8h0s.1.1.1.1h.2c0,0,0,.2,0,.2.3.2.7.5,1,.8h.1c0,.1,0,0,0,0,.8-.8,1.8-1.4,2.8-1.9,0,0,.1,0,.2,0h.3c0,0,.2-.1.2-.1,5.4-1,10.8,3.1,13.9,2.4s9.2,1.6,14.2,4c5.7,2.6,11.1,5.8,16.2,9.4,8.4,6.1,11,14.6,13,22.9,1.8,6.3,2,10.8-.2,16.2-1.2,3.1-2.5,7.5-7.1,10.2-6,3.5-15.5,4-22.6,1.3l-.3-.2v1.5c.2,5.3-1.9,10.3-5.8,13.9-3.6,2.8-8.1,4.2-12.6,4.1-4.3,0-8.6-.3-12.8-.9l-2.8-.4-.4,1c-1,1.8-2.7,3.2-4.7,3.9-2.4.6-5,.7-7.4.4-2.3-.3-4.6-.6-7-.6-1.8,0-3.6.4-5.2,1.4-1.8,1.2-3.1,2.9-3.7,5-.6,2.6-1.4,5.1-2.4,7.5-.3.5-.7,1-1.3,1.3-1.4.7-3,1.1-4.6,1.3-.4,0-.8,0-1.3.1M360.7,444.6c.3,0,.7,0,1.1,0,.6,0,1.3-.2,1.9-.4l.6-.2v-.3c.8-1.9,1.4-3.9,1.9-5.9.9-3,2.8-5.6,5.4-7.3,2.3-1.6,5.1-2.5,7.9-2.4,2.5,0,5,.3,7.5.7,1.8.3,3.7.3,5.5-.2.6-.2,1.1-.5,1.5-.9l.4-.6-.7-.2c-2.5-.7-4.9-1.9-7-3.4-3.5-2.4-8-3.1-12.1-1.9-5.7,1.6-11.6,2.1-17.5,1.4l-.8-.2.6,1c1.4,2.3,2.6,4.7,3.5,7.1,1.6,4.3,2.1,9-.4,13.3l-.2.3h0c.3,0,.5,0,.8,0M413.7,424.8l.6-.2c.8-.3,1.6-.7,2.3-1.1.7-.4,1.4-.9,2-1.4.4-.3.7-.6.9-1,.6-1.3.8-2.7.5-4.1-.2-.7-.8-1.3-1.5-1.6-1.1-.4-2.7,0-3.2,2.3-.2.9-1.1,1.6-2,1.4s-1.6-1.1-1.4-2h0c.3-3.2,3.1-5.6,6.3-5.4.5,0,1.1.2,1.6.4,3.2,1.3,5,5.2,2.9,10.3l-.6.9h.1c.7-.4,1.4-.9,2-1.4,4.5-3.7,5.5-12.1,2.8-15.7-.2-.3-.3-.5-.4-.9h0s-1.2-.5-1.2-.5c-1-.3-2-.4-3-.4-2.4,0-4.9.4-8.1.4h-.7c0,0-1.6.7-1.6.7-2.7,1.1-5.6,1.9-8.4,2.5l-4.4.7.4,2c0,.8,0,1.5-.2,2.3-.2.9-.2,1.7,0,2.6.2.6.7,1.2,2.2,1.4.7.1,1.4,0,2.1-.3.2-.1.4-.4.4-.6,0-.7-.5-2-2.2-2.9-.9-.4-1.2-1.5-.8-2.3.4-.9,1.5-1.2,2.3-.8h0c2.5,1.1,4.2,3.5,4.1,6.3-.1,1.3-.8,2.5-2,3.3-.9.6-2,.8-3.1.8-.4,0-.8,0-1.2,0-2.3,0-4.3-1.5-5.1-3.6-.5-1.4-.6-3-.2-4.5.2-.7.2-1.5,0-2.2,0-.2-.3-.5-1.2-.8l-.4-.2h-.6c-7.4.1-13.9-2-14.5-8.3-.8-7.6-3.4-13.1-6.6-15.4-2.8-2.1-6.3-1.9-10.3,3-4.7,5.7-2.2,10.1,1.6,11.7h.2c1.6.7,3.4.3,4.6-1,1.1-1.1,1.4-2.2,0-3.4-.8-.6-.9-1.7-.3-2.4.6-.8,1.7-.9,2.4-.3,0,0,0,0,0,0,2.4,1.7,3,5.1,1.2,7.5-.3.4-.6.8-1,1.1-2,1.9-4.8,2.7-7.5,2.1l-1-.4h-.2c0,0-.9-.5-.9-.5-5.2-2.8-7.7-9.4-1.9-16.6,4.8-5.9,10.4-7,15-3.6,4.3,3.2,7.1,9.8,7.9,17.8.7,7,16,6,25.8,2.7l1.2-.5-.7-.7c-.4-.5-.8-1-1.1-1.4-1.3-2.1-3.2-3.8-5.6-4.7-.6-.1-1.3-.1-1.9,0-1,0-2.4.2-3.8.3-3.1.3-6.3-.3-9-2-7.4-5.3-5.5-11.5-.9-14.4,2.2-1.4,4.8-1.9,7.3-1.3,2.9.8,4.9,3.4,5.1,6.4l.2,1c0,1.3-.5,2.5-1.6,3.3-1.6,1-3.7.9-5.3-.1-.8-.5-1.1-1.5-.7-2.4.5-.8,1.5-1.1,2.4-.7h0c1.1.6,1.6.3,1.6.3s.2-.1,0-.6c0,0,0-.2,0-.3,0-1.6-1-3-2.6-3.5-1.6-.3-3.2,0-4.5.9-1.3.7-2.3,2-2.4,3.5,0,1.3.6,3.1,3.5,5.1,2.1,1.1,4.5,1.6,6.8,1.3,2.8-.1,5.3-.6,7,0,3,1.2,5.5,3.2,7.2,6,1.6,2.1,2.3,2.9,3.5,2.9,4.4,0,8.5-1,12.4.3l.6.3v-2.5c1.1-6.4,6.1-9.9,12.7-9.7,3.4,0,6.4,2.4,7,5.7.7,3.1-1.3,6.2-4.4,6.9-.1,0-.2,0-.3,0-2.5.4-5-.4-6.9-2.1-.7-.6-.8-1.7-.1-2.5.6-.7,1.7-.8,2.5-.1,1,1,2.5,1.5,3.9,1.3,1.2-.2,2.1-1.3,2-2.6,0-.1,0-.2,0-.4-.3-1.7-1.9-3-3.7-2.9-5.1-.1-8.4,2.4-9.1,6.8-.3,1.4,0,2.9.9,4.1l1,.9,2.4,1.1c5.6,2.1,13.5,1.8,18.3-1,2.9-1.7,3.7-4.3,5.2-7.9,1.7-4.2,1.7-7.6,0-13.3-2.1-8.3-4.4-15.2-11.3-20.3-4.9-3.4-10-6.4-15.4-8.9-5.9-2.8-10.1-3.9-11.2-3.7h-.2s.4,1.1.4,1.1c2,3.7,6,5.9,10.2,5.4,2.3-.2,4.6.4,6.5,1.7,1.9,1.3,3,3.6,2.7,5.9-.3,3.2-2.8,5.7-6,5.9-.3,0-.6,0-.9,0-1.8,0-3.5-.8-4.6-2.2-1.3-1.4-1.6-3.4-.9-5.2.2-.4.5-.8.9-1.1.7-.6,1.6-.9,2.5-.9,1,0,1.8.7,1.8,1.6,0,1-.7,1.8-1.6,1.8,0,0,0,0,0,0-.1,0-.3,0-.4,0v.2c.1,1.3,1.3,2.3,2.6,2.2.9,0,1.8-.5,2.5-1.2.4-.5.6-1.1.6-1.8.1-1-.4-2.1-1.3-2.6-1.2-.8-2.7-1.2-4.2-1.1-6.6.8-12.8-3.4-14.5-9.8v-.2s-2.7-.6-2.7-.6c-2-.7-4-1.3-6.1-1.7h-1.4s-.5.4-.5.4c-.8.8-1.7,1.4-2.7,1.8-.5.2-.9.2-1.4.3-.7,0-1.3-.2-1.8-.6-.6-.4-1.1-.8-1.6-1.3l-.2-.2h-.5c-.3-.2-.6-.2-1.2-.2h-1.1,0c.8.6,1.7,1.1,2.3,1.6,1.1.7,1.9,1.8,2.2,3.1.2,1.7-.4,3.3-1.6,4.4h0c-.7.7-1.4,1.2-2.3,1.6h-.2c0,.1.6.4.6.4.6.3,1.3.6,1.9,1,1.9,1,3,3.2,2.6,5.3-.1.8-.6,1.4-1.2,1.8-1.7.7-3.5,1.2-5.4,1.4-.5.1-1,.3-1.4.7,0,0,0,0,0,.3v.3c0,0,.1,0,.1,0,.5.2,1,.3,1.5.3,1.1.1,2.3.1,3.8.2,2.5,0,6.3.3,8.3,2.7,1.6,2,2.1,4.7,1.5,7.2-.4,2.2.2,4.4,1.6,6.2,3.4,3.6,8.6,4.8,13.2,2.8.5-.5.6-1.2.3-1.8,0-.3-.3-.5-.5-.7-.5-.1-1.1,0-1.6.2-.9.4-1.9,0-2.3-1-.3-.9,0-1.8.9-2.2,3.4-1.5,5.9,0,6.8,2.4,1,2.3,0,4.9-2.1,6.1-1.6.7-3.3,1.2-5,1.2-4.7.4-9.3-1.5-12.4-5.1-1.9-2.4-2.8-5.5-2.3-8.6.2-2.2.4-3.3-.7-4.6-.8-1-2.6-1.3-5.7-1.4-1.3,0-2.8,0-4-.2-1.3,0-2.6-.5-3.7-1.4-.4-.4-.7-.9-.9-1.4-.5-1.4-.2-2.9.8-4,.8-.8,1.9-1.3,3-1.6,1-.3,1.9-.5,2.9-.6.4,0,.7-.1,1.1-.3h.1c0-.6-.4-1-1.1-1.4-1.2-.6-2.4-1.2-3.5-2-.5-.5-.9-1.2-.9-1.9,0-1.4.8-2.7,2.1-3.4.9-.6,1.5-.8,1.6-.9h0c.9-1.1.8-1.5.8-1.5,0-.1-.1-.4-.9-.9-1.5-.9-2.9-2-4.2-3.2l-.7-1h0c-1,0-2,.2-3,.4l-1.1.3.9.8c.7.7,1.2,1.5,1.5,2.4.3,1.5-.1,3.1-1.2,4.2-.6.7-1.1,1.4-1.6,2.1,0,0,0,.2,0,.3.1.3.3.6.5.8.7.7.7,1.8,0,2.4,0,0,0,0,0,0-.3.3-.8.5-1.2.5-.5,0-.9-.2-1.2-.5-1.4-1.2-1.9-3.1-1.3-4.9.5-1.1,1.2-2.1,2-3,.6-.8.6-1.1.6-1.3,0-.2-.3-.8-1.5-1.6l-1-.7-1.1.7c-1.7.3-3.4.4-5.1.3h-1c0,0-1,.7-1,.7-.7,1.1-1.4,2.2-2.3,3.2l-.4.2h0c0,.3.2.5.3.7.4.3.8.5,1.3.6,1,.2,1.9.4,2.9.7,1.4.5,2.5,1.5,3.1,2.8.9,1.9,0,4.2-1.9,5.1-.9.4-1.8.4-2.7.2-1.1-.2-2.3-.3-3.5-.2-1,.2-1.9.6-2.7,1.3-1.2,1.2-1.3,3-.3,4.3,1,1.6,2.5,2.4,3.6,2,2.1-.9,2.1-1.7,2-1.8,0,0-.1-.4-.8,0-.9.4-1.9,0-2.3-.8s0-1.9.8-2.3h0c1.8-1.1,4.2-.5,5.3,1.4.2.3.3.6.4.9.6,2.2-.8,4.6-4.1,6-.6.2-1.2.4-1.8.4-2.6,0-4.9-1.6-6.1-3.8-1.9-2.8-1.4-6.6,1.1-8.8,3-2.4,5.7-2.3,8.9-1.8.8.1.9,0,.9,0,0,0,0-.1,0-.2v-.2s-.2-.3-.2-.3c-.2-.3-.6-.6-1-.7-.8-.2-1.6-.4-2.4-.5-1.2-.2-2.3-.8-3.2-1.7-.5-.6-.9-1.2-1.1-2h0c0-.1-.6,0-.6,0-.8,0-1.5.3-2.1.7-.5.9-1.1,1.7-1.7,2.4,0,0,0,0-.1.1l-.3.2c0,0,0,0-.2.1-2.8,1.9-4.4,2.7-4.8,4.3-.5,1.9-1.7,3.7-3.3,4.8-1,.9-1.4,1.4-1.4,2.5,0,1-.2,2-.6,3h-.1c0,.1.2.7.2.7.3,1,.5,2.1.6,3.1.2,1.1.2,2.3.2,3.4,0,1.2-.5,2.3-1.2,3.2-.5.6-1.2.9-2,1-.2,0-.3,0-.5,0-1,0-1.7-.8-1.7-1.7,0-.9.7-1.6,1.6-1.7h.1c0,0,0-.2,0-.2,0-.3.1-.6.2-.9,0-.9,0-1.8-.1-2.6l-.4-1.6h-.2c-.2.2-.3.4-.4.6,0,0,0,0,0,.1-1.8,2.7-3.2,5.6-4.2,8.7-2.6,7.4-1.1,12.9.1,20.2.2,1.5.7,3,1.3,4.4l.8,1.3.4-1.6c.4-1.1,1.1-2.1,2.1-2.7,1.9-1,4.1-1.2,6.2-.7,2,.4,4.1,1,6.1,1.5,1.4.5,2.9.5,4.4.3.4-.1.7-.3,1-.6.4-.4.8-.8,1.3-1.2,1.3-1.3,3.1-2,4.9-2,1.8,0,3.6.6,4.9,1.8,1.2,1,1.9,2.5,1.8,4.1,0,.8-.5,1.6-1.2,2.1-.9.6-2,1-3,.9-1,0-1.7-.8-1.7-1.7,0-1,.8-1.7,1.7-1.7h0c.2,0,.5,0,.7,0h.1s0,0,0,0c-.1-.4-.3-.7-.6-.9-.7-.6-1.7-1-2.6-.9-1,0-1.9.4-2.6,1.1-.4.4-.9.9-1.4,1.3-.6.5-1.4,1-2.1,1.2-2.1.5-4.2.4-6.2-.2-2-.5-4.1-1.1-5.9-1.5-1.2-.4-2.5-.3-3.6.2-.5.4-1.2,1.3-1.2,4l.5.2h.1c0,.1.2.2.2.2,5.8,2.7,12.8,2.3,20.8.3,5.9-1.5,12.2-.4,16.2,2.8,2.3,1.9,7.9,3.5,12.7,4,3.4.4,6.7.8,9.7.9h1.7ZM444.2,387.5c-1.9,0-3.8-.5-5.4-1.6-1.8-1.6-3.6-3.4-5.2-5.2-1.4-1.7-3.2-3-5.2-3.8-.7-.1-1.4,0-2,.3-.9.5-1.8,1.1-2.7,1.8-2,1.4-4.9,3.1-8.3.7-1.8-1.6-2.5-4-1.9-6.3.3-2.1,1.1-4.4,1.6-6.4.5-1.4.5-2.9,0-4.3-.4-.7-1.7-1.6-5.4-1.6s-2.7.7-2.8,1c-.2.8,0,1.6.4,2.2.6.9,1.2,1.3,1.5,1.3,0,0,.6,0,1.1-1.6.3-.9,1.3-1.4,2.2-1.1.9.3,1.4,1.3,1.1,2.2-.8,2.5-2.4,4.2-4.7,4-1.8-.3-3.4-1.4-4.3-3-1-1.6-1.2-3.6-.6-5.4.9-2,3.1-3.1,6-3.1s6.9,1,8.3,3.2c1.1,2.1,1.3,4.6.6,6.9-.5,2.4-1.2,4.4-1.5,6.2s0,2.6.5,3c.5.5,1.2.7,1.9.5.9-.2,1.6-.7,2.3-1.2,1-.7,2.1-1.4,3.2-2,1.3-.7,2.9-.9,4.4-.6,2.6,1,5,2.6,6.8,4.7,1.9,2,3.5,3.9,4.8,4.9,2.3,1.7,7.5.9,8.5-1.2,1.7-3.6-.1-5.3-1.6-5.7-.5-.2-1.1-.2-1.6.2,0,0-.5.6.2,2.3.3.9-.1,1.9-1,2.2-.9.3-1.9,0-2.2-1-1-1.9-.8-4.3.6-6,1.3-1.2,3.3-1.7,5-1.1,3.5,1,6.4,4.9,3.8,10.5-1.4,2.9-5,4.2-8.4,4.2"/>
        <path id="Path_6" class="st2" d="M319.4,361.1c-2.8,0-5.5-.5-8.1-1.5-1.2-.5-1.9-1.9-1.4-3.1s1.9-1.9,3.1-1.4c4.1,1.6,8.7,1.6,12.8,0,1.2-.4,2.6.2,3.1,1.4.5,1.2-.2,2.6-1.4,3.1,0,0,0,0,0,0-2.6,1-5.3,1.5-8.1,1.5M319.6,354.4c-4.9,0-9.7-.9-14.3-2.5-1.3-.4-1.9-1.8-1.5-3,0,0,0,0,0,0,.4-1.2,1.8-1.9,3-1.5,0,0,0,0,0,0,8.2,2.9,17.2,2.9,25.4,0,1.3-.4,2.6.2,3.1,1.5s-.2,2.6-1.5,3.1c-4.6,1.6-9.4,2.5-14.3,2.5M319.6,347.3c-5.1,0-10.1-1-14.9-2.7-1.3-.4-1.9-1.8-1.5-3.1s1.8-1.9,3.1-1.5c8.4,3.2,17.7,3.2,26.1,0,1.2-.5,2.6.1,3.1,1.4s-.1,2.6-1.4,3.1h0c-4.6,1.8-9.6,2.7-14.5,2.7M319.4,340.1c-4.9,0-9.7-.8-14.4-2.1-1.3-.3-2-1.7-1.7-3,.4-1.3,1.7-2,3-1.7h0c8.6,2.5,17.7,2.5,26.2,0,1.3-.4,2.6.3,3,1.6s-.3,2.6-1.6,3c-4.7,1.4-9.6,2.1-14.5,2.1M316.4,332.4c-1.3,0-2.4-1.1-2.4-2.4,0,0,0,0,0,0v-22.2l-11.2-25.6-.2-.3v-.3c0,0-.8-1.6-.8-1.6-.5-1.2,0-2.6,1.2-3.2,0,0,0,0,0,0,1-.4,2.3-.1,2.9.8h0c0,0,9.1-3.8,9.1-3.8.8-.3,1.7-.2,2.4.3l6.3,5,10.8-2.8c.6-.2,1.3,0,1.8.3l.2.2h.2c1.2.6,1.8,2,1.2,3.2l-12.1,27.7v22.2c0,1.3-1.1,2.4-2.4,2.4s-2.4-1.1-2.4-2.4v-22.7c0-.3,0-.7.2-1l10.6-24.3-8.1,2.1c-.2,0-.4,0-.6,0-.6,0-1.1-.2-1.5-.5l-6.1-4.8-7.7,3.3,10.5,24.1c.1.3.2.6.2,1v22.7c0,1.3-1.1,2.4-2.4,2.4M331.3,331.8c-.8,0-1.5-.4-2-1.1-.7-1.1-.4-2.6.7-3.3h0c2.9-1.9,4.9-4.6,4.4-10.5v-.3c.3-6.3,5.7-11.4,9.2-16.6,16.4-24.3,3.9-50.4-23.9-50.4s-40.3,26-23.9,50.4c3.2,4.8,8.9,10.2,9.2,16.6,0,0,0,.2,0,.3-.5,5.9,1.5,8.6,4.4,10.5,1.1.7,1.4,2.2.7,3.3-.5.8-1.5,1.2-2.4,1.1-.3,0-.6-.2-.9-.4-4.2-2.6-6.8-7.2-6.6-12.2v-2.4c0,0-.2-1.8-.2-1.8-1.2-4.2-5.7-8.8-8.1-12.4-18.3-27.1-4.2-57.9,27.8-57.9s46.2,30.8,27.9,57.9c-2.9,4.2-7,8.4-8.1,12.5l-.3,1.7v2.4c.2,4.9-2.3,9.6-6.6,12.2-.4.3-.9.4-1.4.4M298.9,269.8c0,0-.2,0-.2,0-1.3-.2-2.2-1.3-2.1-2.6,0,0,0,0,0,0,.2-2.4,1.2-4.7,2.8-6.5,2.2-2,5-3.2,8-3.3,1.3-.1,2.5.8,2.6,2.2s-.8,2.5-2.2,2.6c-1.9,0-3.6.7-5,1.9-.9,1-1.4,2.3-1.5,3.7-.2,1.2-1.2,2.1-2.4,2.1M280.2,261.2c-.4,0-.8-.1-1.1-.3l-8.8-4.8c-1.2-.6-1.6-2.1-1-3.3.6-1.2,2.1-1.6,3.3-1h0l8.8,4.8c1.2.6,1.6,2.1,1,3.2,0,0,0,0,0,0-.4.8-1.2,1.3-2.1,1.3M358.4,261c-1.3,0-2.4-1.1-2.4-2.4,0-.9.5-1.7,1.2-2.1l9.2-5c1.1-.7,2.6-.3,3.3.8.7,1.1.3,2.6-.8,3.3,0,0-.1,0-.2,0l-9.1,5c-.4.2-.7.3-1.1.3M345.3,245.9c-.5,0-.9-.2-1.3-.5-1.1-.8-1.3-2.3-.5-3.4l6.5-8.8c.8-1.1,2.3-1.3,3.4-.5s1.3,2.3.5,3.4l-6.6,8.8c-.5.6-1.2,1-2,1M295.4,244.2c-.8,0-1.6-.3-2.1-1l-5.9-8c-.8-1.1-.6-2.6.5-3.4,1.1-.8,2.6-.6,3.4.5l5.9,8c.8,1.1.6,2.6-.5,3.4-.4.3-.8.4-1.3.5M320.4,239.1c-1.3,0-2.4-1.1-2.4-2.4v-11.4c0-1.3,1.1-2.4,2.4-2.4s2.4,1.1,2.4,2.4v11.4c0,1.3-1.1,2.4-2.4,2.4"/>
        <path id="Path_7" class="st4" d="M455.6,341.3c-6.4,0-11.5-5.2-11.5-11.6,0-3,1.2-6,3.4-8.1l.9-.8-.9-2.5-.5-1.7-3.9.9c-12.8,2.3-23.4.7-28-6.6-1.7-2.8-2.5-6-2.2-9.3.4-7.5,5.2-16.5,12.9-25.4l.5-.5-.8-.8c-7.6-8.7-12.4-17.4-12.9-24.8,0-.4,0-.9,0-1.3,0-2.8.7-5.6,2.1-8,1.1-1.8,2.7-3.3,4.5-4.4l.2-1v-1.2c.1,0,.5-1.3.5-1.3l.2-.9,1-1.6.2-.3h0c0,0,.5-1,.5-1l.7-.7h0c0,0,.2-.3.2-.3l1.4-1.3,1.6-.8.4-.2h.1s.9-.5.9-.5h.9c0-.1.2-.2.2-.2h.6c0,0,1.7-.3,1.7-.3,4.6,0,8.8,2.8,10.6,7.1l.6,1.9,3.1.5,3.8.9,2-5.3c5.3-12.2,12.8-20.2,21.5-20,8.6.2,15.5,8.4,20.1,20.5l1.3,3.8,1.7-.4,2.8-.5c1.3-6.2,7.3-10.3,13.6-9,5.4,1.1,9.3,5.8,9.3,11.3l1.3.8c1.3,1,2.4,2.2,3.3,3.5,4.3,6.6,2.3,15.8-3.8,25.4l-2.6,3.5-.9,1.3-1,1.2-2.8,3.7,2.5,2.8c9.8,12,14.3,23.9,9.2,32.1-5.1,8.2-17.7,9.5-32.8,6l-1.3-.4-2,5.3c-5.3,12.2-12.8,20.2-21.5,20-1,0-2.1-.2-3.1-.4l-2.9-1.1-.5-.2-2.8,1.5c-1.1.4-2.3.5-3.4.5M455.6,336.2c3.5,0,6.4-2.9,6.4-6.4s-2.9-6.4-6.4-6.4-6.4,2.9-6.4,6.4c0,3.5,2.9,6.4,6.4,6.4M468.4,335.9h1.3c0-.1,1.2-.4,1.2-.4l1.7-.6.9-.5,1.5-1,1.8-1.6.5-.4,2-2.3h0c0-.1,2-3,2-3l1.1-1.9,1.7-3.3,1-2.1,1.7-4.5-4.2-1.4c-1.8-.6-3.6-1.3-5.4-2.1l-6.7-3.1-1.4.7c-5.2,2.5-10.6,4.6-16.1,6.4l-1.2.3.2.8.9,2.5h.2c.8-.2,1.5-.3,2.3-.3,6.4,0,11.5,5.2,11.5,11.5,0,1.5-.3,3.1-.9,4.5l-.6,1.1h.2c.8.4,1.7.5,2.5.6M434.3,313.3c2.7,0,5.3-.4,8-.9l3.3-.7-.7-2.6c-1-4.3-1.7-8.7-2.2-13.1l-.5-5.6-3.4-2.7c-2.5-2.1-4.9-4.2-7.1-6.4l-1.8-1.9-2.5,2.9c-5.7,7.3-8.9,14.1-9.3,19.4,0,.7,0,1.4,0,2.2.1,1.5.6,2.9,1.4,4.2,2.3,3.6,7.6,5.4,14.9,5.1M510,312.7c5.6-.4,9.6-2.2,11.5-5.3,3.4-5.4.2-15.2-8.7-26.1l-2.1-2.4-2.8,2.9c-2.3,2.2-4.6,4.3-7.2,6.5l-3.3,2.6-.6,4.1c-.5,3.3-1.1,6.4-1.8,9.5l-1.8,6.4.9.2c3.1.8,6.3,1.3,9.5,1.5,2,.2,4.1.2,6.1,0M450.4,310.4l.9-.2c2.4-.7,4.8-1.6,7.4-2.6l5.9-2.5-9.5-5.4-7.5-5,1.8,11.2,1.1,4.5ZM488.4,309.6l1.6-5.8,1.7-8.5-.8.6c-1.7,1.2-3.5,2.4-5.3,3.6-2.7,1.7-5.5,3.4-8.2,4.9l-1.2.6,3.4,1.5c1.7.7,3.4,1.3,5.1,1.9l3.7,1.2ZM470.3,302.2l4.2-2.2c2.7-1.5,5.5-3.2,8.3-4.9,1.9-1.2,3.7-2.4,5.4-3.6l4.5-3.3.5-5.6c.1-2.1.3-4.3.3-6.5,0-3.3,0-6.5,0-9.6l-.2-3.6-.2-.2c-3.3-2.4-6.8-4.8-10.5-7.2-3.9-2.4-7.8-4.6-11.6-6.5l-.8-.4-5.2,2.7c-2.4,1.4-4.9,2.8-7.3,4.4-1.9,1.2-3.7,2.4-5.4,3.6l-4.5,3.3-.5,5.6c-.1,2.1-.3,4.3-.3,6.5,0,2.3,0,4.5,0,6.7l.2,6.4.3.2c3.3,2.4,6.8,4.8,10.5,7.2s7.5,4.4,11.1,6.3l1.4.7ZM498.2,283.7l6.4-5.8,2.5-2.7-1.2-1.2c-1.3-1.2-2.6-2.5-4-3.7l-3.4-2.9v9c0,2.2-.2,4.3-.3,6.4v1ZM441.7,283.7v-2.1c-.1-2.3-.1-4.6,0-6.9,0-2.1.2-4.3.3-6.4v-1c0,0-5.4,4.9-5.4,4.9l-3.5,3.6,1.2,1.3c1.2,1.2,2.6,2.5,4,3.7l3.5,3ZM429.6,272l1-1c3.7-3.7,7.6-7.2,11.7-10.4l.6-.5.6-4.1c.5-3.3,1.1-6.4,1.8-9.5l1.8-6.4-3.2-.7-2.1-.3-1.3,3.4c-3.3,5.5-10.4,7.2-15.8,3.9-1.4-.9-2.7-2-3.6-3.4l-.6-1-1.5,1.7c-.9,1.5-1.3,3.1-1.3,4.8-.1,5.6,3.4,13.1,10.1,21.3l2,2.4ZM510.7,271.5l4.4-5.6,4.3-7c2-3.6,3.1-7.6,3-11.7l-1.4-4.3-1.6-1.7-.6,1c-2.1,3.2-5.7,5.1-9.6,5.1-4.6,0-8.8-2.8-10.7-7l-.5-1.6-2,.4-1.3.3.3,1.1c1.4,5.6,2.3,11.3,2.8,17.1l.2,3,6.9,5.6c1.5,1.3,2.9,2.6,4.2,4l1.4,1.4ZM492.7,256.4l-1-7.3c-.5-2.7-1-5.2-1.6-7.6l-.3-.9-4,1.2c-2.2.8-4.5,1.6-6.8,2.6l-3.3,1.5,3.4,1.8c2,1.1,4,2.3,6,3.6l7.5,5.1ZM448.7,255.7l1.8-1.3c1.4-1,2.9-2,4.4-2.9,2.5-1.6,5-3.1,7.5-4.5l1.9-1-4.7-1.9c-1.8-.7-3.7-1.4-5.4-2l-2.1-.6-1.6,5.8-1.7,8.4ZM469.9,243l7.2-3.3c2.4-1,4.8-1.9,7.2-2.7l4.2-1.3-1.1-3.1c-4.1-10.9-9.8-17.3-15.5-17.5h-1.3c0,.1-1.2.3-1.2.3l-1.7.6-.9.5-1.5,1-1.8,1.6-.5.4-2,2.3h0c0,.1-2,3-2,3l-1.1,1.8-1.8,3.4-1,2.1-1.7,4.5,2.1.6c3.8,1.3,7.6,2.8,11.6,4.5l2.7,1.3ZM430.5,242.8c3.5,0,6.4-2.9,6.4-6.4s-2.9-6.4-6.4-6.4-6.4,2.9-6.4,6.4c0,0,0,0,0,0,0,3.5,2.9,6.4,6.4,6.4h0M509.3,242.1c3.5,0,6.4-2.9,6.4-6.4,0-3.5-2.9-6.4-6.4-6.4-3.5,0-6.4,2.9-6.4,6.4,0,3.5,2.9,6.4,6.4,6.4,0,0,0,0,0,0"/>
        <path id="Path_8" class="st6" d="M314.5,470.2c1.8-.1,3.4-1,4.6-2.3,2.7-3.2,1.7-7.9-1.5-11.3l-17.2-19.3,3.2-3.2c.1-.1.2-.2.3-.4,4.8-6.5,5.8-13.5.7-19.9,0,0-.1-.1-.2-.2l-47.4-50.5c-.1-.2-.3-.3-.5-.4-6.8-4.8-13.5-4.2-19.4.4l-2.3,2.1-4.5-4.8,9.4-8.8h.1c3.6-3.9,4-8.6.9-11.6-3.1-2.7-7.6-2.7-10.7-.1l-.2.2-32.7,29.6c-.3.2-.5.5-.6.8-4,7.1.3,12.9,5.6,13.1h.5c2.1-.1,4.1-1,5.6-2.5l10.1-9.4,4.2,4.5-1.8,1.7c-6,6.1-8.2,13.2-2.3,20.8,0,0,.1.2.2.2l46.3,49.3c6.8,6.9,14.4,7.9,21.5,2.1,0,0,.1-.1.2-.2l2.8-2.6,18.4,19.9c0,.1.2.2.3.3,1.7,1.6,4.1,2.5,6.5,2.5M313.8,463.8c-.2,0-.4-.1-.6-.2l-.8-.6-20.5-22.1c-1.2-1.3-3.2-1.4-4.5-.2,0,0,0,0,0,0l-5,4.7-1.5,1.1c-3.7,2.2-7.2,1.5-11.3-2.6l-46.2-49.1-1.1-1.7c-1.9-3.5-1-6.8,3.3-11l1.4-1.2,23.1,24.5-4.2,3.8c-1.3,1.2-1.4,3.2-.3,4.5,0,0,0,0,0,0l23.6,25.9c1.9,2.1,4.5,3.4,7.3,3.7.2,0,.4,0,.6,0s.4,0,.6,0c2.2-.2,4.3-1.2,5.8-2.8l11.1-11.5c3.2-3.5,4.4-8.2,0-12.4l-24.4-25.3c-1.2-1.3-3.2-1.3-4.4-.2l-3.4,3.1-23.1-24.4h0c4.1-4.2,7.8-5.2,11.8-3.1l1.6,1,47,50,1.5,2.7c.8,2.6.4,5.4-1.2,7.7l-1.1,1.6-5.1,5.1c-1.2,1.2-1.3,3.1-.1,4.4l19.3,21.6c1.5,1.6,1.4,2.6,1.3,2.8-.1,0-.2,0-.3,0M277,437h-.3c-1.1-.2-2.1-.8-2.8-1.6l-21.4-23.5,15.2-13.7,22.3,23.1c1.1,1,1,1.5,1,1.6,0,.3-.2.9-1.1,1.9l-11,11.3c-.5.6-1.2.9-1.9.9M281.7,425.8c.6,0,1.3-.2,1.8-.6,1.4-1,1.8-3,.8-4.4,0,0,0,0,0,0l-.7-.9c-1.1-1.4-3.1-1.7-4.5-.7-1.4,1-1.7,3-.7,4.4l.7.9c.6.9,1.6,1.4,2.7,1.3M268,423.3c.6,0,1.3-.2,1.8-.6,1.4-1,1.8-3,.8-4.4,0,0,0,0,0,0l-.4-.5c-1-1.5-3-1.9-4.5-.9-1.5,1-1.9,3-.9,4.5,0,0,0,0,0,.1l.4.5c.6.9,1.6,1.4,2.7,1.4M270,412c1.8,0,3.2-1.5,3.1-3.3,0-1-.5-1.9-1.2-2.5l-.4-.3c-1.4-1.1-3.4-.8-4.5.6-1,1.4-.8,3.3.5,4.4l.4.3c.6.5,1.3.7,2.1.7M254.8,401.1l-31.8-33.7,2.7-2.5,31.9,33.7-2.7,2.5ZM202.4,377.3c-.2,0-.5,0-.7-.2,0,0-.7-.7,0-2.4l.2-.4,32.1-29.1.8-.5c.5-.2,1.1-.1,1.5.2,0,0,.5.4-.6,1.7l-.5.6-31.5,29.4c-.4.4-.9.7-1.4.7"/>
        <path id="Path_9" class="st5" d="M601.6,322.3c-1.6-.2-2.7-1.6-2.6-3.1,0-.8.5-1.6,1.3-2.1,27.8-18.7,25.5-38.2,21.2-59.8l-.4-2.1-3.7-.7c-21.5-4.3-41.1-6.6-59.8,21.2-.6,1-1.8,1.4-2.9,1.2h-.2c0,0-.7-.4-.7-.4,0,0-.1,0-.1,0-1.3-.9-1.7-2.7-.8-4,0,0,0,0,0,0,20.7-30.8,43.5-28.1,65.7-23.7l1.3.3-2.3-14.8c-1.4-15.1,1-30.8,16.2-46.3,1.1-1.1,2.9-1.1,4,0,1.1,1.1,1.1,2.9,0,4-18.2,18.5-16.1,36.9-12.3,56l.5,2.3.9.2c19.1,3.7,37.5,5.8,56-12.4,1.1-1.1,2.9-1.1,4,0s1.1,2.9,0,4h0c-17.7,17.4-35.7,18-52.7,15.4l-6.9-1.2.9,5.9.4,2.3.3,2.2.9,6.2c1.2,16.8-3.1,33.4-26.2,48.9h-.1c0,0-.8.4-.8.4,0,0-.2,0-.3,0h-.6s0,0,0,0ZM594.3,313.3c-.8,0-1.5-.4-1.9-1l-26.8-32.5c-1-1.2-.9-3,.3-4,1.2-1,3-.9,4,.3,0,0,0,0,0,0l26.8,32.5c1,1.2.8,3-.4,4-.6.5-1.3.7-2.1.6M604.3,309.2c-.8,0-1.4-.4-1.9-1l-31.6-38.3c-1-1.2-.8-3,.4-4,0,0,0,0,0,0,1.2-1,3-.8,4,.4,0,0,0,0,0,0l31.6,38.3c1,1.2.8,3-.4,4-.6.5-1.3.7-2.1.6M610.6,300.5c-.8,0-1.5-.4-1.9-1l-28.8-34.9c-1-1.2-.8-3,.4-4s3-.8,4,.4h0l28.8,34.9c1,1.2.8,3-.4,4-.6.5-1.3.7-2.1.6M616.1,290.3c-.9,0-1.9-.3-2.5-1l-23.4-28.4c-1-1.2-.8-3,.4-4,1.2-1,3-.8,4,.4l23.4,28.4c1,1.2.8,3-.4,4-.4.4-1,.6-1.6.6M618.5,277c-.9,0-1.9-.3-2.5-1l-13.1-15.9c-1-1.2-.9-3,.3-4,1.2-1,3-.9,4,.3,0,0,0,0,0,0l13.1,15.9c1,1.2.8,3-.4,4-.4.4-1,.6-1.6.6M645.6,247.9c-.8,0-1.5-.4-2-.9l-13.9-15.1c-1.1-1.2-1-3,.2-4,1.2-1.1,3-1,4,.2l13.9,15.1c1.1,1.2,1,3-.1,4-.6.5-1.3.8-2.1.8M658.3,246.4c-.8,0-1.5-.4-2-.9l-24.9-27.1c-1.1-1.2-1-3,.2-4s3-1,4,.2l24.9,27.1c1.1,1.2,1,3-.2,4.1-.6.5-1.3.8-2,.7M677.2,236.4c-.8,0-1.5-.4-2-.9l-33.6-36.5c-1-1.2-.9-3,.3-4,1.2-1,2.9-.9,4,.2l33.6,36.5c1.1,1.2,1,3-.2,4.1-.6.5-1.3.8-2.1.7"/>
        <path id="Path_10" class="st4" d="M291.4,218.6c-2.3,0-4.6-.4-6.8-1.2l-1.2-.6h-64.1c-8-2-10.4-10.3-5.7-17.7l26-44.3v-39.4c0-.7.3-1.4.8-1.9l.5-.2-2.2-.4c-3.3-1.4-4.8-5.2-3.4-8.4,1-2.4,3.3-3.9,5.9-3.9h28c3.6,0,6.4,2.9,6.4,6.4,0,2.6-1.5,4.9-3.9,5.9l-2.4.5.4.2c.5.5.8,1.2.8,1.9v39.4l2.7,4.7v-5.3s0-14.2,0-14.2c0-1.5,1.1-2.7,2.6-2.7s2.7,1.1,2.8,2.6c0,0,0,.1,0,.2v11.7h25.3v-11.7c0-1.5,1.1-2.7,2.6-2.7,1.5,0,2.7,1.1,2.7,2.6,0,0,0,0,0,.1v62.1c-.5,10.7-9.1,16.5-17.7,16.5M291.4,213.3c4.3.1,8.4-2,10.8-5.6l1.5-4.3v-1.4c.1,0,.1-45,.1-45h-25.3v43.4c-.2,3.5,1,6.9,3.5,9.3l2.4,1.8h.3c0,.1.4.2.4.2h.2c0,0,.5.4.5.4l.7.3,4.7.8ZM276.6,211.5l-.2-.2-1.2-2h-47.4c-1.9,0-4.7-.3-6.2-2.2-.4-.5-.7-1-.9-1.6-.4-2,0-4.1,1.3-5.8l14.9-26.1c.5-.8,1.4-1.3,2.3-1.3h33.9v-1l-2.9-6.2-4.8-8.2c-.2-.4-.4-.9-.4-1.4v-40.2c0-.7.3-1.4.8-1.9l.4-.2h-22.6l.4.2c.5.5.8,1.2.8,1.9v40.2c0,.5-.1.9-.4,1.4l-26.4,45c-2.2,3.4-2,6.1-.7,7.8l1.7,1.3,1.3.5h56.2ZM286.5,206.9c-3.7,0-6.8-3-6.8-6.8,0-3.7,3-6.8,6.8-6.8,3.7,0,6.8,3,6.8,6.8h0c0,3.7-3,6.8-6.8,6.8M273.5,204.1v-.6c-.3-1.1-.3-2.2-.3-3.2v-22.7h-32.3l-14.2,24.9c-.3.4-.5.8-.7,1.3l.3.2c.5.1,1.1.2,1.6.2h45.6ZM286.5,201.6c.8,0,1.4-.7,1.4-1.5,0-.8-.6-1.4-1.4-1.4-.8,0-1.4.6-1.5,1.4,0,.8.6,1.4,1.4,1.4,0,0,0,0,0,0M295.7,186.1c-3.1,0-5.7-2.6-5.7-5.7s2.6-5.7,5.7-5.7c3.1,0,5.7,2.6,5.7,5.7h0c0,3.1-2.6,5.7-5.7,5.7M295.7,180.8c.2,0,.4-.2.4-.4,0-.2-.2-.4-.4-.4-.2,0-.4.2-.4.4,0,0,0,0,0,0,0,.2.2.4.4.4M287.3,172.5c-3.7,0-6.8-3-6.8-6.8s3-6.8,6.8-6.8,6.8,3,6.8,6.8h0c0,3.7-3,6.8-6.8,6.8M287.3,167.2c.8,0,1.4-.7,1.4-1.5,0-.8-.7-1.4-1.5-1.4-.8,0-1.4.7-1.4,1.4,0,.8.7,1.4,1.5,1.4M277.2,137.5c-3.6,0-6.4-2.9-6.4-6.4s2.9-6.4,6.4-6.4h27.5c3.6,0,6.4,2.9,6.4,6.4,0,3.6-2.9,6.4-6.4,6.4h-27.5ZM304.6,132.2c.6,0,1.1-.5,1.1-1.1,0-.6-.5-1.1-1.1-1.1h-27.5c-.6,0-1.1.5-1.1,1.1,0,.6.5,1.1,1.1,1.1h27.5ZM269.1,108.1c.6,0,1.1-.5,1.2-1.1,0-.6-.5-1.1-1.1-1.2,0,0,0,0,0,0h-28c-.6,0-1.1.5-1.1,1.2,0,.6.5,1.1,1.1,1.1h28Z"/>
        <path id="Path_11" class="st6" d="M342,188c-1.5,0-2.7-1.2-2.7-2.7,0,0,0,0,0-.1,1.4-26.8,10.1-43.5,26.6-48.6l3.1-.8,2.8-1.1c5.9-2.4,10.2-7.6,11.6-13.8h0s-1.9-1.7-1.9-1.7c-.9-.8-1.8-1.7-2.6-2.5l-.2-.2c-2.9-4-4.9-8.7-5.8-13.6l-2.3-11.9c-2.1-10.8-1.8-18.9.8-24.8,2.2-4.9,6.4-8.6,11.6-10.1l1.8-.5,1.9-1.2c3.7-2,7.9-2.9,12.2-2.6l4.5.5c10.6.5,18.6,4,23.2,10.9,4.5,6.8,5.3,16.3,3.2,27.9h0c0,.1-2.9,12.1-2.9,12.1h0c-1.3,5.6-3.6,10.9-6.9,15.5l-.2.3-1.9,1.9,1.2,2.6c4,7.9,11.9,13.2,20.8,13.8.2,0,.4,0,.6.2,15.8,5.9,20.5,25.2,21.4,47.6,0,1.5-1.1,2.7-2.6,2.8,0,0,0,0,0,0h-117.3ZM357.2,182.6l-1.6-33.1-.6.7c-5.2,6.5-8.6,16.3-9.9,30.1l-.2,2.2h12.3ZM397.7,182.6v-35.9l-5.1,3.6-1.6,1.2c-1.2.9-2.9.6-3.7-.6,0,0,0,0,0-.1l-8.7-13.6-1.9,1.2c-1.8,1-3.8,1.9-5.8,2.5-.1,0-.2,0-.3,0-3.4.6-6.7,2-9.6,3.9h0c0,0,1.9,37.7,1.9,37.7h35.1ZM438.5,182.6l1.9-37.9c0-.4.1-.7.3-1h0c0-.1-1.9-1-1.9-1l-4.2-.7c-3.3-.8-6.5-2.1-9.4-3.9l-1.9-1.4-8.6,14.2c-.5.8-1.3,1.3-2.2,1.3-.6,0-1.1-.2-1.6-.5l-2.1-1.4-5.8-3.8v36.1h35.4ZM456.5,182.6v-1.4c-1.1-15.5-4.2-27.3-10.6-33.9l-.2-.2-1.8,35.5h12.6ZM409,177.3c-1.5,0-2.7-1.2-2.7-2.7v-10.9c0-1.5,1.2-2.7,2.7-2.7h23.3c1.5,0,2.7,1.2,2.7,2.7v10.8c0,1.5-1.2,2.7-2.7,2.7h-23.3ZM411.7,171.8h17.8v-5.4h-17.8v5.4ZM411.6,145.7l6.9-11.5-1.7,1.3c-3.1,2.1-6.5,3.6-10.1,4.5l-2.9.4,7.8,5.4ZM390,145.6l7.2-5.3h-1c-3.7-.9-7.1-2.4-10.2-4.5l-3.1-2.5-.5.5,7.6,11.8ZM401.4,135.3c4.5-.2,8.8-1.7,12.5-4.3l2.4-1.8-.3-.5c-.6-1-1.2-2-1.7-3l-.6-1.3-.9.6c-3.4,2.3-7.5,3.5-11.6,3.5-4-.1-8-1.3-11.4-3.3l-1.6-1-.4,1.3c-.3.7-.6,1.4-.9,2l-.7,1.3,3,2.4c3.6,2.6,7.9,4,12.4,4M401,123.3c3.9,0,8.1-1.5,12.6-5.6l2.2-2.1,2-3.2c1.2-2.2,2.1-4.5,2.9-6.8l1.1-3.5,2.8-11.8-.3.3c-.3.2-.7.3-1.1.4l-1.3,6.2v.5c-.3,1.5-1.1,2.8-2.2,3.8-1.4,1.1-3.2,1.6-4.9,1.6-.3,0-.7,0-1,0h-.5c-5.1,0-9-2.1-10.8-7-.2-.6-.4-1.2-.6-1.8v-.2c0,0,0,0,0,0v-.3c0,0,0,0,0,0-.1-.6-.2-1.2-.2-1.8v-.9h-2.8v.9c0,.7-.1,1.4-.3,2h0c0,.1,0,.3,0,.3v.4c-.2.5-.4,1-.6,1.5-1.8,5-6,7.1-11.3,7-.3,0-.7,0-1,0-1.8,0-3.5-.5-5-1.6-1.1-1-1.9-2.3-2.1-3.8v-.5c0,0-1.4-6.2-1.4-6.2h-.5c0,0-.6-.4-.6-.4l2.1,11.3c.6,3.1,1.6,6.2,3.2,9l1.5,2.2,2,1.9c4.9,4.5,9.7,7.4,14.3,8,.6,0,1.3.1,1.9.2M386.6,99.3c4.1,0,6.4-1.3,7.5-4.4.5-1.2.7-2.4.8-3.7v-1c-4.2-1.3-8.6-1.5-12.9-.7l-1.1.3,1.4,6.7c0,.8.3,1.5.8,2,.8.5,1.7.7,2.6.7.3,0,.6,0,.9,0M413.8,99.3c.3,0,.6,0,.9,0,.9,0,1.8-.2,2.6-.7.5-.5.8-1.2.8-2l1.3-6.6-1.2-.3c-3.8-.7-7.7-.6-11.5.3l-1.3.4v.8c0,1.3.3,2.5.8,3.7,1.1,3.1,3.5,4.5,7.5,4.4M424.9,88.2l.3-1.9c.3-2.1.4-4.2.4-6.3v-.2l-4.8.9c-6,1.1-12.1,1.1-18.1,0-4.5-.9-8.7-3-12.1-6.1h-.2c0-.1-.6.8-.6.8-3.2,4.6-7.5,8.2-12.6,10.4-.3.2-.7.2-1,.3l-1.1-.3v.6c0,0,.3,1.7.3,1.7l.8-.9c7.1-3.2,14.5-2.6,21.6-.3h5c6.7-2.3,14.1-2.2,20.8.2l1.1,1ZM374.8,81.2l.3-.2c5.8-2.7,10.6-7,12-12,.4-1.4,1.9-2.3,3.3-1.9.5.1,1,.4,1.3.8,3.1,3.8,7.4,6.5,12.2,7.5,4.8,1,11,.9,19.7-.7l1.6-.3-.5-2.3c-.5-2.1-1.4-4.1-2.5-5.9-3.3-5-9.3-8.1-19-8.5h-.3c-5.6-1-10.7-.7-15.5,2.7l-.9.4c-4.5.7-8.3,3.5-10.1,7.7-1.4,3.6-2,7.5-1.7,11.4v1.3Z"/>
        <path id="Path_12" class="st3" d="M543.1,216.1c-3.8.2-7.5-.5-11-1.9-.4-.2-.8-.3-1.2-.5-2.8-1.3-5.3-3.1-7.4-5.2l-2.1-2.1c-8-8.1-9.8-20.4-4.5-30.5l.2-.3-26.6-27.1c-10-10.3-9.9-26.7.4-36.8l2.1-2.1c10.3-10,26.7-9.9,36.8.4l25.6,26.1,6.8-6.7c10.2-10.1,26.7-10,36.8.2l2.1,2.1c10.1,10.2,10,26.6-.2,36.8l-40.6,40.2c-4.6,4.6-10.7,7.2-17.2,7.5M542.9,210.3c5-.2,9.8-2.3,13.3-5.8l19.7-19.5-1.4-.3c-1.6-.5-3.2-1.1-4.8-1.8-10.4-4.8-18.7-13.2-23.5-23.6l-1.4-4.3-19,18.8c-7.9,7.8-7.9,20.6-.1,28.5l2.1,2.1c1.9,1.9,4.2,3.4,6.6,4.5,2.7,1.1,5.6,1.6,8.5,1.5M546.5,205c-1,0-2.1-.2-3-.7-3.9-1.7-5.7-6.4-4-10.3,1.7-3.9,6.4-5.7,10.3-4s5.7,6.4,4,10.3c-1.3,2.9-4.1,4.7-7.3,4.6M546.6,199.2c1.1,0,2-.9,2-2,0-1.1-.9-2-2-2-1.1,0-2,.9-2,2,0,.8.5,1.5,1.2,1.8.2.1.5.2.8.2M530.3,194.8c-4.3,0-7.8-3.6-7.7-8,0-4.3,3.6-7.8,8-7.7,1,0,2.1.2,3,.7,4,1.8,5.7,6.4,4,10.3-1.3,2.9-4.1,4.7-7.3,4.6M530.4,189c1.1,0,2-.8,2-1.9,0-1.1-.8-2-1.9-2-1.1,0-2,.8-2,1.9,0,.8.4,1.5,1.2,1.9.2.1.5.2.8.2M546.7,186.7c-1,0-2.1-.2-3-.7-3.9-1.7-5.7-6.4-4-10.3,1.7-3.9,6.4-5.7,10.3-4s5.7,6.4,4,10.3c-1.3,2.9-4.1,4.7-7.3,4.6M546.8,180.9c.8,0,1.5-.5,1.9-1.2.4-1,0-2.2-1-2.6-1-.4-2.2,0-2.6,1-.4,1,0,2.2,1,2.6,0,0,0,0,0,0,.2.1.5.2.8.2M580.7,180.1l16-15.9c7.9-7.8,8-20.6.1-28.5l-2.1-2.1c-7.8-7.9-20.6-8-28.5-.1,0,0,0,0,0,0l-16.5,16.3.2,2.1c1.5,9.4,11.3,20.9,22.3,25.7.7.3,1.5.6,2.2.9,1.8.6,3.6,1.1,5.5,1.3l.7.2ZM520.6,170.7l1-1.1,29.7-29.4-5-5.1-.3,1.4c-.5,1.6-1.1,3.2-1.8,4.8-4.9,10.4-13.3,18.7-23.8,23.4l-4.3,1.4,4.5,4.6ZM511,160.9l2.1-.2c9.5-1.5,20.9-11.2,25.9-22.1.3-.7.6-1.5.9-2.2.7-1.8,1.1-3.6,1.4-5.5l.2-.7-15.8-16.1c-7.8-8-20.5-8.1-28.5-.3l-2.1,2.1c-7.9,7.8-8.1,20.5-.3,28.5l16.3,16.6ZM570.5,143.6c-.3,0-.7,0-1-.2-.2,0-.4-.2-.5-.3-1.4-.9-1.7-2.7-.9-4,0,0,0,0,0,0,4.2-6.4,12.7-8.1,19-4,1.4.9,1.7,2.7.9,4-.9,1.4-2.7,1.7-4,.9-3.7-2.4-8.6-1.4-11,2.3,0,0,0,0,0,0-.6.9-1.5,1.4-2.6,1.3M501.4,142.9c-.4,0-.7-.2-1.1-.4-6.3-4.2-8.1-12.7-3.9-19,0,0,0,0,0,0,.9-1.3,2.7-1.7,4-.8s1.7,2.7.8,4c-2.4,3.6-1.4,8.6,2.2,11,0,0,0,0,0,0,1.2.8,1.6,2.2,1.1,3.5,0,.2-.2.4-.3.5-.6,1-1.8,1.5-3,1.3"/>
        <path id="Path_13" class="st5" d="M129.2,348.8c-1.6,0-3.2,0-4.9,0h-.1s-2-.3-2-.3c-1.5-.2-2.6-1.5-2.4-3,.1-1.1.9-2,1.9-2.3h.5c1-.5,2-.9,3-1.4,16.4-7.6,23.7-25.7,16.9-40.1s-25.2-20.4-41.6-12.8c-1,.5-2,1-2.9,1.5l-.4.3c-1.3.8-3,.4-3.8-.9-.6-.9-.6-2.1,0-3l1.1-1.7h0c9.7-13.2,26.4-19.1,42.1-15l3.2,1-1.9-1.7c-12.5-12.5-15.3-31.8-6.9-47.3h0c0-.1,1.1-1.9,1.1-1.9.8-1.3,2.5-1.7,3.8-.9.9.6,1.4,1.6,1.3,2.7v.4c-.1,1.1-.2,2.2-.2,3.3,0,18,13.3,32.3,29.2,32.3s29.2-14.2,29.2-32.3l-.2-3.3v-.4c-.3-1.5.8-2.9,2.3-3.1,1.1-.2,2.2.4,2.7,1.3l1.1,1.8h0c8.4,15.7,5.6,34.9-6.9,47.4l-.6.6,1.4-.4c17.2-4,35.1,3.7,43.8,19.1h0c0,.1.9,2,.9,2,.7,1.4.1,3-1.2,3.7-1,.5-2.1.4-3-.3l-.4-.3c-.8-.6-1.7-1.2-2.7-1.8-15.3-9.5-34.5-5.7-42.8,7.7-8.4,13.5-3.3,32.3,12,41.8,1,.6,1.9,1.1,2.9,1.6l.4.2c1.4.6,2,2.3,1.4,3.6-.4,1-1.4,1.6-2.5,1.6h-2.1s-.1,0-.1,0c-16.3-1-30.3-11.7-35.5-27.1l-1-3.5-.2,1.1c-4.3,16.8-19,28.8-36.3,29.9M134.7,342.4l2.5-.6c1.4-.5,2.8-1,4.1-1.6,17.2-8.2,24.5-28.8,16.2-46-8.1-16.9-28.3-24.3-45.4-16.5-1.3.6-2.6,1.3-3.9,2.1l-2.1,1.5,2.7-.6c15.7-2.5,31.5,4.5,38.1,18.8s1.9,30.9-10.2,41.3l-2.1,1.7ZM192.7,340.9l-1.9-1.9c-10.7-11.8-13.4-28.8-5.1-42.2,8.3-13.3,24.8-18.5,40.1-14.1l2.6.9-1.9-1.8c-1.1-.9-2.3-1.8-3.6-2.6-16.3-9.9-37.5-4.7-47.4,11.6-9.7,16-4.9,36.9,11,47,1.2.8,2.5,1.5,3.9,2.1l2.4.9ZM135.9,328.1c-.5,0-1.1-.2-1.5-.5-12.6-8.7-20.8-22.4-22.5-37.6-.2-1.5.9-2.9,2.4-3s2.9.9,3,2.4c1.5,13.6,8.9,25.9,20.2,33.7,1.2.9,1.6,2.6.7,3.8-.5.8-1.4,1.2-2.3,1.2M194.3,326.9c-.9,0-1.8-.4-2.3-1.1-.9-1.2-.7-2.9.5-3.8,10.2-7.6,16.9-19.1,18.5-31.7.1-1.5,1.4-2.6,2.9-2.5,1.5.1,2.6,1.4,2.5,2.9,0,.1,0,.2,0,.3-1.8,14.1-9.2,26.8-20.6,35.4-.4.3-1,.5-1.5.5M165.7,299.6l.2-1.1,1.4-4-1.7.2h-1.5c0-.1.5,1.1.5,1.1l1.1,3.8ZM165.6,289.2c2.1,0,3.8-1.7,3.8-3.8,0-2.1-1.7-3.8-3.8-3.8-2.1,0-3.8,1.7-3.8,3.8,0,0,0,0,0,0,0,2.1,1.7,3.7,3.8,3.7h0M174.3,282.6l1.3-1.5,1.3-1.3-2.5.6-1.3.2.8,1.2.2.7ZM156.8,282.5l.2-.7,1.1-1.6-3.6-.8-1.3-.5.4.3c1,.9,1.9,1.8,2.8,2.8l.4.5ZM166.4,275.7c19.1,0,34.5-15.5,34.5-34.5,0-1.5,0-2.9-.3-4.4l-.5-2.6-.6,2.7c-4.3,15.3-17.4,26.6-33.1,26.6s-28.8-11.3-33.1-26.6l-.6-2.7-.5,2.6c-2.4,18.9,10.9,36.2,29.8,38.6,1.5.2,3,.3,4.4.3M186.7,242.5c-.5,0-.9,0-1.3-.3-11.8-5.9-25.5-6.6-37.8-2-1.4.5-3-.2-3.5-1.6s.2-3,1.6-3.5c5.9-2.2,12.2-3.4,18.6-3.4,8.2,0,16.3,1.9,23.6,5.6,1.4.7,1.9,2.3,1.2,3.7-.5.9-1.4,1.5-2.4,1.5"/>
        <path id="Path_14" class="st6" d="M532.7,449.4c-1.1,0-2.3-.3-3.3-.8l-19.8-11.4-1.2.8c-.9.4-2,.6-3,.6-1,0-2-.2-3-.6l-2.2-1.5-22.8,11.8-1,.3h-.4c-1.5,0-2.6-1.3-2.5-2.8,0-.9.6-1.8,1.4-2.2l22.9-11.9v-.7c-.2-3.1,1.7-5.9,4.5-7.1h.2v-21.6c0-2.3,1.3-4.4,3.2-5.7l19.8-11.4-.2-.9c0-3.1,1.9-6,4.8-7.1v-17.3s-.3,0-.3,0c-2.8-1.2-4.7-4-4.7-7.1l.2-1.1-23.3-12.2c-1.3-.7-1.8-2.3-1.2-3.6.7-1.3,2.3-1.8,3.6-1.2,0,0,0,0,0,0l23.4,12.2,1.9-1.2c.9-.4,2-.6,3-.6,1,0,2.1.2,3,.6l1.5,1,19.6-11.3c2-1.1,4.5-1.1,6.5,0l19.4,11.2,1.4-.9c.9-.4,2-.6,3-.6,1,0,2,.2,3,.6l1.7,1.2,21.8-11.4c1.3-.6,2.9,0,3.5,1.2.6,1.3.1,2.8-1.1,3.5l-21.5,11.2.3,1.3c0,3.1-1.8,5.9-4.7,7.1v17.6c2.9,1.2,4.7,4,4.7,7.1l-.2,1.1,19.3,11.1c2,1.2,3.2,3.4,3.3,5.7v27.1c0,2.3-1.3,4.4-3.3,5.7l-23.5,13.6c-2,1.1-4.5,1.1-6.5,0l-19.5-11.3-1.7,1.1c-.9.4-2,.6-3,.6-1,0-2.1-.2-3-.6l-1.6-1.1-19.4,11.2c-1,.6-2.1.8-3.3.8M532.7,444.2c.2,0,.4,0,.6-.1l19.2-11.1-.3-1.4c0-3.1,1.8-5.9,4.7-7.1h.4v-17.3h-.4c-2.8-1.3-4.7-4.1-4.7-7.2l.2-1.3-14.8-8.5-1.6,1c-.9.4-1.9.6-3,.6-1,0-2.1-.2-3-.6l-2-1.4-19.5,11.3c-.3.3-.6.7-.6,1.1v21.5h.4c2.8,1.3,4.7,4.1,4.7,7.1l-.4,1.9,19.4,11.2c.2,0,.4.1.6.1M587.5,444.2c.2,0,.4,0,.6-.1l23.5-13.6c.3-.3.5-.6.6-1.1v-27.1c0-.4-.3-.8-.6-1.1l-19.1-11.1-2,1.3c-.9.4-2,.6-3,.6-1,0-2.1-.2-3-.6l-1.9-1.3-15.1,8.7.2,1c0,3.1-1.8,5.9-4.7,7.1h-.2s.2,17.3.2,17.3c2.8,1.2,4.7,4,4.7,7.1l-.2,1.3,19.5,11.2c.2,0,.4.1.6.1M560,433.8c1.3,0,2.4-1.1,2.4-2.4,0-1.3-1.1-2.4-2.4-2.4-1.3,0-2.4,1.1-2.4,2.4,0,1.3,1.1,2.4,2.4,2.4M505.5,433.3c1.3,0,2.4-1.1,2.4-2.4,0-1.3-1.1-2.4-2.4-2.4-1.3,0-2.4,1.1-2.4,2.4,0,1.3,1.1,2.4,2.4,2.4s0,0,0,0M513.5,410.1h-.3c-1.5-.1-2.5-1.4-2.4-2.8,0-.9.6-1.7,1.3-2.1l19.7-11.1c1.3-.7,2.9-.3,3.6,1,.7,1.3.3,2.9-1,3.6l-19.7,11.2c-.4.2-.7.3-1.1.3h0ZM569.8,410h-.3c-1.5-.1-2.5-1.4-2.4-2.8,0-.9.6-1.7,1.3-2.1l19.7-11.2c1.3-.7,2.9-.3,3.6.9.7,1.3.3,2.9-.9,3.6,0,0,0,0,0,0l-19.7,11.1c-.4.2-.7.3-1.1.3h0ZM560,402.4c1.3,0,2.4-1.1,2.4-2.4s-1.1-2.4-2.4-2.3c-1.3,0-2.3,1.1-2.4,2.4,0,1.3,1.1,2.4,2.4,2.4M564.8,394.2l15.2-8.8-.2-.9c0-3.1,1.8-5.9,4.7-7.1h.6v-17.5h-.6c-2.8-1.3-4.7-4.1-4.7-7.2l.3-1.7-19.1-11h-1.4l-19.3,11.2.3,1.4c0,.8-.1,1.6-.3,2.3l-.8,1.8.6-.5,19.7-11.1c1.3-.7,2.9-.3,3.6,1,.7,1.3.3,2.9-1,3.6h0l-19.7,11.1c-.4.2-.7.3-1.1.3h-.4c-.9,0-1.7-.6-2.1-1.3-.3-.6-.4-1.3-.2-2l.3-.5-1.2,1.3c-.6.5-1.2.9-1.9,1.1h-.3v17.3h.5c2.8,1.3,4.7,4.1,4.7,7.2l-.2,1.1,14.9,8.6,1.5-1c.9-.4,2-.6,3-.6,1,0,2,.2,3,.6l1.8,1.3ZM587.5,386.8c1.3,0,2.4-1.1,2.4-2.4s-1.1-2.4-2.4-2.3c-1.3,0-2.4,1.1-2.4,2.4,0,1.3,1.1,2.4,2.4,2.3h0M533.2,386.6c1.3,0,2.4-1.1,2.4-2.4,0-1.3-1.1-2.4-2.4-2.4-1.3,0-2.4,1.1-2.4,2.4,0,1.3,1.1,2.4,2.4,2.4h0M539,357.3l.2-.3h0s0,0,0,0v-.2c.1,0,0,.2,0,.2h0s0,.1,0,.1l-.2.3ZM532.9,355.1c1.3,0,2.4-1.1,2.4-2.4s-1.1-2.4-2.4-2.4c-1.3,0-2.4,1.1-2.4,2.4h0c0,1.3,1.1,2.4,2.4,2.4M587.5,355.1c1.3,0,2.4-1.1,2.4-2.4,0-1.3-1.1-2.4-2.4-2.4-1.3,0-2.4,1.1-2.4,2.4,0,1.3,1.1,2.4,2.4,2.4"/>
        <path id="Path_15" class="st2" d="M658.5,442.4c-1.4,0-2.5-1.1-2.5-2.5,0-.3,0-.7.2-1,5.8-14.1,18.7-22.9,32.3-23h1.2s-.7-3.9-.7-3.9c-1.2-6-3-11.9-5.2-17.5l-1.3-3-.6,2.7c-1,3.9-3.1,7.5-6.1,10.2-3.2,2.7-7.4,4.1-11.6,3.8-2.8-.1-5.6-.7-8.2-1.6-.2,0-.3-.1-.5-.2-9.8-5.9-13-18.5-15.5-29.7-2.8-12.6-4.7-22.3-10.6-27-1.1-.9-1.2-2.5-.4-3.5.3-.3.6-.6,1.1-.8,29-11.1,51.8-9.4,63.1,9.1l.2.3.8-1c3.7-4.3,8.9-7.1,14.5-7.8,8.9-1.3,19.6,1.9,31.2,8.5,1.2.7,1.6,2.2,1,3.4-.2.4-.5.7-.9.9-4.1,2.3-6.3,8-10,17.4-2.9,7.4-6.6,16.4-14.5,19.6-.2,0-.3.1-.5.1-1.4.3-2.8.4-4.2.4-3.9.2-7.6-1.4-10.2-4.3-1.6-2-2.7-4.3-3.1-6.8v-.8c-.1,0-1.5,3-1.5,3-1.8,4.2-3.2,8.6-4.1,13.1l-.2.5v.3c1.6,4.9,2.7,9.8,3.5,14.8v.5s.9.2.9.2c9.6,2.2,18.9,9.1,25.8,22,.7,1.2.2,2.8-1,3.4-.4.2-.8.3-1.2.3h-60.7ZM714.8,437.4l-1-1.5c-15.6-22.4-40.5-17.4-51,.9l-.3.6h52.3ZM664.2,403.3c.5,0,.9,0,1.3,0,2.6,0,5-1,7-2.6,3-2.6,5.3-7.6,5.7-15.5v-2.1c0,0-.3-.6-.3-.6l-1.4-2.2-12.8,5.7c-.3.1-.6.2-1,.2-1.4,0-2.5-1.1-2.6-2.5,0-1,.6-1.9,1.5-2.4l12-5.4-1.1-1.6c-.9-1.2-1.9-2.4-2.9-3.5l-1.2-1.2-14.7,2.1c-.1,0-.3,0-.4,0-1.4,0-2.5-1.2-2.5-2.6,0-1.2.9-2.3,2.1-2.5l10.8-1.6-.5-.5c-3.1-2.6-6.6-4.6-10.4-6-1.3-.5-2-1.9-1.5-3.2.5-1.3,1.9-1.9,3.2-1.5,4,1.5,7.8,3.6,11.1,6.2l.4.3v-7.2c-.2-1.4.9-2.6,2.3-2.6s2.6,1,2.6,2.4c0,0,0,0,0,0l.2,11.9h0s1.1,1.2,1.1,1.2c1,1.2,2.1,2.3,3.1,3.6l.9,1.2,2.1-7.2c.4-1.3,1.8-2.1,3.1-1.7,1.3.4,2.1,1.8,1.7,3.1,0,0,0,0,0,0l-3,10.7-.2.3,1.1,1.6.6,1.1,1.3.4c3.4.5,6.8-.7,9-3.2l.3-.4-1.6-1.1c-3.2-2.8-4.2-7.3-2.6-11.3.5-1.3,1.1-2.5,1.7-3.7l.2-.3-1.1-2.1c-8.7-14.7-26.1-17.9-51.6-9.4l-2,.7,2,2.9c4.1,7,5.7,16.4,7.4,23.9,2.3,10.4,4.8,19.4,10.6,24.5l2.5,1.8,2.1.6c1.4.4,2.8.6,4.3.7M688.4,392.7l1.2-3.7c.6-1.7,1.3-3.4,2.1-5.1l.7-1.3-1.3.7c-1.5.7-3.2,1.2-4.8,1.4h-1.5c0,0,1.1,2.3,1.1,2.3l2.5,5.8ZM710.5,391.4c.5,0,1,0,1.6,0l1.4-.2,1.8-.9c4.3-2.9,7-8.7,9.8-15.7,2-5,4.3-11.7,8-16.3l1-1.1-.9-.5c-9.5-4.7-17.5-6.6-23.9-5.7-7.1,1-12.7,5.5-16.4,14.5-.9,2-.4,4.3,1.3,5.7,1.1,1,2.5,1.5,3.9,1.6h.2s2-2.6,2-2.6l.5-.6-1.8-7.4c-.4-1.3.4-2.7,1.8-3.1,1.3-.4,2.7.4,3.1,1.8,0,0,0,0,0,0l1.1,4.2,1.5-1.4c3.4-3.1,7.4-5.4,11.8-6.8,1.3-.4,2.7.3,3.2,1.7.4,1.3-.3,2.7-1.7,3.2,0,0,0,0,0,0-3.7,1.2-7.2,3.2-10.1,5.9l-1.3,1.2,6,1.3c1.4.3,2.2,1.7,1.9,3-.3,1.2-1.3,2-2.5,2-.2,0-.3,0-.5,0l-8.8-1.9-.2.2-1.8,2.4-.3,2.2c-.5,5.5.5,9,2.2,10.9,1.6,1.8,4,2.7,6.4,2.5"/>
        <path id="Path_16" class="st2" d="M438,747.7c-.9.7-2.3.5-3-.5-.2-.2-.3-.5-.3-.7l-13.4-53.7h-6s0,8.6,0,8.6c0,1.8-.8,3.5-2.1,4.7l-.6.5c-1,.7-2.2,1.1-3.5,1h-.3c-3.4,0-6.2-2.8-6.2-6.2,0,0,0,0,0,0v-8.6h-5.3s-13.5,53.6-13.5,53.6c-.1.5-.4.9-.8,1.2-.9.7-2.3.5-2.9-.5-.2-.2-.3-.5-.3-.7l-5-20.2v-1s8.8-32.5,8.8-32.5h-6c-1.2,0-2.1-.9-2.2-2s.9-2.1,2-2.2c0,0,0,0,.1,0h7.2l12.3-45.7-1.6-2c-4.2-6.3-3.3-14.7,2-20.1,1.5-1.5,3.3-2.7,5.3-3.5l.7-.2-.4-2.5-1.6-.9c-.7-.6-1-1.5-1-2.4v-14.4c0-.9.4-1.7,1.1-2.4,1-.9,2.4-1.4,3.7-1.4h8.4c1.4,0,2.7.5,3.8,1.4.6.6,1,1.5,1,2.3v14.4c0,.9-.4,1.7-1.1,2.3l-.8.6-.9.4h-.2s-.5,2.7-.5,2.7l2.1,1.4h.3c0,.1.2.3.2.3l2.4,1.6c5.3,5.4,6.2,13.7,2,20l-.7.8.3.4,12.5,46.6h7.1c1.2,0,2.1.9,2.1,2.1,0,.6-.3,1.2-.8,1.6-.4.3-.9.5-1.3.5h-6l8.6,32.4v1s-5,20.2-5,20.2c-.1.5-.4.9-.8,1.2M436.8,737.3l2.9-11.5-21.6-80.9-2.8,1.6-1,.3,22.5,90.5ZM381.9,737.3l22.7-89.9h-.5c-.8-.4-1.6-.7-2.4-1l-1-.6-21.6,80.1,2.9,11.5ZM410.5,702.9l.7-1.5v-1.3s-4.3,0-4.3,0v1.3c0,1.1.9,2,2,2,0,0,0,0,0,0h.3c.4,0,.8-.1,1.1-.3l.2-.2ZM411.2,695.9v-3.1h-4.3v3.1h4.3ZM420.3,688.6l-6.7-26.9-.4.3c-1.9,1.5-4.5,1.9-6.8.9l-1.3-.9-6.7,26.5h4.2v-8c0-3.4,2.8-6.2,6.2-6.2,0,0,0,0,0,0h.3c3.4,0,6.2,2.7,6.2,6.1,0,0,0,0,0,0v8h5ZM411.2,688.6v-3.5h-4.3s0,3.5,0,3.5h4.3ZM411.2,680.9v-.4c0-1.1-.9-2-2-2h-.3c-1.1,0-2,.9-2,2v.4h4.3ZM410.6,658.7l.2-.2c.9-.9.9-2.5,0-3.4-.9-.9-2.5-.9-3.4,0-.9.9-.9,2.4,0,3.4l1.6.7,1.6-.5ZM410.9,650.6l-.9-3.8v-.2l-.3-.6c-.3-1.1.4-2.3,1.5-2.5,0,0,0,0,0,0,6.4-1.4,10.4-7.7,9-14.1-1.4-6.4-7.7-10.4-14.1-9-6.4,1.4-10.4,7.7-9,14.1,1,4.8,5,8.5,9.8,9.2.8.1,1.5.7,1.7,1.6v.2s.2.6.2.6v.8s-.9,3.6-.9,3.6l1.1-.2,1.8.4ZM414.9,640.3c-4.6,3.4-11.1,2.5-14.6-2.1s-2.5-11.1,2.1-14.6c4.6-3.4,11.1-2.5,14.6,2.1,3.1,4.1,2.7,9.9-.9,13.6-.2.3-.5.5-.8.7l-.4.3ZM412.6,636.8l.5-.5c2.4-2.4,2.3-6.3,0-8.7-2.4-2.4-6.3-2.3-8.7,0s-2.3,6.3,0,8.7c1.6,1.6,4,2.2,6.2,1.5l2-1.1ZM410.9,616.3l.2-1.3h-3.7l.2,1.2h1.2c0-.1,2.1,0,2.1,0ZM414.2,610.7v-13.3s-.6,0-.6,0h-8.3s-.6,0-.6,0v13.3h.6c0,0,8.3.1,8.3.1h.6ZM408.8,609.1c-.4.3-.8.5-1.3.5-1.1,0-2.1-.9-2.1-2.1,0,0,0,0,0,0v-6.9c0-1.2.9-2.1,2.1-2.1,1.2,0,2.1.9,2.1,2,0,0,0,0,0,.1v6.8c0,.6-.3,1.2-.8,1.6"/>
        <path id="Path_17" class="st4" d="M327.6,584.1c1.5,0,2.7-1.2,2.6-2.7,0,0,0,0,0,0l-.3-19.5,2.6-.8.8-.5,11.1,20.8c.5.9,1.5,1.5,2.6,1.4h.2s.8-.3.8-.3c1.3-.7,1.8-2.3,1.1-3.7l-11.6-21.6.9-1.3c3.9-6,2.6-13.9-3-18.3l-2.4-1.4,40.5-28.8.6.3c1.3.6,2.7.9,4.1.8,1.7-.1,3.4-.7,4.7-1.8l.2-.2,1-.9c2.7-3.1,2.8-7.7.3-10.9l-22.8-29.6c-2.5-3.3-6.9-4.3-10.6-2.5l-1.4.9c-2.8,2.1-4,5.7-3.1,9v.4c.1,0-41.6,34.8-41.6,34.8-1.1.9-1.3,2.6-.4,3.7l.2.3-15.4,12.8c-1.1.9-1.3,2.5-.4,3.7l2.3,3.1-17.2,13.2c-1.2.9-1.4,2.6-.5,3.8,0,0,0,0,0,0l8.6,11.1c.4.6,1.1.9,1.8,1h.5c.5,0,1.1-.2,1.5-.5l17.2-13.2,1.9,2.5c.4.5,1,.9,1.7,1,.7,0,1.4,0,2-.5l4.3-3v1.9c0,2.7.8,5.4,2.4,7.6l1.2,1.4-.2.2-10.8,22.1c-.6,1.3,0,2.9,1.2,3.5,0,0,0,0,0,0l.9.2c1.1,0,2.1-.5,2.6-1.5l10.5-21.5.6.3c.8.4,1.7.6,2.6.8h.2s.3,19.5.3,19.5c0,1.5,1.2,2.6,2.7,2.6,0,0,0,0,0,0M327,556.9c-4.7,0-8.5-3.6-8.6-8.3s3.6-8.5,8.3-8.6,8.5,3.6,8.6,8.3c0,0,0,0,0,0,0,4.6-3.6,8.5-8.3,8.6,0,0,0,0,0,0M284.9,554.1l-5.3-6.9,14.9-11.4,5.3,6.9-14.9,11.4ZM307.9,544l-13-16.9,1.8-1.5,13.1,17-1.9,1.3ZM314.1,539.5l-13.4-17.3,7.3-6.1,13.8,17.9-7.8,5.5ZM328.1,533.2l-17.6-22.9,39.1-32.6,20,26-41.5,29.4ZM318.6,512.8c.5,0,1-.3,1.5-.6l27.9-22.5c1.1-1,1.1-2.7.1-3.8-.9-1-2.4-1.1-3.5-.4l-27.9,22.5c-1.1.9-1.3,2.6-.4,3.7,0,0,0,0,0,0,.6.7,1.4,1.1,2.3,1M377.9,503.3c-1.1,0-2.1-.4-2.8-1.2l-22.8-29.6c-1-1.5-.7-3.5.8-4.5,1.4-1,3.3-.7,4.3.6l22.8,29.6c.5.7.7,1.5.6,2.4l-1.2,2.1-.6.3-1.2.3Z"/>
        <path id="Path_18" class="st3" d="M92.2,470.6c-20.7,0-36.8-19.7-36.8-43-1-24,15-43.9,36.9-43.1,3.8,0,7.5.7,11,2l1.2.5.5-3.5.4-1.9h-.2c-7.6.2-13.7-1.3-17.8-5.3-4.7-4.6-5.9-11.8-4.4-20.6.8-1.5,1.8-2.2,3-2.2,7,1.1,13,3.5,17.4,7.7,2.2,2.1,4,4.7,5.2,7.5l.7,1.8.6-1.1c2.8-5,6.3-9.5,10.4-13.5,1.2-1.5,5.4,1.1,3.7,3.8-7.6,7.4-12.8,16-14.1,27v.4s1.6-.7,1.6-.7c3.5-1.3,7.3-2,11-2,21.9-.8,37.9,19.1,36.9,43.1,0,23.3-16.1,43-36.8,43-5,0-10-1.2-14.5-3.5h-.1c0,0-.5-.3-.5-.3l-.5.3h-.1c-4.5,2.3-9.4,3.5-14.4,3.5M92.2,465.3c3.2,0,6.3-.6,9.2-1.7l2.8-1.2,1.7-1h2.6l1.7,1,2.8,1.2c3,1.1,6.1,1.7,9.3,1.7,17,0,31.5-16.5,31.5-37.8.9-21.9-13.4-38.4-31.5-37.7-3.2,0-6.3.6-9.3,1.7l-2.9,1.2-1.7.9h-2.6l-1.7-.9-2.9-1.2c-3-1.1-6.1-1.7-9.3-1.7-18.1-.7-32.5,15.8-31.5,37.7,0,21.4,14.5,37.8,31.6,37.8M72.2,420.7c-1.7,2.9-5.5,2-5.2-.4,1.2-11.1,8.7-20.6,19.1-24.4,1.5,0,2.8,1.3,2.8,2.8,0,.8-.4,1.6-1.1,2.2-8.5,3.2-14.5,10.8-15.6,19.8M103.4,376.3c.5,0,.9,0,1.4,0h.4s-.3-1.8-.3-1.8c-.7-3.6-2.5-7-5.2-9.5-2.9-2.6-6.3-4.4-10.1-5.3l-1.9-.4v.2c-.6,6.5.7,10.6,3.3,13.1,2.4,2.4,6.4,3.8,12.4,3.8"/>
        <path id="Path_19" class="st6" d="M434.6,579.7c-.4,0-.7-.2-1-.3-18.6-10.3-30.7-29.3-32.3-50.5-.1-1.5,1-2.8,2.5-2.9,0,0,0,0,0,0l39.7-3c1.5-.1,2.8,1,2.9,2.5,0,0,0,.1,0,.2v.3l.3,2.1c.8,4.1,2.9,7.9,6.1,10.6l1.6,1.3,1.2.8c1.2.8,1.6,2.4.9,3.7l-19.3,33.9c-.5,1-1.6,1.5-2.7,1.4M496.8,577.9c-.8,0-1.5-.5-2-1.2l-22.1-33.1c-.8-1.3-.5-3,.8-3.8,0,0,0,0,0,0l.3-.2c4.1-2.7,7-7,8-11.8l.3-2v-1.4c.2-1.5,1.4-2.6,2.8-2.6h39c1.5.1,2.7,1.3,2.7,2.9.1,21.2-10.4,41.1-28.1,52.9-.3.2-.6.4-1,.4-.3,0-.5,0-.8,0M433.9,573.2l16.7-29.3-1.3-1.1c-4.1-3.6-6.8-8.4-7.8-13.7v-.5c0,0-34.4,2.6-34.4,2.6v1c2.5,16.7,12,31.5,26.2,40.6l.7.4ZM497.8,571.3l.8-.6c13.4-10.2,21.6-25.8,22.6-42.7v-.8s-33.7-.1-33.7-.1l-.3,1.7c-1.1,5.3-4,10.1-8.1,13.6l-.4.3,19.1,28.6ZM463.8,537.2c-2.2,0-4.3-.6-6.2-1.6-6.3-3.5-8.6-11.5-5.1-17.9,3.5-6.3,11.5-8.6,17.9-5.1,6.3,3.5,8.6,11.5,5.1,17.9-2.3,4.2-6.8,6.8-11.6,6.8M463.9,531.8c4.2,0,7.7-3.3,7.8-7.6,0-4.2-3.3-7.7-7.6-7.8-4.2,0-7.7,3.3-7.8,7.6,0,2.8,1.5,5.4,3.9,6.8,1.1.6,2.4,1,3.6,1M473.9,508.9c-.4,0-.7-.2-1.1-.4l-.2-.2-1.9-.9c-3.9-1.6-8.2-1.9-12.2-.8l-1.9.6-1.3.6c-1.3.6-2.9,0-3.5-1.3l-17.8-34.8c-.7-1.3-.2-3,1.2-3.7,0,0,0,0,0,0,18.8-9.8,41.4-9.5,59.9.8,1.3.7,1.8,2.4,1.1,3.7l-19.4,34.8c-.6,1-1.7,1.6-2.8,1.4M473.2,502.5l16.7-30-.9-.5c-15.2-7.2-32.9-7.4-48.3-.5l-.7.3,15.3,30,1.6-.5c5.2-1.4,10.8-1.1,15.8,1l.4.2Z"/>
        <path id="Path_20" class="st4" d="M626.2,590.8c-1.4,0-2.6-1.1-2.6-2.6v-9.2l-24.8,10.9-.9.2c-1.4,0-2.6-1.1-2.6-2.5,0-1,.6-2,1.5-2.4l26.8-11.8v-22.7h-47c-3.7,0-6.6-3-6.6-6.7,0,0,0,0,0,0v-68.5c0-3.7,2.9-6.7,6.6-6.7h41.3v-.3c.3-1.5,1-2.8,2.1-3.8,1.3-1.2,3-1.9,4.8-1.9,1.8,0,3.5.6,4.9,1.8,1.1,1,1.8,2.4,2.1,3.9v.4h39.8c3.7,0,6.6,3,6.6,6.7v68.5c0,3.7-2.9,6.6-6.6,6.7,0,0,0,0,0,0h-42.7v22.9l26.3,11.6c1.3.6,1.9,2.1,1.3,3.4,0,0,0,0,0,0-.4,1-1.4,1.6-2.5,1.5l-.9-.2-24.3-10.7v9c0,1.4-1.2,2.6-2.6,2.6M671.5,545.6c.8,0,1.5-.7,1.4-1.5v-.8h-97.8v.8c0,.8.6,1.5,1.4,1.5h94.9ZM672.9,481.5h-97.8v56.6h97.8v-56.6ZM637.3,531c-1.4,0-2.6-1.2-2.6-2.6v-16.6c0-1.4,1.2-2.6,2.6-2.6s2.6,1.2,2.6,2.6v16.6c0,1.4-1.2,2.6-2.6,2.6M597.9,531c-1.4,0-2.6-1.2-2.6-2.6v-11.7c0-1.4,1.2-2.6,2.6-2.6s2.6,1.2,2.6,2.6v11.7c0,1.4-1.2,2.6-2.6,2.6h0M611,531c-1.4,0-2.6-1.2-2.6-2.6h0v-16.4c0-1.4,1.2-2.6,2.6-2.6s2.6,1.2,2.6,2.6v16.4c0,1.4-1.2,2.6-2.6,2.6h0M624.2,531c-1.4,0-2.6-1.1-2.6-2.6,0,0,0,0,0,0v-21.4c0-1.4,1.2-2.6,2.6-2.6s2.6,1.2,2.6,2.6v21.4c0,1.4-1.2,2.6-2.6,2.6M650.5,531c-1.4,0-2.6-1.2-2.6-2.6v-33.5c0-1.4,1.2-2.6,2.6-2.6s2.6,1.2,2.6,2.6v33.5c0,1.4-1.2,2.6-2.6,2.6M663.6,531c-1.4,0-2.6-1.2-2.6-2.6v-36.4c0-1.4,1.2-2.6,2.6-2.6s2.6,1.2,2.6,2.6v36.4c0,1.4-1.2,2.6-2.6,2.6M584.7,531c-1.4,0-2.6-1.2-2.6-2.6v-19.1c0-1.4,1.2-2.6,2.6-2.6s2.6,1.2,2.6,2.6v19.1c0,1.4-1.1,2.6-2.6,2.6M672.9,476.4v-.8c0-.8-.6-1.5-1.4-1.6h-94.9c-.8,0-1.5.7-1.4,1.6,0,0,0,0,0,0v.8h97.8ZM626.3,468.9l-.6-.7c-.3-.2-.6-.2-.9-.2-.3,0-.7,0-1,.3l-.6.6h3.1Z"/>
        <path id="Path_21" class="st6" d="M214.6,719.1c-1.3,0-2.4-1.1-2.4-2.4s1.1-2.4,2.4-2.4h123.4c1.3,0,2.4,1.1,2.4,2.4s-1.1,2.4-2.4,2.4h-123.4ZM219.1,707.7c-3.4,0-6.1-2.8-6.2-6.2v-84.9c0-3.4,2.8-6.1,6.2-6.2h42.3l11.2-11-1.5-1c-1.4-1.4-2.2-3.4-2.2-5.4,0-4.2,3.4-7.6,7.6-7.6,4.2,0,7.6,3.4,7.6,7.6,0,2-.8,4-2.2,5.4l-1.2.8,10.6,10.6.4.6h42.1c3.4,0,6.2,2.8,6.2,6.2v84.9c0,3.4-2.8,6.2-6.2,6.2h-114.5ZM333.7,703c.8,0,1.4-.6,1.4-1.4v-84.9c0-.8-.6-1.4-1.4-1.4h-114.5c-.8,0-1.4.6-1.4,1.4v84.9c0,.8.6,1.4,1.4,1.4h114.5ZM227,700c-3.1,0-5.6-2.4-5.7-5.5,0,0,0,0,0,0v-70.7c0-3.1,2.6-5.6,5.7-5.5h98.9c3.1,0,5.6,2.4,5.6,5.5v70.7c0,3.1-2.6,5.6-5.6,5.5h-98.9ZM325.8,695.3c.5,0,.9-.3.9-.8v-70.7c0-.5-.4-.8-.9-.8h-98.9c-.5,0-.9.3-.9.8v70.7c0,.5.4.8.9.8h98.9ZM276.2,687.1c-1.3,0-2.4-1.1-2.4-2.4v-6.1h-28.9c-1.3,0-2.4-1.1-2.4-2.4,0-1.3,1.1-2.4,2.4-2.4h24.3l-2.9-1.9c-3.2-2.8-5.9-6-8.2-9.6l-1.4-2.2-14.4,3.3c-.2,0-.3,0-.5,0-1.3,0-2.4-1-2.4-2.3,0-1.1.7-2.1,1.8-2.4l13-3-1.3-2.5c-2.2-4.4-4.4-9.4-6.6-14.8-.5-1.2.2-2.6,1.4-3.1,1.2-.4,2.5.1,3,1.3,2.4,6.1,5.2,12.1,8.3,17.9h0c0,0,14.8-3.3,14.8-3.3v-10.9l-1.6,1.5c-.4.4-1,.7-1.7.7-1.3,0-2.4-1.1-2.4-2.4,0-.6.3-1.2.7-1.7l5.8-5.8c.9-.9,2.4-.9,3.4,0,0,0,0,0,0,0l5.6,5.7c.9,1,.8,2.5-.2,3.4-.9.8-2.3.8-3.2,0l-1.7-1.8v10.2l18.4-4.2h0c1.1-2.9,2.3-5.9,3.5-9.2.4-1.2,1.8-1.9,3-1.4s1.9,1.8,1.4,3c-.5,1.5-1.1,3-1.6,4.4l-.8,2,8.3-1.9c1.3-.3,2.5.5,2.8,1.8s-.5,2.5-1.8,2.8h0l-11.6,2.6-.3.6c-4.4,10.1-9,17.3-13.9,21.4l-2.5,1.7h17.6l-1.7-1.7c-.9-.9-.9-2.4,0-3.3,0,0,0,0,0,0,.9-.9,2.4-.9,3.4,0l5.8,5.8c.9.9.9,2.4,0,3.4h0s-5.7,5.6-5.7,5.6c-.9.9-2.4.9-3.4,0-.9-.9-.9-2.4,0-3.3,0,0,0,0,0,0l1.6-1.6h-22.7v6.1c0,1.3-1.1,2.4-2.4,2.4h0M278.6,671.1h.2c4.6-1.5,9.9-7.2,15.6-19.3l.2-.3-16,3.6v16ZM273.8,670.9v-14.6l-12.2,2.8.6.9c3.6,5.4,7,8.9,10.2,10.5l1.4.4ZM285.1,610.5l-8.4-8.4-8.5,8.4h16.9ZM276.4,596c1.6,0,2.9-1.3,2.9-2.9s-1.3-2.9-2.9-2.9c-1.6,0-2.9,1.3-2.9,2.9,0,1.6,1.3,2.9,2.9,2.9,0,0,0,0,0,0"/>
        <path id="Path_22" class="st5" d="M499.2,711.6c-6.7,0-12.6-4.9-12.6-11.5v-94.1c0-6.6,5.9-11.5,12.6-11.5h22.3v-.9c.6-2.7,1.9-5.1,3.9-6.9,2.8-2.6,6.4-4,10.2-4.1,7.5-.2,14.2,4.7,15.3,11.5v.5h22.1c6.7,0,12.6,4.9,12.6,11.5v94.1c0,6.6-5.9,11.5-12.6,11.5h-73.9ZM573.1,706.8c4.6,0,7.8-3.2,7.8-6.6v-94.1c0-3.4-3.2-6.6-7.8-6.6h-16.7v4.8h9c5.6-.2,10.3,4.2,10.5,9.8v77c-.2,5.6-4.9,10-10.5,9.8,0,0,0,0,0,0h-58.3c-5.6.2-10.3-4.2-10.5-9.8v-77c.2-5.6,4.9-10,10.5-9.8h9.3v-4.8h-17.1c-4.6,0-7.8,3.2-7.8,6.6v94.1c0,3.4,3.2,6.6,7.8,6.6h73.8ZM565.3,696c2.9.2,5.5-2,5.7-5v-77c-.2-2.9-2.7-5.1-5.7-5h-9v.5c.1,2.3-1.7,4.3-4.1,4.4,0,0,0,0,0,0h-31.8c-2.4,0-4.2-2-4.1-4.4,0,0,0,0,0,0v-.5h-9.3c-2.9-.2-5.4,2-5.6,5v77c.2,2.9,2.7,5.2,5.6,5h58.3ZM516.3,680.9c-.6,0-1.2-.2-1.6-.7l-4.8-4.5c-1-.9-1-2.5-.1-3.4s2.5-1,3.4-.1h0l2.9,2.8,5.7-7.1c.9-1,2.4-1.2,3.4-.3s1.2,2.4.3,3.4l-7.4,9.1c-.4.5-1.1.8-1.7.9,0,0-.2,0-.2,0M534.7,676.2c-1.3,0-2.4-1.1-2.4-2.4,0-1.3,1.1-2.4,2.4-2.4h23.8c1.3,0,2.4,1.1,2.4,2.4,0,1.3-1.1,2.4-2.4,2.4h-23.8ZM516.3,657.7c-.6,0-1.2-.3-1.6-.7l-4.8-4.5c-1-.9-1-2.5,0-3.4.9-1,2.4-1,3.4-.1l2.9,2.7,5.7-7c.8-1,2.4-1.2,3.4-.3,1,.8,1.2,2.4.3,3.4h0l-7.4,9.1c-.4.5-1.1.9-1.7.9h-.2ZM534.7,653c-1.3,0-2.4-1.2-2.4-2.5,0-1.3,1.1-2.3,2.4-2.4h23.8c1.3,0,2.4,1.2,2.4,2.5,0,1.3-1.1,2.3-2.4,2.4h-23.8ZM516.5,636.3c-.7,0-1.3-.2-1.8-.7l-4.8-4.5c-1-.9-1-2.4-.1-3.4s2.4-1,3.4-.1h0l2.9,2.7,5.7-7c.8-1,2.4-1.2,3.4-.3,1,.8,1.2,2.4.3,3.4l-7.4,9.1c-.4.5-1.1.8-1.7.9M534.7,631.6c-1.3,0-2.4-1.1-2.4-2.4,0-1.3,1.1-2.4,2.4-2.4h23.8c1.3,0,2.4,1.1,2.4,2.4,0,1.3-1.1,2.4-2.4,2.4h-23.8ZM551.5,599.8h-30.3v9.3h30.3v-9.3ZM546.1,594.5l-.3-1.2c-1.8-3.8-5.8-6.2-10-5.9-2.6,0-5.1,1-7,2.8-1.2,1.1-2.1,2.6-2.4,4.3h0c0,0,19.7,0,19.7,0Z"/>
        <path id="Path_23" class="st5" d="M126,599.2c1,0,1.9,0,2.9,0,1.5-.1,2.9-.4,4.3-.7.9-.2,1.7-.4,2.6-.7,4.8-1.5,9.5-3.4,14-5.7,3.5-1.7,7.2-3.7,11.1-6l5.4-3.3c22.4,10.5,49,.8,59.5-21.5,3.5-7.4,4.8-15.7,4-23.8l-1-5.7,4.3-4.7c3-3.4,5.7-6.6,8.1-9.7,8.8-11.4,15-23,10.1-29-5.6-6.9-22-1.1-39.5,8.9l-7.5,4.5-2-.9c-22.9-9.4-49,1.5-58.4,24.4-3.3,8-4.2,16.8-2.6,25.3l.5,2.1-5.4,5.9c-13.2,15-22.9,30.4-17.1,37.4,1.7,1.9,4,3,6.6,3M127.7,594.2c-2.6,0-3.9-.5-4.4-1.2-1.1-1.3-1-5.2,3.2-12.5,3.9-6.4,8.3-12.4,13.3-17.9l1.7-1.9-3.8,4.8c-1,1.3-1.9,2.7-2.7,4.2l-.6,1.3h0c0,0-.1.3-.1.3l-1.1,2.4c-.9,2.6-1,5,.5,6.7,1.9,2.3,5.4,2.3,9.4,1.2,4.5-1.5,8.8-3.4,12.9-5.7l1.3-.7h.1c0,0,.3-.3.3-.3l2.2-1.3c11.3-6.9,22.2-14.6,32.4-23,11.5-9.2,22.2-19.4,32-30.5,6.4-7.6,12.6-16.4,8.9-20.9-3.1-3.8-10.7-1.3-17.7,2.1l-4.1,2.2,3.4-2c6.4-3.7,13.1-6.8,20-9.3,8-2.6,11.7-1.9,12.8-.6,1.9,2.3-.2,9.8-10.2,22.8-9.2,12-23.7,26.6-41.3,40.9-17.6,14.3-34.8,25.6-48.4,32.3-4.3,2.2-8.8,4-13.4,5.4-1.3.4-2.4.6-3.5.8-1,.2-2,.3-3,.4M184.5,582c-3.7,0-7.3-.7-10.8-1.8l-2.1-.8,1.5-1c8.4-5.5,17.2-12.1,26.1-19.3s17-14.6,24.2-21.7l1.3-1.3.3,1.8v1.4c0,0,0,6.9,0,6.9v1.4c-.1,0-.7,2.9-.7,2.9l-.6,2.5-1.3,4c-4.7,11.7-14.7,20.5-26.9,23.7-3.6.9-7.2,1.3-10.9,1.3M138.8,577.4c-.4,0-.7,0-1.1,0h-.2c0,0,0-1,0-1,.3-1.2.8-2.4,1.4-3.5,1.8-3,3.8-5.9,6.1-8.6l.8-.9,4.9,7.3,1.4,1.6-2.3,1.2c-2.7,1.4-5.6,2.6-8.5,3.5-.4.1-.8.2-1.1.3-.5.1-1,.2-1.5.2M250.4,572.6c5.8-.3,10.2-5.2,9.9-11-.3-5.8-5.2-10.2-11-9.9-5.8.3-10.2,5.2-9.9,11,.3,5,4,9.1,9,9.8.7,0,1.4.1,2.1,0M156.7,569.7l-2.1-2.2c-13.9-17-11.3-42,5.7-55.9,14.6-11.9,35.6-11.9,50.2,0l5.7,5.7,1.8,2.5-.5.5c-8.8,9.6-18.3,18.4-28.5,26.6-10,8.3-20.6,15.8-31.7,22.6l-.6.3ZM249.1,567.6c-3-.5-5.1-3.3-4.6-6.3s3.3-5.1,6.3-4.6c3,.5,5.1,3.3,4.6,6.3-.3,2.2-2,4-4.1,4.5-.7.2-1.5.2-2.2.1M119.4,543.7c1,0,2-.2,3-.4,8-2,12.7-10.2,10.7-18.1-2-8-10.2-12.7-18.1-10.7-8,2-12.7,10.2-10.7,18.1,1.5,5.8,6.3,10.1,12.2,11,1,.1,2,.2,2.9.1M119.2,538.7c-.7,0-1.3,0-1.9-.1-5.4-.8-9.2-5.9-8.3-11.3.8-5.4,5.9-9.2,11.3-8.3,5.4.8,9.2,5.9,8.3,11.3-.6,3.9-3.5,7.1-7.3,8.1-.7.2-1.3.3-2,.3M201.8,518.7c.3,0,.6,0,1,0,.6-.1,1.2-.5,1.6-1.1.7-1.2.4-2.7-.7-3.5-6.6-4.4-14.2-7.1-23.2-5.2-1.3.3-2.2,1.6-2,2.9s1.6,2.2,2.9,2c0,0,0,0,0,0,7.4-1.6,13.5.5,19.4,4.5.3.2.6.3.9.4M221.3,515.8l-1.3-1.7-6.2-6.2,1.2-.7c3.1-1.7,6.3-3.1,9.6-4.2,1.2-.4,2.5-.7,3.9-.7h.8c0,.1,0,.9,0,.9-.2,1.1-.6,2.1-1.1,3-1.5,2.7-3.2,5.2-5.1,7.6l-1.6,2Z"/>
      </g>
    </g>
  </g>
  <path id="Path_24" class="st1" d="M394,110s7.2,4.1,12.7,1.7"/>
</svg>