<?xml version="1.0" encoding="UTF-8"?>
<svg id="Layer_1" xmlns="http://www.w3.org/2000/svg" xmlns:rdf="http://www.w3.org/1999/02/22-rdf-syntax-ns#" xmlns:dc="http://purl.org/dc/elements/1.1/" xmlns:cc="http://creativecommons.org/ns#" version="1.1" viewBox="0 0 456.4 144">
  <!-- Generator: Adobe Illustrator 30.1.0, SVG Export Plug-In . SVG Version: 2.1.1 Build 136)  -->
  <defs>
    <style>
      .st0 {
        fill: #2c2a29;
      }

      .st1 {
        fill: #fcb425;
      }
    </style>
  </defs>
  <polygon class="st1" points="47.4 3.4 1.5 116 32.3 116 78.2 3.4 47.4 3.4"/>
  <polygon class="st0" points="69.9 44.8 99.2 116 132.3 116 85.7 7 69.9 44.8"/>
  <path class="st0" d="M187.4,35.4c-5.5,0-10.5,1.1-14.9,3.3s-8,5.5-10.7,9.7v-11.1h-23.4v78.2h24.1v-43.9c0-5.3,1.5-9.6,4.5-12.8s7-4.8,12-4.8,7.2,1.2,9.2,3.7c2,2.4,2.9,6.3,2.9,11.6v45.9h24.1v-47.1c0-11.1-2.3-19.3-6.9-24.8-4.6-5.5-11.5-8.2-20.9-8.2h0v.3Z"/>
  <path class="st0" d="M272.7,69.4l-13.2-3c-3.2-.8-5.4-1.7-6.7-2.7-1.3-1-1.9-2.3-1.9-4s1.1-4.1,3.2-5.4c2.1-1.3,5-1.9,8.8-1.9,8.1,0,16.2,2.9,24.5,8.6l6.4-15.9c-4.3-3.1-9-5.5-14.3-7.2s-10.8-2.6-16.4-2.6-12.4,1.1-17.6,3.2c-5.2,2.1-9.1,5-11.9,8.8-2.8,3.7-4.2,8-4.2,12.9s1.8,11,5.3,14.6,9.1,6.2,16.7,7.9l12.8,2.9c3.9.8,6.6,1.8,8.1,2.9,1.4,1.1,2.2,2.6,2.2,4.5s-1,3.8-3.1,5-5,1.8-8.7,1.8-10.3-.8-15.4-2.4c-5.1-1.6-9.8-3.8-14-6.7l-6.4,16.6c4.3,3.1,9.5,5.4,15.5,7.1,6,1.6,12.6,2.5,19.8,2.5,10.5,0,18.8-2.2,24.8-6.5s9-10.2,9-17.8-1.8-11.2-5.5-14.9c-3.7-3.7-9.5-6.4-17.5-8.2h-.3Z"/>
  <path class="st0" d="M451,78c-3.7-3.7-9.5-6.4-17.4-8.2l-13.2-3c-3.2-.8-5.4-1.7-6.7-2.7s-1.9-2.3-1.9-4,1.1-4.1,3.2-5.4,5-1.9,8.8-1.9c8.1,0,16.2,2.9,24.5,8.6l6.4-15.9c-4.3-3.1-9-5.5-14.3-7.2s-10.8-2.6-16.4-2.6-12.4,1.1-17.6,3.2c-5.2,2.1-9.2,5-12,8.8-2.8,3.7-4.2,8-4.2,12.9s1.8,11,5.3,14.6,9.1,6.2,16.6,7.9l12.8,2.9c3.9.8,6.6,1.8,8.1,2.9,1.4,1.1,2.2,2.6,2.2,4.5s-1,3.8-3.1,5-5,1.8-8.7,1.8-10.3-.8-15.4-2.4-9.8-3.8-14-6.7l-6.4,16.6c4.4,3.1,9.5,5.4,15.5,7.1,6,1.6,12.6,2.5,19.8,2.5,10.5,0,18.8-2.2,24.8-6.5s9-10.2,9-17.8-1.8-11.2-5.5-14.9h-.2Z"/>
  <polygon class="st0" points="319.3 144.5 342.6 144.5 386.1 37.8 362.9 37.8 344.1 83.7 325.3 37.8 302 37.8 332.1 112.2 319.3 144.5"/>
</svg>