<?xml version="1.0" encoding="UTF-8"?>
<svg id="Layer_1" xmlns="http://www.w3.org/2000/svg" version="1.1" viewBox="0 0 36 20">
  <!-- Generator: Adobe Illustrator 30.1.0, SVG Export Plug-In . SVG Version: 2.1.1 Build 136)  -->
  <defs>
    <style>
      .st0 {
        fill: #358ccb;
      }
    </style>
  </defs>
  <path class="st0" d="M36,2.9c0-.8-.3-1.5-.8-2.1-.5-.5-1.3-.9-2-.9h-11c-.8,0-1.5.3-2,.9-.5.6-.8,1.3-.8,2.1v14.2c0,.8.3,1.5.8,2.1.5.5,1.3.9,2,.9h11c.8,0,1.5-.3,2-.9.5-.5.8-1.3.8-2.1,0,0,0-14.2,0-14.2ZM13.8,0H2.8c-.8,0-1.5.3-2,.9C.3,1.4,0,2.1,0,2.9c0,.7.2,1.3.6,1.8h0s11,14.2,11,14.2h0c.3.3.6.6,1,.8.4.2.8.3,1.2.3.8,0,1.5-.3,2-.9.5-.5.8-1.3.8-2.1V2.9c0-.8-.3-1.5-.8-2.1C15.3.3,14.6,0,13.8,0Z"/>
</svg>