<?xml version="1.0" encoding="UTF-8"?>
<svg id="Layer_1" xmlns="http://www.w3.org/2000/svg" xmlns:sodipodi="http://sodipodi.sourceforge.net/DTD/sodipodi-0.dtd" xmlns:rdf="http://www.w3.org/1999/02/22-rdf-syntax-ns#" xmlns:inkscape="http://www.inkscape.org/namespaces/inkscape" xmlns:dc="http://purl.org/dc/elements/1.1/" xmlns:cc="http://creativecommons.org/ns#" version="1.1" viewBox="0 0 256 256">
  <!-- Generator: Adobe Illustrator 30.1.0, SVG Export Plug-In . SVG Version: 2.1.1 Build 136)  -->
  <defs>
    <style>
      .st0 {
        fill: #fcfbfb;
      }

      .st1 {
        fill: #45352f;
      }

      .st2 {
        fill: #fbfbfb;
      }

      .st3 {
        fill: #a08470;
      }
    </style>
  </defs>
  <sodipodi:namedview bordercolor="#666666" borderopacity="1" gridtolerance="10" guidetolerance="10" inkscape:current-layer="g6108" inkscape:cx="-76.887261" inkscape:cy="77.464272" inkscape:document-rotation="0" inkscape:pageopacity="0" inkscape:pageshadow="2" inkscape:window-height="1014" inkscape:window-maximized="1" inkscape:window-width="1920" inkscape:window-x="0" inkscape:window-y="36" inkscape:zoom="1.3037281" objecttolerance="10" pagecolor="#ffffff" showgrid="false"/>
  <g>
    <path class="st0" d="M117.7,241.7c-25.9-6.5-48.9-30.5-71.3-74.3C14.4,104.9,10.3,47.9,36.5,30.7c9-5.6,22.1-5.4,33.7.5,6.4,3.3,8.3,5.4,12,13.4,4.5,10,6.3,21.4,7.1,45.5l.7,22.2,3.6-8.4c2-4.6,6-12.5,8.9-17.7,2.9-5.1,5.3-10.7,5.3-12.4s-1.3-6.1-2.8-9.9c-2.9-7-3.4-10.8-2.1-17.1q.7-3.6,8.3-3.6h7.5s4.7-6.1,4.7-6.1c5.3-6.9,15.6-15.4,24.5-20,5.1-2.7,7.3-3.1,15.7-3.1s10.3.4,15.3,3.3c3,1.8,5.3,3.5,5,3.8s-3.5-.3-7.1-1.4c-9-2.7-18.1-1.7-27.3,2.9-21.9,10.8-44.1,51.7-35.4,65,1.2,1.8,4,3.4,8.2,4.6,6.7,2,9.9,1.4,4.3-.7-11.7-4.5-9.3-15.2,7.9-34.6l9.8-11.1-.6-6.3c-.6-5.7-.4-6.5,1.9-7.7,3.2-1.7,8.4-.7,12.2,2.3,3.6,2.9,14.8,3.1,24.3.6,3.4-.9,9.5-1.7,13.3-1.7,6.6,0,7.1.2,7.8,2.9.4,1.6.4,3.6,0,4.6s.4,4.1,1.7,7.1c3,6.7,4.1,22.6,2.2,31.4-.7,3.4-3.3,10.4-5.8,15.6-6.2,12.9-6.4,14.8-2.9,23.3,6.1,14.6,10.6,42.5,9.4,58.7-.3,4.8-2,15.4-3.7,23.5-3.2,15.7-2.9,21.2,1.1,24.7.9.8,1.7,3.1,1.7,5.1,0,4.3-3.2,7.7-9,9.7-5.4,1.8-17.2,1.6-22.9-.4-6.8-2.4-12.4-2.1-17.1.8-3.5,2.2-5.8,2.6-18.8,2.8-10.1.2-17-.3-21.5-1.4l.2.4ZM100.4,201.2c-10.1-30-7-63.6,9.2-98.6l4.9-10.5-5.2-4.6-4.6,9.9c-18.6,40.4-21.4,76-8.1,102.5,3.5,7,6.7,12.5,7.3,12.5s-1.4-5-3.5-11.2h0ZM187.5,100.7l2.4-6-.5,5c-.3,2.9,0,4.6.5,4,.9-.9,6.8-15.7,6.8-17.2s-1.5.7-3.5,2.3c-3.5,3-9.8,5.3-14.6,5.3-2.4,0-2.6.4-1.9,4.3,1.3,7.8,1.6,8.3,5.1,8.3s3.6-.7,5.7-6h0Z" inkscape:connector-curvature="0"/>
    <path class="st2" d="M117.7,241.7c-25.9-6.5-48.9-30.5-71.3-74.3C21.9,119.5,13.5,75.1,23.6,47.9c7.3-19.6,26.8-26.4,46.7-16.3,6.4,3.3,8.3,5.4,12,13.4,4.5,10,6.3,21.4,7.1,45.5l.7,22.2,3.6-8.4c2-4.6,6-12.5,8.9-17.7,2.9-5.1,5.3-10.7,5.3-12.4s-1.3-6.1-2.8-9.9c-2.9-7-3.4-10.8-2.1-17.1q.7-3.6,8.3-3.6h7.5s4.7-6.1,4.7-6.1c5.3-6.9,15.6-15.4,24.5-20,5.1-2.7,7.3-3.1,15.7-3.1s10.3.4,15.3,3.3c3,1.8,5.3,3.5,5,3.8s-3.5-.3-7.1-1.4c-9-2.7-18.1-1.7-27.3,2.9-21.9,10.8-44.1,51.7-35.4,65,1.2,1.8,4,3.4,8.2,4.6,6.7,2,9.9,1.4,4.3-.7-11.7-4.5-9.3-15.2,7.9-34.6l9.8-11.1-.6-6.3c-.6-5.7-.4-6.5,1.9-7.7,3.2-1.7,8.4-.7,12.2,2.3,3.6,2.9,14.8,3.1,24.3.6,3.4-.9,9.5-1.7,13.3-1.7,6.6,0,7.1.2,7.8,2.9.4,1.6.4,3.6,0,4.6s.4,4.1,1.7,7.1c3,6.7,4.1,22.6,2.2,31.4-.7,3.4-3.3,10.4-5.8,15.6-6.2,12.9-6.4,14.8-2.9,23.3,6.1,14.6,10.6,42.5,9.4,58.7-.3,4.8-2,15.4-3.7,23.5-3.2,15.7-2.9,21.2,1.1,24.7.9.8,1.7,3.1,1.7,5.1,0,4.3-3.2,7.7-9,9.7-5.4,1.8-17.2,1.6-22.9-.4-6.8-2.4-12.4-2.1-17.1.8-3.5,2.2-5.8,2.6-18.8,2.8-10.1.2-17-.3-21.5-1.4h.1ZM100.4,201.2c-10.1-30-7-63.6,9.2-98.6l4.9-10.5-5.2-4.6-4.6,9.9c-18.6,40.4-21.4,76-8.1,102.5,3.5,7,6.7,12.5,7.3,12.5s-1.4-5-3.5-11.2h0ZM187.5,100.7l2.4-6-.5,5c-.3,2.9,0,4.6.5,4,.9-.9,6.8-15.7,6.8-17.2s-1.5.7-3.5,2.3c-3.5,3-9.8,5.3-14.6,5.3-2.4,0-2.6.4-1.9,4.3,1.3,7.8,1.6,8.3,5.1,8.3s3.6-.7,5.7-6h0Z" inkscape:connector-curvature="0"/>
    <path class="st3" d="M117.7,241.7c-14.1-3.6-30.9-15-42.8-29.4-20-24-41.5-66.8-50.4-100.4-3.2-12.2-3.7-16.1-4.2-33-.5-17.1-.3-20,1.8-27.1,2.9-9.5,6-14.5,12.4-19.4,9.2-7.1,22.9-7.5,35.7-1,6.4,3.3,8.3,5.4,12,13.4,4.5,10,6.3,21.4,7.1,45.5l.7,22.2,3.6-8.4c2-4.6,6-12.5,8.9-17.7,2.9-5.1,5.3-10.7,5.3-12.4s-1.3-6.1-2.8-9.9c-2.9-7-3.4-10.8-2.1-17.1q.7-3.6,8.3-3.6h7.5s4.7-6.1,4.7-6.1c5.3-6.9,15.6-15.4,24.5-20,5.1-2.7,7.3-3.1,15.7-3.1s10.3.4,15.3,3.3c3,1.8,5.3,3.5,5,3.8s-3.5-.3-7.1-1.4c-9-2.7-18.1-1.7-27.3,2.9-21.9,10.8-44.1,51.7-35.4,65,1.2,1.8,4,3.4,8.2,4.6,6.7,2,9.9,1.4,4.3-.7-11.7-4.5-9.3-15.2,7.9-34.6l9.8-11.1-.6-6.3c-.6-5.7-.4-6.5,1.9-7.7,3.2-1.7,8.4-.7,12.2,2.3,3.6,2.9,14.8,3.1,24.3.6,3.4-.9,9.5-1.7,13.3-1.7,6.6,0,7.1.2,7.8,2.9.4,1.6.4,3.6,0,4.6s.4,4.1,1.7,7.1c3,6.7,4.1,22.6,2.2,31.4-.7,3.4-3.3,10.4-5.8,15.6-6.2,12.9-6.4,14.8-2.9,23.3,6.1,14.6,10.6,42.5,9.4,58.7-.3,4.8-2,15.4-3.7,23.5-3.2,15.7-2.9,21.2,1.1,24.7.9.8,1.7,3.1,1.7,5.1,0,4.3-3.2,7.7-9,9.7-5.4,1.8-17.2,1.6-22.9-.4-6.8-2.4-12.4-2.1-17.1.8-3.5,2.2-5.8,2.6-18.8,2.8-10.1.2-17-.3-21.5-1.4h.2ZM100.4,201.2c-10.1-30-7-63.6,9.2-98.6l4.9-10.5-5.2-4.6-4.6,9.9c-18.6,40.4-21.4,76-8.1,102.5,3.5,7,6.7,12.5,7.3,12.5s-1.4-5-3.5-11.2h0ZM187.5,100.7l2.4-6-.5,5c-.3,2.9,0,4.6.5,4,.9-.9,6.8-15.7,6.8-17.2s-1.5.7-3.5,2.3c-3.5,3-9.8,5.3-14.6,5.3-2.4,0-2.6.4-1.9,4.3,1.3,7.8,1.6,8.3,5.1,8.3s3.6-.7,5.7-6h0Z" inkscape:connector-curvature="0"/>
    <path class="st1" d="M117.7,241.7c-25.5-7.1-48.9-32.3-70.9-76.4-18.6-37.2-26.4-66.8-25.2-94.1,1-22.3,7.3-34.6,20.4-40.3,7.4-3.2,17.9-2.8,26.5,1.1,10.1,4.4,13.7,9.6,17.9,25.1,2,7.3,2.4,13.4,2.9,35.8l.6,27,2-5.7c2.2-6.3,10.1-22.7,14.2-29.2,3.8-6.1,4.2-12.2,1-19.1-1.7-3.7-2.7-7.9-2.7-11.7,0-9.2.3-9.6,8.9-9.6h7.6c0,0,4.3-5.7,4.3-5.7,5.3-7,15.2-14.9,24.2-19.5,5.8-2.9,8-3.4,15.4-3.4,7.1,0,9.6.6,13.8,2.9,2.8,1.6,4.1,2.6,2.8,2.2-16.2-5.1-30.4-1.3-44.2,11.9-17.1,16.3-28.7,44.1-23,55,2.2,4.2,1.7,4.7-1.5,1.2l-2.2-2.4-2.2,4.4c-5,9.9-12.9,31.6-15.8,43.5-2.7,10.9-3.1,14.9-3.1,29.3,0,14.9.3,17.6,3.1,25.8,3.7,11.1,12.9,26.8,17.4,29.5.7.4,0-4-1.6-9.8-3.3-12.5-4.1-34-1.4-41.5l1.6-4.5,3.5,6.2c6,10.6,23.4,26.2,31.3,28.2,5.9,1.5,5.8-6.3-.4-23.2-5.4-14.6-6.4-20.1-6.5-33.9,0-13.7,1.7-19.9,9.4-34,5.3-9.7,5.7-13.9,2.3-24.7-1.2-4-2.3-7.9-2.3-8.8,0-.8,2.7.6,6,3,8.4,6.3,19.5,11.7,25.7,12.4,4.6.6,5.8.2,9-2.4,3.9-3.3,8.3-13.4,8.3-19.1s.5-3.4,1.1-3.4c1.5,0,2.7,7,2.1,12.5l-.4,4.6,3.2-3.1c1.7-1.7,4.2-5.7,5.5-8.9l2.3-5.8-.4,9.8c-.3,8.9-.9,10.9-5.7,21.4-3.3,7.1-5.3,13.1-5.3,15.6s1.5,8,3.4,12.7c8,20.2,10.1,51.3,5.1,74.8-3.8,17.7-3.7,23.5.2,28.2,2.5,3,2.8,4.2,2,6.6-1.6,4.5-6.1,7.2-14.5,8.6-6.8,1.2-8.4,1.1-15.4-1.2-9.9-3.2-12.2-3.2-18.7.3-5,2.7-6.4,2.9-20.5,2.8-8.9,0-17.4-.7-20.7-1.7h-.2ZM185.6,107.3c1-.8,2.4-2.5,3.1-3.7,1.3-2.2,1.3-2.2.6.3-1,3.9,1.4,3.1,3.5-1,2.6-5.1,6.3-16.2,5.6-16.9-.3-.3-2,.8-3.7,2.4-3.8,3.7-8.2,5.4-13.6,5.4h-4.1l.5,5.7c.8,8.2,3.8,11.1,7.9,7.8h0ZM183.7,55.5c-11.5-5.5-14.2-13.1-6.3-17,5.2-2.6,19.1-4.9,23.1-3.9,2.7.7,3.1,1.3,3.1,5.4,0,7.9-7.1,18.4-12.4,18.3-1,0-4.4-1.2-7.5-2.7h0ZM144.9,48.8c1.3-2.1,1.4-3.5.4-7.4-2.4-8.9,3.1-10.9,14.4-5.2l6.4,3.2-6,1.9c-3.3,1.1-8.1,3.7-10.7,5.9-5.4,4.7-6.8,5.1-4.4,1.4h0Z" inkscape:connector-curvature="0"/>
  </g>
</svg>