<svg id="logosandtypes_com" xmlns="http://www.w3.org/2000/svg" viewBox="0 0 150 150.2"><path d="M0 .2h150v150H0V.2z" fill="none"/><path d="M107.7 4.6c-1.1-1.1-2.2-1.5-3.1-1.5-1.2 0-2.3.7-2.9 1.8 2.5 7.5 2.4 10 .4 12.1-.6.6-1.4.9-2.3.9-1.3 0-3-.6-5.3-2.1-13.8-10.7-33.6-8.3-44.4 5.5-9.9 12.7-8.7 30.8 2.8 42 .2.3.5.6.7.8C69 79.5 70.5 81 58.3 93.6c-10.5 9.3-11.4 25.2-2.2 35.7s25.2 11.4 35.7 2.2 11.4-25.2 2.2-35.7c-.7-.8-1.4-1.5-2.2-2.2C79.5 81 81.1 79.4 96.4 64.1c.3-.3.5-.5.7-.8 8.4-8.2 11.6-20.5 8.1-31.8.9-.6 1.8-1.2 2.5-2 6.8-6.9 6.8-18 0-24.9zM75.1 34.2c3.6 0 6.5 2.9 6.5 6.5s-2.9 6.5-6.5 6.5-6.5-2.9-6.5-6.5 2.9-6.5 6.5-6.5c-.1 0 0 0 0 0zm0 83.1c-2.7 0-4.9-2.2-4.9-4.9s2.2-4.9 4.9-4.9 4.9 2.2 4.9 4.9c-.1 2.7-2.2 4.9-4.9 4.9z" fill="#f47b20"/></svg>