<?xml version="1.0" encoding="UTF-8"?>
<svg id="Layer_1" xmlns="http://www.w3.org/2000/svg" xmlns:sodipodi="http://sodipodi.sourceforge.net/DTD/sodipodi-0.dtd" xmlns:rdf="http://www.w3.org/1999/02/22-rdf-syntax-ns#" xmlns:inkscape="http://www.inkscape.org/namespaces/inkscape" xmlns:dc="http://purl.org/dc/elements/1.1/" xmlns:cc="http://creativecommons.org/ns#" version="1.1" viewBox="0 0 256 256">
  <!-- Generator: Adobe Illustrator 30.1.0, SVG Export Plug-In . SVG Version: 2.1.1 Build 136)  -->
  <defs>
    <style>
      .st0 {
        fill: #1c7361;
      }
    </style>
  </defs>
  <sodipodi:namedview bordercolor="#666666" borderopacity="1" gridtolerance="10" guidetolerance="10" inkscape:current-layer="g6108" inkscape:cx="-76.887261" inkscape:cy="77.464272" inkscape:document-rotation="0" inkscape:pageopacity="0" inkscape:pageshadow="2" inkscape:window-height="1014" inkscape:window-maximized="1" inkscape:window-width="1920" inkscape:window-x="0" inkscape:window-y="36" inkscape:zoom="1.3037281" objecttolerance="10" pagecolor="#ffffff" showgrid="false"/>
  <g id="surface1">
    <path id="path1533" class="st0" d="M41.9,53.5c1.6-1.9,3.3-4.3,2.2-6.5,6.3-3.7,11.9-8.6,16.4-14.3-2.5,2-5.2,3.5-8,4.8,21.5-21.3,54-30.9,83.7-25-24-.9-48.4,5.5-68.2,19-19.9,13.4-34.9,34.1-40.7,57.4,8.8-25.5,27.3-47.5,50.9-60.4-1.9,1.9-3.7,3.9-5.6,5.8,9-3.7,17.2-9.3,26.1-13.2,26.3-11.5,57.9-7.1,82.4,7.8,24.5,15,42.1,39.5,52.3,66.3,4.5,11.7,7.7,24.7,3.7,36.6-.9-15.5-6-30.4-12.5-44.4-10.9-23.3-26.6-45.2-48.6-58.6-22-13.3-51.1-16.9-73.6-4.3,11.5-1.2,23.2-1.9,34.6-.3,21.5,3,41.4,14.3,56.4,29.9,15,15.6,25.4,35.4,31.6,56.1,6,20.3,7.9,42.7.3,62.5,22.3-36.1,18.6-86.4-8.7-118.9-11.4-13.6-26.2-24-42.2-31.5-18.5-8.7-38.7-13.7-59.1-13.1-20.4.6-40.7,6.9-57,19.2,13.5-11.9,31.1-18.7,49-20.5,17.9-1.8,36.1,1.1,53.2,6.9,35.4,12,67.7,38.6,78.1,74.5,2.6,9.2,3.8,18.8,4.9,28.4.9,8.3,1.6,16.5,1.5,24.9-.8,41.1-27.1,81.3-65.4,96.3-10.9,4.2-22.3,6.5-33.9,8.2-18.5,2.6-37.6,3.4-55.4-2.1-9.2-2.9-17.7-7.3-25.7-12.8-32.9-22.5-53.6-61.7-53.6-101.6s.6-14.1,1.6-21.1c.8-6.4,2-12.8,3.8-19,2.8-9.1,7.2-17.7,13-25.3,1-.6,2-1.3,3-2-13.3,28.2-21.3,61.5-9.1,90.2-4.4-18.7-4.7-38.4-.8-57.2,1.2-.4,2.5-1,3.7-1.5,0-1.2.1-2.4.2-3.7-.9,1-1.7,2-2.6,3,2.1-14.9,8.5-29,18.1-40.4M50.9,52.8c3.5-2.4,7-4.7,10.5-7.1-2.2,4.4-6.2,7.9-11,9.5-21.9,22.7-28.7,56.5-26.1,87.9,1,11.9,3.4,24.2,11.1,33.3-5.3-21.9-5.6-45.1-.7-67.2,1,0,1.3,1.2,1.3,2.1.4,14.8-2.1,29.6-1.1,44.4,1.1,14.7,6.6,30.3,19,38.4,9.7,6.3,19.3,12.6,28.9,18.9-22.5-7.2-42.1-22.8-54.3-43.1,3.3,8.8,7.8,17.2,13.4,24.8-.7-2-1.4-4.1-2.1-6.2,5.7,5.3,11.4,10.6,17.1,15.9,4.2,3.9,10.7,7.8,15,4.1.7,1.4-.6,3.2-2.1,3.5-1.5.5-3.2,0-4.7-.5,6.8,4.9,13.9,9.4,21.2,13.5-1.1.2-1.4,1.7-.7,2.6.7.9,1.8,1.1,2.9,1.4,26.8,5.8,55.4,3.7,81.1-6.2-22.1,5.2-45.6,6.4-67-1.1-18.1-6.3-33.9-18.7-44.2-34.8-3.3-5.2-6.1-10.6-8.6-16.2-8.2-18.3-13.3-38.4-11.9-58.4,1.5-20,10.2-40,26-52.4,1.6-1.3,3.7-2.5,5.7-2-15.5,11.3-24.8,29.9-27.2,48.9-2.4,19.1,1.5,38.4,8.4,56.3,5,12.7,11.5,24.9,20.6,35.1,3.9,4.3,8.3,8.3,13.3,11.3,9.2,5.5,20,7.6,30.7,8.9,14.5,1.9,29,2.6,43.6,2.3-18.4,4.3-37.6,1.2-56.3-1.9,31.6,11.9,68.7,4.6,95.9-15.4,5.4-4,10.5-8.4,14.6-13.8,6.3-8.2,10.1-18.2,12-28.4,5-26.6-2.1-54.3-15-78.1-8.9-16.5-20.8-31.8-36.5-42.3-14.6-9.7-32-14.8-49.5-15.8-26.9-1.6-55.4,7.3-73.3,27.6M103.8,235.5c12.1,3,24.3,5.2,36.7,6.7-15.2,3.5-30.8-1.9-45.5-7.1-8.7-3-17.4-6.2-25.5-10.7-19.5-10.8-34.1-29.3-42.6-49.9-1.5-3.7-2.8-7.3-3.9-11-.1-.4-.5.6,0,.4.4-.2.4-.8.2-1.3-5.1-12.2-8.2-25.3-9.1-38.5-1,19.9,4,39.9,13,57.8,9.8,19.4,24.5,36.5,42.9,48,18.4,11.5,40.6,17.4,62.2,15.3,30.4-3,57-20.7,81.5-38.9-10.8,14.3-27.2,23.1-43.1,31.5,27.5-7.7,49.6-29.5,62.8-54.8-6.6,11.2-16.9,20.1-28.1,26.7-11.3,6.6-23.6,11.3-35.9,15.7-5.4,2-10.9,3.9-16.4,5.5-15.9,4.6-32.7,6.1-49.2,4.7M216.3,197.5c2.8-2.6,5.6-5.3,7.8-8.4,3.5-4.9,5.9-10.6,8.2-16.2,3-7.7,6.1-15.4,6.9-23.6-1.5,1.3-2,3.2-2.5,5.1-7.5,25.9-26,48.6-50,60.9,11.3-2.5,21-9.9,29.6-17.8M78.8,225.1c1.2.3,2.6.8,2.7,2,.4-.8,1.8-.8,2.3,0,.2,0,0-.5-.2-.6-1.7-.9-3.4-1.8-5-2.7-6.8-3.7-13.1-8.2-18.6-13.5-.7,1.5-.2,3.3,1.1,4.2,2.5,1.8,5,3.6,7.4,5.4,3,2.5,6.5,4.3,10.3,5.2M241.3,140c-.2,4.2-.5,8.4-.7,12.5,0,.6,0,1.1,0,1.7,0,1-.1,2-.2,3,0,1.2-.1,2.4-.1,3.6,2.4-9.6,3.2-19.6,2.5-29.4-.3-.1-.6-.3-.8-.5-.2,3-.4,6-.6,9M22.6,78.3c-.4.7-.7,1.5-1.1,2.2.4.5,1.1-.1,1.3-.7.2-.6.3-1.4,1-1.4-.3-.3-.6-.6-.8-.8-.1.2-.2.6-.1.8M63.5,31.6c.6-.4,1.1-.9,1.7-1.4-1-.4-2.2.1-2.6,1.1.3.1.6.2.9.3M65.2,29c1.2.3,2.6,0,3.7-.9-1.3,0-2.6.2-3.7.9M20.4,86.1c0-.3-.1-.6-.1-.8-1.1.4-1.6,1.9-1,2.8.2-.7.6-1.4,1.1-2M14.1,114.8c-.3.4,0,1.1.5,1.1.3-.9.2-1.9,0-2.8-.6.3-.7,1.1-.4,1.6"/>
    <path id="path1535" class="st0" d="M52,37.7c.1.2.2.4.3.6-.5.7-1.5,1.1-2.3.8.5-.6,1.1-1.1,1.9-1.2"/>
    <path id="path1537" class="st0" d="M47.6,41.3c.8-.3,1.6-.5,2.5-.4-.2,1.2-2.3,1.6-2.8.4"/>
    <path id="path1539" class="st0" d="M44.7,38.7c.5-.8,1.5-1.3,2.5-1.2.2.6,0,1.2-.4,1.6-.8.1-1.7.2-2.3-.4"/>
    <path id="path1541" class="st0" d="M202.4,42.4c.3,0,.7.3.6.6s-.4.6-.8.5c-.5-.6-1-1.2-1.5-1.8.6-.5,1.6,0,1.7.6"/>
    <path id="path1543" class="st0" d="M49.8,34.1c.4-.4,1.2-.4,1.6,0-.7.7-1.7,1.2-2.7,1.6-.1-.6.5-1.3,1.1-1.3"/>
    <path id="path1545" class="st0" d="M40.6,86.4c.5-.7,1.9-.5,2,.4-.7-.1-1.4.1-1.9.6-.3.1-.7-.1-.7-.4,0-.3.3-.6.6-.6"/>
    <path id="path1547" class="st0" d="M72.8,50.4c.3-.1.7-.2,1-.1.3.1.5.6.3.8-1.1.7-2.3,1.1-3.5,1.1.6-.8,1.4-1.4,2.3-1.9"/>
    <path id="path1549" class="st0" d="M89.4,226.2c.6.4,1.2.8,1.7,1.2-1.2.5-2.7.2-3.7-.7-.2-.4.2-1,.6-1,.5,0,1,.2,1.3.4"/>
    <path id="path1551" class="st0" d="M63.7,45.2c-.3-.8,0-1.9.6-2.5.5-.1.9-.4,1.1-1,.7.3,1.4.6,2.1.8-1.2.8-2.5,1.7-3.8,2.6"/>
    <path id="path1553" class="st0" d="M36.2,105.7v-1c.6-.3,1.2-.3,1.7,0-1,1.1-1.6,2.5-1.5,4-.6-.4-1.3-1-2-1.4.6-.5,1.2-1,1.8-1.5"/>
    <path id="path1555" class="st0" d="M32.5,56c.2-1.7,1.2-3.3,2.6-4.4.4-.3,1-.5,1.2,0-1.2,1.2-2.3,2.6-3,4.2-.2.3-.6.5-.9.2"/>
    <path id="path1557" class="st0" d="M38.3,90.9c1.1-.8,2.2-1.7,3.3-2.5-.3,1.1-.6,2-.8,3.1-.4.2-.7.6-1.1.8-.4.2-1,.3-1.2-.1-.2-.4.4-1,.6-.6-.2-.2-.5-.5-.8-.7"/>
    <path id="path1559" class="st0" d="M81.2,47.3c-.1.3-.2.6-.1.9-.9.2-1.7.3-2.5.5-.1.3-.2.7-.3,1-.7,0-1.4,0-2,0-.6-.3,0-1.1.6-1.3,1.1-.6,2.3-.9,3.5-1.1-.2-.3-.3-.5-.5-.8.9-.7,2-1.2,3.2-1.6.2.4.3.8.2,1.3-.4.2-.8.2-1.2.1,0,.3.1.6.2.9-.4.1-.7.2-1,.1"/>
    <path id="path1561" class="st0" d="M37.2,52.6c.4-.3,1.1-.4,1.6-.3-.2-.3-.4-.6-.6-.8.6-.1,1.1-.2,1.7-.3.2-.6.2-1.2,0-1.8.6,0,1.3,0,1.9.3.2.2.2.6.2.8-.3.1-.6.2-1,.3-.1.6-.3,1.1-.4,1.7-.3.2-.7.2-1.1.1-.5,3-3.8,4.8-5,7.6-.4,1-.8,2.2-1.8,2.2-.3-.3-.2-1,.2-1.2-.4-.1-.7-.2-1.1-.3,0-.6,1-.4,1.5,0,.5-.4,0-1.3-.5-1.3.6-.5,1-1.3,1.1-2.1.6,0,1.2-.2,1.6-.6-.5.1-1-.2-1.1-.7.9.2,1.8-.7,1.7-1.6.7-.4,1.3-.8,2-1.2-.3-.2-.7-.4-1.1-.7"/>
    <path id="path1563" class="st0" d="M213.9,55.5c-1.2-1.7-2.5-3.3-4.1-4.7-2.2-2-5-3.7-5.5-6.6,13.2,11.2,23.4,26,29.1,42.4.5.5,0,1.5-.7,1.3-5-11.4-11.3-22.3-18.9-32.3"/>
    <path id="path1565" class="st0" d="M65.3,46.6c2.3-1.9,5-3.6,5.9-6.4.3-.8,1.1-1.4,1.8-1.9,11.4-7.1,24.6-11.1,38-11.3-6.7,1.8-13.3,3.5-20,5.3-10.4,2.8-18.1,11.4-25.1,19.6-6.1,7.1-12.2,14.3-18.3,21.5-.7,2-1.4,4-2.1,6-.3.9-.6,1.8-1.4,2.4-.7.6-2,.6-2.4-.3,2.7-4.7,5.4-9.5,8.2-14.3,4.4-7.4,8.8-15.1,15.5-20.6"/>
  </g>
</svg>