<?xml version="1.0" encoding="UTF-8"?>
<svg id="Layer_1" xmlns="http://www.w3.org/2000/svg" xmlns:xlink="http://www.w3.org/1999/xlink" xmlns:svg="http://www.w3.org/2000/svg" xmlns:sodipodi="http://sodipodi.sourceforge.net/DTD/sodipodi-0.dtd" xmlns:rdf="http://www.w3.org/1999/02/22-rdf-syntax-ns#" xmlns:inkscape="http://www.inkscape.org/namespaces/inkscape" xmlns:dc="http://purl.org/dc/elements/1.1/" xmlns:cc="http://creativecommons.org/ns#" version="1.1" viewBox="0 0 290.7 86.7">
  <!-- Generator: Adobe Illustrator 30.1.0, SVG Export Plug-In . SVG Version: 2.1.1 Build 136)  -->
  <defs>
    <style>
      .st0 {
        fill: url(#linear-gradient2);
      }

      .st1 {
        fill: url(#linear-gradient1);
      }

      .st2 {
        fill: url(#linear-gradient3);
      }

      .st3 {
        fill: url(#linear-gradient4);
      }

      .st4 {
        fill: url(#linear-gradient);
      }

      .st5 {
        fill: #f0e64a;
      }

      .st6 {
        fill: #ee7913;
      }

      .st7 {
        fill: #fff;
        fill-opacity: .2;
      }
    </style>
    <linearGradient id="linear-gradient" x1="225.5" y1="-3.2" x2="224.3" y2="77" gradientTransform="translate(-101.7 83.1) scale(1.1 -1.1)" gradientUnits="userSpaceOnUse">
      <stop offset="0" stop-color="#589632"/>
      <stop offset="1" stop-color="#93b023"/>
    </linearGradient>
    <linearGradient id="linear-gradient1" x1="285" y1="-2.3" x2="283.7" y2="77.9" gradientTransform="translate(-101.7 83.1) scale(1.1 -1.1)" gradientUnits="userSpaceOnUse">
      <stop offset="0" stop-color="#589632"/>
      <stop offset="1" stop-color="#93b023"/>
    </linearGradient>
    <linearGradient id="linear-gradient2" x1="336.3" y1="-1.5" x2="335.1" y2="78.7" gradientTransform="translate(-101.7 83.1) scale(1.1 -1.1)" gradientUnits="userSpaceOnUse">
      <stop offset="0" stop-color="#589632"/>
      <stop offset="1" stop-color="#93b023"/>
    </linearGradient>
    <linearGradient id="linear-gradient3" x1="162.6" y1="-4.4" x2="161.4" y2="76.4" gradientTransform="translate(-101.7 83.1) scale(1.1 -1.1)" gradientUnits="userSpaceOnUse">
      <stop offset="0" stop-color="#589632"/>
      <stop offset="1" stop-color="#93b023"/>
    </linearGradient>
    <linearGradient id="linear-gradient4" x1="137.7" y1="-4.5" x2="136.5" y2="75.6" gradientTransform="translate(-101.7 83.1) scale(1.1 -1.1)" gradientUnits="userSpaceOnUse">
      <stop offset="0" stop-color="#589632"/>
      <stop offset="1" stop-color="#93b023"/>
    </linearGradient>
  </defs>
  <sodipodi:namedview id="namedview42" bordercolor="#666666" borderopacity="1" fit-margin-bottom="0" fit-margin-left="0" fit-margin-right="0" fit-margin-top="0" gridtolerance="10" guidetolerance="10" inkscape:current-layer="Layer_1" inkscape:cx="150.26037" inkscape:cy="34.160243" inkscape:pageopacity="0" inkscape:pageshadow="2" inkscape:window-height="1024" inkscape:window-maximized="1" inkscape:window-width="1920" inkscape:window-x="0" inkscape:window-y="0" inkscape:zoom="1.2565238" objecttolerance="10" pagecolor="#ffffff" showgrid="false"/>
  <polygon id="polygon3" class="st6" points="61.3 47.2 50.7 36.7 37.8 36.7 37.8 49.2 48.8 60.2 48.8 47.2 61.3 47.2"/>
  <path id="path10" class="st4" d="M176.1,42v31.6c-8.7,6.3-21.9,10.7-33.3,10.7-24.9,0-43.8-18.1-43.8-41.9S118.3.7,143.9.7s24.6,4.7,33,12l-10.4,13.3c-6.1-5.6-14.5-9.2-22.5-9.2-14.5,0-25.8,11.1-25.8,25.6s11.4,25.7,25.9,25.7,10.8-1.8,16.1-4.5v-21.6h16.1Z" inkscape:connector-curvature="0"/>
  <path id="path17" class="st1" d="M192.3,83.4V1.3h18.5v82.1h-18.5Z" inkscape:connector-curvature="0"/>
  <path id="path24" class="st0" d="M290.3,9.4l-7.2,15.4c-8.7-5.2-19-8.4-25.6-8.4s-10.4,2.2-10.4,6.7c0,15.1,43.8,6.7,43.6,36.2,0,16.1-14,24.8-32.1,24.8s-27-5.2-36.2-13l7.4-15.1c8.4,7.5,20.4,12.3,29.1,12.3s12.2-2.8,12.2-7.9c0-15.5-43.8-6.5-43.8-35.5S240.1.5,259.1.5c11.5,0,23,3.5,31.2,8.9Z" inkscape:connector-curvature="0"/>
  <polygon id="polygon31" class="st2" points="66.6 52.4 54 52.4 54 65.4 75.4 86.7 88.9 86.7 88.9 74.4 66.6 52.4"/>
  <polygon id="polygon33" class="st5" points="66.6 52.4 61.3 47.2 48.8 47.2 48.8 60.2 54 65.4 54 52.4 66.6 52.4"/>
  <path id="path40" class="st3" d="M50.6,68.6c-1.9.4-3.9.7-5.9.7-14.5,0-26.9-11.9-26.9-27.4s12.2-27.2,26.9-27.2,26.3,11.7,26.3,27.2-.3,4.9-.9,7.2l13.4,13.4c3.5-6.1,5.4-13.1,5.4-20.8,0-23.9-19-41.7-44.5-41.7S0,17.7,0,41.7s19,42.2,44.4,42.2,12.7-1.2,18.2-3.4l-12-11.9Z" inkscape:connector-curvature="0"/>
  <path id="polygon4174" class="st7" d="M37.8,36.7l51.1,49.9v-12.2l-22.3-22-5.3-5.2-10.6-10.5h-13Z" inkscape:connector-curvature="0" sodipodi:nodetypes="ccccccc"/>
</svg>