<?xml version="1.0" encoding="utf-8"?>
<!-- Generator: Adobe Illustrator 30.1.0, SVG Export Plug-In . SVG Version: 9.03 Build 0)  -->
<svg version="1.0"
	 id="svg2" xmlns:svg="http://www.w3.org/2000/svg" xmlns:dc="http://purl.org/dc/elements/1.1/" xmlns:sodipodi="http://sodipodi.sourceforge.net/DTD/sodipodi-0.dtd" xmlns:inkscape="http://www.inkscape.org/namespaces/inkscape" xmlns:cc="http://creativecommons.org/ns#" xmlns:rdf="http://www.w3.org/1999/02/22-rdf-syntax-ns#"
	 xmlns="http://www.w3.org/2000/svg" xmlns:xlink="http://www.w3.org/1999/xlink" x="0px" y="0px" viewBox="0 0 185.5 185.5"
	 style="enable-background:new 0 0 185.5 185.5;" xml:space="preserve">
<style type="text/css">
	.st0{fill:#414141;stroke:#EBEBEB;stroke-width:8.9304;stroke-linecap:round;stroke-linejoin:round;}
	.st1{fill:#414141;stroke:#EBEBEB;stroke-width:18.4057;stroke-linecap:round;stroke-linejoin:round;}
	.st2{fill:none;stroke:#EBEBEB;stroke-width:7.4166;}
	.st3{fill:none;stroke:#EE0000;stroke-width:12.7142;}
	.st4{fill:#FF0000;stroke:#EE0000;stroke-width:14.8333;stroke-linecap:round;stroke-linejoin:round;}
</style>
<sodipodi:namedview  bordercolor="#666666" borderopacity="1.0" id="base" inkscape:current-layer="svg2" inkscape:cx="-150.53471" inkscape:cy="56.434504" inkscape:pageopacity="0.0" inkscape:pageshadow="2" inkscape:window-height="744" inkscape:window-maximized="0" inkscape:window-width="1280" inkscape:window-x="0" inkscape:window-y="22" inkscape:zoom="2.0279948" pagecolor="#ffffff" showgrid="false">
	</sodipodi:namedview>
<defs>
	
		<inkscape:perspective  id="perspective47" inkscape:persp3d-origin="243.02499 : 47.924998 : 1" inkscape:vp_x="0 : 71.887497 : 1" inkscape:vp_y="0 : 1000 : 0" inkscape:vp_z="486.04999 : 71.887497 : 1" sodipodi:type="inkscape:persp3d">
		</inkscape:perspective>
</defs>
<g id="g2432" transform="translate(6.3659426,0)">
	
		<path id="path2747" inkscape:flatsided="true" inkscape:randomized="0" inkscape:rounded="0" sodipodi:arg1="-1.0471976" sodipodi:arg2="-0.59839865" sodipodi:cx="21.617718" sodipodi:cy="45.732677" sodipodi:r1="62.576824" sodipodi:r2="54.193119" sodipodi:sides="7" sodipodi:type="star" class="st0" d="
		M114.3,31.2l33.7,43.1l-12.3,53.4l-49.1,23.5l-48.9-24.1L25.9,73.6L60,30.9L114.3,31.2z"/>
	
		<path id="path3527" inkscape:flatsided="true" inkscape:randomized="0" inkscape:rounded="0" sodipodi:arg1="-1.0471976" sodipodi:arg2="-0.41887907" sodipodi:cx="21.617718" sodipodi:cy="45.732677" sodipodi:r1="62.576824" sodipodi:r2="54.193119" sodipodi:sides="5" sodipodi:type="star" class="st1" d="
		M96.9,62.4l14.7,27.9L89.8,113L61.7,99.1l4.3-31.2L96.9,62.4z"/>
	<path id="path3529" sodipodi:nodetypes="cc" class="st2" d="M61,7.3C66.6,45.5,66.1,69,66.1,69"/>
	<path id="path3531" sodipodi:nodetypes="cc" class="st2" d="M96.1,63.2c18.2-31.6,33.3-55.7,33.3-55.7"/>
	<path id="path3533" sodipodi:nodetypes="ccc" class="st2" d="M174.2,64.6c0,0-26.6,9.4-62.3,24.5c23.4,38.4,44.8,51.4,44.8,51.4"/>
	<path id="path3535" sodipodi:nodetypes="cc" class="st2" d="M89.8,111.4c-2.8,39.1-1.3,66.8-1.3,66.8"/>
	<path id="path3537" sodipodi:nodetypes="cc" class="st2" d="M62.6,98.8c-24.7,28.8-51.3,45-51.3,45"/>
	<path id="path3539" sodipodi:nodetypes="cc" class="st2" d="M66.1,69c-40.4,5.4-67.5,2.8-67.5,2.8"/>
	<g id="g3541" transform="translate(25.084896,20.46369)">
		<path id="path2473" sodipodi:nodetypes="cccc" class="st3" d="M8.4,79l20.4-20.4c5.8-5.8,16.4-6.1,22.5,0l10.5,10.5"/>
		<path id="path3290" sodipodi:nodetypes="cccc" class="st3" d="M114.3,58.4L93.9,78.8c-5.8,5.8-16.4,6.1-22.5,0L61,68.3"/>
		
			<path id="path3340" sodipodi:cx="96.582382" sodipodi:cy="45.035332" sodipodi:rx="5.9274387" sodipodi:ry="10.808859" sodipodi:type="arc" class="st4" d="
			M112.5,67.4c-4,4-8.9,5.5-11,3.4s-0.6-7,3.4-11c4-4,8.9-5.5,11-3.4C118,58.5,116.5,63.5,112.5,67.4z"/>
	</g>
</g>
</svg>
