<?xml version="1.0" encoding="UTF-8"?>
<svg id="Layer_1" xmlns="http://www.w3.org/2000/svg" xmlns:xlink="http://www.w3.org/1999/xlink" version="1.1" viewBox="0 0 158.6 185">
  <!-- Generator: Adobe Illustrator 30.1.0, SVG Export Plug-In . SVG Version: 2.1.1 Build 136)  -->
  <defs>
    <style>
      .st0, .st1, .st2 {
        fill: none;
      }

      .st1 {
        stroke: #212121;
      }

      .st1, .st2 {
        stroke-linecap: round;
        stroke-linejoin: round;
        stroke-width: .8px;
      }

      .st3 {
        fill: #212121;
      }

      .st2 {
        stroke: #fff;
      }

      .st4 {
        fill: #fff;
      }

      .st5 {
        fill: #4eb9b0;
      }

      .st6 {
        clip-path: url(#clippath);
      }
    </style>
    <clipPath id="clippath">
      <rect class="st0" x="12.7" y="32.3" width="133.9" height="89.7"/>
    </clipPath>
  </defs>
  <g id="Group_9302">
    <ellipse id="Ellipse_285" class="st5" cx="79.7" cy="89.2" rx="63.8" ry="63.2"/>
    <g id="Group_9275">
      <g id="Group_9274">
        <g class="st6">
          <g id="Group_9273">
            <path id="Path_9650" class="st4" d="M146.5,74.9v43.7c0,1.8-1.4,3.2-3.2,3.2h-65.2c-1.8,0-3.2-1.4-3.2-3.2v-43.7c0-1.8,1.4-3.2,3.2-3.2h65.2c1.8,0,3.2,1.4,3.2,3.2"/>
            <rect id="Rectangle_8172" class="st1" x="74.9" y="71.7" width="71.6" height="50.1" rx="8" ry="8"/>
            <path id="Path_9651" class="st4" d="M131.2,87.3h-21c-.6,0-1.2-.5-1.2-1.2s.5-1.2,1.2-1.2h21c.6,0,1.2.5,1.2,1.2s-.5,1.2-1.2,1.2"/>
            <path id="Path_9652" class="st1" d="M131.2,87.3h-21c-.6,0-1.2-.5-1.2-1.2s.5-1.2,1.2-1.2h21c.6,0,1.2.5,1.2,1.2s-.5,1.2-1.2,1.2h0Z"/>
            <path id="Path_9653" class="st4" d="M134.5,101.5h-21c-.6,0-1.2-.5-1.2-1.2s.5-1.2,1.2-1.2h21c.6,0,1.2.5,1.2,1.2s-.5,1.2-1.2,1.2"/>
            <path id="Path_9654" class="st1" d="M134.5,101.5h-21c-.6,0-1.2-.5-1.2-1.2s.5-1.2,1.2-1.2h21c.6,0,1.2.5,1.2,1.2s-.5,1.2-1.2,1.2Z"/>
            <path id="Path_9655" class="st4" d="M104.8,94.4h-10.2c-.6,0-1.2-.5-1.2-1.2s.5-1.2,1.2-1.2h10.2c.6,0,1.2.5,1.2,1.2s-.5,1.2-1.2,1.2"/>
            <path id="Path_9656" class="st1" d="M104.8,94.4h-10.2c-.6,0-1.2-.5-1.2-1.2s.5-1.2,1.2-1.2h10.2c.6,0,1.2.5,1.2,1.2s-.5,1.2-1.2,1.2h0Z"/>
            <path id="Path_9657" class="st4" d="M104.8,115.7h-21c-.6,0-1.2-.5-1.2-1.2s.5-1.2,1.2-1.2h21c.6,0,1.2.5,1.2,1.2s-.5,1.2-1.2,1.2"/>
            <path id="Path_9658" class="st1" d="M104.8,115.7h-21c-.6,0-1.2-.5-1.2-1.2s.5-1.2,1.2-1.2h21c.6,0,1.2.5,1.2,1.2s-.5,1.2-1.2,1.2Z"/>
            <path id="Path_9659" class="st4" d="M137.6,115.7h-27.5c-.6,0-1.2-.5-1.2-1.2s.5-1.2,1.2-1.2h27.5c.6,0,1.2.5,1.2,1.2s-.5,1.2-1.2,1.2h0"/>
            <path id="Path_9660" class="st1" d="M137.6,115.7h-27.5c-.6,0-1.2-.5-1.2-1.2s.5-1.2,1.2-1.2h27.5c.6,0,1.2.5,1.2,1.2s-.5,1.2-1.2,1.2h0Z"/>
            <path id="Path_9661" class="st4" d="M104.8,90.9h-10.2c-.6,0-1.2-.5-1.2-1.2s.5-1.2,1.2-1.2h10.2c.6,0,1.2.5,1.2,1.2s-.5,1.2-1.2,1.2"/>
            <path id="Path_9662" class="st1" d="M104.8,90.9h-10.2c-.6,0-1.2-.5-1.2-1.2s.5-1.2,1.2-1.2h10.2c.6,0,1.2.5,1.2,1.2s-.5,1.2-1.2,1.2h0Z"/>
            <path id="Path_9663" class="st4" d="M104.8,105.1h-10.2c-.6,0-1.2-.5-1.2-1.2s.5-1.2,1.2-1.2h10.2c.6,0,1.2.5,1.2,1.2s-.5,1.2-1.2,1.2"/>
            <path id="Path_9664" class="st1" d="M104.8,105.1h-10.2c-.6,0-1.2-.5-1.2-1.2s.5-1.2,1.2-1.2h10.2c.6,0,1.2.5,1.2,1.2s-.5,1.2-1.2,1.2h0Z"/>
            <path id="Path_9665" class="st4" d="M137.6,90.9h-21c-.6,0-1.2-.5-1.2-1.2s.5-1.2,1.2-1.2h21c.6,0,1.2.5,1.2,1.2s-.5,1.2-1.2,1.2"/>
            <path id="Path_9666" class="st1" d="M137.6,90.9h-21c-.6,0-1.2-.5-1.2-1.2s.5-1.2,1.2-1.2h21c.6,0,1.2.5,1.2,1.2s-.5,1.2-1.2,1.2Z"/>
            <path id="Path_9667" class="st4" d="M137.6,108.7h-21c-.6,0-1.2-.5-1.2-1.2s.5-1.2,1.2-1.2h21c.6,0,1.2.5,1.2,1.2s-.5,1.2-1.2,1.2"/>
            <path id="Path_9668" class="st1" d="M137.6,108.7h-21c-.6,0-1.2-.5-1.2-1.2s.5-1.2,1.2-1.2h21c.6,0,1.2.5,1.2,1.2s-.5,1.2-1.2,1.2Z"/>
            <path id="Path_9669" class="st4" d="M126.4,112.2h-16.2c-.6,0-1.2-.5-1.2-1.2s.5-1.2,1.2-1.2h16.2c.6,0,1.2.5,1.2,1.2s-.5,1.2-1.2,1.2"/>
            <path id="Path_9670" class="st1" d="M126.4,112.2h-16.2c-.6,0-1.2-.5-1.2-1.2s.5-1.2,1.2-1.2h16.2c.6,0,1.2.5,1.2,1.2s-.5,1.2-1.2,1.2h0Z"/>
            <path id="Path_9671" class="st4" d="M131.2,98h-21c-.6,0-1.2-.5-1.2-1.2s.5-1.2,1.2-1.2h21c.6,0,1.2.5,1.2,1.2s-.5,1.2-1.2,1.2"/>
            <path id="Path_9672" class="st1" d="M131.2,98h-21c-.6,0-1.2-.5-1.2-1.2s.5-1.2,1.2-1.2h21c.6,0,1.2.5,1.2,1.2s-.5,1.2-1.2,1.2h0Z"/>
            <path id="Path_9673" class="st4" d="M104.8,98h-10.2c-.6,0-1.2-.5-1.2-1.2s.5-1.2,1.2-1.2h10.2c.6,0,1.2.5,1.2,1.2s-.5,1.2-1.2,1.2"/>
            <path id="Path_9674" class="st1" d="M104.8,98h-10.2c-.6,0-1.2-.5-1.2-1.2s.5-1.2,1.2-1.2h10.2c.6,0,1.2.5,1.2,1.2s-.5,1.2-1.2,1.2h0Z"/>
            <path id="Path_9675" class="st4" d="M104.8,108.7h-10.2c-.6,0-1.2-.5-1.2-1.2s.5-1.2,1.2-1.2h10.2c.6,0,1.2.5,1.2,1.2s-.5,1.2-1.2,1.2"/>
            <path id="Path_9676" class="st1" d="M104.8,108.7h-10.2c-.6,0-1.2-.5-1.2-1.2s.5-1.2,1.2-1.2h10.2c.6,0,1.2.5,1.2,1.2s-.5,1.2-1.2,1.2h0Z"/>
            <path id="Path_9677" class="st4" d="M104.8,87.3h-21c-.6,0-1.2-.5-1.2-1.2s.5-1.2,1.2-1.2h21c.6,0,1.2.5,1.2,1.2s-.5,1.2-1.2,1.2"/>
            <path id="Path_9678" class="st1" d="M104.8,87.3h-21c-.6,0-1.2-.5-1.2-1.2s.5-1.2,1.2-1.2h21c.6,0,1.2.5,1.2,1.2s-.5,1.2-1.2,1.2Z"/>
            <path id="Path_9679" class="st3" d="M90.8,90.9h-.4c-.6,0-1.2-.5-1.2-1.2s.5-1.2,1.2-1.2h.4c.6,0,1.2.5,1.2,1.2s-.5,1.2-1.2,1.2"/>
            <path id="Path_9680" class="st3" d="M90.8,94.4h-.4c-.6,0-1.2-.5-1.2-1.2s.5-1.2,1.2-1.2h.4c.6,0,1.2.5,1.2,1.2s-.5,1.2-1.2,1.2"/>
            <path id="Path_9681" class="st3" d="M90.8,98h-.4c-.6,0-1.2-.5-1.2-1.2s.5-1.2,1.2-1.2h.4c.6,0,1.2.5,1.2,1.2s-.5,1.2-1.2,1.2"/>
            <path id="Path_9682" class="st3" d="M90.8,105.1h-.4c-.6,0-1.2-.5-1.2-1.2s.5-1.2,1.2-1.2h.4c.6,0,1.2.5,1.2,1.2s-.5,1.2-1.2,1.2"/>
            <path id="Path_9683" class="st3" d="M90.8,108.7h-.4c-.6,0-1.2-.5-1.2-1.2s.5-1.2,1.2-1.2h.4c.6,0,1.2.5,1.2,1.2s-.5,1.2-1.2,1.2"/>
            <path id="Path_9684" class="st3" d="M90.8,112.2h-.4c-.6,0-1.2-.5-1.2-1.2s.5-1.2,1.2-1.2h.4c.6,0,1.2.5,1.2,1.2s-.5,1.2-1.2,1.2"/>
            <path id="Path_9685" class="st4" d="M104.8,101.5h-21c-.6,0-1.2-.5-1.2-1.2s.5-1.2,1.2-1.2h21c.6,0,1.2.5,1.2,1.2s-.5,1.2-1.2,1.2"/>
            <path id="Path_9686" class="st1" d="M104.8,101.5h-21c-.6,0-1.2-.5-1.2-1.2s.5-1.2,1.2-1.2h21c.6,0,1.2.5,1.2,1.2s-.5,1.2-1.2,1.2Z"/>
            <path id="Path_9687" class="st4" d="M137.6,94.4h-21c-.6,0-1.2-.5-1.2-1.2s.5-1.2,1.2-1.2h21c.6,0,1.2.5,1.2,1.2s-.5,1.2-1.2,1.2"/>
            <path id="Path_9688" class="st1" d="M137.6,94.4h-21c-.6,0-1.2-.5-1.2-1.2s.5-1.2,1.2-1.2h21c.6,0,1.2.5,1.2,1.2s-.5,1.2-1.2,1.2Z"/>
            <path id="Path_9689" class="st4" d="M137.6,105.1h-21c-.6,0-1.2-.5-1.2-1.2s.5-1.2,1.2-1.2h21c.6,0,1.2.5,1.2,1.2s-.5,1.2-1.2,1.2"/>
            <path id="Path_9690" class="st1" d="M137.6,105.1h-21c-.6,0-1.2-.5-1.2-1.2s.5-1.2,1.2-1.2h21c.6,0,1.2.5,1.2,1.2s-.5,1.2-1.2,1.2Z"/>
            <path id="Path_9691" class="st4" d="M104.8,112.2h-10.2c-.6,0-1.2-.5-1.2-1.2s.5-1.2,1.2-1.2h10.2c.6,0,1.2.5,1.2,1.2s-.5,1.2-1.2,1.2"/>
            <path id="Path_9692" class="st1" d="M104.8,112.2h-10.2c-.6,0-1.2-.5-1.2-1.2s.5-1.2,1.2-1.2h10.2c.6,0,1.2.5,1.2,1.2s-.5,1.2-1.2,1.2h0Z"/>
            <path id="Path_9693" class="st3" d="M107.5,84.8c-.1,0-.2,0-.2.2,0,0,0,0,0,0v30.7c0,.1,0,.2.2.2.1,0,.2,0,.2-.2,0,0,0,0,0,0v-30.7c0-.1,0-.2-.2-.2,0,0,0,0,0,0"/>
            <path id="Path_9694" class="st3" d="M82.6,82.4l2.3,1v-.7l-1.4-.6,1.4-.6v-.7l-2.3,1v.5Z"/>
            <path id="Path_9695" class="st3" d="M85.2,84h.7l1.2-4h-.6l-1.2,4h0Z"/>
            <path id="Path_9696" class="st3" d="M87.4,80.9v.7l1.4.6-1.4.6v.7l2.3-1v-.5l-2.3-1Z"/>
            <path id="Path_9697" class="st3" d="M146.5,74.9v1.6h-71.6v-1.6c0-1.8,1.4-3.2,3.2-3.2h65.2c1.8,0,3.2,1.4,3.2,3.2"/>
            <line id="Line_112" class="st2" x1="139.4" y1="72.9" x2="141.8" y2="75.4"/>
            <line id="Line_113" class="st2" x1="141.8" y1="72.9" x2="139.4" y2="75.4"/>
            <circle id="Ellipse_273" class="st2" cx="136.4" cy="74.2" r="1.2"/>
            <line id="Line_114" class="st2" x1="130.9" y1="74.2" x2="133.5" y2="74.2"/>
            <path id="Path_9698" class="st4" d="M84.5,74.9v43.7c0,1.8-1.4,3.2-3.2,3.2H16.1c-1.8,0-3.2-1.4-3.2-3.2v-43.7c0-1.8,1.4-3.2,3.2-3.2h65.2c1.8,0,3.2,1.4,3.2,3.2"/>
            <rect id="Rectangle_8173" class="st1" x="12.9" y="71.7" width="71.6" height="50.1" rx="7" ry="7"/>
            <path id="Path_9699" class="st4" d="M69.2,86.6h-21c-.6,0-1.2-.5-1.2-1.2s.5-1.2,1.2-1.2h21c.6,0,1.2.5,1.2,1.2s-.5,1.2-1.2,1.2"/>
            <path id="Path_9700" class="st1" d="M69.2,86.6h-21c-.6,0-1.2-.5-1.2-1.2s.5-1.2,1.2-1.2h21c.6,0,1.2.5,1.2,1.2s-.5,1.2-1.2,1.2Z"/>
            <path id="Path_9701" class="st4" d="M72.5,100.8h-21c-.6,0-1.2-.5-1.2-1.2s.5-1.2,1.2-1.2h21c.6,0,1.2.5,1.2,1.2s-.5,1.2-1.2,1.2"/>
            <path id="Path_9702" class="st1" d="M72.5,100.8h-21c-.6,0-1.2-.5-1.2-1.2s.5-1.2,1.2-1.2h21c.6,0,1.2.5,1.2,1.2s-.5,1.2-1.2,1.2Z"/>
            <path id="Path_9703" class="st4" d="M42.8,93.8h-10.2c-.6,0-1.2-.5-1.2-1.2s.5-1.2,1.2-1.2h10.2c.6,0,1.2.5,1.2,1.2s-.5,1.2-1.2,1.2h0"/>
            <path id="Path_9704" class="st1" d="M42.8,93.8h-10.2c-.6,0-1.2-.5-1.2-1.2s.5-1.2,1.2-1.2h10.2c.6,0,1.2.5,1.2,1.2s-.5,1.2-1.2,1.2h0Z"/>
            <path id="Path_9705" class="st4" d="M42.8,115h-21c-.6,0-1.2-.5-1.2-1.2s.5-1.2,1.2-1.2h21c.6,0,1.2.5,1.2,1.2s-.5,1.2-1.2,1.2h0"/>
            <path id="Path_9706" class="st1" d="M42.8,115h-21c-.6,0-1.2-.5-1.2-1.2s.5-1.2,1.2-1.2h21c.6,0,1.2.5,1.2,1.2s-.5,1.2-1.2,1.2h0Z"/>
            <path id="Path_9707" class="st4" d="M75.6,115h-27.5c-.6,0-1.2-.5-1.2-1.2s.5-1.2,1.2-1.2h27.5c.6,0,1.2.5,1.2,1.2s-.5,1.2-1.2,1.2"/>
            <path id="Path_9708" class="st1" d="M75.6,115h-27.5c-.6,0-1.2-.5-1.2-1.2s.5-1.2,1.2-1.2h27.5c.6,0,1.2.5,1.2,1.2s-.5,1.2-1.2,1.2Z"/>
            <path id="Path_9709" class="st4" d="M42.8,90.2h-10.2c-.6,0-1.2-.5-1.2-1.2s.5-1.2,1.2-1.2h10.2c.6,0,1.2.5,1.2,1.2s-.5,1.2-1.2,1.2h0"/>
            <path id="Path_9710" class="st1" d="M42.8,90.2h-10.2c-.6,0-1.2-.5-1.2-1.2s.5-1.2,1.2-1.2h10.2c.6,0,1.2.5,1.2,1.2s-.5,1.2-1.2,1.2h0Z"/>
            <path id="Path_9711" class="st4" d="M42.8,104.5h-10.2c-.6,0-1.2-.5-1.2-1.2s.5-1.2,1.2-1.2h10.2c.6,0,1.2.5,1.2,1.2s-.5,1.2-1.2,1.2h0"/>
            <path id="Path_9712" class="st1" d="M42.8,104.5h-10.2c-.6,0-1.2-.5-1.2-1.2s.5-1.2,1.2-1.2h10.2c.6,0,1.2.5,1.2,1.2s-.5,1.2-1.2,1.2h0Z"/>
            <path id="Path_9713" class="st4" d="M75.6,90.2h-21c-.6,0-1.2-.5-1.2-1.2s.5-1.2,1.2-1.2h21c.6,0,1.2.5,1.2,1.2s-.5,1.2-1.2,1.2"/>
            <path id="Path_9714" class="st1" d="M75.6,90.2h-21c-.6,0-1.2-.5-1.2-1.2s.5-1.2,1.2-1.2h21c.6,0,1.2.5,1.2,1.2s-.5,1.2-1.2,1.2Z"/>
            <path id="Path_9715" class="st4" d="M75.6,108h-21c-.6,0-1.2-.5-1.2-1.2s.5-1.2,1.2-1.2h21c.6,0,1.2.5,1.2,1.2s-.5,1.2-1.2,1.2"/>
            <path id="Path_9716" class="st1" d="M75.6,108h-21c-.6,0-1.2-.5-1.2-1.2s.5-1.2,1.2-1.2h21c.6,0,1.2.5,1.2,1.2s-.5,1.2-1.2,1.2Z"/>
            <path id="Path_9717" class="st4" d="M62.2,111.6h-14.1c-.6,0-1.2-.5-1.2-1.2s.5-1.2,1.2-1.2h14.1c.6,0,1.2.5,1.2,1.2s-.5,1.2-1.2,1.2"/>
            <path id="Path_9718" class="st1" d="M62.2,111.6h-14.1c-.6,0-1.2-.5-1.2-1.2s.5-1.2,1.2-1.2h14.1c.6,0,1.2.5,1.2,1.2s-.5,1.2-1.2,1.2Z"/>
            <path id="Path_9719" class="st4" d="M69.2,97.3h-21c-.6,0-1.2-.5-1.2-1.2s.5-1.2,1.2-1.2h21c.6,0,1.2.5,1.2,1.2s-.5,1.2-1.2,1.2"/>
            <path id="Path_9720" class="st1" d="M69.2,97.3h-21c-.6,0-1.2-.5-1.2-1.2s.5-1.2,1.2-1.2h21c.6,0,1.2.5,1.2,1.2s-.5,1.2-1.2,1.2Z"/>
            <path id="Path_9721" class="st4" d="M42.8,97.3h-10.2c-.6,0-1.2-.5-1.2-1.2s.5-1.2,1.2-1.2h10.2c.6,0,1.2.5,1.2,1.2s-.5,1.2-1.2,1.2h0"/>
            <path id="Path_9722" class="st1" d="M42.8,97.3h-10.2c-.6,0-1.2-.5-1.2-1.2s.5-1.2,1.2-1.2h10.2c.6,0,1.2.5,1.2,1.2s-.5,1.2-1.2,1.2h0Z"/>
            <path id="Path_9723" class="st4" d="M42.8,108h-10.2c-.6,0-1.2-.5-1.2-1.2s.5-1.2,1.2-1.2h10.2c.6,0,1.2.5,1.2,1.2s-.5,1.2-1.2,1.2h0"/>
            <path id="Path_9724" class="st1" d="M42.8,108h-10.2c-.6,0-1.2-.5-1.2-1.2s.5-1.2,1.2-1.2h10.2c.6,0,1.2.5,1.2,1.2s-.5,1.2-1.2,1.2h0Z"/>
            <path id="Path_9725" class="st4" d="M42.8,86.6h-21c-.6,0-1.2-.5-1.2-1.2s.5-1.2,1.2-1.2h21c.6,0,1.2.5,1.2,1.2s-.5,1.2-1.2,1.2h0"/>
            <path id="Path_9726" class="st1" d="M42.8,86.6h-21c-.6,0-1.2-.5-1.2-1.2s.5-1.2,1.2-1.2h21c.6,0,1.2.5,1.2,1.2s-.5,1.2-1.2,1.2h0Z"/>
            <path id="Path_9727" class="st3" d="M28.8,90.2h-.4c-.6,0-1.2-.5-1.2-1.2s.5-1.2,1.2-1.2h.4c.6,0,1.2.5,1.2,1.2s-.5,1.2-1.2,1.2"/>
            <path id="Path_9728" class="st3" d="M28.8,93.8h-.4c-.6,0-1.2-.5-1.2-1.2s.5-1.2,1.2-1.2h.4c.6,0,1.2.5,1.2,1.2s-.5,1.2-1.2,1.2"/>
            <path id="Path_9729" class="st3" d="M28.8,97.3h-.4c-.6,0-1.2-.5-1.2-1.2s.5-1.2,1.2-1.2h.4c.6,0,1.2.5,1.2,1.2s-.5,1.2-1.2,1.2"/>
            <path id="Path_9730" class="st3" d="M28.8,104.5h-.4c-.6,0-1.2-.5-1.2-1.2s.5-1.2,1.2-1.2h.4c.6,0,1.2.5,1.2,1.2s-.5,1.2-1.2,1.2"/>
            <path id="Path_9731" class="st3" d="M28.8,108h-.4c-.6,0-1.2-.5-1.2-1.2s.5-1.2,1.2-1.2h.4c.6,0,1.2.5,1.2,1.2s-.5,1.2-1.2,1.2"/>
            <path id="Path_9732" class="st3" d="M28.8,111.6h-.4c-.6,0-1.2-.5-1.2-1.2s.5-1.2,1.2-1.2h.4c.6,0,1.2.5,1.2,1.2s-.5,1.2-1.2,1.2"/>
            <path id="Path_9733" class="st4" d="M42.8,100.8h-21c-.6,0-1.2-.5-1.2-1.2s.5-1.2,1.2-1.2h21c.6,0,1.2.5,1.2,1.2s-.5,1.2-1.2,1.2h0"/>
            <path id="Path_9734" class="st1" d="M42.8,100.8h-21c-.6,0-1.2-.5-1.2-1.2s.5-1.2,1.2-1.2h21c.6,0,1.2.5,1.2,1.2s-.5,1.2-1.2,1.2h0Z"/>
            <path id="Path_9735" class="st4" d="M75.6,93.8h-21c-.6,0-1.2-.5-1.2-1.2s.5-1.2,1.2-1.2h21c.6,0,1.2.5,1.2,1.2s-.5,1.2-1.2,1.2"/>
            <path id="Path_9736" class="st1" d="M75.6,93.8h-21c-.6,0-1.2-.5-1.2-1.2s.5-1.2,1.2-1.2h21c.6,0,1.2.5,1.2,1.2s-.5,1.2-1.2,1.2Z"/>
            <path id="Path_9737" class="st4" d="M75.6,104.5h-21c-.6,0-1.2-.5-1.2-1.2s.5-1.2,1.2-1.2h21c.6,0,1.2.5,1.2,1.2s-.5,1.2-1.2,1.2"/>
            <path id="Path_9738" class="st1" d="M75.6,104.5h-21c-.6,0-1.2-.5-1.2-1.2s.5-1.2,1.2-1.2h21c.6,0,1.2.5,1.2,1.2s-.5,1.2-1.2,1.2Z"/>
            <path id="Path_9739" class="st4" d="M42.8,111.6h-10.2c-.6,0-1.2-.5-1.2-1.2s.5-1.2,1.2-1.2h10.2c.6,0,1.2.5,1.2,1.2s-.5,1.2-1.2,1.2h0"/>
            <path id="Path_9740" class="st1" d="M42.8,111.6h-10.2c-.6,0-1.2-.5-1.2-1.2s.5-1.2,1.2-1.2h10.2c.6,0,1.2.5,1.2,1.2s-.5,1.2-1.2,1.2h0Z"/>
            <path id="Path_9741" class="st3" d="M45.5,84.1c-.1,0-.2,0-.2.2,0,0,0,0,0,0v30.7c0,.1,0,.2.2.2.1,0,.2,0,.2-.2,0,0,0,0,0,0v-30.7c0-.1,0-.2-.2-.2,0,0,0,0,0,0"/>
            <path id="Path_9742" class="st3" d="M20.6,81.7l2.3,1v-.7l-1.4-.6,1.4-.6v-.7l-2.3,1v.5Z"/>
            <path id="Path_9743" class="st3" d="M23.2,83.4h.7l1.2-4h-.6l-1.2,4h0Z"/>
            <path id="Path_9744" class="st3" d="M25.4,80.2v.7l1.4.6-1.4.6v.7l2.3-1v-.5l-2.3-1Z"/>
            <path id="Path_9745" class="st3" d="M84.5,74.9v1.6H12.9v-1.6c0-1.8,1.4-3.2,3.2-3.2h65.2c1.8,0,3.2,1.4,3.2,3.2"/>
            <line id="Line_115" class="st2" x1="77.4" y1="72.9" x2="79.8" y2="75.4"/>
            <line id="Line_116" class="st2" x1="79.8" y1="72.9" x2="77.4" y2="75.4"/>
            <circle id="Ellipse_274" class="st2" cx="74.4" cy="74.2" r="1.2"/>
            <line id="Line_117" class="st2" x1="68.9" y1="74.2" x2="71.4" y2="74.2"/>
            <path id="Path_9746" class="st4" d="M124.4,63.3v54.6c0,2.2-1.8,4-4,4H39c-2.2,0-4-1.8-4-4,0,0,0,0,0,0v-54.6c0-2.2,1.8-4,4-4,0,0,0,0,0,0h81.4c2.2,0,4,1.8,4,4h0"/>
            <rect id="Rectangle_8174" class="st1" x="35" y="59.2" width="89.4" height="62.7" rx="10" ry="10"/>
            <path id="Path_9747" class="st4" d="M105.3,77.8h-26.3c-.8,0-1.5-.7-1.5-1.5s.7-1.5,1.5-1.5h26.3c.8,0,1.5.7,1.5,1.5s-.7,1.5-1.5,1.5"/>
            <path id="Path_9748" class="st1" d="M105.3,77.8h-26.3c-.8,0-1.5-.7-1.5-1.5s.7-1.5,1.5-1.5h26.3c.8,0,1.5.7,1.5,1.5s-.7,1.5-1.5,1.5h0Z"/>
            <path id="Path_9749" class="st4" d="M109.5,95.5h-26.3c-.8,0-1.5-.7-1.5-1.5s.7-1.5,1.5-1.5h26.3c.8,0,1.5.7,1.5,1.5s-.7,1.5-1.5,1.5"/>
            <path id="Path_9750" class="st1" d="M109.5,95.5h-26.3c-.8,0-1.5-.7-1.5-1.5s.7-1.5,1.5-1.5h26.3c.8,0,1.5.7,1.5,1.5s-.7,1.5-1.5,1.5h0Z"/>
            <path id="Path_9751" class="st4" d="M72.3,86.7h-12.7c-.8,0-1.5-.7-1.5-1.5s.7-1.5,1.5-1.5h12.8c.8,0,1.5.7,1.5,1.5s-.7,1.5-1.5,1.5"/>
            <path id="Path_9752" class="st1" d="M72.3,86.7h-12.7c-.8,0-1.5-.7-1.5-1.5s.7-1.5,1.5-1.5h12.8c.8,0,1.5.7,1.5,1.5s-.7,1.5-1.5,1.5h0Z"/>
            <path id="Path_9753" class="st4" d="M72.3,113.4h-26.3c-.8,0-1.5-.7-1.5-1.5s.7-1.5,1.5-1.5h26.3c.8,0,1.5.7,1.5,1.5s-.7,1.5-1.5,1.5"/>
            <path id="Path_9754" class="st1" d="M72.3,113.4h-26.3c-.8,0-1.5-.7-1.5-1.5s.7-1.5,1.5-1.5h26.3c.8,0,1.5.7,1.5,1.5s-.7,1.5-1.5,1.5h0Z"/>
            <path id="Path_9755" class="st4" d="M113.4,113.4h-34.3c-.8,0-1.5-.7-1.5-1.5s.7-1.5,1.5-1.5h34.3c.8,0,1.5.7,1.5,1.5s-.7,1.5-1.5,1.5"/>
            <path id="Path_9756" class="st1" d="M113.4,113.4h-34.3c-.8,0-1.5-.7-1.5-1.5s.7-1.5,1.5-1.5h34.3c.8,0,1.5.7,1.5,1.5s-.7,1.5-1.5,1.5h0Z"/>
            <path id="Path_9757" class="st4" d="M72.3,82.3h-12.7c-.8,0-1.5-.7-1.5-1.5s.7-1.5,1.5-1.5h12.8c.8,0,1.5.7,1.5,1.5s-.7,1.5-1.5,1.5"/>
            <path id="Path_9758" class="st1" d="M72.3,82.3h-12.7c-.8,0-1.5-.7-1.5-1.5s.7-1.5,1.5-1.5h12.8c.8,0,1.5.7,1.5,1.5s-.7,1.5-1.5,1.5h0Z"/>
            <path id="Path_9759" class="st4" d="M72.3,100.1h-12.7c-.8,0-1.5-.7-1.5-1.5s.7-1.5,1.5-1.5h12.8c.8,0,1.5.7,1.5,1.5s-.7,1.5-1.5,1.5"/>
            <path id="Path_9760" class="st1" d="M72.3,100.1h-12.7c-.8,0-1.5-.7-1.5-1.5s.7-1.5,1.5-1.5h12.8c.8,0,1.5.7,1.5,1.5s-.7,1.5-1.5,1.5h0Z"/>
            <path id="Path_9761" class="st4" d="M113.4,82.3h-26.3c-.8,0-1.5-.7-1.5-1.5s.7-1.5,1.5-1.5h26.3c.8,0,1.5.7,1.5,1.5s-.7,1.5-1.5,1.5"/>
            <path id="Path_9762" class="st1" d="M113.4,82.3h-26.3c-.8,0-1.5-.7-1.5-1.5s.7-1.5,1.5-1.5h26.3c.8,0,1.5.7,1.5,1.5s-.7,1.5-1.5,1.5h0Z"/>
            <path id="Path_9763" class="st4" d="M113.4,104.5h-26.3c-.8,0-1.5-.7-1.5-1.5s.7-1.5,1.5-1.5h26.3c.8,0,1.5.7,1.5,1.5s-.7,1.5-1.5,1.5"/>
            <path id="Path_9764" class="st1" d="M113.4,104.5h-26.3c-.8,0-1.5-.7-1.5-1.5s.7-1.5,1.5-1.5h26.3c.8,0,1.5.7,1.5,1.5s-.7,1.5-1.5,1.5h0Z"/>
            <path id="Path_9765" class="st4" d="M96.6,109h-17.6c-.8,0-1.5-.7-1.5-1.5s.7-1.5,1.5-1.5h17.6c.8,0,1.5.7,1.5,1.5s-.7,1.5-1.5,1.5"/>
            <path id="Path_9766" class="st1" d="M96.6,109h-17.6c-.8,0-1.5-.7-1.5-1.5s.7-1.5,1.5-1.5h17.6c.8,0,1.5.7,1.5,1.5s-.7,1.5-1.5,1.5h0Z"/>
            <path id="Path_9767" class="st4" d="M105.3,91.2h-26.3c-.8,0-1.5-.7-1.5-1.5s.7-1.5,1.5-1.5h26.3c.8,0,1.5.7,1.5,1.5s-.7,1.5-1.5,1.5"/>
            <path id="Path_9768" class="st1" d="M105.3,91.2h-26.3c-.8,0-1.5-.7-1.5-1.5s.7-1.5,1.5-1.5h26.3c.8,0,1.5.7,1.5,1.5s-.7,1.5-1.5,1.5h0Z"/>
            <path id="Path_9769" class="st4" d="M72.3,91.2h-12.7c-.8,0-1.5-.7-1.5-1.5s.7-1.5,1.5-1.5h12.8c.8,0,1.5.7,1.5,1.5s-.7,1.5-1.5,1.5"/>
            <path id="Path_9770" class="st1" d="M72.3,91.2h-12.7c-.8,0-1.5-.7-1.5-1.5s.7-1.5,1.5-1.5h12.8c.8,0,1.5.7,1.5,1.5s-.7,1.5-1.5,1.5h0Z"/>
            <path id="Path_9771" class="st4" d="M72.3,104.5h-12.7c-.8,0-1.5-.7-1.5-1.5s.7-1.5,1.5-1.5h12.8c.8,0,1.5.7,1.5,1.5s-.7,1.5-1.5,1.5"/>
            <path id="Path_9772" class="st1" d="M72.3,104.5h-12.7c-.8,0-1.5-.7-1.5-1.5s.7-1.5,1.5-1.5h12.8c.8,0,1.5.7,1.5,1.5s-.7,1.5-1.5,1.5h0Z"/>
            <path id="Path_9773" class="st4" d="M72.3,77.8h-26.3c-.8,0-1.5-.7-1.5-1.5s.7-1.5,1.5-1.5h26.3c.8,0,1.5.7,1.5,1.5s-.7,1.5-1.5,1.5"/>
            <path id="Path_9774" class="st1" d="M72.3,77.8h-26.3c-.8,0-1.5-.7-1.5-1.5s.7-1.5,1.5-1.5h26.3c.8,0,1.5.7,1.5,1.5s-.7,1.5-1.5,1.5h0Z"/>
            <path id="Path_9775" class="st3" d="M54.8,82.3h-.5c-.8,0-1.5-.7-1.5-1.5s.7-1.5,1.5-1.5h.5c.8,0,1.5.7,1.5,1.5s-.7,1.5-1.5,1.5"/>
            <path id="Path_9776" class="st3" d="M54.8,86.7h-.5c-.8,0-1.5-.7-1.5-1.5s.7-1.5,1.5-1.5h.5c.8,0,1.5.7,1.5,1.5s-.7,1.5-1.5,1.5"/>
            <path id="Path_9777" class="st3" d="M54.8,91.2h-.5c-.8,0-1.5-.7-1.5-1.5s.7-1.5,1.5-1.5h.5c.8,0,1.5.7,1.5,1.5s-.7,1.5-1.5,1.5"/>
            <path id="Path_9778" class="st3" d="M54.8,100.1h-.5c-.8,0-1.5-.7-1.5-1.5s.7-1.5,1.5-1.5h.5c.8,0,1.5.7,1.5,1.5s-.7,1.5-1.5,1.5"/>
            <path id="Path_9779" class="st3" d="M54.8,104.5h-.5c-.8,0-1.5-.7-1.5-1.5s.7-1.5,1.5-1.5h.5c.8,0,1.5.7,1.5,1.5s-.7,1.5-1.5,1.5"/>
            <path id="Path_9780" class="st3" d="M54.8,109h-.5c-.8,0-1.5-.7-1.5-1.5s.7-1.5,1.5-1.5h.5c.8,0,1.5.7,1.5,1.5s-.7,1.5-1.5,1.5"/>
            <path id="Path_9781" class="st4" d="M72.3,95.5h-26.3c-.8,0-1.5-.7-1.5-1.5s.7-1.5,1.5-1.5h26.3c.8,0,1.5.7,1.5,1.5s-.7,1.5-1.5,1.5"/>
            <path id="Path_9782" class="st1" d="M72.3,95.5h-26.3c-.8,0-1.5-.7-1.5-1.5s.7-1.5,1.5-1.5h26.3c.8,0,1.5.7,1.5,1.5s-.7,1.5-1.5,1.5h0Z"/>
            <path id="Path_9783" class="st4" d="M113.4,86.7h-26.3c-.8,0-1.5-.7-1.5-1.5s.7-1.5,1.5-1.5h26.3c.8,0,1.5.7,1.5,1.5s-.7,1.5-1.5,1.5"/>
            <path id="Path_9784" class="st1" d="M113.4,86.7h-26.3c-.8,0-1.5-.7-1.5-1.5s.7-1.5,1.5-1.5h26.3c.8,0,1.5.7,1.5,1.5s-.7,1.5-1.5,1.5h0Z"/>
            <path id="Path_9785" class="st4" d="M113.4,100.1h-26.3c-.8,0-1.5-.7-1.5-1.5s.7-1.5,1.5-1.5h26.3c.8,0,1.5.7,1.5,1.5s-.7,1.5-1.5,1.5"/>
            <path id="Path_9786" class="st1" d="M113.4,100.1h-26.3c-.8,0-1.5-.7-1.5-1.5s.7-1.5,1.5-1.5h26.3c.8,0,1.5.7,1.5,1.5s-.7,1.5-1.5,1.5h0Z"/>
            <path id="Path_9787" class="st4" d="M72.3,109h-12.7c-.8,0-1.5-.7-1.5-1.5s.7-1.5,1.5-1.5h12.8c.8,0,1.5.7,1.5,1.5s-.7,1.5-1.5,1.5"/>
            <path id="Path_9788" class="st1" d="M72.3,109h-12.7c-.8,0-1.5-.7-1.5-1.5s.7-1.5,1.5-1.5h12.8c.8,0,1.5.7,1.5,1.5s-.7,1.5-1.5,1.5h0Z"/>
            <path id="Path_9789" class="st3" d="M75.7,74.6c-.1,0-.3,0-.3.2,0,0,0,0,0,0v38.4c0,.1,0,.3.2.3,0,0,0,0,0,0,.1,0,.2-.1.3-.3v-38.4c0-.1,0-.3-.2-.3,0,0,0,0,0,0"/>
            <path id="Path_9790" class="st3" d="M44.6,71.6l2.9,1.2v-.9l-1.7-.7,1.7-.7v-.9l-2.9,1.2v.7Z"/>
            <path id="Path_9791" class="st3" d="M47.8,73.7h.9l1.5-5h-.8l-1.5,5Z"/>
            <path id="Path_9792" class="st3" d="M50.6,69.8v.9l1.7.7-1.7.7v.9l2.9-1.2v-.6l-2.9-1.2h0Z"/>
            <path id="Path_9793" class="st3" d="M124.4,63.3v2H35v-2c0-2.2,1.8-4,4-4,0,0,0,0,0,0h81.4c2.2,0,4,1.8,4,4h0"/>
            <line id="Line_118" class="st2" x1="115.5" y1="60.7" x2="118.6" y2="63.8"/>
            <line id="Line_119" class="st2" x1="118.6" y1="60.7" x2="115.5" y2="63.8"/>
            <circle id="Ellipse_275" class="st2" cx="111.8" cy="62.2" r="1.5"/>
            <line id="Line_120" class="st2" x1="105" y1="62.2" x2="108.1" y2="62.2"/>
          </g>
        </g>
      </g>
      <path id="Path_9797" class="st4" d="M138.8,39.5l-6.8-.9,4.2,5.4-3,6.2,6.5-2.3,5,4.7-.2-6.8,6-3.3-6.6-1.9-1.2-6.7-3.8,5.6ZM142.6,33.8h0s0,0,0,0h0Z"/>
      <path id="Path_9905" class="st4" d="M21.9,148.4l-6.3,2.8,6.4,2.4.7,6.8,4.3-5.4,6.7,1.4-3.8-5.7,3.4-6-6.6,1.9-4.6-5.1-.2,6.8ZM22.1,141.6h0s0,0,0,0h0Z"/>
      <path id="Path_9798" class="st4" d="M16.3,33.8l-.8,6-5.8,2,5.5,2.6v6.1c.1,0,4.3-4.5,4.3-4.5l5.8,1.7-3-5.3,3.5-5-6,1.2-3.7-4.9h.1Z"/>
      <path id="Path_9906" class="st4" d="M133.4,143l-2.8,5.4h-6.1c0,0,4.3,4.3,4.3,4.3l-2,5.7,5.4-2.8,4.9,3.6-1-6,5-3.5-6-1-1.8-5.8h0Z"/>
      <path id="Path_9799" class="st4" d="M83,1.5l-3.5,7.1h-7.9l5.7,5.6-2.4,7.5,7.1-3.7,6.5,4.6-1.3-7.8,6.4-4.7-7.9-1.2-2.5-7.5h0Z"/>
      <path id="Path_9904" class="st4" d="M83,163l-3.5,7.1h-7.9l5.7,5.6-2.4,7.5,7.1-3.7,6.5,4.6-1.3-7.8,6.4-4.7-7.9-1.2-2.5-7.5h0Z"/>
    </g>
  </g>
</svg>