<?xml version="1.0" encoding="UTF-8"?>
<svg id="Layer_1" xmlns="http://www.w3.org/2000/svg" xmlns:xlink="http://www.w3.org/1999/xlink" version="1.1" viewBox="0 0 158.6 185">
  <!-- Generator: Adobe Illustrator 30.1.0, SVG Export Plug-In . SVG Version: 2.1.1 Build 136)  -->
  <defs>
    <style>
      .st0, .st1, .st2 {
        fill: none;
      }

      .st1 {
        stroke-width: .9px;
      }

      .st1, .st2 {
        stroke: #000;
        stroke-linecap: round;
        stroke-miterlimit: 10;
      }

      .st2 {
        stroke-width: 1.2px;
      }

      .st3 {
        fill: #6cb2d3;
      }

      .st4 {
        fill: #fff;
      }

      .st5 {
        clip-path: url(#clippath);
      }
    </style>
    <clipPath id="clippath">
      <rect class="st0" x="4.5" y="15" width="149.5" height="150.9"/>
    </clipPath>
  </defs>
  <ellipse id="Ellipse_276" class="st3" cx="83.1" cy="89.4" rx="64" ry="63.4"/>
  <g id="Group_9300">
    <path id="Path_9880" class="st4" d="M59.5,137.5l-14,28.2,37.2-7.2,12.1-24.2-.2-1.7-1.5-.6-33.7,5.5Z"/>
    <path id="Path_9881" class="st4" d="M106.2,82.4h7.6l.8,1.3v4.5l-3.8.2v2.6l3.6,1v4.1c.1,0-.6.5-.6.5h-7.8l-.5-1.1v-4.1l2.5-.7v-2.6c-.1,0-2.5-.2-2.5-.2v-5.4l.8-.2Z"/>
    <g id="Group_9299">
      <g class="st5">
        <g id="Group_9298">
          <path id="Path_9882" class="st4" d="M68.8,43.8H20.6c-1.5,0-2.6,1.2-2.6,2.6v31.3c0,1.5,1.2,2.6,2.6,2.6h17.1l1.2-16.1c0-.6.5-1,1.1-1,0,0,0,0,0,0h10.1c.6,0,1,.4,1.1,1l1.4,16.1h16.3c1.5,0,2.6-1.2,2.6-2.6h0v-31.3c0-1.5-1.2-2.6-2.6-2.6s0,0,0,0"/>
          <path id="Path_9883" class="st1" d="M83.1,70.6h-11.6M29.3,43.8c.9-1.6,2.6-2.5,4.4-2.5h5.7M61.5,43.8c-.9-1.6-2.6-2.7-4.5-2.6h-5.6M52,89.1h-13.9c-.5,0-.9-.3-1-.7v-.4l1.7-23.8c0-.6.5-1,1.1-1,0,0,0,0,0,0h10.1c.6,0,1,.4,1.1,1l2.1,23.8c0,.4-.2.8-.6,1.1-.2,0-.2,0-.4,0h-.2ZM4.9,70.4h13.2M36.5,25.7h0c-.7,0-1.3.6-1.3,1.3,0,0,0,0,0,0v1.9c0,.7.6,1.3,1.3,1.3s1.3-.6,1.3-1.3v-1.9c0-.7-.6-1.3-1.3-1.3,0,0,0,0,0,0ZM53.2,25.7h0c-.7,0-1.3.6-1.3,1.3,0,0,0,0,0,0v1.9c0,.7.6,1.3,1.3,1.3s1.3-.6,1.3-1.3v-1.9c0-.7-.6-1.3-1.3-1.3,0,0,0,0,0,0ZM50.9,44c.3-.7.5-1.5.5-2.3l-1.2-5.1M40.4,37.3l-1,4.4c0,.8.2,1.5.4,2.2M41.7,15.5h6.7M39.9,17.1h10.2M38.1,18.6h13.5"/>
          <path id="Path_9884" class="st1" d="M51.9,21.3v11.2c0,1.6-.6,3.1-1.7,4.2-1.1,1.1-2.6,1.7-4.2,1.7h-2.2c-3.2,0-5.9-2.6-5.9-5.9v-11.3c0-.6.5-1.1,1.1-1.1h14.2M37.5,80.3h-17.5c-1,0-1.8-.8-1.8-1.8v-32.8c0-1,.8-1.8,1.8-1.8h49.7c1,0,1.8.8,1.8,1.8v32.8c0,1-.8,1.8-1.8,1.8h-17.3"/>
          <path id="Path_9885" class="st2" d="M126,55.6h0c-.7.3-1,1.1-.7,1.7l.7,1.8c.3.7,1.1,1,1.7.7.7-.3,1-1,.7-1.7l-.7-1.8c-.3-.7-1.1-1-1.7-.7Z"/>
          <path id="Path_9886" class="st2" d="M153.5,102.8l-7.2-25.2c-.7-2.5-3-4.3-5.6-4.3h-9.8l-7.1-19.8c-1.2-3.8-5.3-5.9-9.1-4.7s-5.9,5.3-4.7,9.1l3.1,10.1c.6,1.9,2.4,3.1,4.4,3,2-.2,3.6-1.8,3.8-3.8v-.3"/>
          <path id="Path_9887" class="st2" d="M124.8,56.3c-3,2.4-7.4,1.9-9.8-1.1-1-1.2-1.6-2.8-1.6-4.4,0-.5,0-1,.2-1.4M118.8,71v2h-11.7c-2.5,0-4.8,1.4-6,3.6l-16,28.7M113.4,49.6v.6c0,2.3-1.6,4.3-3.8,4.9M119.2,49.1c1-1.9,3.4-2.6,5.3-1.6s2.6,3.4,1.6,5.3c-.4.8-1.1,1.4-1.9,1.7M133.6,89.2l3.1,26.2"/>
          <path id="Path_9888" class="st2" d="M134,73.4c-2.6,2.1-5.9,3.2-9.3,3.1-4,0-7.5-1.3-9.6-3.4M89,108.9l10.1-19.6c.5-.9,1.4-1.5,2.5-1.4l6.3.2v2.6l-4.6,1.2"/>
          <path id="Path_9889" class="st2" d="M104.4,91.8c.5,1.3-.2,2.7-1.4,3.1-.2,0-.3,0-.5.2h-.9l-3.8,19.3M133.7,117.8l-14.2-28.3c-.5-.9-1.4-1.5-2.5-1.4l-6.3.2v2.6l4.6,1.2"/>
          <path id="Path_9890" class="st2" d="M114.2,92.2c-.2.5-.2,1,0,1.5.3,1.3,1.6,2.1,2.9,1.7,0,0,0,0,0,0l4.7,24.8"/>
          <path id="Path_9891" class="st2" d="M114.5,94.5v1.1c0,.4-.3.8-.7,1h-7.4c-.6,0-1.1-.5-1.1-1.1v-4.1M105.4,88v-4.5c0-.6.5-1.1,1.1-1.1h7c.3,0,.6.1.7.3.2.2.3.5.3.7v4.7"/>
          <path id="Path_9892" class="st2" d="M24.8,153.7l19.5-.7c.7,0,1.4.4,1.7,1.1l2.6,5.3M48,112.6c2,0,3.6-1.9,3.6-4.2s-1.7-4.2-3.6-4.2-3.6,1.9-3.6,4.2,1.7,4.2,3.6,4.2h0Z"/>
          <path id="Path_9893" class="st2" d="M47.3,111.6c1.8-.3,3.1-2,2.8-3.9-.2-1.4-1.3-2.5-2.8-2.8-1.8.3-3.1,2-2.8,3.9.2,1.4,1.3,2.5,2.8,2.8ZM60.9,132.2l2.9,4.6M50,162.6l11.1-22.2c.3-.6.9-1,1.5-1.2l4.1-.7"/>
          <path id="Path_9894" class="st2" d="M46.7,163.4l12.4-25.1c.3-.5.7-.9,1.3-1l32.8-5.3c.6,0,1.1.1,1.5.6.3.5.4,1.1.2,1.7l-11.7,23.7c-.3.6-.9,1-1.6,1.2l-34.9,6.4-8.9-.2M41.1,158.4l-1.2,1.7c-.4.6-1.1,1-1.9,1-.8,0-1.6-.4-2-1.1l-.4-.6M39.9,157.5l4.6,3.7M47.7,161.2h-29.7M37,153.4l-1.8,7.7M37.9,133.8l-7.1,19.7"/>
          <path id="Path_9895" class="st2" d="M14,156.4l14.2-24.7c2.3-4,6.6-6.5,11.3-6.5h19.7c4.9,0,9.3,2.8,11.4,7.2l1.5,3.1M52.5,125.2l.2-4.5M61.8,106.8l-4.1,11.5c-.7,1.9-2.8,2.9-4.8,2.3-1.2-.4-2-1.4-2.4-2.6l-.3-1.3M50.6,105.3l2.6-7c0-.3.3-.6.7-.7.3-.2.7-.2,1,0"/>
          <path id="Path_9896" class="st2" d="M48.4,104.1l2-5.8c.3-1.1,1.5-1.7,2.6-1.3l8.3,2.3c.3.1.6.5.5.8v.2c0,0,0,.2-.2.2-.2.2-.5.3-.7.2-.3-.1-.6-.5-.5-.8l.4-1.2c.6-1.7,2.4-2.6,4.1-2.1.8.3,1.5.8,2,1.6.4.8.5,1.7.2,2.6l-1.1,3.4c-.5,1.5-1.8,2.6-3.4,2.7-.5,0-1.1,0-1.6-.2l-5.6-1.9c-1.1-.4-2.4.2-2.8,1.3,0,0,0,0,0,0l-1,2.5M41.2,125.2l4.6-13.4"/>
        </g>
      </g>
    </g>
  </g>
</svg>