<?xml version="1.0" encoding="UTF-8"?>
<svg id="Layer_1" xmlns="http://www.w3.org/2000/svg" version="1.1" viewBox="0 0 49.9 109.7">
  <!-- Generator: Adobe Illustrator 30.1.0, SVG Export Plug-In . SVG Version: 2.1.1 Build 136)  -->
  <defs>
    <style>
      .st0 {
        fill: #232323;
      }

      .st1 {
        isolation: isolate;
      }
    </style>
  </defs>
  <g id="_" class="st1">
    <g class="st1">
      <path class="st0" d="M38.9,17.2h-6.1c-5.2,0-5.8,4.4-5.8,7.9v16.7c0,10.6-7.5,12.3-10.5,12.8v.2c3,.4,10.5,2.2,10.5,12.8v16.7c0,3.5.6,7.9,5.8,7.9h6.1v8.1h-9.4c-4.9,0-13.3-4.8-13.3-14.6v-16.7c0-7.3-6.5-9.7-10.2-9.7v-9.2c3.7,0,10.2-2.5,10.2-9.7v-16.6c0-9.9,8.4-14.6,13.3-14.6h9.4v8.1Z"/>
    </g>
  </g>
</svg>