<?xml version="1.0" encoding="UTF-8"?>
<svg id="Layer_1" xmlns="http://www.w3.org/2000/svg" version="1.1" viewBox="0 0 49.9 109.7">
  <!-- Generator: Adobe Illustrator 30.1.0, SVG Export Plug-In . SVG Version: 2.1.1 Build 136)  -->
  <defs>
    <style>
      .st0 {
        fill: #232323;
      }

      .st1 {
        isolation: isolate;
      }
    </style>
  </defs>
  <g id="_" class="st1">
    <g class="st1">
      <path class="st0" d="M9,9h9.4c4.9,0,13.3,4.8,13.3,14.6v16.6c0,7.3,6.5,9.7,10.2,9.7v9.2c-3.7,0-10.2,2.5-10.2,9.7v16.7c0,9.9-8.4,14.6-13.3,14.6h-9.4v-8.1h6.1c5.2,0,5.8-4.4,5.8-7.9v-16.7c0-10.6,7.5-12.3,10.5-12.8v-.2c-3-.4-10.5-2.2-10.5-12.8v-16.7c0-3.5-.6-7.9-5.8-7.9h-6.1v-8.1Z"/>
    </g>
  </g>
</svg>