<?xml version="1.0" encoding="UTF-8"?>
<svg id="Layer_1" xmlns="http://www.w3.org/2000/svg" version="1.1" viewBox="0 0 553.2 122">
  <!-- Generator: Adobe Illustrator 30.1.0, SVG Export Plug-In . SVG Version: 2.1.1 Build 136)  -->
  <defs>
    <style>
      .st0, .st1, .st2 {
        fill: #232323;
      }

      .st3, .st1, .st2 {
        isolation: isolate;
      }

      .st1 {
        font-size: 86.4px;
      }

      .st1, .st2 {
        font-family: SerifaStd-Black, 'Serifa Std';
        font-weight: 800;
      }

      .st2 {
        font-size: 38.2px;
      }

      .st4 {
        fill: #c91235;
      }
    </style>
  </defs>
  <g id="Group_9307">
    <g id="Group_9297">
      <g id="Group_9296">
        <g id="Group_9304">
          <g id="Group_9305">
            <path id="Path_9867" class="st0" d="M107.3,69.1l-1-1.8-1.6-.8,1.6-.8,1-1.8,1,1.8,1.6.8-1.6.8-1,1.8Z"/>
            <path id="Path_9868" class="st0" d="M32.2,83.1l-1-1.8-1.6-.8,1.6-.8,1-1.8,1,1.8,1.6.8-1.6.8-1,1.8Z"/>
            <path id="Path_9869" class="st0" d="M22.7,83.1c0,.8-.6,1.4-1.4,1.4s-1.4-.6-1.4-1.4c0-.8.6-1.4,1.4-1.4s1.4.6,1.4,1.4h0"/>
            <path id="Path_9870" class="st0" d="M106.9,30.7c0,.7-.5,1.2-1.2,1.2-.7,0-1.2-.5-1.2-1.2,0-.7.5-1.2,1.2-1.2.7,0,1.2.5,1.2,1.2,0,0,0,0,0,0"/>
            <path id="Path_9871" class="st0" d="M99.5,30.7l-1-1.8-1.6-.8,1.6-.8,1-1.8,1,1.8,1.6.8-1.6.8-1,1.8Z"/>
            <path id="Path_9872" class="st0" d="M26.7,70.7l-1-1.8-1.6-.8,1.6-.8,1-1.8,1,1.8,1.6.8-1.6.8-1,1.8Z"/>
            <path id="Path_9873" class="st0" d="M34.8,30.7l-1-1.8-1.6-.8,1.6-.8,1-1.8,1,1.8,1.6.8-1.6.8-1,1.8Z"/>
            <path id="Path_9874" class="st0" d="M25.5,33.9c0,.8-.6,1.4-1.4,1.4s-1.4-.6-1.4-1.4c0-.8.6-1.4,1.4-1.4h0c.8,0,1.4.6,1.4,1.4"/>
            <path id="Path_9875" class="st0" d="M108.3,83.5l-1-1.8-1.6-.8,1.6-.8,1-1.8,1,1.8,1.6.8-1.6.8-1,1.8Z"/>
            <path id="Path_9876" class="st0" d="M98.1,81.9c0,.8-.6,1.4-1.4,1.4-.8,0-1.4-.6-1.4-1.4,0-.8.6-1.4,1.4-1.4.8,0,1.4.6,1.4,1.4,0,0,0,0,0,0"/>
          </g>
          <path id="Path_9877" class="st0" d="M124,73.9c-.6-2-1.4-4-2.3-5.9-.4-.9-.9-1.8-1.3-2.7-.5-.8-.9-1.7-1.4-2.5-1.3-2.1-2.6-4.1-4.1-6-1.7,1.9-3.6,4-5.2,5.7,1.4,2,2.7,4,3.9,6.1,1.6,2.8,2.9,5.7,3.8,8.7.4,1.4.6,2.8.7,4.2,0,1.2,0,2.3-.4,3.4-.3,1-.9,1.9-1.6,2.7-.8.9-1.7,1.6-2.8,2.1-2.3,1.2-4.8,1.9-7.3,2.2-5.4.5-10.9.2-16.3-.9-5.6-1.1-11.1-2.7-16.4-4.6-.6-.2-1.1-.4-1.7-.6,1-.6,2.1-1.3,3.1-2,0,0,.1,0,.2-.1,11.2-5.8,21.5-13.1,30.6-21.8.6-.6,1.3-1.4,2.1-2.3,1.5-1.6,3.3-3.5,4.9-5.3l.3-.3h0c2.3-2.8,4.3-5.7,6.2-8.7.5-.8,1-1.7,1.4-2.5.4-.9.9-1.7,1.3-2.7.9-1.9,1.7-3.9,2.3-5.9.7-2.3,1.1-4.7,1.2-7.1.2-2.7-.2-5.4-.9-7.9-.7-2.3-2-4.5-3.6-6.3-1.3-1.4-2.9-2.7-4.6-3.6-.4-.2-.8-.4-1.2-.6l-.6-.3-.6-.2c-.4-.1-.8-.3-1.2-.4l-1.2-.3c-.8-.2-1.6-.3-2.3-.5-.8-.1-1.5-.2-2.3-.3-3-.2-6.1-.2-9.1.2-3,.4-5.9,1-8.8,1.7-6.8,1.9-13.3,4.5-19.5,7.7,3,1.7,5.7,3.4,6.9,4.1,4.5-1.5,9-2.8,13.7-3.7,5.4-1.1,10.8-1.4,16.3-.9,2.6.3,5,1,7.3,2.2,1,.6,2,1.3,2.8,2.1.7.8,1.3,1.7,1.6,2.7.3,1.1.5,2.3.4,3.4,0,1.4-.3,2.8-.7,4.2-.9,3.1-2.2,6-3.8,8.7-1.8,3.1-3.7,6-5.9,8.8-.6-.7-1.3-1.3-1.9-1.9-9.2-8.8-19.5-16.2-30.8-22,0,0-.1,0-.2-.1-1-.7-2.1-1.3-3.1-2h0c-1.8-1.1-4.1-2.5-6.3-3.7h0c-7.4-4.2-15.2-7.5-23.3-9.8-2.9-.8-5.8-1.4-8.8-1.7-3-.4-6-.5-9.1-.2-.8,0-1.5.2-2.3.3-.8.2-1.6.3-2.3.5l-1.2.3c-.4.1-.8.3-1.2.4l-.6.2-.6.3c-.4.2-.8.4-1.2.6-1.7.9-3.3,2.1-4.7,3.6-1.7,1.8-2.9,4-3.6,6.3-.8,2.6-1.1,5.2-.9,7.9.1,2.4.5,4.8,1.2,7.1.6,2,1.4,4,2.3,5.9.4.9.9,1.8,1.3,2.7.5.8.9,1.7,1.4,2.5,1.2,2.1,2.6,4.1,4.1,6,1.7-1.9,3.5-4,5.2-5.8-1.4-1.9-2.7-3.9-3.9-6-1.6-2.8-2.9-5.7-3.8-8.7-.4-1.4-.6-2.8-.7-4.2,0-1.2,0-2.3.4-3.4.3-1,.9-1.9,1.6-2.7.8-.9,1.7-1.6,2.8-2.1,2.3-1.2,4.8-1.9,7.3-2.2,5.4-.5,10.9-.2,16.3.9,5.6,1.1,11.1,2.7,16.4,4.6.6.2,1.1.4,1.7.6-1,.6-2.1,1.3-3.1,2,0,0-.1,0-.2.1-11.3,5.8-21.7,13.2-30.8,22-.6.6-1.3,1.3-1.9,1.9h0s-.7.8-.7.8c-.9,1-1.9,2-2.8,3.1-.6.6-1.1,1.2-1.6,1.8h0c-2.3,2.8-4.3,5.7-6.2,8.8-.5.8-1,1.7-1.4,2.5-.4.9-.9,1.7-1.3,2.7-.9,1.9-1.7,3.9-2.3,5.9-.7,2.3-1.1,4.7-1.2,7.1-.2,2.7.2,5.4.9,7.9.7,2.3,2,4.5,3.6,6.3,1.3,1.4,2.9,2.7,4.7,3.6.4.2.8.4,1.2.6l.6.3.6.2c.4.1.8.3,1.2.4l1.2.3c.8.2,1.6.3,2.3.5.8.1,1.5.2,2.3.3,3,.2,6.1.2,9.1-.2,3-.4,5.9-1,8.8-1.7,6.8-1.9,13.4-4.5,19.6-7.8-2.7-1.6-5.3-3.1-6.9-4.1-4.5,1.5-9.1,2.8-13.7,3.7-5.4,1.1-10.8,1.4-16.3.9-2.6-.3-5-1-7.3-2.2-1-.6-2-1.3-2.8-2.1-.7-.8-1.3-1.7-1.6-2.7-.3-1.1-.5-2.3-.4-3.4,0-1.4.3-2.8.7-4.2.9-3.1,2.2-6,3.8-8.7,1.8-3.1,3.7-6,5.9-8.8.6.7,1.3,1.3,1.9,1.9,8.7,8.3,18.4,15.4,29,21,.1,0,.2,0,.3.1,0,0,.2.1.5.3.3.2.7.4,1,.6,0,0,.1,0,.2.1.9.6,1.8,1.2,2.8,1.8.1,0,.2.1.3.2,1.9,1.2,4.2,2.5,6.3,3.7,1.7.9,3.3,1.8,4.5,2.4.1,0,.2.1.3.2,5.9,3,12.1,5.4,18.5,7.2,2.9.8,5.8,1.4,8.8,1.7,3,.4,6,.5,9.1.2.8,0,1.5-.2,2.3-.3.8-.2,1.6-.3,2.3-.5l1.2-.3c.4-.1.8-.3,1.2-.4l.6-.2.6-.3c.4-.2.8-.4,1.2-.6,1.7-.9,3.3-2.1,4.6-3.6,1.7-1.8,2.9-4,3.6-6.3.8-2.6,1.1-5.2.9-7.9-.1-2.4-.5-4.8-1.2-7.1M57.4,79.4c0,0-.1,0-.2-.1-5.1-3.4-10.1-7.1-14.8-11.1-4.8-4.1-9.4-8.4-13.7-13.1-.3-.3-.6-.7-.9-1,.3-.3.6-.7.9-1,4.3-4.7,8.8-9,13.7-13.1,4.7-4,9.7-7.7,14.8-11.1,0,0,.1,0,.2-.1,2.6-1.4,5.3-2.6,7.9-3.8,2.7,1.2,5.3,2.4,7.9,3.8h.2c5.1,3.5,10.1,7.2,14.8,11.2,4.8,4.1,9.4,8.4,13.7,13.1.3.3.6.7.9,1-.3.3-.6.7-.9,1-4.3,4.7-8.8,9-13.7,13.1-4.7,4-9.7,7.7-14.8,11.1,0,0-.1,0-.2.1-2.6,1.4-5.3,2.6-7.9,3.8-2.7-1.2-5.3-2.4-7.9-3.8"/>
          <path id="Path_9878" d="M66.3,36.5c-5.2,0-10.1,2.4-13.3,6.4.2,0,.4.1.6.2l6.3,3.1c4-3.5,10.1-3.1,13.6.9,3.5,4,3.1,10.1-.9,13.6-1.8,1.5-4,2.4-6.4,2.4h0c-2.3,0-4.6-.9-6.3-2.4l-6.3,3.1c-.2,0-.4.2-.6.2,5.8,7.3,16.5,8.6,23.9,2.7,7.3-5.8,8.6-16.5,2.7-23.9-3.2-4.1-8.1-6.4-13.3-6.4"/>
          <path id="Path_9879" class="st4" d="M52,46.6c-1.8-.9-3.2,0-3.2,2v9.8c0,2,1.4,2.9,3.2,2l11.1-5.4c1.8-.9,1.8-2.3,0-3.1l-11.1-5.4Z"/>
        </g>
      </g>
    </g>
    <g id="Appverse" class="st3">
      <text class="st1" transform="translate(134.5 100.1)"><tspan x="0" y="0">Appverse</tspan></text>
    </g>
    <g id="Open" class="st3">
      <text class="st2" transform="translate(215.9 32.9)"><tspan x="0" y="0">Open</tspan></text>
    </g>
    <g id="The" class="st3">
      <text class="st2" transform="translate(131.5 32.9)"><tspan x="0" y="0">The</tspan></text>
    </g>
    <g id="_OnDemand" class="st3">
      <text class="st2" transform="translate(316.3 32.9)"><tspan x="0" y="0" xml:space="preserve"> OnDemand</tspan></text>
    </g>
  </g>
</svg>