<?xml version="1.0" encoding="UTF-8"?>
<svg id="Layer_1" xmlns="http://www.w3.org/2000/svg" version="1.1" viewBox="0 0 553.2 122">
  <!-- Generator: Adobe Illustrator 30.1.0, SVG Export Plug-In . SVG Version: 2.1.1 Build 136)  -->
  <defs>
    <style>
      .st0 {
        fill: #232323;
      }

      .st1 {
        isolation: isolate;
      }

      .st2 {
        fill: #c91235;
      }
    </style>
  </defs>
  <g id="Group_9307">
    <g id="Group_9297">
      <g id="Group_9296">
        <g id="Group_9304">
          <g id="Group_9305">
            <path id="Path_9867" class="st0" d="M107.3,69.1l-1-1.8-1.6-.8,1.6-.8,1-1.8,1,1.8,1.6.8-1.6.8-1,1.8Z"/>
            <path id="Path_9868" class="st0" d="M32.2,83.1l-1-1.8-1.6-.8,1.6-.8,1-1.8,1,1.8,1.6.8-1.6.8-1,1.8Z"/>
            <path id="Path_9869" class="st0" d="M22.7,83.1c0,.8-.6,1.4-1.4,1.4s-1.4-.6-1.4-1.4.6-1.4,1.4-1.4,1.4.6,1.4,1.4h0"/>
            <path id="Path_9870" class="st0" d="M106.9,30.7c0,.7-.5,1.2-1.2,1.2s-1.2-.5-1.2-1.2.5-1.2,1.2-1.2,1.2.5,1.2,1.2h0"/>
            <path id="Path_9871" class="st0" d="M99.5,30.7l-1-1.8-1.6-.8,1.6-.8,1-1.8,1,1.8,1.6.8-1.6.8-1,1.8Z"/>
            <path id="Path_9872" class="st0" d="M26.7,70.7l-1-1.8-1.6-.8,1.6-.8,1-1.8,1,1.8,1.6.8-1.6.8-1,1.8Z"/>
            <path id="Path_9873" class="st0" d="M34.8,30.7l-1-1.8-1.6-.8,1.6-.8,1-1.8,1,1.8,1.6.8-1.6.8-1,1.8Z"/>
            <path id="Path_9874" class="st0" d="M25.5,33.9c0,.8-.6,1.4-1.4,1.4s-1.4-.6-1.4-1.4.6-1.4,1.4-1.4h0c.8,0,1.4.6,1.4,1.4"/>
            <path id="Path_9875" class="st0" d="M108.3,83.5l-1-1.8-1.6-.8,1.6-.8,1-1.8,1,1.8,1.6.8-1.6.8-1,1.8Z"/>
            <path id="Path_9876" class="st0" d="M98.1,81.9c0,.8-.6,1.4-1.4,1.4s-1.4-.6-1.4-1.4.6-1.4,1.4-1.4,1.4.6,1.4,1.4h0"/>
          </g>
          <path id="Path_9877" class="st0" d="M124,73.9c-.6-2-1.4-4-2.3-5.9-.4-.9-.9-1.8-1.3-2.7-.5-.8-.9-1.7-1.4-2.5-1.3-2.1-2.6-4.1-4.1-6-1.7,1.9-3.6,4-5.2,5.7,1.4,2,2.7,4,3.9,6.1,1.6,2.8,2.9,5.7,3.8,8.7.4,1.4.6,2.8.7,4.2,0,1.2,0,2.3-.4,3.4-.3,1-.9,1.9-1.6,2.7-.8.9-1.7,1.6-2.8,2.1-2.3,1.2-4.8,1.9-7.3,2.2-5.4.5-10.9.2-16.3-.9-5.6-1.1-11.1-2.7-16.4-4.6-.6-.2-1.1-.4-1.7-.6,1-.6,2.1-1.3,3.1-2,0,0,0,0,.2,0,11.2-5.8,21.5-13.1,30.6-21.8.6-.6,1.3-1.4,2.1-2.3,1.5-1.6,3.3-3.5,4.9-5.3l.3-.3h0c2.3-2.8,4.3-5.7,6.2-8.7.5-.8,1-1.7,1.4-2.5.4-.9.9-1.7,1.3-2.7.9-1.9,1.7-3.9,2.3-5.9.7-2.3,1.1-4.7,1.2-7.1.2-2.7-.2-5.4-.9-7.9-.7-2.3-2-4.5-3.6-6.3-1.3-1.4-2.9-2.7-4.6-3.6-.4-.2-.8-.4-1.2-.6l-.6-.3-.6-.2c-.4-.1-.8-.3-1.2-.4l-1.2-.3c-.8-.2-1.6-.3-2.3-.5-.8,0-1.5-.2-2.3-.3-3-.2-6.1-.2-9.1.2-3,.4-5.9,1-8.8,1.7-6.8,1.9-13.3,4.5-19.5,7.7,3,1.7,5.7,3.4,6.9,4.1,4.5-1.5,9-2.8,13.7-3.7,5.4-1.1,10.8-1.4,16.3-.9,2.6.3,5,1,7.3,2.2,1,.6,2,1.3,2.8,2.1.7.8,1.3,1.7,1.6,2.7.3,1.1.5,2.3.4,3.4,0,1.4-.3,2.8-.7,4.2-.9,3.1-2.2,6-3.8,8.7-1.8,3.1-3.7,6-5.9,8.8-.6-.7-1.3-1.3-1.9-1.9-9.2-8.8-19.5-16.2-30.8-22,0,0,0,0-.2-.1-1-.7-2.1-1.3-3.1-2h0c-1.8-1.1-4.1-2.5-6.3-3.7h0c-7.4-4.2-15.2-7.5-23.3-9.8-2.9-.8-5.8-1.4-8.8-1.7-3-.4-6-.5-9.1-.2-.8,0-1.5.2-2.3.3-.8.2-1.6.3-2.3.5l-1.2.3c-.4,0-.8.3-1.2.4l-.6.2-.6.3c-.4.2-.8.4-1.2.6-1.7.9-3.3,2.1-4.7,3.6-1.7,1.8-2.9,4-3.6,6.3-.8,2.6-1.1,5.2-.9,7.9,0,2.4.5,4.8,1.2,7.1.6,2,1.4,4,2.3,5.9.4.9.9,1.8,1.3,2.7.5.8.9,1.7,1.4,2.5,1.2,2.1,2.6,4.1,4.1,6,1.7-1.9,3.5-4,5.2-5.8-1.4-1.9-2.7-3.9-3.9-6-1.6-2.8-2.9-5.7-3.8-8.7-.4-1.4-.6-2.8-.7-4.2,0-1.2,0-2.3.4-3.4.3-1,.9-1.9,1.6-2.7.8-.9,1.7-1.6,2.8-2.1,2.3-1.2,4.8-1.9,7.3-2.2,5.4-.5,10.9-.2,16.3.9,5.6,1.1,11.1,2.7,16.4,4.6.6.2,1.1.4,1.7.6-1,.6-2.1,1.3-3.1,2,0,0,0,0-.2.1-11.3,5.8-21.7,13.2-30.8,22-.6.6-1.3,1.3-1.9,1.9h0l-.7.8c-.9,1-1.9,2-2.8,3.1-.6.6-1.1,1.2-1.6,1.8h0c-2.3,2.8-4.3,5.7-6.2,8.8-.5.8-1,1.7-1.4,2.5-.4.9-.9,1.7-1.3,2.7-.9,1.9-1.7,3.9-2.3,5.9-.7,2.3-1.1,4.7-1.2,7.1-.2,2.7.2,5.4.9,7.9.7,2.3,2,4.5,3.6,6.3,1.3,1.4,2.9,2.7,4.7,3.6.4.2.8.4,1.2.6l.6.3.6.2c.4,0,.8.3,1.2.4l1.2.3c.8.2,1.6.3,2.3.5.8,0,1.5.2,2.3.3,3,.2,6.1.2,9.1-.2,3-.4,5.9-1,8.8-1.7,6.8-1.9,13.4-4.5,19.6-7.8-2.7-1.6-5.3-3.1-6.9-4.1-4.5,1.5-9.1,2.8-13.7,3.7-5.4,1.1-10.8,1.4-16.3.9-2.6-.3-5-1-7.3-2.2-1-.6-2-1.3-2.8-2.1-.7-.8-1.3-1.7-1.6-2.7-.3-1.1-.5-2.3-.4-3.4,0-1.4.3-2.8.7-4.2.9-3.1,2.2-6,3.8-8.7,1.8-3.1,3.7-6,5.9-8.8.6.7,1.3,1.3,1.9,1.9,8.7,8.3,18.4,15.4,29,21,0,0,.2,0,.3,0,0,0,.2,0,.5.3.3.2.7.4,1,.6,0,0,0,0,.2,0,.9.6,1.8,1.2,2.8,1.8,0,0,.2,0,.3.2,1.9,1.2,4.2,2.5,6.3,3.7,1.7.9,3.3,1.8,4.5,2.4,0,0,.2,0,.3.2,5.9,3,12.1,5.4,18.5,7.2,2.9.8,5.8,1.4,8.8,1.7,3,.4,6,.5,9.1.2.8,0,1.5-.2,2.3-.3.8-.2,1.6-.3,2.3-.5l1.2-.3c.4,0,.8-.3,1.2-.4l.6-.2.6-.3c.4-.2.8-.4,1.2-.6,1.7-.9,3.3-2.1,4.6-3.6,1.7-1.8,2.9-4,3.6-6.3.8-2.6,1.1-5.2.9-7.9,0-2.4-.5-4.8-1.2-7.1M57.4,79.4s0,0-.2,0c-5.1-3.4-10.1-7.1-14.8-11.1-4.8-4.1-9.4-8.4-13.7-13.1-.3-.3-.6-.7-.9-1,.3-.3.6-.7.9-1,4.3-4.7,8.8-9,13.7-13.1,4.7-4,9.7-7.7,14.8-11.1,0,0,0,0,.2-.1,2.6-1.4,5.3-2.6,7.9-3.8,2.7,1.2,5.3,2.4,7.9,3.8h.2c5.1,3.5,10.1,7.2,14.8,11.2,4.8,4.1,9.4,8.4,13.7,13.1.3.3.6.7.9,1-.3.3-.6.7-.9,1-4.3,4.7-8.8,9-13.7,13.1-4.7,4-9.7,7.7-14.8,11.1,0,0,0,0-.2,0-2.6,1.4-5.3,2.6-7.9,3.8-2.7-1.2-5.3-2.4-7.9-3.8"/>
          <path id="Path_9878" d="M66.3,36.5c-5.2,0-10.1,2.4-13.3,6.4.2,0,.4,0,.6.2l6.3,3.1c4-3.5,10.1-3.1,13.6.9s3.1,10.1-.9,13.6c-1.8,1.5-4,2.4-6.4,2.4h0c-2.3,0-4.6-.9-6.3-2.4l-6.3,3.1c-.2,0-.4.2-.6.2,5.8,7.3,16.5,8.6,23.9,2.7,7.3-5.8,8.6-16.5,2.7-23.9-3.2-4.1-8.1-6.4-13.3-6.4"/>
          <path id="Path_9879" class="st2" d="M52,46.6c-1.8-.9-3.2,0-3.2,2v9.8c0,2,1.4,2.9,3.2,2l11.1-5.4c1.8-.9,1.8-2.3,0-3.1l-11.1-5.4h0Z"/>
        </g>
      </g>
    </g>
    <g id="Appverse" class="st1">
      <g class="st1">
        <g class="st1">
          <path class="st0" d="M136.2,90.3h3.5l19-46.7h19.3l18.6,46.7h3.5v9.8h-26.9v-9.8h6.4l-2.5-6.3h-20.3l-2.5,6.3h6.4v9.8h-24.4v-9.8ZM160.3,74.6h13l-6.4-18.7h-.2l-6.5,18.7Z"/>
          <path class="st0" d="M204,106.1h4.7v-37.8h-4.7v-9.3h19.7v7.3h.2c4.2-6.4,7.9-8.5,15.6-8.5,12.7,0,17.6,10.2,17.6,21.7s-5.2,21.9-18.4,21.9-10.7-1.9-13.6-7.1h-.2v11.8h5.8v9.3h-26.7v-9.3ZM240.3,79.3c0-5.3-1.1-11.8-7.7-11.8s-8.2,6.5-8.2,11.8,1.8,12.2,8.5,12.2,7.4-7.1,7.4-12.2Z"/>
          <path class="st0" d="M261.6,106.1h4.7v-37.8h-4.7v-9.3h19.7v7.3h.2c4.2-6.4,7.9-8.5,15.6-8.5,12.7,0,17.6,10.2,17.6,21.7s-5.2,21.9-18.4,21.9-10.7-1.9-13.6-7.1h-.2v11.8h5.8v9.3h-26.7v-9.3ZM298,79.3c0-5.3-1.1-11.8-7.7-11.8s-8.2,6.5-8.2,11.8,1.8,12.2,8.5,12.2,7.4-7.1,7.4-12.2Z"/>
          <path class="st0" d="M318.3,58.9h23.9v9.3h-4.2l6.4,19.7h.2l6.7-19.7h-4.3v-9.3h21.5v9.4h-2.5l-12.8,31.8h-19.5l-12.8-31.9h-2.6v-9.3Z"/>
          <path class="st0" d="M387.7,83.4c0,4.2,1,9,6.2,9s5-1.2,5.8-4.3h15.1c0,.6-.2,1.2-.3,1.8-3.1,9.2-11.6,11.4-20.6,11.4-13.8,0-22-8.1-22-21.9s8.2-21.7,21.6-21.7,17.8,5.3,20,11.1c2.1,5.9,2.1,12.3,2.1,14.7h-27.9ZM399.8,75c0-4.4-.9-8.4-6.3-8.4s-5.8,4.2-5.8,8.4h12.1Z"/>
          <path class="st0" d="M420,90.8h4.8v-22.5h-4.8v-9.3h19.8v9.9h.2c.2-.8.4-1.5.7-2.2,1.6-4.8,5.7-9,11-9s3.4.3,4.4.6v14.6c-1.3-.4-3.2-.6-5.1-.6-6.3,0-9.9,3.8-9.9,10v8.5h6v9.3h-27v-9.3Z"/>
          <path class="st0" d="M459.2,85.6h11.8c0,3.7,2.3,7.3,6.4,7.3s4.6-1.2,4.6-3.7c0-8.5-23.4-1.2-23.4-18.1s5.9-13.3,13.7-13.3,10.2,1.2,12.3,5.6h.2v-4.4h10.8v14.1h-12c0-3.6-2-6.8-5.8-6.8s-4.2.8-4.2,3.4c0,7.4,23.4,1.1,23.4,18.2s-6.2,13.6-14.1,13.6-10.5-1.5-12.3-5.7h-.2v4.5h-11.2v-14.5Z"/>
          <path class="st0" d="M517.3,83.4c0,4.2,1,9,6.2,9s5-1.2,5.8-4.3h15.1c0,.6-.2,1.2-.3,1.8-3.1,9.2-11.6,11.4-20.6,11.4-13.8,0-22-8.1-22-21.9s8.2-21.7,21.6-21.7,17.8,5.3,20,11.1c2.1,5.9,2.1,12.3,2.1,14.7h-27.9ZM529.4,75c0-4.4-1-8.4-6.3-8.4s-5.8,4.2-5.8,8.4h12.1Z"/>
        </g>
      </g>
    </g>
    <g id="Open" class="st1">
      <g class="st1">
        <g class="st1">
          <path class="st0" d="M217.2,20.4c0-8.1,5.2-13,13.6-13s13.6,4.9,13.6,13-5.2,13-13.6,13-13.6-4.9-13.6-13ZM236.7,20.4c0-3.8-1.1-8.7-6-8.7s-6,4.9-6,8.7,1.1,8.7,6,8.7,6-4.9,6-8.7Z"/>
          <path class="st0" d="M246.6,35.5h2.1v-16.7h-2.1v-4.1h8.7v3.2h0c1.9-2.8,3.5-3.7,6.9-3.7,5.6,0,7.8,4.5,7.8,9.6s-2.3,9.7-8.1,9.7-4.7-.8-6-3.1h0v5.2h2.6v4.1h-11.8v-4.1ZM262.7,23.7c0-2.3-.5-5.2-3.4-5.2s-3.6,2.9-3.6,5.2.8,5.4,3.7,5.4,3.3-3.1,3.3-5.4Z"/>
          <path class="st0" d="M279,25.5c0,1.9.5,4,2.8,4s2.2-.5,2.6-1.9h6.7c0,.3,0,.5-.2.8-1.4,4.1-5.1,5-9.1,5-6.1,0-9.7-3.6-9.7-9.7s3.6-9.6,9.5-9.6,7.9,2.3,8.9,4.9c.9,2.6.9,5.4.9,6.5h-12.3ZM284.4,21.8c0-1.9-.4-3.7-2.8-3.7s-2.6,1.9-2.6,3.7h5.3Z"/>
          <path class="st0" d="M293.3,28.8h2.1v-10h-2.1v-4.1h8.6v3.6h0c1-3.1,4-4.1,7-4.1s6,2.1,6,5.7v9h1.9v4.1h-10.8v-4.1h1.8v-7.2c0-1.6-.8-2.7-2.4-2.7s-2.8,1.2-2.8,2.8v7.1h1.6v4.1h-10.9v-4.1Z"/>
        </g>
      </g>
    </g>
    <g id="The" class="st1">
      <g class="st1">
        <g class="st1">
          <path class="st0" d="M158,7.9v9.1h-5.9v-4.7h-3.2v16.3h3.2v4.4h-13.6v-4.4h3.2V12.3h-3.2v4.7h-5.9V7.9h25.4Z"/>
          <path class="st0" d="M160,28.8h2.1V11.2h-2.1v-4.1h9.3v10.8h0c.5-2.9,3.9-3.7,6.4-3.7,3.6,0,6,2.1,6,5.7v9h1.9v4.1h-10.8v-4.1h1.8v-7.2c0-1.6-.8-2.7-2.4-2.7s-2.8,1.2-2.8,2.8v7.1h2.1v4.1h-11.4v-4.1Z"/>
          <path class="st0" d="M192.5,25.5c0,1.9.5,4,2.8,4s2.2-.5,2.6-1.9h6.7c0,.3,0,.5-.2.8-1.4,4.1-5.1,5-9.1,5-6.1,0-9.7-3.6-9.7-9.7s3.6-9.6,9.5-9.6,7.9,2.3,8.9,4.9c.9,2.6.9,5.4.9,6.5h-12.3ZM197.9,21.8c0-1.9-.4-3.7-2.8-3.7s-2.6,1.9-2.6,3.7h5.3Z"/>
        </g>
      </g>
    </g>
    <g id="_OnDemand" class="st1">
      <g class="st1">
        <g class="st1">
          <path class="st0" d="M328.2,20.4c0-8.1,5.2-13,13.6-13s13.6,4.9,13.6,13-5.2,13-13.6,13-13.6-4.9-13.6-13ZM347.7,20.4c0-3.8-1.1-8.7-6-8.7s-6,4.9-6,8.7,1.1,8.7,6,8.7,6-4.9,6-8.7Z"/>
          <path class="st0" d="M357.6,28.8h2.1v-10h-2.1v-4.1h8.6v3.6h0c1-3.1,4-4.1,7-4.1s6,2.1,6,5.7v9h1.9v4.1h-10.8v-4.1h1.8v-7.2c0-1.6-.8-2.7-2.4-2.7s-2.8,1.2-2.8,2.8v7.1h1.6v4.1h-10.9v-4.1Z"/>
          <path class="st0" d="M383.2,28.5h2.5V12.3h-2.5v-4.4h8.8c2.6,0,6.3-.2,8.8.2,6.3,1,9.5,6,9.5,12.1s-1.4,8.1-4.9,10.5c-3.5,2.3-7.1,2.1-11.1,2.1h-11.1v-4.4ZM392.9,28.5h3.3c5,0,6.5-3.9,6.5-8.4s-1.4-7.9-6.3-7.9h-3.6v16.3Z"/>
          <path class="st0" d="M419.8,25.5c0,1.9.5,4,2.8,4s2.2-.5,2.6-1.9h6.7c0,.3,0,.5-.2.8-1.4,4.1-5.1,5-9.1,5-6.1,0-9.7-3.6-9.7-9.7s3.6-9.6,9.5-9.6,7.9,2.3,8.9,4.9c.9,2.6.9,5.4.9,6.5h-12.3ZM425.1,21.8c0-1.9-.4-3.7-2.8-3.7s-2.6,1.9-2.6,3.7h5.3Z"/>
          <path class="st0" d="M434.4,28.8h2.1v-10h-2.1v-4.1h8.9v3.3h0c1.3-2.7,3.6-3.8,6.5-3.8s4.5.8,5.9,3.4c1.4-2.6,3.7-3.4,6.3-3.4,3.6,0,6.3,1.9,6.3,5.7v8.9h2.1v4.1h-10.9v-4.1h1.6v-6.2c0-1.7-.3-3.7-2.3-3.7s-2.8,2.3-2.8,4.2v5.7h1.6v4.1h-10.4v-4.1h1.6v-6.2c0-2,0-3.7-2.3-3.7s-2.8,2.4-2.8,4.2v5.7h1.6v4.1h-11v-4.1Z"/>
          <path class="st0" d="M473.1,20.6c.1-2.5,1.3-4.1,3.1-5.1s3.9-1.3,6.1-1.3c4.8,0,9.4,1.1,9.4,6.6v8.1h2.1v4.1h-8.2v-2.8h0c-1.5,2.4-3.6,3.3-6.5,3.3s-6.9-1.8-6.9-5.7,3.6-5.9,7-6.1c1,0,2-.2,3-.2s2,0,3,0c0-1,0-1.9-.4-2.7-.4-.7-1.1-1.1-2.2-1.1-1.9,0-2.8,1.2-2.7,2.9h-6.7ZM481.4,29.5c2.5,0,4-2.3,4-4.6-1,0-2.7-.2-4.1.2-1.4.3-2.5,1-2.5,2.6s1.3,1.9,2.5,1.9Z"/>
          <path class="st0" d="M495.5,28.8h2.1v-10h-2.1v-4.1h8.6v3.6h0c1-3.1,4-4.1,7-4.1s6,2.1,6,5.7v9h1.9v4.1h-10.8v-4.1h1.8v-7.2c0-1.6-.8-2.7-2.4-2.7s-2.8,1.2-2.8,2.8v7.1h1.6v4.1h-10.9v-4.1Z"/>
          <path class="st0" d="M542.5,28.8h2v4.1h-8.7v-3.4h0c-1,3-3.7,3.9-6.6,3.9-6,0-7.9-4.4-7.9-9.8s2.3-9.5,8.1-9.5,5,.7,6.1,3.1h0v-6h-2.3v-4.1h9.5v21.7ZM535.4,23.5c0-2.4-.8-5-3.6-5s-3.4,3.2-3.4,5.6.5,5,3.3,5,3.7-3.2,3.7-5.6Z"/>
        </g>
      </g>
    </g>
  </g>
</svg>