<?xml version="1.0" encoding="UTF-8"?>
<svg id="Layer_1" xmlns="http://www.w3.org/2000/svg" xmlns:xlink="http://www.w3.org/1999/xlink" version="1.1" viewBox="0 0 168.4 104.9">
  <!-- Generator: Adobe Illustrator 29.3.1, SVG Export Plug-In . SVG Version: 2.1.0 Build 151)  -->
  <defs>
    <style>
      .st0, .st1, .st2 {
        fill: none;
      }

      .st3 {
        fill: #00837b;
      }

      .st4 {
        fill: #91d7f2;
      }

      .st1 {
        stroke-width: .2px;
      }

      .st1, .st2 {
        stroke: #302d44;
        stroke-linecap: round;
        stroke-miterlimit: 10;
      }

      .st2 {
        stroke-width: .2px;
      }

      .st5 {
        clip-path: url(#clippath-1);
      }

      .st6 {
        clip-path: url(#clippath-3);
      }

      .st7 {
        clip-path: url(#clippath-4);
      }

      .st8 {
        clip-path: url(#clippath-2);
      }

      .st9 {
        fill: #fff;
      }

      .st10 {
        fill: #686ea7;
      }

      .st11 {
        fill: #302d44;
      }

      .st12 {
        fill: #3391bf;
      }

      .st13 {
        clip-path: url(#clippath);
      }
    </style>
    <clipPath id="clippath">
      <rect class="st0" x="95.7" y="7.9" width="72.8" height="76"/>
    </clipPath>
    <clipPath id="clippath-1">
      <rect class="st0" x="95.7" y="8.2" width="72.8" height="75.5"/>
    </clipPath>
    <clipPath id="clippath-2">
      <rect class="st0" x="29.8" y="19.5" width="92.6" height="85.4"/>
    </clipPath>
    <clipPath id="clippath-3">
      <rect class="st0" x="42" y="64.3" width=".9" height="2.1"/>
    </clipPath>
    <clipPath id="clippath-4">
      <rect class="st0" x="67.3" y="51" width="55.1" height="1.3"/>
    </clipPath>
  </defs>
  <g class="st13">
    <g id="handshake">
      <g class="st5">
        <g id="Group_1649">
          <g id="Group_1648">
            <path id="Path_9114" class="st12" d="M132.1,83.7c-20.1,0-36.4-16.9-36.4-37.8s16.3-37.8,36.4-37.8,36.4,16.9,36.4,37.8-16.3,37.8-36.4,37.8h0Z"/>
            <path id="Path_9115" class="st9" d="M166.6,34.1h-17.1c-1.8,0-3.5,1.3-4,3l-4.4,15.2-3.6.3,1.9,2.5-.2,1.5.6.2-1.3,2.2,5.4,1.4s-1.9,6-1.5,5.9c.3,0,14.2,0,20.4,0,5.9-9.7,7.3-21.4,3.9-32.2h0Z"/>
            <path id="Path_9116" class="st1" d="M97.4,48.7h15.5c2.3,0,4.4,1.6,5,3.9l4.5,14.6M99.4,48.6l-1-18.9c0-.8.4-1.6,1.1-1.9l1.1-.6h.3c0,0,.1.2.1.3h0c0,.2,0,.3-.2.3h-.2c-.8-.5-1.1-1.5-.7-2.3,0-.1.2-.3.3-.4l.5-.5c.4-.4.9-.6,1.4-.6h3.1c.1,0,.2,0,.3.2,0,.1,0,.2,0,.3,0,.2-.3.3-.5.2,0,0,0,0,0,0h0c0,0,0,0-.1-.2h0c-.5-1.3.2-2.8,1.5-3.3h0c.3-.1.7-.2,1.1-.1.7,0,1.4.5,1.8,1.1.3.3.4.7.4,1l.4,2.3c.1.7-.2,1.3-.8,1.7l-3.2,2c-.6.4-.9,1-.8,1.7l.2,1.7-.4-.3c-.3-.2-.6-.2-.9,0-.3.1-.5.4-.6.7-.2.7-.1,1.5.3,2.1.2.3.3.7.3,1.1l-.4,2.7c0,.4-.4.7-.8.7h-2.6"/>
            <path id="Path_9117" class="st1" d="M106.8,40l.6.8c.5.6,1.2.8,1.9.7h0c1.1-.2,1.8-1.3,1.6-2.4l-1.9-11.7M107.7,41.1l1.6,7.7M121.8,82.2l8.9-15.5v-.6c-.5-3.2-2-6.3-4.3-8.6l-4.7,7.8M112.2,57.5l5,23M131.6,61.4l-1.3,3M135.5,54.4l-1,2.2h-1.3c0,0,0-3.2,0-3.2,0-.5.3-.8.8-.9l9.2-.4M135.6,62.9h-3.8c-.3,0-.5-.2-.5-.5,0-.3,0-.2,0-.2l1-2.2h5l-1.2,2.7c0,.2-.3.3-.5.3h0Z"/>
            <path id="Path_9118" class="st1" d="M135.3,55l4.4,1.8-2.6,5.1h-.6M127.8,59l2.5-4.3c.4-.8,1.4-1.1,2.2-.8l.8.3M133.5,59.9l-1.1,3M134.7,59.9l-1.2,3M136,59.9l-1.2,3M138.4,59.2l5.4,1.1M137.5,52.4l1.3,2.2c.4.6.5,1.2.5,1.9M148.8,40.7l-10.7,42.5M141.1,52.3l4.5-15.3c.5-1.7,2-2.9,3.8-2.9h17.1M163,34.1l-.8-8.9M161.9,24l-.2-2.8c-.2-2.6-2.2-4.6-4.8-4.8h0c-1.5,0-2.9.5-3.9,1.6-1,1.1-1.5,2.6-1.4,4.1l.7,7.1c.1,1.5,1.4,2.7,2.9,2.8,1.5,0,2.2-.7,2.6-1.7l.2-.4M162.1,25.2h0c0,.5.4.8.9.8h0c.2,0,.4-.1.5-.3.1-.2.2-.4.2-.6l-.2-1.5c0-.6-.5-1-1.1-.9h0c-.4,0-.6.3-.6.7h0"/>
            <path id="Path_9119" class="st1" d="M154.4,16.9c0,3,2.3,5.4,5.3,5.5,2.9,0,1.4-.2,2.1-.4"/>
            <path id="Path_9120" class="st1" d="M151.6,22.3c1.5-.4,2.7-1.4,3.4-2.7M142.3,66.3h20.3M155.2,31.9l-.7,2.1M151.9,24.6l-1.5,1.3c-.9.8-1.4,2.1-1.2,3.3h0c.2,1.2-.2,2.5-1.2,3.3l-1.9,1.6c-.6.5-.7,1.4-.3,2.1M150.8,15.9c0-3.5-2.7-6.3-6-6.3-3.4,0-6.1,2.8-6.1,6.3,0,.3,0,.7,0,1-1.8-1.4-4.5-1.1-5.9.7,0,0-.1.1-.1.2-.5.7-.8,1.5-.8,2.4-.8-.2-1.6-.2-2.4,0-1.8.6-3,2.3-3,4.3v.2c0,2.2,2,4,4.2,3.9.6,0,1.1-.2,1.6-.4l1.8-.9c.6,1.7,2.2,2.8,4,2.8h2.2M137.7,26.4l7.9,10.6"/>
            <path id="Path_9121" class="st1" d="M138.6,25.9l5.5,5.1,1-8.2M138.9,24.4c0,1-.6,1.9-1.6,2,0,0,0,0,0,0-.5,0-1-.1-1.3-.5"/>
            <path id="Path_9122" class="st1" d="M150.4,20.3c-.7,2-2.9,3.1-4.9,2.4,0,0,0,0,0,0-2-.8-1.8-1.2-2.3-2.2M148.7,22.7l.9,4.2"/>
          </g>
        </g>
      </g>
    </g>
  </g>
  <g id="green-computer">
    <path id="Path_9077" class="st3" d="M30.9,63c16.5,0,29.9-14.1,29.9-31.5S47.5,0,30.9,0,1,14.1,1,31.5s13.4,31.5,29.9,31.5h0Z"/>
    <path id="Path_9078" class="st9" d="M7.1,50.6c8.1,11.2,22.3,15.4,34.8,10.2l-8.6-18.4c-.8-1.7-2.4-2.8-4.3-2.8h-11.4l-9.8,8.9-.7,2h0Z"/>
    <path id="Path_9079" class="st11" d="M24.3,32.7c-.9,0-1.7-.5-2-1.3h0c0-.2,0-.2,0-.3h0c0,0,0,0,.1,0h0c.3,1.1,1.4,1.7,2.5,1.4,1-.4,1.6-1.4,1.4-2.5l-2-10c0,0,0-.1,0-.1h0c0,0,.1,0,.1,0h0l2,10c.2,1.1-.5,2.3-1.6,2.6-.2,0-.4,0-.6,0Z"/>
    <path id="Path_9080" class="st9" d="M21.2,23.8l1.9,25.6c.2,1.8-1.1,3.4-2.9,3.6H5.3c-1.4,0-2.7-.6-3.7-1.6-2.1-2.3-2-5.8.3-7.9l1.3-1.1c1.1-1.1,1.8-2.5,1.8-4.1v-4.3c0-1.9.9-3.6,2.4-4.6l.7-.4c1.5-1,2.5-2.8,2.4-4.6v-2.7c0-2.4,1.5-4.5,3.7-5.2l6.3-2c.3-.1.7,0,.8.4,0,0,0,0,0,0,0,.1,0,.2,0,.3,0,.3-.4.6-.7.5,0,0,0,0,0,0-.1,0-.3,0-.3-.2l-1.4-1.5c-.6-.7-.6-1.7,0-2.4.1-.1.2-.2.4-.3,1.5-.8,3.4-.4,4.4,1l1.9,2.7c.9,1.2.8,2.9-.2,4-.3.4-.7.7-1.1.8l-1,.4c-1.3.6-2.1,2-2,3.4Z"/>
    <path id="Path_9081" class="st11" d="M20,53.2H5.3C2.3,53.2,0,50.7,0,47.6c0-1.6.6-3.1,1.8-4.2l1.3-1.1c1.1-1,1.7-2.5,1.7-4v-4.3c0-1.9.9-3.7,2.5-4.7l.7-.5c1.5-1,2.4-2.7,2.4-4.5v-2.7c0-2.4,1.5-4.6,3.8-5.3l5.1-1.6-.5-.6c-.7-.7-.7-1.8,0-2.5.1-.1.3-.2.4-.3,1.5-.9,3.5-.4,4.5,1.1l1.9,2.7c.9,1.3.8,3-.2,4.2-.3.4-.7.7-1.2.9l-1,.4c-1.3.6-2,1.9-1.9,3.3l1.9,25.6c.2,1.8-1.1,3.5-3,3.7h-.3ZM19.3,14.8l-5.2,1.6c-2.2.7-3.7,2.8-3.6,5.1v2.7c0,1.9-.9,3.7-2.5,4.7l-.7.4c-1.5,1-2.4,2.7-2.4,4.5v4.3c0,1.6-.6,3.1-1.8,4.2l-1.3,1.1c-1.6,1.5-2.2,3.8-1.4,5.9.7,2.1,2.6,3.4,4.8,3.5h14.7c.9,0,1.7-.4,2.3-1,.6-.7.9-1.6.8-2.5l-1.9-25.6c-.1-1.5.7-2.9,2-3.5l1-.4c1.3-.6,2-2,1.8-3.4,0-.5-.3-.9-.6-1.3l-1.9-2.7c-.9-1.4-2.8-1.8-4.2-1-.7.4-1,1.4-.6,2.1,0,.1.2.2.3.3l.6.6,1-.3c.2,0,.5,0,.7.2.3.3.3.8,0,1.1-.2.2-.5.3-.7.2-.1,0-.3-.1-.4-.2l-.7-.7h0ZM19.6,14.8l.6.7c.2.2.5.2.7,0,0,0,0,0,0,0,.2-.2.2-.4.1-.6,0-.3-.4-.4-.7-.4l-.9.3h0Z"/>
    <path id="Path_9082" class="st11" d="M41.9,60.9s0,0,0,0l-8.6-18.4c-.7-1.6-2.2-2.6-4-2.6h-7s0,0,0,0c0,0,0,0,0,0,0,0,0,0,0,0h6.9c1.8,0,3.4,1.1,4.1,2.8l8.6,18.4c0,0,0,.1,0,.1h0Z"/>
    <path id="Path_9083" class="st11" d="M25,39.8c0,0,0,0-.1,0l-1.6-7.4c0,0,0-.1,0-.1h0c0,0,.1,0,.1,0h0l1.6,7.4c0,0,0,0,0,.1h0ZM62.4,37.6h-31.9c-.7,0-1.2-.6-1.2-1.3,0,0,0,0,0,0V14.1c0-.7.5-1.3,1.2-1.3h31.9c.7,0,1.2.6,1.2,1.3v22.2c0,.7-.5,1.3-1.2,1.3h0ZM30.6,13c-.6,0-1,.5-1,1.1,0,0,0,0,0,0h0v22.2c0,.6.4,1.1,1,1.1,0,0,0,0,0,0h31.9c.6,0,1-.5,1-1.1,0,0,0,0,0,0V14.1c0-.6-.4-1.1-1-1.1,0,0,0,0,0,0h-31.9Z"/>
    <path id="Path_9084" class="st11" d="M61.8,36.4c0,0,0,0-.1-.1V15.1c0-.6-.4-1.1-1-1.1,0,0,0,0,0,0h0c0,0-.1,0,0-.1,0,0,0,0,0,0h0c.7,0,1.2.6,1.2,1.3v21.2c0,0,0,.1-.1.1ZM54.3,45.6h-17v-1.6h15l-1.6-6.4c0,0,0,0,0-.1h.1s0,0,0,0l1.7,6.7h-15v1.2h16.6l-2-7.8c0,0,0-.1,0-.1,0,0,.1,0,.1,0l2.1,8.1h0Z"/>
    <path id="Path_9085" class="st11" d="M43.4,44.2c0,0,0,0-.1,0l-1.1-6.6h0c0,0,0-.1,0-.1,0,0,.1,0,.1,0h0l1.1,6.6c0,0,0,.1,0,.1h0ZM49.4,45.6c0,0,0,0-.1-.1h0v-1.4s0,0,0,0c0,0,0,0,0,0,0,0,0,0,.1.1v1.4c0,0,0,.1-.1.1h0ZM61.8,32.7H29.5c0,0,0,0-.1-.1,0,0,0,0,0,0h32.4c0,0,.1,0,0,.1,0,0,0,0,0,0h0ZM58.1,44.9h-4.1c0,0-.1,0,0-.1,0,0,0,0,0,0h4.1c0,0,.1,0,0,.1,0,0,0,0,0,0h0ZM37.4,44.9h-2.9c0,0-.1,0,0-.1,0,0,0,0,0,0h2.9s0,0,0,0c0,0,0,0,0,0,0,0,0,.1-.1.1h0Z"/>
  </g>
  <g id="Group_1650">
    <g id="Group_1638">
      <g class="st8">
        <g id="Group_1637">
          <path id="Path_9086" class="st4" d="M77.8,104.9c18.1,0,32.8-14.7,32.7-32.8,0-18.1-14.7-32.8-32.8-32.7-18.1,0-32.7,14.7-32.7,32.8,0,18.1,14.7,32.8,32.8,32.8"/>
          <path id="Path_9087" class="st9" d="M88.4,80.6h21.2c-3.9,14.3-16.9,24.3-31.7,24.3-1.6,0-3.2-.1-4.8-.4l10.3-20.8c.5-.9,1.2-1.7,2.1-2.3.9-.5,1.9-.8,3-.8h0Z"/>
          <path id="Path_9088" class="st2" d="M109.7,80.6h-21.2c-2.1,0-4,1.2-5,3.1l-10.5,20.9M102.6,80.5l1.1-19.2c0-.4,0-.8-.3-1.1-.2-.3-.5-.6-.8-.8l-1.2-.6c0,0-.2,0-.3,0,0,0-.1.1-.1.2,0,.1,0,.2.1.3.1,0,.2,0,.3,0,.8-.4,1.2-1.5.7-2.3,0,0,0,0,0,0,0-.2-.2-.3-.3-.4l-.5-.5c-.4-.4-.9-.6-1.5-.6h-3.3c-.1,0-.3,0-.3.2,0,.1,0,.3,0,.4,0,.2.3.3.5.2,0,0,0,0,0,0,0,0,.1-.1.2-.2.5-1.4-.2-2.9-1.6-3.4-1.1-.4-2.4,0-3,1-.2.3-.4.7-.4,1l-.4,2.3c-.1.7.2,1.3.8,1.7l3.4,2c.3.2.5.4.7.7.2.3.2.7.2,1l-.2,1.7.4-.2c.3-.2.6-.2.9,0,.3.1.5.4.6.7.3.7.1,1.5-.3,2.2-.2.3-.3.7-.3,1.1l.4,2.8c0,.4.4.7.8.7h2.7"/>
          <path id="Path_9089" class="st2" d="M94.8,71.7l-.7.8c-.5.6-1.3.8-2,.7-.5,0-1-.4-1.3-.9-.3-.5-.4-1-.3-1.5l2-11.9M93.9,72.9l-1.7,7.8M43.2,78.4h35.3c.6,0,1-.5,1-1v-23.7c0-.6-.5-1-1-1h-35.3c-.6,0-1,.5-1,1v23.7c0,.6.5,1,1,1h0ZM79.4,73.3h-35.4"/>
          <path id="Path_9090" class="st2" d="M47.9,53.7h-2.8c-.3,0-.6.1-.8.3-.2.2-.3.5-.3.8v22.3M52.5,85.8h-4.6M82.4,85.8h-11.6M54.4,78.3l-2.3,8.4h18.7v-1.7h-16.4l1.7-6.7M57.6,85.1v1.7M65.3,78.4l-1,6.7"/>
          <path id="Path_9091" class="st9" d="M62.2,62.4h-13.3l-1.7,1.6v-7.1c0-.4.2-.8.5-1.1.3-.3.7-.5,1.1-.5h13.5c.4,0,.8.2,1.1.5.3.3.5.7.5,1.1v3.8c0,.4-.2.9-.5,1.2-.3.3-.7.5-1.2.5h0Z"/>
          <path id="Path_9092" class="st2" d="M55.3,60.4v.2M54.4,58.1c0-.4.2-.7.5-.9.2,0,.4-.1.5-.1.5,0,.9.5.9,1.1,0,0,0,0,0,0h0c0,.5-.3.8-.7.8-.1,0-.2.2-.2.3v.5"/>
          <path id="Path_9093" class="st2" d="M62.1,62.4h-13.3l-1.7,1.6v-7.1c0-.4.2-.8.5-1.1.3-.3.7-.5,1.1-.5h13.5c.4,0,.8.2,1.1.5.3.3.5.7.5,1.1v3.8c0,.2,0,.4-.1.6-.2.4-.5.7-.9.9-.2,0-.4.1-.6.1h0ZM60,70.4h13.3l1.7,1.6v-7.1c0-.7-.4-1.3-1-1.5-.2,0-.4-.1-.6-.1h-13.5c-.7,0-1.3.4-1.5,1,0,.2-.1.4-.1.6v3.8c0,.9.7,1.6,1.6,1.6,0,0,0,0,0,0h0Z"/>
          <path id="Path_9094" class="st10" d="M78,104.9c18.1,0,32.8-14.7,32.7-32.8,0-18.1-14.7-32.8-32.8-32.7-18.1,0-32.7,14.7-32.7,32.8,0,18.1,14.7,32.8,32.8,32.8"/>
          <path id="Path_9095" class="st9" d="M88.4,80.6h21.2c-3.9,14.3-16.9,24.3-31.7,24.3-1.6,0-3.2-.1-4.8-.4l10.3-20.8c.5-.9,1.2-1.7,2.1-2.3.9-.5,1.9-.8,3-.8h0Z"/>
          <path id="Path_9096" class="st2" d="M109.7,80.6h-21.2c-2.1,0-4,1.2-5,3.1l-10.5,20.9M102.6,80.5l1.1-19.2c0-.4,0-.8-.3-1.1-.2-.3-.5-.6-.8-.8l-1.2-.6c0,0-.2,0-.3,0,0,0-.1.1-.1.2,0,.1,0,.2.1.3.1,0,.2,0,.3,0,.8-.4,1.2-1.5.7-2.3,0,0,0,0,0,0,0-.2-.2-.3-.3-.4l-.5-.5c-.4-.4-.9-.6-1.5-.6h-3.3c-.1,0-.3,0-.3.2,0,.1,0,.3,0,.4,0,.2.3.3.5.2,0,0,0,0,0,0,0,0,.1-.1.2-.2.5-1.4-.2-2.9-1.6-3.4-1.1-.4-2.4,0-3,1-.2.3-.4.7-.4,1l-.4,2.3c-.1.7.2,1.3.8,1.7l3.4,2c.3.2.5.4.7.7.2.3.2.7.2,1l-.2,1.7.4-.2c.3-.2.6-.2.9,0,.3.1.5.4.6.7.3.7.1,1.5-.3,2.2-.2.3-.3.7-.3,1.1l.4,2.8c0,.4.4.7.8.7h2.7"/>
          <path id="Path_9097" class="st2" d="M94.8,71.7l-.7.8c-.5.6-1.3.8-2,.7-.5,0-1-.4-1.3-.9-.3-.5-.4-1-.3-1.5l2-11.9M93.9,72.9l-1.7,7.8M43.2,78.4h35.3c.6,0,1-.5,1-1v-23.7c0-.6-.5-1-1-1h-35.3c-.6,0-1,.5-1,1v23.7c0,.6.5,1,1,1h0ZM79.4,73.3h-35.4"/>
          <path id="Path_9098" class="st2" d="M47.9,53.7h-2.8c-.3,0-.6.1-.8.3-.2.2-.3.5-.3.8v22.3M52.5,85.8h-4.6M82.4,85.8h-11.6M54.4,78.3l-2.3,8.4h18.7v-1.7h-16.4l1.7-6.7M57.6,85.1v1.7M65.3,78.4l-1,6.7"/>
          <path id="Path_9099" class="st9" d="M62.2,70.8h-13.3l-1.7,1.6v-7.1c0-.4.2-.8.5-1.1.3-.3.7-.5,1.1-.5h13.5c.4,0,.8.2,1.1.5.3.3.5.7.5,1.1v3.8c0,.4-.2.9-.5,1.2-.3.3-.7.5-1.2.5h0Z"/>
          <path id="Path_9100" class="st2" d="M55.3,68.8v.2M54.4,66.5c0-.5.4-1,1-1,.2,0,.4,0,.6.2.3.2.4.6.4,1,0,.4-.3.7-.7.7-.1,0-.2.2-.2.3v.5"/>
          <path id="Path_9101" class="st2" d="M62.1,70.8h-13.3l-1.7,1.6v-7.1c0-.4.2-.8.5-1.1.3-.3.7-.5,1.1-.5h13.5c.4,0,.8.2,1.1.5.3.3.5.7.5,1.1v3.8c0,.2,0,.4-.1.6-.2.4-.5.7-.9.9-.2,0-.4.1-.6.1h0Z"/>
        </g>
      </g>
    </g>
    <g id="Group_1640">
      <g class="st6">
        <g id="Group_1639">
          <path id="Path_9102" class="st11" d="M41.9,65.7c0,0,.2,0,.2-.2,0,0,0-.2-.2-.2,0,0,0,0,0,0v.3ZM41.9,65.4c0,0-.2,0-.2.2,0,0,0,.2.2.2,0,0,0,0,0,0v-.3ZM40.2,65.7c0,0,.2,0,.2-.2,0,0,0-.2-.2-.2,0,0,0,0,0,0v.3ZM40.2,65.4c0,0-.2,0-.2.2,0,0,0,.2.2.2v-.3ZM38.5,65.7c0,0,.2,0,.2-.2,0,0,0-.2-.2-.2,0,0,0,0,0,0v.3ZM38.5,65.4c0,0-.2,0-.2.2,0,0,0,.2.2.2,0,0,0,0,0,0v-.3ZM36.8,65.7c0,0,.2,0,.2-.2,0,0,0-.2-.2-.2,0,0,0,0,0,0v.3ZM36.7,65.4c0,0-.2,0-.2.2,0,0,0,.2.2.2,0,0,0,0,0,0v-.3ZM35.1,65.7c0,0,.2,0,.2-.2,0,0,0-.2-.2-.2,0,0,0,0,0,0v.3ZM35.1,65.4c0,0-.2,0-.2.2,0,0,0,.2.2.2,0,0,0,0,0,0v-.3ZM33.5,65.5c.1,0,.2,0,.2-.1,0-.1,0-.2-.1-.2v.3c-.1,0-.1,0-.1,0ZM33.5,65.2c-.1,0-.2,0-.2.1,0,.1,0,.2.1.2v-.3ZM32,64.8c0,0,.2,0,.2,0,0,0,0-.2,0-.2,0,0,0,0,0,0l-.2.3ZM32.2,64.5c0,0-.2,0-.2,0,0,0,0,.2,0,.2l.2-.3ZM30.9,63.6c0,0,.2,0,.2,0,0,0,0-.2,0-.2l-.3.2ZM31.1,63.4c0,0-.2,0-.2,0,0,0,0,.2,0,.2l.3-.2ZM30.1,62.1c0,.1.1.1.2.1.1,0,.1-.1.1-.2h-.3M30.4,62c0-.1-.1-.1-.2-.1-.1,0-.1.1-.1.2h.3c0-.1,0-.1,0-.1ZM29.8,60.5c0,0,0,.2.2.2,0,0,.2,0,.2-.1,0,0,0,0,0,0h-.3ZM30.2,60.5c0,0,0-.2-.1-.2,0,0,0,0,0,0,0,0-.2,0-.2.1,0,0,0,0,0,0h.3ZM29.8,58.7c0,0,0,.2.1.2,0,0,0,0,0,0,0,0,.2,0,.2-.1,0,0,0,0,0,0h-.3ZM30.2,58.7c0,0,0-.2-.1-.2,0,0,0,0,0,0,0,0-.2,0-.2.1,0,0,0,0,0,0h.3ZM29.8,56.9c0,0,0,.2.1.2,0,0,0,0,0,0,0,0,.2,0,.2-.1,0,0,0,0,0,0h-.3ZM30.2,56.9c0,0,0-.2-.1-.2,0,0,0,0,0,0,0,0-.2,0-.2.1,0,0,0,0,0,0h.3ZM29.8,55.1c0,0,0,.2.1.2,0,0,0,0,0,0,0,0,.2,0,.2-.1,0,0,0,0,0,0h-.3ZM30.2,55c0,0,0-.2-.1-.2,0,0,0,0,0,0,0,0-.2,0-.2.1,0,0,0,0,0,0h.3ZM29.8,53.3c0,0,0,.2.1.2,0,0,0,0,0,0,0,0,.2,0,.2-.1,0,0,0,0,0,0h-.3ZM30.2,53.2c0,0,0-.2-.1-.2,0,0,0,0,0,0,0,0-.2,0-.2.1,0,0,0,0,0,0h.3ZM29.8,51.4c0,0,0,.2.1.2,0,0,0,0,0,0,0,0,.2,0,.2-.1,0,0,0,0,0,0h-.3ZM30.2,51.4c0,0,0-.2-.1-.2,0,0,0,0,0,0,0,0-.2,0-.2.1,0,0,0,0,0,0h.3ZM29.8,49.6c0,0,0,.2.1.2,0,0,0,0,0,0,0,0,.2,0,.2-.1,0,0,0,0,0,0h-.3ZM30.2,49.6c0,0,0-.2-.1-.2,0,0,0,0,0,0,0,0-.2,0-.2.1,0,0,0,0,0,0h.3ZM29.8,47.8c0,0,0,.2.1.2,0,0,0,0,0,0,0,0,.2,0,.2-.1,0,0,0,0,0,0h-.3ZM30.2,47.8c0,0,0-.2-.1-.2,0,0,0,0,0,0,0,0-.2,0-.2.1,0,0,0,0,0,0h.3ZM29.8,46c0,0,0,.2.1.2,0,0,0,0,0,0,0,0,.2,0,.2-.1,0,0,0,0,0,0h-.3ZM30.2,46c0,0,0-.2-.1-.2,0,0,0,0,0,0,0,0-.2,0-.2.1,0,0,0,0,0,0h.3ZM30.1,44.4c0,.1,0,.2.1.2.1,0,.2,0,.2-.1h-.3c0-.1,0-.1,0-.1ZM30.4,44.4c0-.1,0-.2-.1-.2-.1,0-.2,0-.2.1h.3M30.8,42.9c0,0,0,.2,0,.2,0,0,.2,0,.2,0l-.3-.2h0ZM31.1,43.1c0,0,0-.2,0-.2,0,0-.2,0-.2,0l.3.2ZM32,41.8c0,0-.1.2,0,.2,0,0,.2,0,.2,0,0,0,0,0,0,0l-.2-.3h0ZM32.2,42c0,0,0-.2,0-.2,0,0-.2,0-.2,0l.2.3ZM33.4,41c-.1,0-.1.1-.1.2,0,.1.1.1.2.1v-.3ZM33.6,41.3c.1,0,.1-.1.1-.2,0-.1-.1-.1-.2-.1v.3c.1,0,.1,0,.1,0ZM35.1,40.7c0,0-.2,0-.2.2,0,0,0,.2.2.2,0,0,0,0,0,0v-.3ZM35.1,41.1c0,0,.2,0,.2-.2,0,0,0-.2-.2-.2,0,0,0,0,0,0v.3ZM36.9,40.7c0,0-.2,0-.2.2,0,0,0,.2.2.2,0,0,0,0,0,0v-.3ZM37,41.1c0,0,.2,0,.2-.2,0,0,0-.2-.2-.2,0,0,0,0,0,0v.3ZM38.9,40.7c0,0-.2,0-.2.2,0,0,0,.2.2.2,0,0,0,0,0,0v-.3ZM38.9,41.1c0,0,.2,0,.2-.2,0,0,0-.2-.2-.2,0,0,0,0,0,0v.3ZM40.7,40.7c0,0-.2,0-.2.2,0,0,0,.2.2.2,0,0,0,0,0,0v-.3ZM40.8,41.1c0,0,.2,0,.2-.2,0,0,0-.2-.2-.2,0,0,0,0,0,0v.3ZM42.3,40.5c-.1,0-.1.1-.1.2,0,.1.1.1.2.1v-.3c-.1,0-.1,0-.1,0ZM42.4,40.8c.1,0,.1-.1.1-.2,0-.1-.1-.1-.2-.1v.3c.1,0,.1,0,.1,0ZM43.6,39.8c0,0,0,.2,0,.2s.2,0,.2,0c0,0,0,0,0,0l-.2-.3ZM43.8,40.1c0,0,.1-.2,0-.2,0,0-.2,0-.2,0,0,0,0,0,0,0l.2.3h0ZM44.7,38.8c0,0,0,.2,0,.2s.2,0,.2,0c0,0,0,0,0,0l-.3-.2ZM45,38.9c0,0,0-.2,0-.2s-.2,0-.2,0l.3.2h0ZM45.4,37.4c0,.1,0,.2.1.2.1,0,.2,0,.2-.1h-.3c0-.1,0-.1,0-.1ZM45.8,37.5c0-.1,0-.2-.1-.2,0,0-.2,0-.2,0,0,0,0,0,0,0h.3c0,.1,0,.1,0,.1ZM45.7,35.9c0,0,0,.2.2.2,0,0,.2,0,.2-.2,0,0,0,0,0,0h-.3ZM46,35.9c0,0,0-.2-.2-.2,0,0-.2,0-.2.2h.3ZM45.7,34.3c0,0,0,.2.2.2,0,0,.2,0,.2-.2h-.3ZM46,34.2c0,0,0-.2-.2-.2,0,0-.2,0-.2.2,0,0,0,0,0,0h.3ZM45.7,32.6c0,0,0,.2.2.2,0,0,.2,0,.2-.2h-.3ZM46,32.6c0,0,0-.2-.2-.2,0,0-.2,0-.2.2,0,0,0,0,0,0h.3ZM45.7,31c0,0,0,.2.2.2,0,0,.2,0,.2-.2,0,0,0,0,0,0h-.3ZM46,31c0,0,0-.2-.2-.2,0,0-.2,0-.2.2,0,0,0,0,0,0h.3ZM45.7,29.4c0,0,0,.2.2.2,0,0,.2,0,.2-.2,0,0,0,0,0,0h-.3ZM46,29.3c0,0,0-.2-.2-.2,0,0-.2,0-.2.2,0,0,0,0,0,0h.3ZM45.7,27.7c0,0,0,.2.2.2,0,0,.2,0,.2-.2,0,0,0,0,0,0h-.3ZM46,27.7c0,0,0-.2-.2-.2,0,0-.2,0-.2.2,0,0,0,0,0,0h.3ZM45.7,26.1c0,0,0,.2.2.2,0,0,.2,0,.2-.2,0,0,0,0,0,0h-.3ZM46,26c0,0,0-.2-.2-.2,0,0-.2,0-.2.2,0,0,0,0,0,0h.3ZM45.7,24.5c0,0,0,.2.2.2,0,0,.2,0,.2-.2,0,0,0,0,0,0h-.3ZM46,24.4c0,0,0-.2-.2-.2,0,0-.2,0-.2.2,0,0,0,0,0,0h.3ZM45.7,22.8c0,0,0,.2.2.2,0,0,.2,0,.2-.2,0,0,0,0,0,0h-.3ZM46,22.8c0,0,0-.2-.2-.2,0,0-.2,0-.2.2,0,0,0,0,0,0h.3ZM45.7,21.2c0,0,0,.2.2.2,0,0,.2,0,.2-.2,0,0,0,0,0,0h-.3ZM46,21.1c0,0,0-.2-.2-.2,0,0-.2,0-.2.2,0,0,0,0,0,0h.3ZM45.7,19.5c0,0,0,.2.2.2,0,0,.2,0,.2-.2,0,0,0,0,0,0h-.3ZM41.9,65.4h0ZM40.2,65.4h0ZM38.5,65.4h0ZM36.8,65.4h0ZM35.1,65.4h0ZM35.1,65.4h0ZM33.6,65.2h0v.3c-.1,0,0-.3,0-.3ZM32.2,64.5h0l-.2.3.2-.3ZM31.1,63.4h0l-.3.2.3-.2h0ZM30.4,62h-.3c0,0,.3,0,.3,0h0ZM30.2,58.7h0s-.3,0-.3,0c0,0,.3,0,.3,0M30.2,56.9h0s-.3,0-.3,0c0,0,.3,0,.3,0M30.2,55.1h0s-.3,0-.3,0c0,0,.3,0,.3,0M30.2,53.3h0s-.3,0-.3,0c0,0,.3,0,.3,0M30.2,51.4h0s-.3,0-.3,0c0,0,.3,0,.3,0M30.2,49.6h0s-.3,0-.3,0c0,0,.3,0,.3,0M30.2,47.8h0s-.3,0-.3,0c0,0,.3,0,.3,0h0ZM30.4,44.5h-.3c0-.1.3,0,.3,0h0ZM31.1,43.1h0l-.3-.2.3.2h0ZM32.2,42h0l-.2-.3.2.3ZM33.5,41.4h0v-.3c-.1,0,0,.3,0,.3ZM35.1,41.1h0ZM35.1,41.1h0ZM36.9,41.1h0v-.3h0v.3ZM38.9,41.1h0v-.3h0v.3ZM40.7,41.1h0ZM40.8,41.1h0ZM42.4,40.8h0v-.3c-.1,0,0,.3,0,.3ZM43.8,40.1h0l-.2-.3.2.3ZM45,39h0l-.3-.2.3.2ZM45.7,37.5h-.3c0-.1.3,0,.3,0Z"/>
        </g>
      </g>
    </g>
    <g id="Group_1642">
      <g class="st7">
        <g id="Group_1641">
          <path id="Path_9103" class="st11" d="M121.3,21.7c0,0,0-.2.2-.2,0,0,.2,0,.2.2h-.3ZM73.1,38.4h0ZM116.4,38.4h0ZM121.6,21.7c0,0,0,.2-.2.2,0,0-.2,0-.2-.2h.3ZM121.3,23.3c0,0,0-.2.2-.2,0,0,.2,0,.2.2h-.3ZM121.6,23.4c0,0,0,.2-.2.2,0,0-.2,0-.2-.2h.3ZM121.3,25c0,0,0-.2.2-.2,0,0,.2,0,.2.2h-.3ZM121.6,25c0,0,0,.2-.2.2,0,0-.2,0-.2-.2h.3ZM121.3,26.7c0,0,0-.2.2-.2,0,0,.2,0,.2.2h-.3ZM121.6,26.7c0,0,0,.2-.2.2,0,0-.2,0-.2-.2h.3ZM121.3,28.4c0,0,0-.2.2-.2,0,0,.2,0,.2.2h-.3ZM121.6,28.4c0,0,0,.2-.2.2,0,0-.2,0-.2-.2h.3ZM121.3,30c0,0,0-.2.2-.2,0,0,.2,0,.2.2h-.3ZM121.6,30.1c0,0,0,.2-.2.2,0,0-.2,0-.2-.2h.3ZM121.3,31.7c0,0,0-.2.2-.2,0,0,.2,0,.2.2h-.3ZM121.6,31.7c0,0,0,.2-.2.2,0,0-.2,0-.2-.2h.3ZM121.3,33.4c0,0,0-.2.2-.2,0,0,.2,0,.2.2h-.3ZM121.6,33.4c0,0,0,.2-.2.2,0,0-.2,0-.2-.2h.3ZM121.1,34.9c0-.1.1-.1.2-.1.1,0,.1.1.1.2h-.3c0-.1,0-.1,0-.1ZM121.4,35c0,.1-.1.1-.2.1-.1,0-.1-.1-.1-.2h.3c0,.1,0,.1,0,.1ZM120.4,36.2c0,0,.2,0,.2,0,0,0,0,.2,0,.2l-.3-.2ZM120.6,36.5c0,0-.2,0-.2,0s0-.2,0-.2c0,0,0,0,0,0l.3.2ZM119.3,37.3c0,0,.2,0,.2,0,0,0,0,.2,0,.2l-.2-.3ZM119.5,37.6c0,0-.2,0-.2,0,0,0,0-.2,0-.2l.2.3ZM117.9,38c.1,0,.2,0,.2.1,0,.1,0,.2-.1.2v-.3c-.1,0-.1,0-.1,0ZM118,38.4c-.1,0-.2,0-.2-.1,0,0,0-.2,0-.2,0,0,0,0,0,0v.3c.1,0,.1,0,.1,0ZM116.4,38.3c0,0,.2,0,.2.2,0,0,0,.2-.2.2v-.3ZM116.4,38.6c0,0-.2,0-.2-.2,0,0,0-.2.2-.2v.3ZM114.7,38.3c0,0,.2,0,.2.2,0,0,0,.2-.2.2,0,0,0,0,0,0v-.3ZM114.7,38.6c0,0-.2,0-.2-.2,0,0,0-.2.2-.2v.3ZM113,38.3c0,0,.2,0,.2.2,0,0,0,.2-.2.2,0,0,0,0,0,0v-.3ZM112.9,38.6c0,0-.2,0-.2-.2,0,0,0-.2.2-.2v.3ZM111.2,38.3c0,0,.2,0,.2.2,0,0,0,.2-.2.2,0,0,0,0,0,0v-.3ZM111.2,38.6c0,0-.2,0-.2-.2,0,0,0-.2.2-.2v.3ZM109.5,38.3c0,0,.2,0,.2.2,0,0,0,.2-.2.2v-.3ZM109.5,38.6c0,0-.2,0-.2-.2,0,0,0-.2.2-.2v.3ZM107.8,38.3c0,0,.2,0,.2.2,0,0,0,.2-.2.2v-.3ZM107.7,38.6c0,0-.2,0-.2-.2,0,0,0-.2.2-.2v.3ZM106,38.3c0,0,.2,0,.2.2,0,0,0,.2-.2.2v-.3ZM106,38.6c0,0-.2,0-.2-.2,0,0,0-.2.2-.2v.3ZM104.3,38.3c0,0,.2,0,.2.2,0,0,0,.2-.2.2v-.3ZM104.3,38.6c0,0-.2,0-.2-.2,0,0,0-.2.2-.2v.3ZM102.6,38.3c0,0,.2,0,.2.2,0,0,0,.2-.2.2,0,0,0,0,0,0v-.3ZM102.5,38.6c0,0-.2,0-.2-.2,0,0,0-.2.2-.2v.3ZM100.8,38.3c0,0,.2,0,.2.2,0,0,0,.2-.2.2v-.3ZM100.8,38.6c0,0-.2,0-.2-.2,0,0,0-.2.2-.2v.3ZM99.1,38.3c0,0,.2,0,.2.2,0,0,0,.2-.2.2v-.3ZM99,38.6c0,0-.2,0-.2-.2,0,0,0-.2.2-.2,0,0,0,0,0,0v.3ZM97.4,38.3c0,0,.2,0,.2.2,0,0,0,.2-.2.2,0,0,0,0,0,0v-.3ZM97.3,38.6c0,0-.2,0-.2-.2,0,0,0-.2.2-.2v.3ZM95.6,38.3c0,0,.2,0,.2.2,0,0,0,.2-.2.2,0,0,0,0,0,0v-.3ZM95.6,38.6c0,0-.2,0-.2-.2,0,0,0-.2.2-.2v.3ZM93.9,38.3c0,0,.2,0,.2.2,0,0,0,.2-.2.2,0,0,0,0,0,0v-.3ZM93.9,38.6c0,0-.2,0-.2-.2,0,0,0-.2.2-.2,0,0,0,0,0,0v.3ZM92.2,38.3c0,0,.2,0,.2.2,0,0,0,.2-.2.2v-.3ZM92.1,38.6c0,0-.2,0-.2-.2,0,0,0-.2.2-.2v.3ZM90.4,38.3c0,0,.2,0,.2.2,0,0,0,.2-.2.2,0,0,0,0,0,0v-.3ZM90.4,38.6c0,0-.2,0-.2-.2,0,0,0-.2.2-.2v.3ZM88.7,38.3c0,0,.2,0,.2.2,0,0,0,.2-.2.2v-.3ZM88.7,38.6c0,0-.2,0-.2-.2,0,0,0-.2.2-.2,0,0,0,0,0,0v.3ZM86.9,38.3c0,0,.2,0,.2.2,0,0,0,.2-.2.2v-.3ZM86.9,38.6c0,0-.2,0-.2-.2,0,0,0-.2.2-.2,0,0,0,0,0,0v.3ZM85.2,38.3c0,0,.2,0,.2.2,0,0,0,.2-.2.2,0,0,0,0,0,0v-.3ZM85.2,38.6c0,0-.2,0-.2-.2,0,0,0-.2.2-.2v.3ZM83.5,38.3c0,0,.2,0,.2.2,0,0,0,.2-.2.2v-.3ZM83.4,38.6c0,0-.2,0-.2-.2,0,0,0-.2.2-.2v.3ZM81.8,38.3c0,0,.2,0,.2.2,0,0,0,.2-.2.2,0,0,0,0,0,0v-.3ZM81.7,38.6c0,0-.2,0-.2-.2,0,0,0-.2.2-.2v.3ZM80,38.3c0,0,.2,0,.2.2,0,0,0,.2-.2.2v-.3ZM80,38.6c0,0-.2,0-.2-.2,0,0,0-.2.2-.2,0,0,0,0,0,0v.3ZM78.3,38.3c0,0,.2,0,.2.2,0,0,0,.2-.2.2,0,0,0,0,0,0v-.3ZM78.2,38.6c0,0-.2,0-.2-.2,0,0,0-.2.2-.2,0,0,0,0,0,0v.3ZM76.5,38.3c0,0,.2,0,.2.2,0,0,0,.2-.2.2v-.3ZM76.5,38.6c0,0-.2,0-.2-.2,0,0,0-.2.2-.2,0,0,0,0,0,0v.3ZM74.8,38.3c0,0,.2,0,.2.2,0,0,0,.2-.2.2v-.3ZM74.8,38.6c0,0-.2,0-.2-.2,0,0,0-.2.2-.2v.3ZM73.1,38.3c0,0,.2,0,.2.2,0,0,0,.2-.2.2v-.3ZM73.1,38.6c0,0-.2,0-.2-.2,0,0,0-.2.2-.2v.3ZM71.5,38.5c.1,0,.2,0,.2.1,0,0,0,.2,0,.2,0,0,0,0,0,0v-.3c-.1,0-.1,0-.1,0ZM71.5,38.9c-.1,0-.2,0-.2-.1,0-.1,0-.2.1-.2v.3ZM70,39.3c0,0,.2,0,.2,0s0,.2,0,.2l-.2-.3h0ZM70.2,39.5c0,0-.2,0-.2,0s0-.2,0-.2c0,0,0,0,0,0l.2.3ZM68.9,40.4c0,0,.2-.1.2,0,0,0,0,.2,0,.2,0,0,0,0,0,0l-.3-.2h0ZM69.1,40.6c0,0-.2,0-.2,0,0,0,0-.2,0-.2l.3.2ZM68.1,41.9c0-.1.1-.1.2-.1.1,0,.1.1.1.2h-.3ZM68.4,42c0,.1-.1.1-.2.1-.1,0-.1-.1-.1-.2h.3c0,.1,0,.1,0,.1ZM67.8,43.5c0,0,0-.2.2-.2,0,0,.2,0,.2.2h-.3ZM68.2,43.5c0,0,0,.2-.2.2,0,0-.2,0-.2-.2h.3ZM67.8,45.3c0,0,0-.2.2-.2,0,0,.2,0,.2.2,0,0,0,0,0,0h-.3ZM68.2,45.3c0,0,0,.2-.2.2,0,0-.2,0-.2-.2h.3ZM67.8,47c0,0,0-.2.2-.2,0,0,.2,0,.2.2,0,0,0,0,0,0h-.3ZM68.2,47.1c0,0,0,.2-.2.2,0,0-.2,0-.2-.2,0,0,0,0,0,0h.3ZM67.8,48.9c0,0,0-.2.2-.2,0,0,.2,0,.2.2,0,0,0,0,0,0h-.3ZM68.2,48.9c0,0,0,.2-.2.2,0,0-.2,0-.2-.2,0,0,0,0,0,0h.3ZM67.8,50.6c0,0,0-.2.2-.2,0,0,.2,0,.2.2,0,0,0,0,0,0h-.3ZM68.2,50.7c0,0,0,.2-.2.2,0,0-.2,0-.2-.2h.3ZM67.8,52.4c0,0,0-.2.2-.2,0,0,.2,0,.2.2h-.3ZM121.4,35h-.3c0,0,.3,0,.3,0ZM120.7,36.4h0l-.3-.2.3.2h0ZM119.5,37.6h0l-.2-.3.2.3ZM118,38.4h0v-.3c-.1,0,0,.3,0,.3ZM116.4,38.6h0ZM116.4,38.6h0ZM114.7,38.6h0v-.3h0v.3ZM113,38.6h0v-.3h0v.3ZM111.3,38.6h0v-.3h0v.3ZM109.5,38.6h0v-.3h0v.3ZM107.8,38.6h0v-.3h0v.3ZM106,38.6h0v-.3h0v.3ZM104.3,38.6h0v-.3h0v.3ZM102.6,38.6h0v-.3h0v.3ZM100.8,38.6h0v-.3h0v.3ZM99.1,38.6h0v-.3h0v.3ZM97.4,38.6h0v-.3h0v.3ZM95.6,38.6h0v-.3h0v.3ZM93.9,38.6h0v-.3h0v.3ZM92.2,38.6h0v-.3h0v.3ZM90.4,38.6h0v-.3h0v.3ZM88.7,38.6h0v-.3h0v.3ZM86.9,38.6h0v-.3h0v.3ZM85.2,38.6h0v-.3h0v.3ZM83.5,38.6h0v-.3h0v.3ZM81.8,38.6h0v-.3h0v.3ZM80,38.6h0v-.3h0v.3ZM78.3,38.6h0v-.3h0v.3ZM76.6,38.6h0v-.3h0v.3ZM74.8,38.6h0v-.3h0v.3ZM73.1,38.6h0ZM73.1,38.6h0ZM71.6,38.8h0v-.3c-.1,0,0,.3,0,.3ZM70.2,39.5h0l-.2-.3.2.3ZM69.1,40.6h0l-.3-.2.3.2ZM68.4,42h-.3c0,0,.3,0,.3,0h0ZM68.2,45.3h0s-.3,0-.3,0c0,0,.3,0,.3,0M68.2,47h0s-.3,0-.3,0c0,0,.3,0,.3,0M68.2,48.9h0s-.3,0-.3,0c0,0,.3,0,.3,0M68.2,50.6h0s-.3,0-.3,0c0,0,.3,0,.3,0Z"/>
        </g>
      </g>
    </g>
  </g>
</svg>