<?xml version="1.0" encoding="UTF-8"?>
<svg id="Layer_1" xmlns="http://www.w3.org/2000/svg" xmlns:xlink="http://www.w3.org/1999/xlink" version="1.1" viewBox="0 0 71.2 79.4">
  <defs>
    <style>
      .st0, .st1, .st2 {
        fill: none;
      }

      .st3 {
        stroke-width: .2px;
      }

      .st3, .st1, .st4, .st5 {
        stroke-miterlimit: 10;
      }

      .st3, .st1, .st4, .st5, .st6, .st2 {
        stroke: #000;
      }

      .st7 {
        fill: #d0102b;
      }

      .st8 {
        fill: #1a5b6e;
      }

      .st1 {
        stroke-width: 1.8px;
      }

      .st9 {
        fill: #6abcb8;
      }

      .st10, .st4, .st5, .st6 {
        fill: #fff;
      }

      .st4, .st6 {
        stroke-width: .9px;
      }

      .st5 {
        stroke-width: 1.5px;
      }

      .st11 {
        fill: #e27b48;
      }

      .st6 {
        stroke-linecap: round;
        stroke-linejoin: round;
      }

      .st12 {
        display: none;
      }

      .st2 {
        stroke-width: 19.7px;
      }
    </style>
  </defs>
  <g id="Layer_11" data-name="Layer_1" class="st12">
    <g id="Layer_1-2">
      <g>
        <path class="st0" d="M-810-240.4h-397c-32.7,0-59.3,26.5-59.3,59.2V56c0,32.7,26.6,59.2,59.2,59.2h397c32.7,0,59.2-26.6,59.2-59.2v-237.2c0-32.7-26.5-59.2-59.1-59.2h0Z"/>
        <path class="st9" d="M-810-260.2h-397c-43.5,0-79,35.4-79,79V56c0,43.5,35.4,79,79,79h229l-11.4-9.9h179.4v9.9c43.5,0,78.9-35.4,78.9-79v-237.2c0-43.5-35.4-79-78.9-79ZM-750.8,56c0,32.7-26.6,59.2-59.2,59.2h-397c-32.7,0-59.2-26.6-59.2-59.2v-237.2c0-32.7,26.6-59.2,59.2-59.2h397c32.7,0,59.2,26.6,59.2,59.2V56Z"/>
        <path class="st9" d="M-989.5,125.1l11.4,9.9h168v-9.9h-179.4Z"/>
      </g>
      <g>
        <path class="st0" d="M-277.7-354.9h-316.8c-32.7,0-59.2,26.6-59.2,59.2V-60.1c0,32.7,26.6,59.2,59.2,59.2h316.8c32.7,0,59.2-26.6,59.2-59.2v-235.6c0-32.7-26.5-59.2-59.2-59.2h0Z"/>
        <polygon class="st11" points="-584.8 176.3 -425.4 18.8 -590.8 18.8 -584.8 176.3"/>
        <path class="st11" d="M-277.7-374.7h-316.8c-43.5,0-79,35.4-79,79V-60.1c0,43.5,35.4,79,79,79h3.6l-.4-9.9h175.8l-10,9.9h147.7c43.5,0,79-35.4,79-79v-235.6c0-43.6-35.3-79-78.9-79h0ZM-218.4-60.1c0,32.7-26.6,59.2-59.2,59.2h-316.9c-32.7,0-59.2-26.6-59.2-59.2v-235.6c0-32.7,26.6-59.2,59.2-59.2h316.8c32.7,0,59.2,26.6,59.2,59.2V-60.1h.1Z"/>
        <polygon class="st11" points="-591.2 9 -590.8 18.8 -425.4 18.8 -415.4 9 -591.2 9"/>
      </g>
      <g>
        <path class="st0" d="M-122.3,232.6h-396.9c-32.7,0-59.2,26.6-59.2,59.2v235.6c0,32.7,26.6,59.2,59.2,59.2H-122.3c32.7,0,59.2-26.6,59.2-59.2v-235.5c0-32.7-26.5-59.3-59.2-59.3h0Z"/>
        <polygon class="st8" points="-509.5 763.9 -348.8 606.4 -514.2 606.4 -509.5 763.9"/>
        <path class="st8" d="M-122.3,212.9h-396.9c-43.5,0-79,35.4-79,79v235.6c0,43.5,35.4,79,79,79h5l-.3-9.9h175.8l-10.1,9.9H-122.3c43.5,0,79-35.4,79-79v-235.6c0-43.6-35.4-79-79-79ZM-63.1,527.5c0,32.7-26.6,59.2-59.2,59.2h-396.9c-32.7,0-59.2-26.6-59.2-59.2v-235.6c0-32.7,26.6-59.2,59.2-59.2H-122.3c32.7,0,59.2,26.6,59.2,59.2v235.6h0Z"/>
        <polygon class="st8" points="-514.5 596.6 -514.2 606.4 -348.8 606.4 -338.7 596.6 -514.5 596.6"/>
      </g>
      <path class="st7" d="M-740,296.2h-397c-43.5,0-79,35.4-79,79v237.2c0,43.5,35.4,79,79,79h230.3l167,157.2-3.9-157.2h3.6c43.5,0,79-35.4,79-79v-237.3c0-43.5-35.5-78.9-79-78.9h0ZM-680.8,612.3c0,32.7-26.6,59.2-59.2,59.2h-397c-32.7,0-59.2-26.6-59.2-59.2v-237.2c0-32.7,26.6-59.2,59.2-59.2h397c32.7,0,59.2,26.6,59.2,59.2v237.2Z"/>
    </g>
    <g id="frsmes" class="st12">
      <g id="AG-jetstream2">
        <path class="st2" d="M-1207-250.3h397c38.2,0,69.1,30.9,69.1,69.1V56c0,38.2-30.9,69.1-69.1,69.1h-397c-38.2,0-69.1-30.9-69.1-69.1v-237.2c0-38.1,30.9-69.1,69.1-69.1h0Z"/>
      </g>
      <g id="OOKAMII">
        <path class="st2" d="M-558.7-328.2H-161.8c38.2,0,69.1,30.9,69.1,69.1V-23.5c0,38.2-30.9,69.1-69.1,69.1h-396.9c-38.2,0-69.1-30.9-69.1-69.1v-235.6c0-38.2,31-69.1,69.1-69.1h0Z"/>
      </g>
      <g id="Pegasus_Affinity_Group">
        <path class="st2" d="M-519.2,222.8H-122.3c38.2,0,69.1,30.9,69.1,69.1v235.6c0,38.2-30.9,69.1-69.1,69.1h-396.9c-38.2,0-69.1-30.9-69.1-69.1v-235.6c0-38.2,30.9-69.1,69.1-69.1h0Z"/>
      </g>
      <g id="ACCESS_Tools-_OpenOndemand">
        <path class="st2" d="M-1137,306.1h397c38.2,0,69.1,30.9,69.1,69.1v237.2c0,38.2-30.9,69.1-69.1,69.1h-397c-38.2,0-69.1-30.9-69.1-69.1v-237.2c0-38.2,30.9-69.1,69.1-69.1Z"/>
      </g>
    </g>
  </g>
  <g id="Layer_2">
    <path class="st1" d="M10.6,4.8h24.2c2.9,0,5.3,2.4,5.3,5.3v13.8c0,2.9-2.4,5.3-5.3,5.3h-12.7v10.1c-.1,0-12.3-10.2-12.3-10.2-2.5-.4-4.5-2.6-4.5-5.2v-13.8c0-2.9,2.4-5.3,5.3-5.3Z"/>
    <path class="st1" d="M30.3,43.7H9.2c-2.9,0-5.3,2.4-5.3,5.3v13.8c0,2.9,2.4,5.3,5.3,5.3h9.7l12.3,10.1v-10.2c2.5-.4,4.5-2.6,4.5-5.2v-13.8c0-2.9-2.4-5.3-5.3-5.3h-.1Z"/>
    <path class="st1" d="M45.4,29.8h17.8c2.9,0,5.3,2.4,5.3,5.3v13.8c0,2.9-2.4,5.3-5.3,5.3h-6.3l-12.3,10.1v-10.2c-2.5-.4-4.5-2.6-4.5-5.2v-13.8c0-2.9,2.4-5.3,5.3-5.3Z"/>
    <path d="M20,59.4c-2.5,0-4.6-2.4-4.6-5.3s2.1-5.3,4.6-5.3,4.6,2.4,4.6,5.3-2.1,5.3-4.6,5.3ZM20,50.6c-1.7,0-3,1.5-3,3.5s1.3,3.4,3,3.4,3-1.5,3-3.4-1.4-3.5-3-3.5Z"/>
    <rect class="st5" x="15.3" y="54.6" width="9.3" height="7.6" rx="1.4" ry="1.4"/>
    <g>
      <path class="st4" d="M22.9,20.1c-.7.2-1.4.2-2.1,0-.6.7-1.2,1.4-1.8,2.1,0,.2.2.4.3.5.4,1-.2,2.1-1.2,2.2-.6.1-1.2,0-1.6-.6-.4-.5-.4-1.1-.1-1.7s.8-.9,1.4-.9.5,0,.8.1c.5-.6,1.1-1.3,1.7-2-.9-.6-1.3-1.5-1.4-2.5h-2.3c-.1.2-.2.4-.3.5-.4.6-1.1.9-1.8.7-.7-.2-1.1-.8-1.1-1.6s.5-1.3,1.2-1.5,1.3.1,1.7.8c.1.2.2.4.3.6h2.2c.2-.9.7-1.7,1.5-2.3-.1-.4-1.3-1.8-1.7-2.1-.5.3-1,.3-1.5.1-.3-.1-.6-.4-.8-.7-.4-.6-.2-1.5.3-2s1.4-.6,1.9-.2c.7.5.9,1.2.5,2.3.6.7,1.2,1.5,1.8,2.2.6-.2,1.3-.2,1.9,0,.7-.7,1.3-1.5,2-2.2,0-.2-.2-.3-.2-.5-.3-.9,0-1.8,1-2.1.9-.3,1.8.2,2,1.1.2.6,0,1.2-.4,1.6-.5.4-1,.6-1.6.4-.1,0-.2,0-.3-.1-.7.6-1.2,1.4-1.9,2.2.8.6,1.2,1.3,1.4,2.2h2.5c0-.2.1-.3.2-.5.4-.7,1.1-1,1.8-.8.7.2,1.2.8,1.2,1.6s-.5,1.4-1.2,1.6-1.5-.2-1.8-.9c0-.1-.1-.2-.2-.4h-2.5c-.2,1-.5,1.8-1.4,2.4.6.7,1.2,1.4,1.8,2.1.2,0,.4,0,.5-.1.8-.1,1.5.2,1.8.9.3.7,0,1.5-.5,1.9-.6.5-1.4.4-2,0-.5-.4-.7-1.2-.4-1.9,0-.1.1-.3.2-.5-.6-.7-1.2-1.4-1.9-2.2v.2ZM19.5,17.2c0,1.1.7,2.1,1.6,2.4,1.3.4,2.6-.3,3-1.6.4-1.3-.4-2.8-1.6-3.2-1.5-.4-3,.7-3,2.4ZM26,24.4c.6,0,1.1-.5,1.1-1.1s-.5-1.1-1.1-1.1-1.1.5-1.1,1.1.5,1.1,1,1.1h.1ZM28.8,18.2c.6,0,1.1-.5,1.1-1.1s-.5-1.1-1-1.1-1.1.5-1.1,1.1.5,1.1,1,1.1ZM18.9,23.4c0-.6-.5-1.1-1-1.1s-1.1.5-1.1,1.1.5,1.1,1.1,1.1,1.1-.5,1.1-1.1h-.1ZM25,11c0,.6.4,1.1,1,1.1s1.1-.4,1.1-1-.4-1.1-1-1.1-1,.5-1.1,1.1h0ZM16.7,11.1c0,.6.5,1,1.1,1s1-.5,1-1-.5-1.1-1.1-1.1-1.1.5-1.1,1.1h.1ZM16,17.1c0-.6-.5-1.1-1-1.1s-1,.5-1,1,.4,1.1,1,1.1,1.1-.4,1.1-1h-.1Z"/>
      <path class="st4" d="M22.9,17.2c0,.7-.5,1.2-1.1,1.2s-1.1-.5-1.1-1.2.5-1.2,1.1-1.2,1.2.6,1.2,1.3h-.1ZM21.3,17.2v.3c0,.2.2.4.5.4s.5-.1.5-.4v-.7c0-.2-.2-.3-.4-.3s-.4,0-.5.2c0,.1-.1.3-.2.4h.1Z"/>
      <path class="st6" d="M23,14.6c.2.2.3.3.5.5.5.5.8,1.1,1,1.7v.2h0c-.1,1.2-.6,2.1-1.7,2.7-.7.2-1.4.2-2.3,0l-.6-.6c-.4-.5-.6-1-.7-1.6,0-.6,0-1,.3-1.5.2-.6.7-1,1.2-1.3s1.1-.3,1.6-.2c.2,0,.4,0,.6.2.7-.8,1.4-1.7,2.2-2.5.2,0,.4.1.5.2.6.2,1.1,0,1.5-.5.3-.4.4-.9.2-1.4-.4-.8-1.2-.9-1.7-.7-.7.3-1,1.2-.7,1.9,0,.2.2.3.3.5"/>
      <path class="st6" d="M27.4,17.2c.1.3.2.6.4.8.5.6,1.4.6,1.9,0,.5-.5.5-.9.2-1.5-.2-.5-.7-.8-1.3-.7-.5,0-1,.4-1.1.8,0,.2-.1.4-.2.6"/>
      <path class="st6" d="M18.6,22.3c-1-.5-1.7-.1-2,.6s-.1,1.2.5,1.7c.4.3,1.1.2,1.5-.1.6-.5.6-1.3.2-1.9,0,0,0-.2-.1-.2"/>
      <path class="st6" d="M18.7,12c0-.1.2-.3.2-.4.2-.6,0-1.4-.7-1.8-.6-.3-1.5,0-1.8.7-.2.5,0,1.3.4,1.6.4.4,1.1.4,1.6,0h.2"/>
      <path class="st6" d="M16.4,17.1c0-.1-.1-.3-.2-.4-.2-.5-.7-1-1.4-.9-.6,0-1.1.6-1.2,1.2v.6c.3.9,1.5,1,2,.5.3-.3.4-.6.6-.9"/>
      <path class="st10" d="M21,17.2c0,.4.2.7.5.9.3.1.5,0,.7-.1.3-.2.3-.6.4-.9v-.3l-.5-.5c-.6-.1-.9.1-1.1.9"/>
      <path class="st6" d="M25.1,22.3c-.1.3-.3.5-.4.8-.2.9.4,1.6,1.3,1.6s.9-.2,1.2-.7c.3-.5.2-.9,0-1.4-.3-.5-.8-.8-1.6-.5h-.4"/>
      <path class="st6" d="M27.4,17.1h-2.8"/>
      <path class="st6" d="M16.5,17.1h2.6"/>
      <path class="st6" d="M18.7,12.1c.6.7,1.2,1.4,1.8,2.1.1.1.2.3.2.4"/>
      <path class="st6" d="M23,19.8c.7.8,1.4,1.6,2.1,2.4"/>
      <path class="st6" d="M20.6,19.8c-.4.5-.8,1-1.2,1.5-.2.3-.5.6-.7.9"/>
    </g>
    <circle cx="19.9" cy="58" r=".9"/>
    <rect x="19.4" y="58.3" width=".9" height="1.4" rx=".4" ry=".4"/>
    <path d="M9.6,55.5"/>
  </g>
  <path class="st3" d="M54.8,37.5c-1.7,0-3.3,1.1-3.8,2.7,0,.3-.4.4-.6.3-.3,0-.4-.4-.3-.6,0,0,0,0,0,0,.9-2.6,3.7-4,6.3-3.2,1.7.6,3,2,3.3,3.8,1.6.2,2.8,1.7,2.6,3.4-.2,1.5-1.5,2.6-3,2.6h-12.5c-.3,0-.5-.2-.5-.5s.2-.5.5-.5h12.5c1.1,0,2-.9,2-2,0-1.1-.9-2-2-2h0c-.3,0-.5-.2-.5-.4-.2-2-1.9-3.6-4-3.6M46.3,42c0-.3.2-.5.5-.5h7c.3,0,.5.2.5.5s-.2.5-.5.5h-7c-.3,0-.5-.2-.5-.5M46.3,44c0-.3.2-.5.5-.5h9c.3,0,.5.2.5.5s-.2.5-.5.5h-9c-.3,0-.5-.2-.5-.5"/>
</svg>
