<?xml version="1.0" encoding="UTF-8"?>
<svg id="Layer_1" xmlns="http://www.w3.org/2000/svg" xmlns:xlink="http://www.w3.org/1999/xlink" version="1.1" viewBox="0 0 396 326.8">
  <!-- Generator: Adobe Illustrator 29.3.1, SVG Export Plug-In . SVG Version: 2.1.0 Build 151)  -->
  <defs>
    <style>
      .st0, .st1, .st2 {
        fill: none;
      }

      .st3 {
        fill: #00837b;
      }

      .st4 {
        fill: #91d7f2;
      }

      .st1 {
        stroke-width: .5px;
      }

      .st1, .st2 {
        stroke: #302d44;
        stroke-linecap: round;
        stroke-miterlimit: 10;
      }

      .st2 {
        stroke-width: .6px;
      }

      .st5 {
        clip-path: url(#clippath-1);
      }

      .st6 {
        clip-path: url(#clippath-3);
      }

      .st7 {
        clip-path: url(#clippath-4);
      }

      .st8 {
        clip-path: url(#clippath-2);
      }

      .st9 {
        fill: #fff;
      }

      .st10 {
        fill: #686ea7;
      }

      .st11 {
        fill: #302d44;
      }

      .st12 {
        fill: #3391bf;
      }

      .st13 {
        clip-path: url(#clippath);
      }
    </style>
    <clipPath id="clippath">
      <rect class="st0" y="15.5" width="185.1" height="193.2"/>
    </clipPath>
    <clipPath id="clippath-1">
      <rect class="st0" y="16.3" width="185.1" height="192.1"/>
    </clipPath>
    <clipPath id="clippath-2">
      <rect class="st0" x="111.2" y="103.8" width="241.9" height="223"/>
    </clipPath>
    <clipPath id="clippath-3">
      <rect class="st0" x="143.1" y="220.7" width="2.2" height="5.6"/>
    </clipPath>
    <clipPath id="clippath-4">
      <rect class="st0" x="208.9" y="186.1" width="144" height="3.3"/>
    </clipPath>
  </defs>
  <g class="st13">
    <g id="handshake">
      <g class="st5">
        <g id="Group_1649">
          <g id="Group_1648">
            <path id="Path_9114" class="st12" d="M92.6,208.5C41.5,208.5,0,165.4,0,112.4S41.5,16.3,92.6,16.3s92.5,43,92.5,96-41.5,96-92.5,96h0Z"/>
            <path id="Path_9115" class="st9" d="M180.8,82.4h-43.6c-4.7,0-8.8,3.2-10.1,7.7l-11.2,38.5-9.3.6,4.7,6.4-.4,3.9,1.5.5-3.4,5.6,13.7,3.5s-5,15.3-3.8,15.1c.9,0,36.2,0,52,0,15-24.6,18.6-54.5,9.8-82h0Z"/>
            <path id="Path_9116" class="st2" d="M4.3,119.3h39.4c6,0,11.2,4.1,12.7,9.9l11.4,37.2M9.5,119.1l-2.6-48.1c-.1-2,.9-3.9,2.7-4.9l2.8-1.5h.7c.2.1.3.4.3.6h0c0,.4-.2.8-.6.9h-.5c-2-1.2-2.8-3.7-1.7-5.8.2-.4.5-.7.8-1l1.3-1.3c1-1,2.3-1.5,3.6-1.5h7.9c.3,0,.6.2.8.5.2.3.2.6,0,.9-.2.4-.7.6-1.2.4,0,0,0,0,0,0h-.2c-.2,0-.2-.2-.3-.4h0c-1.2-3.4.5-7.1,3.8-8.4h0c.9-.3,1.8-.4,2.7-.3,1.9.2,3.6,1.2,4.6,2.8.6.7,1,1.7,1,2.6l1,5.8c.3,1.7-.5,3.4-1.9,4.3l-8.2,5c-1.5.9-2.3,2.7-2.1,4.4l.5,4.3-1-.6c-.7-.4-1.5-.5-2.2-.2-.7.3-1.3,1-1.5,1.8-.6,1.8-.3,3.9.8,5.5.5.9.8,1.9.7,2.9l-1,6.9c-.1,1-1,1.8-2,1.8h-6.5"/>
            <path id="Path_9117" class="st2" d="M28.4,97.2l1.6,1.9c1.2,1.4,3,2.1,4.8,1.8h0c2.8-.6,4.6-3.3,4.1-6.1l-4.9-29.9M30.6,100l4.1,19.5M66.5,204.6l22.7-39.5-.2-1.6c-1-8.3-4.7-15.9-10.7-21.8l-12.1,19.8M42.2,141.7l12.7,58.4M91.5,151.6l-3.2,7.6M101.3,133.9l-2.6,5.7-3.3.2v-8.4c0-1.2.9-2.1,2-2.2l23.4-1M101.6,155.5h-9.7c-.7,0-1.3-.6-1.3-1.4,0-.7,0-.4.2-.6l2.5-5.7h12.6l-3,6.8c-.2.5-.7.8-1.2.8h0Z"/>
            <path id="Path_9118" class="st2" d="M100.7,135.4l11.3,4.5-6.6,12.8-1.5-.2M81.7,145.5l6.3-11c1.1-2,3.5-2.9,5.6-2l1.9.8M96.2,147.8l-2.9,7.6M99.3,147.8l-2.9,7.6M102.6,147.8l-2.9,7.6M108.8,146.1l13.7,2.9M106.3,128.8l3.4,5.6c.9,1.5,1.4,3.2,1.4,4.9M135.1,99.1l-27.3,108.1M115.6,128.4l11.4-38.9c1.2-4.3,5.1-7.3,9.6-7.4h43.5M171.2,82.1l-1.9-22.6M168.5,56.5l-.6-7.2c-.4-6.5-5.6-11.7-12.1-12.2h0c-3.8-.2-7.4,1.3-10,4.1-2.6,2.9-3.9,6.7-3.5,10.5l1.7,18c.3,3.9,3.5,7,7.4,7.1,3.9,0,5.5-1.7,6.7-4.4l.5-1M169,59.6h0c0,1.2,1.1,2.1,2.3,2h0c.5,0,1-.3,1.3-.7.3-.4.5-.9.5-1.4l-.4-3.9c-.1-1.4-1.4-2.5-2.8-2.4h0c-.9,0-1.6.9-1.5,1.8h0"/>
            <path id="Path_9119" class="st2" d="M149.5,38.4c-.1,7.5,5.9,13.7,13.4,13.9,7.4,0,3.6-.4,5.3-1.1"/>
            <path id="Path_9120" class="st2" d="M142.3,52.1c3.7-1,6.9-3.5,8.7-6.9M118.6,164.1h51.6M151.5,76.7l-1.8,5.4M143,58.2l-3.8,3.4c-2.4,2.1-3.5,5.3-2.9,8.4h0c.6,3.2-.6,6.4-3,8.5l-4.9,4.2c-1.5,1.3-1.9,3.5-.8,5.2M140.3,35.8c0-8.8-6.8-16.1-15.3-16.1-8.7.1-15.6,7.2-15.5,15.9,0,.8,0,1.7.2,2.5-4.6-3.6-11.3-2.8-14.9,1.9-.1.2-.3.3-.4.5-1.3,1.8-2,3.9-2.1,6.1-2-.6-4.2-.5-6.1.2-4.6,1.6-7.7,6-7.7,10.8v.5c.2,5.7,5,10.2,10.8,10,1.5,0,2.9-.4,4.2-1.1l4.6-2.3c1.6,4.2,5.6,7,10.1,7.1h5.6M106.9,62.6l20.1,26.9"/>
            <path id="Path_9121" class="st2" d="M109.2,61.4l14,12.8,2.6-21M110.1,57.5c.2,2.5-1.6,4.7-4.1,5,0,0,0,0,0,0-1.2,0-2.4-.4-3.3-1.2"/>
            <path id="Path_9122" class="st2" d="M139.2,47.2c-1.7,5.2-7.4,7.9-12.5,6.2,0,0-.2,0-.2,0-5.1-1.9-4.6-3.1-5.7-5.7M135,53.2l2.3,10.6"/>
          </g>
        </g>
      </g>
    </g>
  </g>
  <g id="green-computer">
    <path id="Path_9077" class="st3" d="M312.7,160.3c42,0,76.1-35.9,76.1-80.2S354.8,0,312.7,0s-76.1,35.9-76.1,80.2,34.1,80.2,76.1,80.2h0Z"/>
    <path id="Path_9078" class="st9" d="M252.2,129.7c20.6,28.5,56.7,39.1,88.4,26l-21.8-46.8c-1.9-4.3-6.2-7.1-10.9-7.1h-29.1l-24.9,22.7-1.8,5.1h0Z"/>
    <path id="Path_9079" class="st11" d="M295.9,83c-2.2,0-4.2-1.4-5.1-3.4v-.3c-.1-.1-.1-.3,0-.3h0c.1,0,.2,0,.3.1v.3c1,2.6,3.8,4,6.4,3.1,2.6-.9,4.1-3.6,3.5-6.3l-5-25.4c0-.1,0-.3.2-.3h0c.1,0,.3,0,.3.2h0l5,25.4c.5,2.9-1.2,5.8-4,6.7-.5.1-1.1.2-1.6.2Z"/>
    <path id="Path_9080" class="st9" d="M287.9,60.6l4.9,65.2c.5,4.6-2.8,8.7-7.4,9.2h-38c-3.5,0-6.9-1.5-9.3-4-5.4-5.8-5.1-14.8.7-20.2l3.2-2.9c2.9-2.7,4.5-6.5,4.5-10.4v-11c0-4.7,2.3-9.1,6.2-11.8l1.7-1.1c3.9-2.6,6.2-7.1,6.2-11.8v-6.9c0-6,3.7-11.4,9.5-13.3l16-5c.8-.3,1.7.2,1.9,1,0,0,0,0,0,.1,0,.3,0,.5,0,.8-.1.9-.9,1.5-1.8,1.4,0,0,0,0,0,0-.3,0-.6-.2-.8-.5l-3.6-3.7c-1.6-1.7-1.6-4.4,0-6.1.3-.3.6-.5,1-.7,3.8-2.2,8.6-1,11.1,2.6l4.9,6.9c2.2,3.1,2.1,7.4-.4,10.3-.8.9-1.7,1.7-2.8,2.2l-2.6,1.1c-3.3,1.5-5.3,5-5,8.6Z"/>
    <path id="Path_9081" class="st11" d="M284.8,135.3h-37.4c-7.4,0-13.4-6.4-13.4-14.2,0-4,1.6-7.8,4.5-10.6l3.2-2.9c2.8-2.6,4.4-6.4,4.4-10.2v-10.9c0-4.8,2.3-9.3,6.3-12l1.7-1.2c3.8-2.6,6.1-6.9,6.1-11.5v-6.9c-.1-6.1,3.8-11.6,9.6-13.5l13-4-1.3-1.4c-1.7-1.8-1.7-4.6,0-6.4.3-.3.6-.6,1-.8,3.9-2.2,8.9-1,11.4,2.7l4.9,6.9c2.3,3.2,2.1,7.5-.4,10.6-.8.9-1.8,1.7-2.9,2.2l-2.6,1.1c-3.2,1.5-5.2,4.8-4.9,8.3l4.9,65.2c.5,4.7-2.9,8.9-7.6,9.4h-.6ZM283.3,37.8l-13.2,4.1c-5.6,1.9-9.4,7.1-9.3,13.1v6.9c0,4.8-2.3,9.3-6.3,12l-1.7,1.1c-3.8,2.6-6.1,6.9-6.1,11.5v10.9c0,4-1.6,7.9-4.6,10.6l-3.2,2.9c-4.1,3.8-5.5,9.7-3.6,15,1.8,5.2,6.6,8.8,12.1,8.8h37.4c2.2,0,4.3-1,5.8-2.6,1.5-1.7,2.2-4,2-6.3l-4.9-65.2c-.3-3.7,1.7-7.3,5.1-8.9l2.6-1.1c3.3-1.5,5.2-5.2,4.5-8.7-.2-1.2-.7-2.3-1.4-3.2l-4.9-6.9c-2.4-3.5-7.1-4.6-10.8-2.5-1.9,1.1-2.6,3.5-1.5,5.5.2.3.4.6.6.9l1.5,1.6,2.4-.7c.6-.2,1.3,0,1.8.4.8.7.8,2,.1,2.8-.5.5-1.2.8-1.9.6-.3,0-.7-.3-.9-.5l-1.8-1.9h.2ZM283.8,37.6l1.6,1.7c.5.5,1.4.5,1.9,0,0,0,0,0,0,0,.4-.4.5-1,.3-1.5-.2-.7-.9-1.1-1.7-.9l-2.2.7h0Z"/>
    <path id="Path_9082" class="st11" d="M340.7,155c0,0-.2,0-.2-.1l-21.9-46.9c-1.8-4-5.7-6.7-10.1-6.7h-17.7c0,0,0-.1,0-.2,0,0,0-.1,0-.2,0,0,.1,0,.2,0h17.5c4.6,0,8.7,2.8,10.5,7.1l21.9,46.9c0,.1,0,.3-.1.3h-.1Z"/>
    <path id="Path_9083" class="st11" d="M297.6,101.1c-.1,0-.2,0-.3-.2l-4.1-18.7c0-.1,0-.3.2-.3h0c.1,0,.3,0,.3.2h0l4.1,18.7c0,.1,0,.2-.1.3h-.1ZM392.9,95.6h-81c-1.7,0-3.1-1.5-3.1-3.2,0,0,0,0,0-.1v-56.5c0-1.8,1.3-3.2,3.1-3.3h81c1.8,0,3.2,1.5,3.1,3.3v56.5c0,1.8-1.4,3.2-3.1,3.3h0ZM311.8,33c-1.5,0-2.6,1.2-2.6,2.7,0,0,0,0,0,0h0v56.5c0,1.5,1.1,2.7,2.6,2.8,0,0,0,0,0,0h81c1.5,0,2.6-1.2,2.6-2.7,0,0,0,0,0,0v-56.5c0-1.5-1.1-2.7-2.6-2.8,0,0,0,0,0,0h-81Z"/>
    <path id="Path_9084" class="st11" d="M391.3,92.5c-.1,0-.2-.1-.3-.3v-53.9c0-1.5-1.1-2.7-2.6-2.8,0,0,0,0,0,0h0c-.1,0-.3-.1-.2-.3,0-.1.1-.2.2-.2h0c1.8,0,3.2,1.5,3.1,3.3v53.9c0,.1-.1.3-.3.3ZM372.2,115.9h-43.3v-4.1h38l-4.1-16.4c0-.1,0-.2,0-.3h.3s.1,0,.1.1l4.2,17h-38.2v3h42.1l-5-19.9c0-.1,0-.3.2-.3.1,0,.3,0,.3.2l5.2,20.5h0Z"/>
    <path id="Path_9085" class="st11" d="M344.4,112.3c-.1,0-.2,0-.3-.2l-2.7-16.8h0c0-.2,0-.3.2-.3.1,0,.3,0,.3.2h0l2.7,16.8c0,.1,0,.3-.2.3h0ZM359.6,115.9c-.1,0-.2-.1-.3-.3h0v-3.6c0,0,0-.1,0-.2,0,0,.1,0,.2,0,.1,0,.3.1.3.3v3.6c0,.1-.1.3-.3.3h0ZM391.3,83h-82.3c-.1,0-.3-.1-.3-.3,0-.1,0-.2.1-.2h82.3c.1,0,.3.1.2.3,0,.1-.1.2-.2.2h0ZM381.9,114.1h-10.5c-.1,0-.3-.1-.2-.3,0-.1.1-.2.2-.2h10.5c.1,0,.3.1.2.3,0,.1-.1.2-.2.2h0ZM329.2,114.1h-7.3c-.1,0-.3-.1-.2-.3,0-.1.1-.2.2-.2h7.3c0,0,.1,0,.2,0,0,0,0,.1,0,.2,0,.1-.1.3-.3.3h0Z"/>
  </g>
  <g id="Group_1650">
    <g id="Group_1638">
      <g class="st8">
        <g id="Group_1637">
          <path id="Path_9086" class="st4" d="M236.5,326.8c47.3,0,85.5-38.5,85.4-85.8,0-47.3-38.5-85.5-85.8-85.4-47.2,0-85.4,38.4-85.4,85.6,0,47.3,38.5,85.6,85.8,85.6"/>
          <path id="Path_9087" class="st9" d="M264,263.3h55.3c-10.1,37.4-44.1,63.5-82.9,63.5-4.2,0-8.5-.3-12.6-1l26.9-54.4c1.2-2.4,3.1-4.5,5.4-5.9,2.3-1.4,5-2.2,7.7-2.2h0Z"/>
          <path id="Path_9088" class="st1" d="M319.8,263.3h-55.5c-5.5,0-10.5,3.1-13,8.1l-27.4,54.5M301.3,263l2.9-50.1c0-1-.2-2.1-.7-3-.5-.9-1.3-1.6-2.2-2.1l-3.1-1.6c-.2,0-.5,0-.7,0-.2.1-.3.4-.4.6,0,.3,0,.6.4.8.3.2.6.2.9,0,2.2-1.2,3-3.9,1.8-6.1,0,0,0,0,0,0-.2-.4-.5-.8-.8-1.1l-1.4-1.3c-1-1-2.4-1.6-3.9-1.6h-8.5c-.3,0-.7.2-.8.5-.2.3-.2.7,0,1,.2.5.8.7,1.2.4,0,0,.1,0,.2,0,.2-.1.4-.3.4-.5,1.3-3.6-.6-7.5-4.2-8.8-2.9-1-6.2,0-8,2.6-.6.8-1,1.7-1.1,2.7l-1.1,6.1c-.3,1.7.5,3.5,2,4.4l8.9,5.2c.8.5,1.4,1.1,1.8,1.9.4.8.6,1.7.4,2.6l-.5,4.5,1.1-.6c.7-.4,1.7-.5,2.5-.2.8.3,1.4,1,1.7,1.8.7,1.9.4,4-.9,5.6-.6.9-.9,1.9-.7,3l1.1,7.2c.2,1,1,1.8,2.1,1.8h7"/>
          <path id="Path_9089" class="st1" d="M280.8,240.2l-1.8,2c-1.3,1.5-3.3,2.2-5.3,1.8-1.4-.2-2.7-1.1-3.5-2.3-.8-1.2-1.1-2.6-.9-4l5.3-31.2M278.4,243.1l-4.4,20.4M146,257.6h92.3c1.5,0,2.7-1.2,2.7-2.7v-61.9c0-1.5-1.2-2.7-2.7-2.7h-92.3c-1.5,0-2.7,1.2-2.7,2.7v61.9c0,1.5,1.2,2.7,2.7,2.7ZM240.7,244.2h-92.4"/>
          <path id="Path_9090" class="st1" d="M158.3,193h-7.2c-.8,0-1.6.3-2.2.9-.6.6-.9,1.4-.9,2.2v58.3M170.3,276.8h-12.1M248.4,276.8h-30.3M175.3,257.3l-5.9,21.9h48.8v-4.4h-42.8l4.6-17.5M183.8,275v4.4M203.9,257.6l-2.6,17.4"/>
          <path id="Path_9091" class="st9" d="M195.7,215.9h-34.9l-4.6,4.3v-18.4c0-1.1.4-2.2,1.2-3,.8-.8,1.9-1.2,3-1.2h35.2c1.1,0,2.2.4,3,1.2.8.8,1.2,1.9,1.2,3v9.9c0,1.1-.4,2.2-1.2,3.1-.8.8-1.9,1.2-3.1,1.2h0Z"/>
          <path id="Path_9092" class="st1" d="M177.8,210.6v.6M175.2,204.5c0-1,.5-1.9,1.4-2.3.4-.2.9-.3,1.4-.3,1.4.1,2.4,1.4,2.3,2.8,0,0,0,0,0,0v.3c-.2,1-.9,1.7-1.8,1.9-.4.1-.6.5-.6.9v1.4"/>
          <path id="Path_9093" class="st1" d="M195.3,215.9h-34.9l-4.6,4.3v-18.4c0-1.1.4-2.2,1.2-3,.8-.8,1.9-1.2,3-1.2h35.2c1.1,0,2.2.4,3,1.2.8.8,1.2,1.9,1.2,3v9.9c0,.6-.1,1.1-.4,1.7-.4,1.1-1.2,1.9-2.3,2.3-.5.2-1.1.3-1.7.4h0ZM190,236.7h34.9l4.6,4.3v-18.4c0-1.7-1-3.3-2.6-3.9-.5-.2-1.1-.3-1.7-.4h-35.2c-1.7,0-3.3,1-3.9,2.6-.2.5-.3,1.1-.4,1.7v9.9c0,2.3,1.9,4.2,4.2,4.2,0,0,0,0,0,0h.2Z"/>
          <path id="Path_9094" class="st10" d="M237,326.8c47.3,0,85.5-38.5,85.4-85.8,0-47.3-38.5-85.5-85.8-85.4-47.2,0-85.4,38.4-85.4,85.6,0,47.3,38.5,85.6,85.8,85.6"/>
          <path id="Path_9095" class="st9" d="M265,263.3h55.3c-10.1,37.4-44.1,63.5-82.9,63.5-4.2,0-8.5-.3-12.6-1l26.9-54.4c1.2-2.4,3.1-4.5,5.4-5.9,2.3-1.4,5-2.2,7.7-2.2h0Z"/>
          <path id="Path_9096" class="st1" d="M319.8,263.3h-55.5c-5.5,0-10.5,3.1-13,8.1l-27.4,54.5M301.3,263l2.9-50.1c0-1-.2-2.1-.7-3-.5-.9-1.3-1.6-2.2-2.1l-3.1-1.6c-.2,0-.5,0-.7,0-.2.1-.3.4-.4.6,0,.3,0,.6.4.8.3.2.6.2.9,0,2.2-1.2,3-3.9,1.8-6.1,0,0,0,0,0,0-.2-.4-.5-.8-.8-1.1l-1.4-1.3c-1-1-2.4-1.6-3.9-1.6h-8.5c-.3,0-.7.2-.8.5-.2.3-.2.7,0,1,.2.5.8.7,1.2.4,0,0,.1,0,.2,0,.2-.1.4-.3.4-.5,1.3-3.6-.6-7.5-4.2-8.8-2.9-1-6.2,0-8,2.6-.6.8-1,1.7-1.1,2.7l-1.1,6.1c-.3,1.7.5,3.5,2,4.4l8.9,5.2c.8.5,1.4,1.1,1.8,1.9.4.8.6,1.7.4,2.6l-.5,4.5,1.1-.6c.7-.4,1.7-.5,2.5-.2.8.3,1.4,1,1.7,1.8.7,1.9.4,4-.9,5.6-.6.9-.9,1.9-.7,3l1.1,7.2c.2,1,1,1.8,2.1,1.8h7"/>
          <path id="Path_9097" class="st1" d="M280.8,240.2l-1.8,2c-1.3,1.5-3.3,2.2-5.3,1.8-1.4-.2-2.7-1.1-3.5-2.3-.8-1.2-1.1-2.6-.9-4l5.3-31.2M278.4,243.1l-4.4,20.4M146,257.6h92.3c1.5,0,2.7-1.2,2.7-2.7v-61.9c0-1.5-1.2-2.7-2.7-2.7h-92.3c-1.5,0-2.7,1.2-2.7,2.7v61.9c0,1.5,1.2,2.7,2.7,2.7ZM240.7,244.2h-92.4"/>
          <path id="Path_9098" class="st1" d="M158.3,193h-7.2c-.8,0-1.6.3-2.2.9-.6.6-.9,1.4-.9,2.2v58.3M170.3,276.8h-12.1M248.4,276.8h-30.3M175.3,257.3l-5.9,21.9h48.8v-4.4h-42.8l4.6-17.5M183.8,275v4.4M203.9,257.6l-2.6,17.4"/>
          <path id="Path_9099" class="st9" d="M195.7,237.8h-34.9l-4.6,4.3v-18.4c0-1.1.4-2.2,1.2-3,.8-.8,1.9-1.2,3-1.2h35.2c1.1,0,2.2.4,3,1.2.8.8,1.2,1.9,1.2,3v9.9c0,1.1-.4,2.2-1.2,3.1-.8.8-1.9,1.2-3.1,1.2h0Z"/>
          <path id="Path_9100" class="st1" d="M177.8,232.6v.6M175.2,226.4c0-1.4,1.1-2.6,2.6-2.6.6,0,1.1.2,1.6.5.8.6,1.1,1.6,1,2.5-.2,1-.9,1.7-1.8,1.9-.4.1-.6.5-.6.9v1.4"/>
          <path id="Path_9101" class="st1" d="M195.3,237.8h-34.9l-4.6,4.3v-18.4c0-1.1.4-2.2,1.2-3,.8-.8,1.9-1.2,3-1.2h35.2c1.1,0,2.2.4,3,1.2.8.8,1.2,1.9,1.2,3v9.9c0,.6-.1,1.1-.4,1.7-.4,1.1-1.2,1.9-2.3,2.3-.5.2-1.1.3-1.7.4h0Z"/>
        </g>
      </g>
    </g>
    <g id="Group_1640">
      <g class="st6">
        <g id="Group_1639">
          <path id="Path_9102" class="st11" d="M142.8,224.5c.2,0,.4-.2.4-.4,0-.2-.2-.4-.4-.4h0v.9ZM142.7,223.6c-.2,0-.4.2-.4.4,0,.2.2.4.4.4v-.9ZM138.3,224.5c.2,0,.4-.2.4-.4,0-.2-.2-.4-.4-.4h0v.9ZM138.2,223.6c-.2,0-.4.2-.4.4,0,.2.2.4.4.4v-.9ZM133.8,224.5c.2,0,.4-.2.4-.4,0-.2-.2-.4-.4-.4h0v.9ZM133.7,223.6c-.2,0-.4.2-.4.4,0,.2.2.4.4.4h0v-.9ZM129.3,224.5c.2,0,.4-.2.4-.4,0-.2-.2-.4-.4-.4v.9ZM129.2,223.6c-.2,0-.4.2-.4.4,0,.2.2.4.4.4h0v-.9ZM124.9,224.5c.2,0,.4-.2.4-.4,0-.2-.2-.4-.4-.4h0v.9ZM124.9,223.6c-.2,0-.4.2-.4.4,0,.2.2.4.4.4h0v-.9ZM120.7,223.9c.3,0,.4,0,.5-.3,0-.3,0-.4-.3-.5l-.3.9h0ZM120.9,223c-.3,0-.4,0-.5.3,0,.3,0,.4.3.5l.3-.8ZM116.9,221.9c.2.2.5.1.6,0,.2-.2.1-.5,0-.6,0,0,0,0,0,0l-.5.7ZM117.3,221.2c-.2-.1-.5,0-.6.1-.1.2,0,.4,0,.6l.5-.7ZM113.9,218.9c.2.2.4.2.6,0,.2-.1.2-.4,0-.6l-.7.5ZM114.5,218.3c-.1-.2-.4-.3-.6-.1-.2.1-.3.4-.1.6,0,0,0,0,0,0l.7-.5ZM111.9,215.1c0,.3.4.4.5.3.3,0,.4-.4.3-.5l-.8.3M112.7,214.7c0-.3-.4-.4-.5-.3-.3,0-.4.4-.3.5l.9-.3h0ZM111.2,210.9c0,.2.2.4.4.4.2,0,.4-.2.4-.4,0,0,0,0,0,0h-.9ZM112.1,210.8c0-.2-.2-.4-.4-.4,0,0,0,0,0,0-.2,0-.4.2-.4.4,0,0,0,0,0,0h.9ZM111.2,206.1c0,.2.2.4.4.4,0,0,0,0,0,0,.2,0,.4-.2.4-.4,0,0,0,0,0,0h-.9ZM112.1,206.1c0-.2-.2-.4-.4-.4,0,0,0,0,0,0-.2,0-.4.2-.4.4,0,0,0,0,0,0h.9ZM111.2,201.4c0,.2.2.4.4.4,0,0,0,0,0,0,.2,0,.4-.2.4-.4,0,0,0,0,0,0h-.9ZM112.1,201.3c0-.2-.2-.4-.4-.4,0,0,0,0,0,0-.2,0-.4.2-.4.4,0,0,0,0,0,0h.9ZM111.2,196.7c0,.2.2.4.4.4,0,0,0,0,0,0,.2,0,.4-.2.4-.4,0,0,0,0,0,0h-.9ZM112.1,196.6c0-.2-.2-.4-.4-.4,0,0,0,0,0,0-.2,0-.4.2-.4.4,0,0,0,0,0,0h.9ZM111.2,191.9c0,.2.2.4.4.4,0,0,0,0,0,0,.2,0,.4-.2.4-.4,0,0,0,0,0,0h-.9ZM112.1,191.8c0-.2-.2-.4-.4-.4,0,0,0,0,0,0-.2,0-.4.2-.4.4,0,0,0,0,0,0h.9ZM111.2,187.2c0,.2.2.4.4.4,0,0,0,0,0,0,.2,0,.4-.2.4-.4,0,0,0,0,0,0h-.9ZM112.1,187.1c0-.2-.2-.4-.4-.4,0,0,0,0,0,0-.2,0-.4.2-.4.4,0,0,0,0,0,0h.9ZM111.2,182.4c0,.2.2.4.4.4,0,0,0,0,0,0,.2,0,.4-.2.4-.4,0,0,0,0,0,0h-.9ZM112.1,182.4c0-.2-.2-.4-.4-.4,0,0,0,0,0,0-.2,0-.4.2-.4.4,0,0,0,0,0,0h.9ZM111.2,177.7c0,.2.2.4.4.4,0,0,0,0,0,0,.2,0,.4-.2.4-.4,0,0,0,0,0,0h-.9ZM112.1,177.6c0-.2-.2-.4-.4-.4,0,0,0,0,0,0-.2,0-.4.2-.4.4,0,0,0,0,0,0h.9ZM111.2,173c0,.2.2.4.4.4,0,0,0,0,0,0,.2,0,.4-.2.4-.4,0,0,0,0,0,0h-.9ZM112.1,172.9c0-.2-.2-.4-.4-.4,0,0,0,0,0,0-.2,0-.4.2-.4.4,0,0,0,0,0,0h.9ZM111.9,168.7c0,.3,0,.4.3.5.3,0,.4,0,.5-.3l-.9-.3h0ZM112.7,168.9c0-.3,0-.4-.3-.5-.3,0-.4,0-.5.3l.8.3M113.8,165c-.2.2,0,.4,0,.6.2.2.4,0,.6,0l-.7-.5h0ZM114.6,165.4c.2-.2,0-.4,0-.6-.2-.1-.4,0-.6,0l.7.5ZM116.9,161.9c-.2.2-.3.4,0,.6.1.2.4.2.6,0,0,0,0,0,0,0l-.5-.7h0ZM117.4,162.6c.2-.2.2-.4,0-.6-.1-.2-.4-.2-.6,0l.5.7ZM120.6,160c-.3,0-.4.4-.3.5,0,.3.4.4.5.3l-.3-.8ZM121,160.8c.3,0,.4-.4.3-.5,0-.3-.4-.4-.5-.3l.3.9h0ZM124.8,159.3c-.2,0-.4.2-.4.4,0,.2.2.4.4.4h0v-.9ZM124.9,160.1c.2,0,.4-.2.4-.4,0-.2-.2-.4-.4-.4h0v.9ZM129.8,159.3c-.2,0-.4.2-.4.4,0,.2.2.4.4.4h0v-.9ZM129.9,160.1c.2,0,.4-.2.4-.4,0-.2-.2-.4-.4-.4h0v.9ZM134.8,159.3c-.2,0-.4.2-.4.4,0,.2.2.4.4.4h0v-.9ZM134.9,160.1c.2,0,.4-.2.4-.4,0-.2-.2-.4-.4-.4h0v.9ZM139.7,159.3c-.2,0-.4.2-.4.4,0,.2.2.4.4.4h0v-.9ZM139.8,160.1c.2,0,.4-.2.4-.4,0-.2-.2-.4-.4-.4h0v.9ZM143.6,158.6c-.3,0-.4.4-.3.5,0,.3.4.4.5.3l-.3-.9h0ZM144,159.5c.3,0,.4-.4.3-.5,0-.3-.4-.4-.5-.3l.3.9h0ZM147.2,156.9c-.2.1-.3.4-.1.6.1.2.4.3.6.1,0,0,0,0,0,0l-.5-.7ZM147.8,157.6c.2-.2.3-.4,0-.6-.1-.2-.4-.2-.6,0,0,0,0,0,0,0l.5.7h0ZM150,154.1c-.2.2-.1.5,0,.6.2.2.5.1.6,0,0,0,0,0,0,0l-.7-.5ZM150.8,154.5c.2-.2,0-.4,0-.6s-.4,0-.6,0l.7.5h0ZM151.9,150.6c0,.3,0,.4.3.5.3,0,.4,0,.5-.3l-.9-.3h0ZM152.8,150.7c0-.3,0-.4-.3-.5-.2,0-.4,0-.5.2,0,0,0,0,0,0l.9.3h0ZM152.5,146.6c0,.2.2.4.4.4.2,0,.4-.2.4-.4h0s-.9,0-.9,0ZM153.4,146.5c0-.2-.2-.4-.4-.4-.2,0-.4.2-.4.4h.9ZM152.5,142.3c0,.2.2.4.4.4.2,0,.4-.2.4-.4h-.9ZM153.4,142.2c0-.2-.2-.4-.4-.4-.2,0-.4.2-.4.4h0s.9,0,.9,0ZM152.5,138c0,.2.2.4.4.4.2,0,.4-.2.4-.4h0s-.9,0-.9,0ZM153.4,138c0-.2-.2-.4-.4-.4-.2,0-.4.2-.4.4h0s.9,0,.9,0ZM152.5,133.8c0,.2.2.4.4.4.2,0,.4-.2.4-.4h0s-.9,0-.9,0ZM153.4,133.7c0-.2-.2-.4-.4-.4-.2,0-.4.2-.4.4h0s.9,0,.9,0ZM152.5,129.5c0,.2.2.4.4.4.2,0,.4-.2.4-.4h0s-.9,0-.9,0ZM153.4,129.4c0-.2-.2-.4-.4-.4-.2,0-.4.2-.4.4h0s.9,0,.9,0ZM152.5,125.2c0,.2.2.4.4.4.2,0,.4-.2.4-.4h0s-.9,0-.9,0ZM153.4,125.1c0-.2-.2-.4-.4-.4-.2,0-.4.2-.4.4h0s.9,0,.9,0ZM152.5,120.9c0,.2.2.4.4.4.2,0,.4-.2.4-.4h0s-.9,0-.9,0ZM153.4,120.8c0-.2-.2-.4-.4-.4-.2,0-.4.2-.4.4h0s.9,0,.9,0ZM152.5,116.7c0,.2.2.4.4.4.2,0,.4-.2.4-.4h0s-.9,0-.9,0ZM153.4,116.6c0-.2-.2-.4-.4-.4-.2,0-.4.2-.4.4h0s.9,0,.9,0ZM152.5,112.4c0,.2.2.4.4.4.2,0,.4-.2.4-.4h0s-.9,0-.9,0ZM153.4,112.3c0-.2-.2-.4-.4-.4-.2,0-.4.2-.4.4h0s.9,0,.9,0ZM152.5,108.1c0,.2.2.4.4.4.2,0,.4-.2.4-.4h0s-.9,0-.9,0ZM153.4,108c0-.2-.2-.4-.4-.4-.2,0-.4.2-.4.4h0s.9,0,.9,0ZM152.5,103.8c0,.2.2.4.4.4.2,0,.4-.2.4-.4h0s-.9,0-.9,0ZM142.8,223.6h0ZM138.3,223.6h0ZM133.8,223.6h0ZM129.3,223.6h0ZM124.8,223.6h0ZM124.8,223.6h0ZM121,223h0l-.3.8.3-.8ZM117.4,221.2h0l-.5.7.5-.7ZM114.6,218.4h0l-.7.5.7-.4h0ZM112.7,214.8h0l-.9.2.8-.2h0ZM112.1,206.1h0c0,0-.9,0-.9,0,0,0,.9,0,.9,0M112.1,201.4h0c0,0-.9,0-.9,0,0,0,.9,0,.9,0M112.1,196.7h0c0,0-.9,0-.9,0,0,0,.9,0,.9,0M112.1,191.9h0c0,0-.9,0-.9,0,0,0,.9,0,.9,0M112.1,187.2h0c0,0-.9,0-.9,0,0,0,.9,0,.9,0M112.1,182.4h0c0,0-.9,0-.9,0,0,0,.9,0,.9,0M112.1,177.7h0c0,0-.9,0-.9,0,0,0,.9,0,.9,0ZM112.7,169h0l-.8-.4.9.4h0ZM114.5,165.4h0l-.7-.6.7.5h0ZM117.3,162.6h0l-.5-.8.5.8ZM120.9,160.8h0l-.3-.9.3.9ZM124.8,160.1h0ZM124.8,160.1h0ZM129.8,160.1h0v-.9h0v.9ZM134.8,160.1h0v-.9h0v.9ZM139.7,160.1h0ZM139.8,160.1h0ZM143.9,159.5h0l-.3-.9.3.9ZM147.8,157.6h0l-.5-.8.5.8ZM150.7,154.6h0l-.7-.5.7.5ZM152.7,150.8h0l-.9-.4.9.4Z"/>
        </g>
      </g>
    </g>
    <g id="Group_1642">
      <g class="st7">
        <g id="Group_1641">
          <path id="Path_9103" class="st11" d="M350,109.5c0-.2.2-.4.4-.4s.4.2.4.4h-.9ZM224,153.2h0ZM337.3,153.2h0ZM350.9,109.5c0,.2-.2.4-.4.4s-.4-.2-.4-.4h.9ZM350,113.8c0-.2.2-.4.4-.4s.4.2.4.4h-.9ZM350.9,113.9c0,.2-.2.4-.4.4s-.4-.2-.4-.4h.9ZM350,118.2c0-.2.2-.4.4-.4s.4.2.4.4h-.9ZM350.9,118.3c0,.2-.2.4-.4.4s-.4-.2-.4-.4h.9ZM350,122.6c0-.2.2-.4.4-.4s.4.2.4.4h-.9ZM350.9,122.7c0,.2-.2.4-.4.4s-.4-.2-.4-.4h.9ZM350,127c0-.2.2-.4.4-.4s.4.2.4.4h-.9ZM350.9,127c0,.2-.2.4-.4.4s-.4-.2-.4-.4h.9ZM350,131.3c0-.2.2-.4.4-.4s.4.2.4.4h-.9ZM350.9,131.3c0,.2-.2.4-.4.4s-.4-.2-.4-.4h.9ZM350,135.6c0-.2.2-.4.4-.4s.4.2.4.4h-.9ZM350.9,135.7c0,.2-.2.4-.4.4s-.4-.2-.4-.4h.9ZM350,140c0-.2.2-.4.4-.4s.4.2.4.4h-.9ZM350.9,140.1c0,.2-.2.4-.4.4s-.4-.2-.4-.4h.9ZM349.4,144c0-.3.4-.4.5-.3.3,0,.4.4.3.5l-.9-.3h0ZM350.2,144.3c0,.3-.4.4-.5.3-.3,0-.4-.4-.3-.5l.9.3h0ZM347.6,147.5c.2-.2.4-.2.6,0,.2.1.2.4,0,.6l-.7-.5ZM348.3,148.1c-.2.2-.4.2-.6,0-.2-.1-.2-.4,0-.6l.7.5ZM344.8,150.3c.2-.1.5,0,.6.1.1.2,0,.4,0,.6l-.5-.7ZM345.3,151.1c-.2.1-.5,0-.6-.1-.1-.2,0-.4,0-.6l.5.7ZM341.2,152.1c.3,0,.4,0,.5.3,0,.3,0,.4-.3.5l-.3-.9h0ZM341.4,153c-.3,0-.4,0-.5-.3,0-.2,0-.4.2-.5,0,0,0,0,0,0l.3.9h0ZM337.3,152.8c.2,0,.4.2.4.4,0,.2-.2.4-.4.4v-.9ZM337.2,153.6c-.2,0-.4-.2-.4-.4,0-.2.2-.4.4-.4h0v.9ZM332.8,152.8c.2,0,.4.2.4.4,0,.2-.2.4-.4.4h0v-.9ZM332.7,153.6c-.2,0-.4-.2-.4-.4,0-.2.2-.4.4-.4v.9ZM328.2,152.8c.2,0,.4.2.4.4,0,.2-.2.4-.4.4h0v-.9ZM328.2,153.6c-.2,0-.4-.2-.4-.4,0-.2.2-.4.4-.4h0v.9ZM323.8,152.8c.2,0,.4.2.4.4,0,.2-.2.4-.4.4h0v-.9ZM323.7,153.6c-.2,0-.4-.2-.4-.4,0-.2.2-.4.4-.4v.9ZM319.2,152.8c.2,0,.4.2.4.4,0,.2-.2.4-.4.4h0v-.9ZM319.1,153.6c-.2,0-.4-.2-.4-.4,0-.2.2-.4.4-.4v.9ZM314.7,152.8c.2,0,.4.2.4.4,0,.2-.2.4-.4.4v-.9ZM314.6,153.6c-.2,0-.4-.2-.4-.4,0-.2.2-.4.4-.4v.9ZM310.2,152.8c.2,0,.4.2.4.4,0,.2-.2.4-.4.4v-.9ZM310.1,153.6c-.2,0-.4-.2-.4-.4,0-.2.2-.4.4-.4v.9ZM305.6,152.8c.2,0,.4.2.4.4,0,.2-.2.4-.4.4v-.9ZM305.5,153.6c-.2,0-.4-.2-.4-.4,0-.2.2-.4.4-.4h0v.9ZM301.1,152.8c.2,0,.4.2.4.4,0,.2-.2.4-.4.4h0v-.9ZM301,153.6c-.2,0-.4-.2-.4-.4,0-.2.2-.4.4-.4v.9ZM296.6,152.8c.2,0,.4.2.4.4,0,.2-.2.4-.4.4h0v-.9ZM296.5,153.6c-.2,0-.4-.2-.4-.4,0-.2.2-.4.4-.4v.9ZM292.1,152.8c.2,0,.4.2.4.4,0,.2-.2.4-.4.4v-.9ZM291.9,153.6c-.2,0-.4-.2-.4-.4,0-.2.2-.4.4-.4h0v.9ZM287.5,152.8c.2,0,.4.2.4.4,0,.2-.2.4-.4.4h0v-.9ZM287.4,153.6c-.2,0-.4-.2-.4-.4,0-.2.2-.4.4-.4v.9ZM283,152.8c.2,0,.4.2.4.4,0,.2-.2.4-.4.4h0v-.9ZM282.9,153.6c-.2,0-.4-.2-.4-.4,0-.2.2-.4.4-.4h0v.9ZM278.5,152.8c.2,0,.4.2.4.4,0,.2-.2.4-.4.4h0v-.9ZM278.4,153.6c-.2,0-.4-.2-.4-.4,0-.2.2-.4.4-.4h0v.9ZM273.9,152.8c.2,0,.4.2.4.4,0,.2-.2.4-.4.4v-.9ZM273.8,153.6c-.2,0-.4-.2-.4-.4,0-.2.2-.4.4-.4v.9ZM269.4,152.8c.2,0,.4.2.4.4,0,.2-.2.4-.4.4h0v-.9ZM269.3,153.6c-.2,0-.4-.2-.4-.4,0-.2.2-.4.4-.4v.9ZM264.9,152.8c.2,0,.4.2.4.4,0,.2-.2.4-.4.4v-.9ZM264.8,153.6c-.2,0-.4-.2-.4-.4,0-.2.2-.4.4-.4h0v.9ZM260.3,152.8c.2,0,.4.2.4.4,0,.2-.2.4-.4.4v-.9ZM260.2,153.6c-.2,0-.4-.2-.4-.4,0-.2.2-.4.4-.4h0v.9ZM255.8,152.8c.2,0,.4.2.4.4,0,.2-.2.4-.4.4h0v-.9ZM255.7,153.6c-.2,0-.4-.2-.4-.4,0-.2.2-.4.4-.4v.9ZM251.3,152.8c.2,0,.4.2.4.4,0,.2-.2.4-.4.4h0v-.9ZM251.2,153.6c-.2,0-.4-.2-.4-.4,0-.2.2-.4.4-.4h0v.9ZM246.8,152.8c.2,0,.4.2.4.4,0,.2-.2.4-.4.4h0v-.9ZM246.6,153.6c-.2,0-.4-.2-.4-.4,0-.2.2-.4.4-.4v.9ZM242.2,152.8c.2,0,.4.2.4.4,0,.2-.2.4-.4.4h0v-.9ZM242.1,153.6c-.2,0-.4-.2-.4-.4,0-.2.2-.4.4-.4h0v.9ZM237.7,152.8c.2,0,.4.2.4.4,0,.2-.2.4-.4.4h0v-.9ZM237.6,153.6c-.2,0-.4-.2-.4-.4,0-.2.2-.4.4-.4h0v.9ZM233.2,152.8c.2,0,.4.2.4.4,0,.2-.2.4-.4.4v-.9ZM233.1,153.6c-.2,0-.4-.2-.4-.4,0-.2.2-.4.4-.4h0v.9ZM228.6,152.8c.2,0,.4.2.4.4,0,.2-.2.4-.4.4v-.9ZM228.5,153.6c-.2,0-.4-.2-.4-.4,0-.2.2-.4.4-.4v.9ZM224.1,152.8c.2,0,.4.2.4.4,0,.2-.2.4-.4.4h0v-.9ZM224,153.6c-.2,0-.4-.2-.4-.4,0-.2.2-.4.4-.4h0v.9ZM219.9,153.5c.3,0,.4,0,.5.3,0,.2,0,.4-.2.5,0,0,0,0,0,0l-.3-.9h0ZM220.1,154.3c-.3,0-.4,0-.5-.3,0-.3,0-.4.3-.5l.3.8ZM216.1,155.4c.2-.2.4,0,.6,0s0,.4,0,.6l-.5-.7h0ZM216.5,156.1c-.2.1-.5,0-.6-.1-.1-.2,0-.4,0-.6l.5.7ZM213.1,158.4c.2-.2.4-.3.6,0,.2.1.2.4,0,.6,0,0,0,0,0,0l-.7-.5h0ZM213.7,158.9c-.2.2-.4.2-.6,0-.2-.1-.2-.4,0-.6l.7.5ZM211.1,162.2c0-.3.4-.4.5-.3.3,0,.4.4.3.5l-.8-.3ZM211.9,162.5c0,.3-.4.4-.5.3-.3,0-.4-.4-.3-.5l.9.3h0ZM210.4,166.4c0-.2.2-.4.4-.4.2,0,.4.2.4.4h-.9ZM211.3,166.5c0,.2-.2.4-.4.4-.2,0-.4-.2-.4-.4h.9ZM210.4,171c0-.2.2-.4.4-.4.2,0,.4.2.4.4h-.9ZM211.3,171.1c0,.2-.2.4-.4.4-.2,0-.4-.2-.4-.4h.9ZM210.4,175.7c0-.2.2-.4.4-.4.2,0,.4.2.4.4h-.9ZM211.3,175.9c0,.2-.2.4-.4.4-.2,0-.4-.2-.4-.4h.9ZM210.4,180.4c0-.2.2-.4.4-.4.2,0,.4.2.4.4h0s-.9,0-.9,0ZM211.3,180.5c0,.2-.2.4-.4.4-.2,0-.4-.2-.4-.4h.9ZM210.4,185.1c0-.2.2-.4.4-.4.2,0,.4.2.4.4h-.9ZM211.3,185.2c0,.2-.2.4-.4.4-.2,0-.4-.2-.4-.4h.9ZM210.4,189.7c0-.2.2-.4.4-.4.2,0,.4.2.4.4h-.9ZM350.3,144.2h0l-.9-.2.9.2ZM348.4,148h0l-.7-.5.7.4h0ZM345.3,151h0l-.5-.7.5.7ZM341.5,153h0l-.3-.8.3.8ZM337.3,153.6h0ZM337.3,153.6h0ZM332.8,153.6h0v-.9h0v.9ZM328.2,153.6h0v-.9h0v.9ZM323.8,153.6h0v-.9h0v.9ZM319.2,153.6h0v-.9h0v.9ZM314.7,153.6h0v-.9h0v.9ZM310.2,153.6h0v-.9h0v.9ZM305.6,153.6h0v-.9h0v.9ZM301.1,153.6h0v-.9h0v.9ZM296.6,153.6h0v-.9h0v.9ZM292.1,153.6h0v-.9h0v.9ZM287.5,153.6h0v-.9h0v.9ZM282.9,153.6h0v-.9h0v.9ZM278.5,153.6h0v-.9h0v.9ZM273.9,153.6h0v-.9h0v.9ZM269.4,153.6h0v-.9h0v.9ZM264.9,153.6h0v-.9h0v.9ZM260.3,153.6h0v-.9h0v.9ZM255.8,153.6h0v-.9h0v.9ZM251.3,153.6h0v-.9h0v.9ZM246.8,153.6h0v-.9h0v.9ZM242.2,153.6h0v-.9h0v.9ZM237.7,153.6h0v-.9h0v.9ZM233.2,153.6h0v-.9h0v.9ZM228.6,153.6h0v-.9h0v.9ZM224.1,153.6h0ZM224,153.6h0ZM220.2,154.3h0l-.3-.8.3.8ZM216.6,156.1h0l-.5-.7.5.7ZM213.8,158.9h0l-.7-.4.7.4ZM211.9,162.4h0l-.9-.2.8.2h0ZM211.3,171h0c0,0-.9,0-.9,0,0,0,.9,0,.9,0M211.3,175.7h0c0,0-.9,0-.9,0,0,0,.9,0,.9,0M211.3,180.4h0c0,0-.9,0-.9,0,0,0,.9,0,.9,0M211.3,185.1h0c0,0-.9,0-.9,0,0,0,.9,0,.9,0Z"/>
        </g>
      </g>
    </g>
  </g>
</svg>