<?xml version="1.0" encoding="UTF-8"?>
<svg id="Layer_1" xmlns="http://www.w3.org/2000/svg" version="1.1" viewBox="0 0 71.2 79.4">
  <path d="M35.7,49.4c-1.6,0-3.3-.2-4.9-.5-.4,0-.7-.5-.6-.9,0-.4.5-.7.9-.6,1.5.3,3,.4,4.6.4,6.4,0,12.3-2.5,16.7-7.1.3-.3.8-.3,1.1,0,.3.3.3.8,0,1.1-4.7,4.9-11,7.6-17.8,7.6ZM27.2,47.8c0,0-.2,0-.3,0-7.8-3-13.7-9.9-15.4-18.1,0-.4.2-.8.6-.9.4,0,.8.2.9.6,1.6,7.7,7.1,14.2,14.4,17,.4.1.6.6.4,1-.1.3-.4.5-.7.5ZM55.5,39c-.1,0-.3,0-.4-.1-.3-.2-.4-.7-.2-1,2.6-3.9,4-8.4,4-13.1,0-3.1-.6-6.2-1.8-9.1-.2-.4,0-.8.4-1,.4-.2.8,0,1,.4,1.3,3.1,2,6.3,2,9.7,0,5-1.5,9.8-4.3,13.9-.1.2-.4.3-.6.3ZM11.8,26.4c-.4,0-.7-.3-.7-.7,0-.3,0-.6,0-.9,0-8.1,4-15.7,10.6-20.3.3-.2.8-.2,1,.2.2.3.2.8-.2,1-6.2,4.3-10,11.5-10,19.1,0,.3,0,.6,0,.9,0,.4-.3.8-.7.8h0ZM55.9,12.6c-.2,0-.5-.1-.6-.3-4.3-6.7-11.6-10.7-19.5-10.7s-6.8.7-9.9,2.2c-.4.2-.8,0-1-.4-.2-.4,0-.8.4-1,3.3-1.6,6.8-2.3,10.5-2.3,8.5,0,16.2,4.3,20.8,11.4.2.3.1.8-.2,1-.1,0-.3.1-.4.1Z"/>
  <path d="M35.7,19.6c-1.6,0-3.2-.6-4.5-1.6-.3-.3-.4-.7-.1-1.1.3-.3.7-.4,1.1-.1,1,.8,2.2,1.3,3.5,1.3,3,0,5.5-2.5,5.5-5.5s-2.5-5.5-5.5-5.5-5.5,2.5-5.5,5.5c0,.5,0,.9.2,1.3,0,.4-.1.8-.5.9-.4,0-.8-.1-.9-.5-.1-.5-.2-1.1-.2-1.7,0-3.9,3.1-7,7-7s7,3.1,7,7-3.1,7-7,7Z"/>
  <path d="M47.2,38.8h-23.9c-.4,0-.7-.3-.7-.8h0c0-.5.3-.9.7-.9s.3,0,.4.1h23.5c.4,0,.7.3.7.8s-.3.8-.7.8ZM47.8,35.4c-.4,0-.7-.3-.7-.8v-3.4l-6.7-6.7h-9.6l-6.7,6.7v2.7c0,.4-.3.8-.7.8s-.7-.3-.7-.8v-3c0-.2,0-.4.2-.5l7.1-7.1c.1-.1.3-.2.5-.2h10.3c.2,0,.4,0,.5.2l7.1,7.1c.1.1.2.3.2.5v3.7c0,.4-.3.8-.7.8Z"/>
  <path d="M39.7,38.8h-8.3c-.4,0-.7-.3-.7-.8v-7.6c0-.4.3-.8.7-.8s.7.3.7.8v6.9h6.8v-6.9c0-.4.3-.8.7-.8s.7.3.7.8v7.6c0,.4-.3.8-.7.8Z"/>
  <path d="M10.8,79.4h0c-6,0-10.8-4.9-10.8-10.8s.4-3.3,1.1-4.8c.2-.4.6-.5,1-.3.4.2.5.6.3,1-.6,1.3-.9,2.7-.9,4.1,0,5.1,4.2,9.3,9.3,9.3h0c1.1,0,2.2-.2,3.3-.6.4-.1.8,0,1,.4s0,.8-.4,1c-1.2.5-2.5.7-3.8.7ZM17.7,76.6c-.2,0-.4,0-.5-.2-.3-.3-.3-.8,0-1.1,1.9-1.8,2.9-4.2,2.9-6.8,0-5.1-4.2-9.3-9.3-9.3s-4.4.8-6.1,2.3c-.3.3-.8.2-1.1,0-.3-.3-.2-.8,0-1.1,2-1.7,4.5-2.7,7.1-2.7,6,0,10.8,4.9,10.8,10.8s-1.2,5.8-3.4,7.9c-.1.1-.3.2-.5.2Z"/>
  <path d="M10.8,79.4c-2.7,0-5.2-1-7.2-2.7-.2-.1-.3-.3-.3-.6s0-.4.3-.6c2-1.7,4.5-2.7,7.2-2.7s1.5,0,2.3.2c.4,0,.7.5.6.9,0,.4-.5.7-.9.6-2.6-.5-5.3,0-7.4,1.6,1.6,1.2,3.5,1.8,5.5,1.8s3.9-.6,5.5-1.8c0,0,0,0-.1,0-.3-.2-.4-.7-.2-1,.2-.3.7-.4,1-.2.3.2.7.5,1,.8.2.1.3.3.3.6,0,.2,0,.4-.3.6-2,1.8-4.5,2.7-7.2,2.7Z"/>
  <path d="M10.8,71.8c-2.4,0-4.3-1.9-4.3-4.3s1.9-4.3,4.3-4.3,4.3,1.9,4.3,4.3-1.9,4.3-4.3,4.3ZM10.8,64.6c-1.6,0-2.8,1.3-2.8,2.8s1.3,2.8,2.8,2.8,2.8-1.3,2.8-2.8-1.3-2.8-2.8-2.8Z"/>
  <path d="M35.6,79.4c-6,0-10.8-4.9-10.8-10.8s.4-3.3,1.1-4.7c.2-.4.6-.5,1-.3.4.2.5.6.3,1-.6,1.3-.9,2.7-.9,4.1,0,5.1,4.2,9.3,9.3,9.3s2.2-.2,3.3-.6c.4-.1.8,0,1,.4.1.4,0,.8-.4,1-1.2.5-2.5.7-3.8.7ZM42.5,76.6c-.2,0-.4,0-.5-.2-.3-.3-.3-.8,0-1.1,1.9-1.8,2.9-4.2,2.9-6.8,0-5.1-4.2-9.3-9.3-9.3s-4.4.8-6.1,2.3c-.3.3-.8.2-1.1,0-.3-.3-.2-.8,0-1.1,2-1.7,4.5-2.7,7.1-2.7,6,0,10.8,4.9,10.8,10.8s-1.2,5.8-3.4,7.9c-.1.1-.3.2-.5.2Z"/>
  <path d="M35.6,71.8c-2.4,0-4.3-1.9-4.3-4.3s1.9-4.3,4.3-4.3,4.3,1.9,4.3,4.3-1.9,4.3-4.3,4.3ZM35.6,64.6c-1.5,0-2.8,1.3-2.8,2.8s1.3,2.8,2.8,2.8,2.8-1.3,2.8-2.8-1.3-2.8-2.8-2.8Z"/>
  <path d="M60.3,79.4c-6,0-10.8-4.9-10.8-10.8s.4-3.3,1.1-4.7c.2-.4.6-.5,1-.3.4.2.5.6.3,1-.6,1.3-.9,2.6-.9,4.1,0,5.1,4.2,9.3,9.3,9.3,1.1,0,2.2-.2,3.3-.6.4-.1.8,0,1,.4.1.4,0,.8-.4,1-1.2.5-2.5.7-3.8.7ZM67.3,76.6c-.2,0-.4,0-.5-.2-.3-.3-.3-.8,0-1.1,1.9-1.8,2.9-4.2,2.9-6.8,0-5.1-4.2-9.3-9.3-9.3s-4.4.8-6.1,2.3c-.3.3-.8.2-1.1,0-.3-.3-.2-.8,0-1.1,2-1.7,4.5-2.7,7.1-2.7,6,0,10.8,4.9,10.8,10.8s-1.2,5.8-3.4,7.9c-.1.1-.3.2-.5.2Z"/>
  <path d="M60.3,71.8c-2.4,0-4.3-1.9-4.3-4.3s1.9-4.3,4.3-4.3,4.3,1.9,4.3,4.3-1.9,4.3-4.3,4.3ZM60.3,64.6c-1.5,0-2.8,1.3-2.8,2.8s1.3,2.8,2.8,2.8,2.8-1.3,2.8-2.8-1.3-2.8-2.8-2.8Z"/>
  <path d="M7.4,53.7c-.4,0-.7-.3-.7-.8v-4c0-.4.3-.8.7-.8h.4c.4,0,.8.3.8.8s-.2.6-.4.7v3.3c0,.4-.3.8-.7.8ZM63.8,49.7h-24c-.4,0-.8-.3-.8-.8s.3-.8.8-.8h24c.4,0,.8.3.8.8s-.3.8-.8.8ZM35.8,49.7H11.8c-.4,0-.8-.3-.8-.8s.3-.8.8-.8h24c.4,0,.8.3.8.8s-.3.8-.8.8Z"/>
  <path d="M63.8,53.4c-.4,0-.8-.3-.8-.8v-4.5c0-.4.3-.8.8-.8s.8.3.8.8v4.5c0,.4-.3.8-.8.8Z"/>
  <path d="M35.6,54c-.4,0-.7-.3-.7-.8v-8.6c0-.4.3-.8.7-.8s.7.3.7.8v8.6c0,.4-.3.8-.7.8Z"/>
  <path d="M35.6,79.4c-2.6,0-5.2-1-7.2-2.7-.2-.1-.3-.3-.3-.6s0-.4.3-.6c2-1.7,4.5-2.7,7.2-2.7s1.5,0,2.3.2c.4,0,.7.5.6.9,0,.4-.5.7-.9.6-2.5-.5-5.3,0-7.4,1.6,1.6,1.2,3.5,1.8,5.5,1.8s3.9-.6,5.5-1.8c0,0,0,0-.1,0-.3-.2-.4-.7-.2-1,.2-.3.7-.4,1-.2.3.2.7.5,1,.8.2.1.3.3.3.6s0,.4-.3.6c-2,1.8-4.5,2.7-7.2,2.7Z"/>
  <path d="M60.3,79.4c-2.6,0-5.2-1-7.2-2.7-.2-.1-.3-.3-.3-.6s0-.4.3-.6c2-1.7,4.5-2.7,7.2-2.7s1.5,0,2.3.2c.4,0,.7.5.6.9,0,.4-.5.7-.9.6-2.5-.5-5.3,0-7.4,1.6,1.6,1.2,3.5,1.8,5.5,1.8s3.9-.6,5.5-1.8c0,0,0,0-.1,0-.3-.2-.4-.7-.2-1,.2-.3.7-.4,1-.2.3.2.7.5,1,.8.2.1.3.3.3.6s0,.4-.3.6c-2,1.8-4.5,2.7-7.2,2.7Z"/>
</svg>
