<?xml version="1.0" encoding="UTF-8"?>
<svg id="Layer_1" data-name="Layer 1" xmlns="http://www.w3.org/2000/svg" version="1.1" viewBox="0 0 23.1 22.8">
  <defs>
    <style>
      .cls-1 {
        fill: #ce0e2d;
        stroke-width: 0px;
      }
    </style>
  </defs>
  <path class="cls-1" d="M11.7.6c-3.4,0-6.5,1.6-8.4,4.1.1,0,.3,0,.4.1l4,1.9c1.1-.9,2.5-1.5,4-1.5,3.4,0,6.1,2.8,6.1,6.1s-2.8,6.1-6.1,6.1-2.9-.6-4-1.5l-4,1.9c-.1,0-.3,0-.4.1,2,2.5,5,4.1,8.4,4.1,5.9,0,10.8-4.8,10.8-10.8S17.7.6,11.7.6"/>
  <path class="cls-1" d="M2.7,7c-1.1-.5-2,0-2,1.3v6.2c0,1.2.9,1.8,2,1.3l7-3.4c1.1-.5,1.1-1.4,0-2l-7-3.4Z"/>
</svg>